<svg id="Layer_1" data-name="Layer 1" xmlns="http://www.w3.org/2000/svg" viewBox="0 0 88.32 92.21"><defs><style>.cls-1{fill:#5275e3;}</style></defs><path class="cls-1" d="M78.87,42.32h4.61A1.54,1.54,0,0,0,85,40.78V36.17a1.54,1.54,0,1,0-3.08,0v3.07H78.87a1.54,1.54,0,0,0,0,3.08ZM42.71,36.17A6.15,6.15,0,1,0,36.57,30,6.15,6.15,0,0,0,42.71,36.17Zm0-9.22A3.07,3.07,0,1,1,39.64,30,3.07,3.07,0,0,1,42.71,27Z" transform="translate(-6.62 -3.89)"/><path class="cls-1" d="M9.14,35.66a4.66,4.66,0,0,0,2.11.51,4.59,4.59,0,0,0,4.33-3.09l12.09-.19-2.11,1.74a1.55,1.55,0,0,0-.36,2l2.88,5,.06,6.91H20.47a1.31,1.31,0,0,0-.27.06,4.61,4.61,0,1,0,0,3,1.31,1.31,0,0,0,.27.06h9.22A1.55,1.55,0,0,0,31.23,50l-.07-7.79,4.91-1.85c.33.22.67.41,1,.6l1,6.23a1.53,1.53,0,0,0,1.51,1.28h.81v7.68H35.84a1.54,1.54,0,0,0-1.54,1.54V80.1L20.92,93.48a1.55,1.55,0,0,0,0,2.18,1.57,1.57,0,0,0,1.08.45H71.18a1.54,1.54,0,0,0,1.09-2.63L62,83.18V75l3.44-5.74c5.81,3.51,9.32,5.31,10.4,5.31H85a1.53,1.53,0,0,0,1.53-1.54V64.47l2.63-2.62a1.58,1.58,0,0,0,.45-1.09V56.15h2.24A3.08,3.08,0,0,0,95,53.07a3,3,0,0,0-.27-1.24L89.9,41.07a11.89,11.89,0,0,0,2.8-7.71,26.68,26.68,0,0,0-14.83-24L73.41,7.13a1.53,1.53,0,0,0-1.93.48l-.65.89H60.43V5.43a1.54,1.54,0,0,0-1.54-1.54H43.52A1.54,1.54,0,0,0,42,5.43v6.15H39.64a1.54,1.54,0,0,0-1.52,1.28l-1,6.23c-.34.18-.68.38-1,.59l-5.92-2.21a1.53,1.53,0,0,0-1.87.67l-1.55,2.68-.11,0H17.39V15.91a4.61,4.61,0,1,0-3.07,0v6.43a1.54,1.54,0,0,0,1.54,1.53h9.2a1.5,1.5,0,0,0,.5,1.54l4.87,4c0,.12,0,.23,0,.35L15.57,30a4.61,4.61,0,1,0-6.43,5.67Zm6.72,15.88A1.54,1.54,0,1,1,17.39,50a1.54,1.54,0,0,1-1.53,1.54Zm0-41.5a1.54,1.54,0,1,1-1.54,1.54A1.53,1.53,0,0,1,15.86,10ZM43.52,48.46h2.27a1.53,1.53,0,0,0,1.51-1.28l1-6.23c.35-.18.69-.38,1-.59l5.92,2.21a1.53,1.53,0,0,0,1.87-.67l.65-1.12H65a1.3,1.3,0,0,0,.33-.07l2.74,3.65v2.57H62V50h3.55l-4.12,1.65a1.52,1.52,0,0,0-1,1.42v3.08H43.52Zm16.7-25-.65-1.12H63.5v6.14H56.14l3.73-3.07a1.55,1.55,0,0,0,.35-1.95Zm3.28,8.1V37.7H59.57l.65-1.12a1.55,1.55,0,0,0-.35-1.95l-3.73-3.07Zm-10.31,38,5.7,5.7v.9H49.67V59.22h3.07v9.22A1.54,1.54,0,0,0,53.19,69.53ZM43.45,90h.07v-.08l5.77-6.59a1.57,1.57,0,0,0,.38-1V79.2h3.07V93h-12ZM25.71,93,36.92,81.82a1.5,1.5,0,0,0,.45-1.08V59.22h9.22V81.7l-3.07,3.51V77.66H40.45V88.73L36.68,93Zm41.76,0H55.82V79.2h3.07v4.61a1.54,1.54,0,0,0,.45,1.09ZM60.12,72.11l-4.3-4.3V59.22h4.61v6.15a1.53,1.53,0,0,0,.72,1.3l1.63,1ZM73.21,10.47l3.28,1.64A23.63,23.63,0,0,1,89.63,33.36,8.9,8.9,0,0,1,87,39.69a1.53,1.53,0,0,0-.31,1.71l5.18,11.67H88.09a1.54,1.54,0,0,0-1.54,1.54v4.61h-.26A8.88,8.88,0,0,1,80,56.6a1.54,1.54,0,0,0-2.18,2.17,11.92,11.92,0,0,0,6.74,3.38l-.59.6a1.5,1.5,0,0,0-.45,1.08v7.69H75.94a82,82,0,0,1-10.26-5.68h0L63.5,64.52V54.11l6.72-2.68a1.53,1.53,0,0,0,1-1.43V43.85a1.53,1.53,0,0,0-.3-.92l-4.31-5.74V19.75ZM45.06,7H57.35V10a1.54,1.54,0,0,0,1.54,1.54h9.75l-4.85,6.79a1.5,1.5,0,0,0-.29.89H57.8l-.65-1.12a1.53,1.53,0,0,0-1.87-.67l-5.92,2.22a11.65,11.65,0,0,0-1-.6L47.3,12.86a1.53,1.53,0,0,0-1.51-1.28h-.73ZM28.52,23.87l1.77-3.07,5.46,2a1.51,1.51,0,0,0,1.45-.2,8.78,8.78,0,0,1,1.87-1.09A1.52,1.52,0,0,0,40,20.39l1-5.74h3.54l1,5.74a1.56,1.56,0,0,0,.91,1.16,9.22,9.22,0,0,1,1.87,1.09,1.56,1.56,0,0,0,1.46.21l5.46-2.05,1.77,3.07-4.5,3.7a1.56,1.56,0,0,0-.55,1.37,7.81,7.81,0,0,1,0,2.16,1.55,1.55,0,0,0,.55,1.37l4.5,3.7-1.77,3.07-5.46-2a1.53,1.53,0,0,0-1.46.2,9.27,9.27,0,0,1-1.87,1.1,1.53,1.53,0,0,0-.91,1.16l-1,5.73H40.94L40,39.65a1.56,1.56,0,0,0-.91-1.16,8.71,8.71,0,0,1-1.87-1.09,1.56,1.56,0,0,0-1.46-.21l-5.46,2.05-1.77-3.07L33,32.47l.08-.09.08-.08a1.52,1.52,0,0,0,.28-.43v0a1.56,1.56,0,0,0,.1-.53s0,0,0-.06a.43.43,0,0,0,0-.05V31.1a8.67,8.67,0,0,1,0-2.16A1.55,1.55,0,0,0,33,27.57Zm-18.64,7a1.49,1.49,0,0,1,.9-.77,1.53,1.53,0,1,1-1,1.92h0A1.53,1.53,0,0,1,9.88,30.86Z" transform="translate(-6.62 -3.89)"/><path class="cls-1" d="M40.45,65.37h3.07v3.07H40.45Zm0,6.15h3.07v3.07H40.45Zm9.22-24.59h3.07V50H49.67Zm6.15,0h3.07V50H55.82ZM69.65,19.26h3.07v6.15H69.65Zm0,9.22h3.07v3.08H69.65Zm0,6.15h3.07V37.7H69.65Z" transform="translate(-6.62 -3.89)"/></svg>