<svg id="Layer_1" data-name="Layer 1" xmlns="http://www.w3.org/2000/svg" viewBox="0 0 92.09 92.09"><defs><style>.cls-1{fill:#5275e3;}</style></defs><path class="cls-1" d="M68.14,32.6a4.58,4.58,0,0,0-4.33-3.09H62.28V26.44h1.53a4.62,4.62,0,0,0,4.61-4.6V9.56A4.62,4.62,0,0,0,63.81,5H8.56A4.61,4.61,0,0,0,4,9.56V21.84a4.61,4.61,0,0,0,4.6,4.6H10.1v3.07H8.56A4.62,4.62,0,0,0,4,34.12V46.4A4.61,4.61,0,0,0,8.56,51H10.1v3.07H8.56A4.61,4.61,0,0,0,4,58.67V71a4.62,4.62,0,0,0,4.6,4.61H37.72V87.83c0,6,14.67,9.21,29.16,9.21S96,93.88,96,87.83v-46C96,35.91,82.21,32.78,68.14,32.6ZM8.56,23.37A1.52,1.52,0,0,1,7,21.84V9.56A1.52,1.52,0,0,1,8.56,8H63.81a1.53,1.53,0,0,1,1.54,1.53V21.84a1.53,1.53,0,0,1-1.54,1.53Zm50.65,3.07v3.07H53.07V26.44Zm-9.21,0v3.07H22.37V26.44Zm-30.7,0v3.07H13.17V26.44ZM37.72,72.49H8.56A1.53,1.53,0,0,1,7,71V58.67a1.53,1.53,0,0,1,1.53-1.53H37.72ZM13.17,54.07V51H19.3v3.07Zm24.55,0H22.37V51H37.72Zm0-12.28v6.14H8.56A1.53,1.53,0,0,1,7,46.4V34.12a1.53,1.53,0,0,1,1.53-1.54H63.81l.22.05C50.52,33,37.72,36.14,37.72,41.79ZM93,87.83C93,89.92,83.76,94,66.88,94s-26.09-4-26.09-6.14v-11C45.84,80,56.38,81.7,66.88,81.7S87.92,80,93,76.81Zm0-15.34c0,2.08-9.21,6.14-26.09,6.14s-26.09-4.06-26.09-6.14v-11c5.05,3.2,15.59,4.88,26.09,4.88s21-1.68,26.09-4.88Zm0-15.35c0,2.09-9.21,6.14-26.09,6.14s-26.09-4.05-26.09-6.14v-11C45.84,49.33,56.38,51,66.88,51s21-1.67,26.09-4.88ZM66.88,47.93c-16.88,0-26.09-4-26.09-6.14S50,35.65,66.88,35.65,93,39.7,93,41.79,83.76,47.93,66.88,47.93Z" transform="translate(-3.96 -4.96)"/><path class="cls-1" d="M65.35,55.6h3.07v3.07H65.35Zm0,16.89h3.07v3.07H65.35Zm0,13.81h3.07v3.07H65.35ZM17.77,35.65H11.63a1.53,1.53,0,0,0-1.53,1.54v6.14a1.53,1.53,0,0,0,1.53,1.53h6.14a1.53,1.53,0,0,0,1.53-1.53V37.19A1.53,1.53,0,0,0,17.77,35.65Zm-1.53,6.14H13.17V38.72h3.07Zm13.81-6.14H23.91a1.54,1.54,0,0,0-1.54,1.54v6.14a1.54,1.54,0,0,0,1.54,1.53h6.14a1.53,1.53,0,0,0,1.53-1.53V37.19A1.53,1.53,0,0,0,30.05,35.65Zm-1.54,6.14H25.44V38.72h3.07ZM17.77,11.1H11.63a1.52,1.52,0,0,0-1.53,1.53v6.14a1.52,1.52,0,0,0,1.53,1.53h6.14a1.52,1.52,0,0,0,1.53-1.53V12.63A1.52,1.52,0,0,0,17.77,11.1Zm-1.53,6.14H13.17V14.17h3.07ZM30.05,11.1H23.91a1.53,1.53,0,0,0-1.54,1.53v6.14a1.53,1.53,0,0,0,1.54,1.53h6.14a1.52,1.52,0,0,0,1.53-1.53V12.63A1.52,1.52,0,0,0,30.05,11.1Zm-1.54,6.14H25.44V14.17h3.07Zm6.14-6.14H56.14v3.07H34.65Zm24.56,0h3.07v3.07H59.21ZM34.65,17.24H56.14V20.3H34.65Zm24.56,0h3.07V20.3H59.21Zm-41.44,43H11.63a1.53,1.53,0,0,0-1.53,1.53v6.14a1.53,1.53,0,0,0,1.53,1.54h6.14a1.53,1.53,0,0,0,1.53-1.54V61.74A1.53,1.53,0,0,0,17.77,60.21Zm-1.53,6.14H13.17V63.28h3.07Zm13.81-6.14H23.91a1.54,1.54,0,0,0-1.54,1.53v6.14a1.54,1.54,0,0,0,1.54,1.54h6.14a1.53,1.53,0,0,0,1.53-1.54V61.74A1.53,1.53,0,0,0,30.05,60.21Zm-1.54,6.14H25.44V63.28h3.07Z" transform="translate(-3.96 -4.96)"/></svg>