<svg id="Layer_1" data-name="Layer 1" xmlns="http://www.w3.org/2000/svg" viewBox="0 0 88.58 88.59"><defs><style>.cls-1{fill:#5275e3;}</style></defs><path class="cls-1" d="M15.28,65.82l-3.35,1.09L9.07,58.16l-2.72.89,2.86,8.73a2.8,2.8,0,0,0,1.42,1.67,2.84,2.84,0,0,0,2.18.17l3.36-1.09a38.39,38.39,0,0,0,5.77,8l-2.07,2.86a2.81,2.81,0,0,0-.53,2.11,2.93,2.93,0,0,0,1.14,1.89l6.93,5a2.85,2.85,0,0,0,2.15.51,2.79,2.79,0,0,0,1.85-1.14l2.09-2.84a37.55,37.55,0,0,0,9.34,3v3.53a2.87,2.87,0,0,0,2.86,2.86h8.57a2.87,2.87,0,0,0,2.86-2.86V88a37.6,37.6,0,0,0,9.36-3.06l2.05,2.84a2.83,2.83,0,0,0,1.86,1.16,2.75,2.75,0,0,0,2.14-.51l6.93-5a2.86,2.86,0,0,0,.63-4L78,76.48a37.32,37.32,0,0,0,5.76-8l3.36,1.1a2.92,2.92,0,0,0,2.19-.17,2.84,2.84,0,0,0,1.41-1.67L93.62,59l-2.72-.88L88,66.91l-3.35-1.1a2.89,2.89,0,0,0-3.4,1.35A35.74,35.74,0,0,1,76,74.51a2.82,2.82,0,0,0-.24,3.64L77.79,81l-6.93,5-2.09-2.87a2.87,2.87,0,0,0-3.54-.88,35.5,35.5,0,0,1-8.62,2.81,2.88,2.88,0,0,0-2.35,2.8v3.53H45.69V87.89a2.85,2.85,0,0,0-2.36-2.8,35.06,35.06,0,0,1-8.65-2.83,2.86,2.86,0,0,0-3.52.9L29.08,86l-6.92-5,2.05-2.84A2.83,2.83,0,0,0,24,74.49a35.18,35.18,0,0,1-5.34-7.37,2.88,2.88,0,0,0-3.39-1.33Z" transform="translate(-5.71 -5.74)"/><path class="cls-1" d="M50,80A29.84,29.84,0,0,0,78.62,59l-2.73-.85a27.16,27.16,0,0,1-51.81,0L21.36,59A29.82,29.82,0,0,0,50,80ZM5.71,52.89H94.29v2.86H5.71ZM88.57,50V30a1.44,1.44,0,0,0-1.43-1.43H75.72V7.17a1.44,1.44,0,0,0-1.43-1.43H57.14a1.44,1.44,0,0,0-1.43,1.43V21.46H44.29V15.75a1.41,1.41,0,0,0-.52-1.1L35.2,7.5a1.43,1.43,0,0,0-1.83,0L24.8,14.65a1.41,1.41,0,0,0-.52,1.1V27.17H12.86a1.44,1.44,0,0,0-1.43,1.43V50h2.85V30h10V50h2.86V16.42l7.14-6,7.15,6V50h2.86V24.32H55.71V50h2.86V8.6H72.86V50h2.86V31.46h10V50Z" transform="translate(-5.71 -5.74)"/><path class="cls-1" d="M61.43,12.89h2.86v2.86H61.43Zm5.71,0H70v2.86H67.14ZM61.43,20h2.86v2.86H61.43Zm5.71,0H70v2.86H67.14Zm-5.71,7.14h2.86V30H61.43Zm5.71,0H70V30H67.14ZM30,18.6h8.57v2.86H30Zm0,7.15h8.57V28.6H30Z" transform="translate(-5.71 -5.74)"/></svg>