<svg id="Layer_1" data-name="Layer 1" xmlns="http://www.w3.org/2000/svg" viewBox="0 0 94.83 94.13"><defs><style>.cls-1{fill:#5275e3;}</style></defs><path class="cls-1" d="M29.7,21.54C39,17.34,45.92,11.91,49.63,5.85a.25.25,0,0,1,.24-.14.26.26,0,0,1,.24.14C52.85,10.33,57.26,14.41,63.2,18A79.53,79.53,0,0,0,84,26.41a.45.45,0,0,1,.34.4c.11,1.56.16,3.2.16,4.87,0,6.2-1.63,13.16-4.84,20.68a1.37,1.37,0,0,0,.72,1.81,1.44,1.44,0,0,0,1.82-.73c3.37-7.86,5.07-15.18,5.07-21.76,0-1.74-.06-3.44-.17-5.06a3.2,3.2,0,0,0-2.4-2.89C69.25,19.68,57.51,12.63,52.47,4.4a3,3,0,0,0-5.2,0C43.84,10,37.38,15,28.56,19a1.38,1.38,0,1,0,1.14,2.52Z" transform="translate(-2.58 -2.94)"/><path class="cls-1" d="M64,59.38V48.2a4.81,4.81,0,0,0-4.39-4.79V41.29a9.74,9.74,0,1,0-19.47,0v2.12a4.82,4.82,0,0,0-4.39,4.79V59.38a4.82,4.82,0,0,0,4.81,4.8H59.19a4.81,4.81,0,0,0,4.8-4.8ZM49.87,34.33a7,7,0,0,1,7,7v2.1H42.9v-2.1A7,7,0,0,1,49.87,34.33ZM38.51,59.38V48.2a2,2,0,0,1,2-2H59.19a2,2,0,0,1,2,2V59.38a2,2,0,0,1-2,2H40.55A2,2,0,0,1,38.51,59.38Z" transform="translate(-2.58 -2.94)"/><path class="cls-1" d="M49.76,50.28a2.85,2.85,0,0,0-1,5.44v1.79a.6.6,0,0,0,.61.6h1.12a.62.62,0,0,0,.61-.6h0V55.72a2.85,2.85,0,0,0-1.36-5.44Z" transform="translate(-2.58 -2.94)"/><path class="cls-1" d="M93.38,70.15a4.06,4.06,0,0,0-3.64,2.29H71.6c.81-1.2,1.6-2.42,2.38-3.64h9.45a2.48,2.48,0,0,0,1.76-.73L88,65.24h1.66a4,4,0,1,0-.15-2.77H87.9a2.47,2.47,0,0,0-1.76.73L83.31,66H75.69c1.26-2.12,2.48-4.3,3.63-6.51a1.39,1.39,0,0,0-2.47-1.27C68.17,75.11,54.46,89.91,50.47,94a.82.82,0,0,1-1.2,0A181,181,0,0,1,29.62,69.65c-9.53-14.39-14.36-27.16-14.36-38,0-1.67.05-3.31.16-4.87a.45.45,0,0,1,.34-.4c2.58-.68,5.1-1.45,7.49-2.29a1.38,1.38,0,0,0-.92-2.61c-2.32.81-4.77,1.56-7.28,2.22a3.22,3.22,0,0,0-2.4,2.89c-.11,1.62-.16,3.32-.16,5.06,0,10,3.89,21.56,11.56,34.35H16.42L13.6,63.2a2.47,2.47,0,0,0-1.76-.73H10.48a4,4,0,1,0-.15,2.77h1.39l2.83,2.83a2.51,2.51,0,0,0,1.76.73h9.45l1.55,2.38.84,1.26H10.26a4,4,0,1,0,.27,2.77H30.07c.89,1.25,1.79,2.48,2.71,3.71H21.86a4,4,0,1,0,0,2.77h13c.9,1.15,1.82,2.3,2.75,3.43h-6a2.47,2.47,0,0,0-1.76.74l-2.83,2.82H25.45a4,4,0,1,0,0,2.77H27.2A2.47,2.47,0,0,0,29,90.72l2.82-2.82H40c3.14,3.68,5.76,6.48,7.3,8.07a3.6,3.6,0,0,0,5.18,0c1.73-1.79,4.31-4.56,7.32-8.08H68l2.83,2.82a2.47,2.47,0,0,0,1.76.73h1.75a4,4,0,1,0,0-2.77H72.65l-2.82-2.83a2.52,2.52,0,0,0-1.76-.73h-6c.94-1.13,1.85-2.28,2.76-3.43H77.94a4,4,0,1,0,0-2.77H67c.92-1.23,1.82-2.46,2.71-3.71H89.47a4,4,0,1,0,3.91-5.06Zm0-7.76a1.27,1.27,0,1,1-1.27,1.26A1.26,1.26,0,0,1,93.38,62.39ZM6.62,64.92a1.27,1.27,0,1,1,1.27-1.27A1.27,1.27,0,0,1,6.62,64.92Zm0,10.54a1.27,1.27,0,1,1,1.27-1.27A1.27,1.27,0,0,1,6.62,75.46Zm11.44,6.11a1.27,1.27,0,1,1,1.27-1.27A1.27,1.27,0,0,1,18.06,81.57Zm3.59,9.76a1.27,1.27,0,1,1,1.27-1.27A1.27,1.27,0,0,1,21.65,91.33ZM78.08,88.8a1.27,1.27,0,1,1-1.26,1.26A1.26,1.26,0,0,1,78.08,88.8ZM81.73,79a1.27,1.27,0,0,1,0,2.53,1.27,1.27,0,1,1,0-2.53Zm11.65-3.58a1.27,1.27,0,1,1,1.27-1.27A1.27,1.27,0,0,1,93.38,75.46Z" transform="translate(-2.58 -2.94)"/><circle class="cls-1" cx="47.19" cy="80.94" r="2.65"/><circle class="cls-1" cx="49.75" cy="16.5" r="2.65" transform="translate(-4.59 5.27) rotate(-9.25)"/><path class="cls-1" d="M22.23,29.59a2.65,2.65,0,1,0,2.65,2.65A2.64,2.64,0,0,0,22.23,29.59Zm55.28,0a2.65,2.65,0,1,0,2.65,2.65A2.65,2.65,0,0,0,77.51,29.59Z" transform="translate(-2.58 -2.94)"/></svg>