<svg id="Layer_1" data-name="Layer 1" xmlns="http://www.w3.org/2000/svg" viewBox="0 0 96.53 74.73"><defs><style>.cls-1{fill:#5275e3;}</style></defs><path class="cls-1" d="M76.47,32.88a21.83,21.83,0,0,0-4.7.51,21.79,21.79,0,0,0-43.54,0,21.8,21.8,0,1,0-4.7,43.08h10.9V73.36H23.53A18.69,18.69,0,1,1,23.46,36a18.91,18.91,0,0,1,5.87.93,1.55,1.55,0,0,0,2-1,1.77,1.77,0,0,0,.08-.56l0-.37c0-.19,0-.38,0-.57a18.68,18.68,0,0,1,37.36,0c0,.19,0,.38,0,.56l0,.37A1.56,1.56,0,0,0,70.11,37a1.51,1.51,0,0,0,.56-.07,18.68,18.68,0,1,1,5.8,36.44H65.57v3.11h10.9a21.8,21.8,0,0,0,0-43.59Z" transform="translate(-1.74 -12.64)"/><path class="cls-1" d="M37.63,77.73a2.51,2.51,0,0,0,.29,2l1.75,2.91a2.7,2.7,0,0,0,3.58.94l.41-.23a10.19,10.19,0,0,0,1.93,1.09v.35a2.63,2.63,0,0,0,2.66,2.6h3.5a2.63,2.63,0,0,0,2.65-2.6v-.35a11.16,11.16,0,0,0,1.94-1.08l.4.22a2.69,2.69,0,0,0,3.58-.93l1.76-2.91a2.56,2.56,0,0,0,.28-2,2.64,2.64,0,0,0-1.26-1.61l-.34-.18a9.93,9.93,0,0,0,0-2l.34-.18a2.64,2.64,0,0,0,1.26-1.61,2.57,2.57,0,0,0-.28-2l-1.76-2.91a2.69,2.69,0,0,0-3.58-.93l-.4.22a11.21,11.21,0,0,0-1.94-1.09v-.34a2.63,2.63,0,0,0-2.65-2.61h-3.5a2.62,2.62,0,0,0-2.65,2.6v.35a10.54,10.54,0,0,0-1.94,1.08l-.4-.23a2.7,2.7,0,0,0-3.58.94l-1.76,2.91a2.56,2.56,0,0,0-.28,2,2.59,2.59,0,0,0,1.26,1.6l.34.19a9.93,9.93,0,0,0,0,2l-.34.18a2.65,2.65,0,0,0-1.27,1.62Zm4.66-2.82a7.91,7.91,0,0,1,.07-1A2.6,2.6,0,0,0,41,71.33l-.17-.09,1.25-2,.27.16a2.75,2.75,0,0,0,2.93-.21,7.33,7.33,0,0,1,1.71-1,2.62,2.62,0,0,0,1.69-2.42v-.2h2.59v.19A2.63,2.63,0,0,0,53,68.19a7.54,7.54,0,0,1,1.71,1,2.71,2.71,0,0,0,2.92.2l.28-.15,1.24,2-.16.09a2.59,2.59,0,0,0-1.33,2.61,7.08,7.08,0,0,1,0,2A2.58,2.58,0,0,0,59,78.49l.17.09-1.24,2.06-.28-.16a2.73,2.73,0,0,0-2.92.21,7.57,7.57,0,0,1-1.72.94,2.65,2.65,0,0,0-1.69,2.43v.2H48.71v-.2A2.62,2.62,0,0,0,47,81.64a7.6,7.6,0,0,1-1.72-1,2.73,2.73,0,0,0-2.92-.21l-.27.16-1.25-2.06.17-.09a2.58,2.58,0,0,0,1.32-2.6A7.93,7.93,0,0,1,42.29,74.91Z" transform="translate(-1.74 -12.64)"/><path class="cls-1" d="M50,80.36a5.45,5.45,0,1,0-5.45-5.45A5.45,5.45,0,0,0,50,80.36Zm0-7.78a2.34,2.34,0,1,1-2.34,2.33A2.33,2.33,0,0,1,50,72.58ZM48.44,46.89h3.12V50H48.44Zm0-6.23h3.12v3.12H48.44Zm0-18.68h3.12v3.11H48.44Zm0,6.23h3.12v3.11H48.44Zm0,6.22h3.12v3.12H48.44Zm0,18.69h3.12v3.11H48.44ZM25.09,42.22a6.23,6.23,0,0,0-6.23,6.23v3.11H17.3a1.55,1.55,0,0,0-1.55,1.56V64a1.54,1.54,0,0,0,1.55,1.55H32.87A1.55,1.55,0,0,0,34.43,64V53.12a1.56,1.56,0,0,0-1.56-1.56H31.32V48.45A6.23,6.23,0,0,0,25.09,42.22ZM22,48.45a3.11,3.11,0,1,1,6.22,0v3.11H22Zm9.34,14H18.86V54.67H31.32ZM67.13,47.67A6.23,6.23,0,1,0,72,57.76l4.53,2c0,.12,0,.23,0,.35a4.71,4.71,0,1,0,1.29-3.2l-4.51-2a5.06,5.06,0,0,0,0-2.05l4.51-2a4.66,4.66,0,1,0-1.29-3.2c0,.12,0,.23,0,.35L72,50A6.18,6.18,0,0,0,67.13,47.67Zm0,9.34a3.12,3.12,0,1,1,3.11-3.11A3.12,3.12,0,0,1,67.13,57Zm14,1.56a1.56,1.56,0,1,1-1.56,1.55A1.55,1.55,0,0,1,81.14,58.57Zm0-12.46a1.56,1.56,0,1,1-1.56,1.56A1.56,1.56,0,0,1,81.14,46.11Z" transform="translate(-1.74 -12.64)"/></svg>