<?xml version="1.0" encoding="utf-8"?>
<!-- Generator: Adobe Illustrator 26.0.1, SVG Export Plug-In . SVG Version: 6.00 Build 0)  -->
<svg version="1.1" id="Layer_1" xmlns:svgjs="http://svgjs.com/svgjs"
	 xmlns="http://www.w3.org/2000/svg" xmlns:xlink="http://www.w3.org/1999/xlink" x="0px" y="0px" viewBox="0 0 100 100"
	 style="enable-background:new 0 0 100 100;" xml:space="preserve">
<style type="text/css">
	.st0{fill:#5275E3;}
</style>
<g>
	<path class="st0" d="M48.1,68.7c5.2,0,9.9-3.3,11.6-8.2c0.3-0.7-0.1-1.5-0.8-1.8c-0.7-0.3-1.5,0.1-1.8,0.8c-1.4,3.8-5,6.4-9,6.4
		c-5.3,0-9.6-4.3-9.6-9.6s4.3-9.6,9.6-9.6c4.4,0,8.2,3,9.3,7.2c0.2,0.7,0.9,1.2,1.7,1c0.7-0.2,1.2-0.9,1-1.7
		c-1.4-5.5-6.3-9.3-12-9.3c-6.8,0-12.4,5.5-12.4,12.4S41.3,68.7,48.1,68.7L48.1,68.7z"/>
	<path class="st0" d="M48.1,49.4c-3.8,0-6.9,3.1-6.9,6.9s3.1,6.9,6.9,6.9s6.9-3.1,6.9-6.9S51.9,49.4,48.1,49.4L48.1,49.4z
		 M48.1,60.6c-2.3,0-4.2-1.9-4.2-4.2c0-2.3,1.9-4.2,4.2-4.2s4.2,1.9,4.2,4.2C52.3,58.7,50.4,60.6,48.1,60.6z"/>
	<path class="st0" d="M86.3,55.1L82.2,55l0,0c-1.3,0-2.3,1-2.3,2.3c-0.2,8.3-3.7,16.1-9.7,21.9c-6,5.8-13.8,8.9-22,8.9
		c-0.1,0-0.2,0-0.2,0c-17-0.1-30.9-13.8-31.4-30.7c0.4,0.1,0.8,0.2,1.2,0.2h0l0.8,3.7c0.4,1.9,2.1,3.2,4,3.2h3.5
		c1.7,0,3.2-1.1,3.8-2.6h0.5c0.3,1.1,0.8,2.2,1.3,3.2l-3.7,3.7c-0.9,0.9-1,2.3-0.2,3.3c1.4,1.8,3,3.4,4.8,4.8c1,0.8,2.4,0.7,3.3-0.2
		l3.7-3.7c1,0.5,2.1,1,3.2,1.3v5.2c0,1.3,0.9,2.3,2.2,2.5c1.1,0.1,2.2,0.2,3.4,0.2c1.1,0,2.3-0.1,3.4-0.2c1.2-0.2,2.2-1.2,2.2-2.5
		v-5.2c1.1-0.3,2.2-0.8,3.2-1.3l3.7,3.7c0.9,0.9,2.3,1,3.3,0.2c1.8-1.4,3.4-3,4.8-4.8c0.8-1,0.7-2.4-0.2-3.3l-3.7-3.7
		c0.5-1,1-2.1,1.3-3.2h5.2c1.3,0,2.3-0.9,2.5-2.2c0.1-1.1,0.2-2.2,0.2-3.4s-0.1-2.3-0.2-3.4c-0.2-1.2-1.2-2.2-2.5-2.2H66
		c-0.3-1.1-0.8-2.2-1.3-3.2l3.7-3.7c0.9-0.9,1-2.3,0.2-3.3c-1.4-1.8-3-3.4-4.8-4.8c-1-0.8-2.4-0.7-3.3,0.2l-3.7,3.7
		c-1-0.5-2.1-1-3.2-1.3v-5.2c0-1.3-0.9-2.3-2.2-2.5c-2.2-0.3-4.5-0.3-6.8,0c-1.2,0.2-2.2,1.2-2.2,2.5v5.2c-1.1,0.3-2.2,0.8-3.2,1.3
		L36.5,37c3.6-3.1,6-7.3,6.6-11.9c1.6-0.3,3.3-0.4,4.9-0.4h26.8v1.8c0,0.7,0.4,1.4,1,1.8c0.6,0.3,1.4,0.3,2-0.1l9.3-6.2
		c0.6-0.4,0.9-1,0.9-1.7s-0.3-1.3-0.9-1.7L78,12.4c-0.6-0.4-1.4-0.4-2-0.1c-0.6,0.3-1.1,1-1,1.8v1.8H48.4c-2,0-4,0.2-6,0.4
		c-0.9-2.9-2.6-5.5-4.8-7.7C33.9,4.9,29,3,23.8,3c-5,0.1-9.7,2.1-13.2,5.6C7,12.1,5,16.8,4.8,21.8c-0.2,6.1,2.6,12,7.4,15.7
		c-3.1,5.8-4.8,12.2-4.8,18.9c0,10.8,4.2,21,11.9,28.7C27.1,92.7,37.2,97,48.1,97c9.3,0,18.4-3.3,25.6-9.2c0.6-0.5,0.7-1.3,0.2-1.9
		s-1.3-0.7-1.9-0.2c-6.7,5.5-15.2,8.5-23.9,8.5c-10.1,0-19.6-3.9-26.7-11.1C14.2,76,10.2,66.5,10.2,56.4c0-5.8,1.4-11.4,3.9-16.5
		c0.1,0.3,0.2,0.5,0.3,0.8l0.7,2.1C13.8,43.5,13,45,13,46.6c0,1.2,0.5,2.3,1.3,3.2c0,0,0,0.1,0,0.1C13.5,50.7,13,51.8,13,53
		c0,0.9,0.2,1.7,0.6,2.3c0,0.4,0,0.9,0,1.3c0.1,9.1,3.7,17.6,10.1,24.1c6.5,6.5,15,10,24.1,10.1c0.1,0,0.2,0,0.3,0
		c9,0,17.5-3.4,23.9-9.7c6.4-6.2,10.1-14.5,10.5-23.4l3.4,0.1c-0.3,8.7-3.7,17-9.4,23.5c-0.5,0.6-0.4,1.4,0.1,1.9
		c0.6,0.5,1.4,0.4,1.9-0.1l0,0c6.3-7.1,9.9-16.2,10.1-25.7c0-0.6-0.2-1.2-0.7-1.7C87.6,55.4,87,55.1,86.3,55.1L86.3,55.1z
		 M15.7,46.6c0-1,0.8-1.8,1.8-1.8h13.1c1,0,1.8,0.8,1.8,1.8c0,1-0.8,1.8-1.8,1.8H17.6C16.6,48.4,15.7,47.6,15.7,46.6z M24.1,25.4
		c-1.7,0-3.1-1.4-3.1-3.1s1.4-3.1,3.1-3.1c1.7,0,3.1,1.4,3.1,3.1S25.8,25.4,24.1,25.4z M32.4,53c0,1-0.8,1.8-1.8,1.8H17.6
		c-1,0-1.8-0.8-1.8-1.8s0.8-1.8,1.8-1.8h13.1C31.6,51.2,32.4,52,32.4,53z M25.9,61.8h-3.5c-0.6,0-1.2-0.4-1.3-1.1l-0.7-3.2h7.4
		l-0.7,3.2C27.1,61.3,26.5,61.8,25.9,61.8z M40.5,42.3c0.9-0.5,1.9-0.9,3-1.2c1.1-0.3,1.8-1.3,1.8-2.4v-5.2c1.9-0.2,3.8-0.2,5.6,0
		v5.2c0,1.1,0.7,2.1,1.8,2.4c1,0.3,2,0.7,3,1.2c1,0.5,2.2,0.4,3-0.4l3.7-3.7c1.5,1.2,2.8,2.5,4,4l-3.7,3.7c-0.8,0.8-1,2-0.4,3
		c0.5,0.9,0.9,1.9,1.2,3c0.3,1.1,1.3,1.8,2.4,1.8H71c0.1,0.9,0.2,1.9,0.2,2.8s-0.1,1.9-0.2,2.8h-5.2c-1.1,0-2.1,0.7-2.4,1.8
		c-0.3,1-0.7,2-1.2,3c-0.5,1-0.4,2.2,0.4,3l3.7,3.7c-1.2,1.5-2.5,2.8-4,4l-3.7-3.7c-0.8-0.8-2-1-3-0.4c-0.9,0.5-1.9,0.9-3,1.2
		c-1.1,0.3-1.8,1.3-1.8,2.4v5.2c-1.9,0.2-3.8,0.2-5.6,0v-5.2c0-1.1-0.7-2.1-1.8-2.4c-1-0.3-2-0.7-3-1.2c-1-0.5-2.2-0.4-3,0.4
		l-3.7,3.7c-1.5-1.2-2.8-2.5-4-4l3.7-3.7c0.8-0.8,1-2,0.4-3c-0.5-0.9-0.9-1.9-1.2-3c-0.3-1.1-1.3-1.8-2.4-1.8h0l0.3-1.6
		c2.5,0,4.6-2.1,4.6-4.6c0-1.2-0.5-2.4-1.3-3.2c0.8-0.8,1.3-2,1.3-3.2c0-1.6-0.9-3.1-2.1-3.9l0.7-2.2c0.2-0.6,0.5-1.1,0.8-1.7
		l2.9,2.9C38.3,42.6,39.5,42.8,40.5,42.3L40.5,42.3z M48.4,18.6h27.4c1,0,1.8-0.8,1.8-1.8v-1.3l7.2,4.8L77.6,25v-1.3
		c0-1-0.8-1.8-1.8-1.8H48.1c-1.6,0-3.2,0.1-4.7,0.3c0-1.1-0.1-2.2-0.3-3.3C44.8,18.7,46.6,18.6,48.4,18.6L48.4,18.6z M7.6,21.8
		c0.1-4.2,1.9-8.2,4.9-11.3c3.1-3,7.1-4.7,11.3-4.8c4.5-0.1,8.7,1.6,11.8,4.7c3.2,3.1,4.9,7.3,4.9,11.8c0,5.1-2.3,9.8-6.3,13
		c-1.5,1.2-2.6,2.7-3.1,4.5L30.4,42h-4.9v-8.1c4.6-0.5,8.4-3.7,9.8-8.1c0.2-0.7-0.2-1.5-0.9-1.7c-0.7-0.2-1.5,0.2-1.7,0.9
		c0,0,0,0,0,0c-1,3.3-3.8,5.7-7.2,6.2V28c2.6-0.6,4.5-3,4.5-5.7c0-3.2-2.6-5.9-5.9-5.9s-5.9,2.6-5.9,5.9c0,2.8,1.9,5.1,4.5,5.7v3.2
		c-4.3-0.7-7.6-4.4-7.6-8.9c0-5,4-9,9-9c3.9,0,7.3,2.5,8.5,6.1c0.2,0.7,1,1.1,1.7,0.9c0.7-0.2,1.1-1,0.9-1.7c0,0,0,0,0,0
		c-1.6-4.8-6.1-8-11.1-8c-6.5,0-11.7,5.3-11.7,11.7c0,6,4.5,11,10.4,11.7V42h-4.9l-0.7-2.2c-0.6-1.8-1.6-3.3-3.1-4.4
		C9.9,32.1,7.5,27.1,7.6,21.8z"/>
	<path class="st0" d="M94.8,39.9l-4.4-7.6c-0.4-0.7-1.2-1.2-2.1-1.2h-8.8c-0.9,0-1.6,0.5-2.1,1.2l-4.4,7.6c-0.4,0.7-0.4,1.7,0,2.4
		l4.4,7.6c0.4,0.7,1.2,1.2,2.1,1.2h8.8c0.9,0,1.6-0.5,2.1-1.2l4.4-7.6C95.3,41.5,95.3,40.6,94.8,39.9L94.8,39.9z M88.2,48.4h-8.4
		l-4.2-7.3l4.2-7.3h8.4l4.2,7.3L88.2,48.4z"/>
	<path class="st0" d="M84,35.9c-2.9,0-5.2,2.3-5.2,5.2s2.3,5.2,5.2,5.2s5.2-2.3,5.2-5.2S86.8,35.9,84,35.9z M84,43.6
		c-1.4,0-2.5-1.1-2.5-2.5c0-1.4,1.1-2.5,2.5-2.5s2.5,1.1,2.5,2.5C86.4,42.5,85.3,43.6,84,43.6z"/>
</g>
</svg>
