<svg xmlns="http://www.w3.org/2000/svg" version="1.1" xmlns:xlink="http://www.w3.org/1999/xlink" xmlns:svgjs="http://svgjs.com/svgjs" width="512" height="512" x="0" y="0" viewBox="0 0 512 512" style="enable-background:new 0 0 512 512" xml:space="preserve" class=""><g><path fill-rule="evenodd" d="M500.627 316.122c-4.746-7.925-24.231-31.452-75.686-1.484l-25.336 14.757c4.51-11.251 7.229-23.076 7.992-35.099 1.507-23.73-4.309-47.316-17.286-70.102-13.992-24.566-35.298-52.316-66.6-86.673 8.624-4.672 14.495-13.804 14.495-24.282 0-13.938-10.388-25.488-23.826-27.334l18.695-18.695c10.971-10.971 10.972-28.824 0-39.797-9.286-9.284-24.052-10.871-35.112-3.773-.736.473-1.365.53-2.171.195-.809-.335-1.215-.821-1.402-1.676C291.585 9.319 280.021 0 266.891 0c-13.128.002-24.691 9.321-27.495 22.16-.187.855-.592 1.341-1.398 1.675-.809.334-1.44.279-2.176-.194-11.06-7.098-25.826-5.51-35.112 3.774-5.299 5.299-8.218 12.366-8.218 19.898s2.918 14.599 8.218 19.897l18.695 18.695c-13.439 1.846-23.827 13.395-23.827 27.333 0 10.479 5.871 19.611 14.495 24.283-31.301 34.356-52.607 62.106-66.6 86.674-16.862 29.607-21.667 60.839-14.045 90.732l-51.331 29.72-6.398-11.305c-5.804-10.255-18.868-13.876-29.124-8.073l-25.479 14.42c-10.254 5.804-13.876 18.868-8.073 29.124L83.93 501.167c3.928 6.938 11.178 10.84 18.634 10.84 3.563 0 7.174-.892 10.489-2.768l25.479-14.42c10.255-5.804 13.876-18.869 8.072-29.124l-7.751-13.696 15.471-8.932 116.33 31.17c6.564 1.759 13.006 2.638 19.31 2.638 12.568 0 24.583-3.492 35.89-10.453l164.795-101.474c14.996-9.233 19.752-32.505 9.978-48.826zM208.492 47.313c0-3.258 1.254-6.307 3.531-8.584 4.006-4.004 10.38-4.688 15.157-1.623 5.132 3.292 11.306 3.843 16.938 1.511 5.633-2.333 9.609-7.089 10.909-13.045 1.211-5.545 6.201-9.571 11.864-9.572 5.664 0 10.654 4.025 11.865 9.572 1.301 5.957 5.277 10.711 10.91 13.045 5.632 2.332 11.806 1.781 16.938-1.512 4.776-3.066 11.15-2.382 15.156 1.624 2.277 2.277 3.531 5.326 3.531 8.584s-1.254 6.307-3.531 8.584L292.018 85.64h-50.25l-29.745-29.744c-2.277-2.277-3.531-5.325-3.531-8.583zm14.684 54.327h87.432c6.396 0 11.599 5.203 11.599 11.598s-5.203 11.597-11.599 11.597h-87.432c-6.396 0-11.599-5.203-11.599-11.598.001-6.394 5.204-11.597 11.599-11.597zm-65.8 130.473c14.384-25.255 37.109-54.318 71.383-91.277h76.265c34.275 36.961 57.001 66.024 71.383 91.277 21.752 38.194 20.484 79.197-3.385 112.765l-38.89 22.652c-4.601 2.679-9.28 4.564-14.168 5.679 1.823-2.895 3.25-6.179 4.225-9.817 4.633-17.295-5.647-35.354-23.406-41.111a8.058 8.058 0 0 0-1.047-.263 236.237 236.237 0 0 1-5.552-1.076c2.879-1.83 5.417-3.955 7.49-6.352 5.362-6.201 7.65-13.979 6.616-22.495-3.159-26.024-31.174-30.625-40.38-32.136-23.242-3.816-23.709-13.434-23.884-17.055-.509-10.481 8.046-16.197 16.222-18.051a30.372 30.372 0 0 1 5.937-.739c.281.011.567.009.845-.009 9.271.029 18.858 4.362 23.331 15.014a7.998 7.998 0 0 0 10.473 4.279 8 8 0 0 0 4.279-10.473c-6.123-14.583-18.2-21.981-30.595-24.113v-7.68a8 8 0 0 0-16 0v7.749a42.21 42.21 0 0 0-1.808.37c-17.948 4.07-29.467 17.907-28.665 34.431.579 11.932 7.516 27.182 37.273 32.067 22.493 3.693 26.292 11.707 27.09 18.276.489 4.026-.439 7.33-2.836 10.101-8.192 9.472-24.938 10.279-35.848 5.694-5.01-2.105-11.321-6.4-13.463-14.994a8 8 0 0 0-15.525 3.871c.087.35.185.694.281 1.039-6.389-2.308-12.408-4.465-17.602-6.149-23.227-7.533-44.229 1.797-61.71 11.918l-1.789 1.036c-5.023-24.483-.447-50.009 13.46-74.428zm-26.725 248.781-25.479 14.42c-2.532 1.433-5.885.505-7.319-2.029L22.947 360.931c-1.434-2.534-.504-5.885 2.029-7.319l25.479-14.419c2.506-1.418 5.882-.511 7.318 2.028l74.906 132.354c1.434 2.533.505 5.885-2.028 7.319zm351.608-129.57L317.464 452.797c-13.083 8.054-27.437 10.068-42.67 5.985l-119.531-32.028a8.001 8.001 0 0 0-6.07.799l-18.221 10.52-44.994-79.502 67.745-39.223c15.157-8.775 31.556-16.125 48.758-10.545 5.521 1.791 11.883 4.091 19.25 6.754 21.117 7.635 47.36 17.123 74.588 22.1 9.522 3.324 14.846 12.523 12.416 21.593-3.197 11.932-13.135 13.414-21.038 12.506-13.38-2.751-26.092-6.379-39.544-10.22-6.378-1.821-12.973-3.705-19.751-5.521a8.001 8.001 0 0 0-4.141 15.455c6.652 1.782 13.183 3.647 19.498 5.451 13.859 3.958 26.95 7.697 41.045 10.578.054.011 11.61 1.895 11.61 1.895 16.872 2.698 31.846.07 45.771-8.038l90.808-52.891c26.171-15.243 46.323-16.783 53.907-4.121 5.229 8.729 2.887 22.345-4.641 26.98zM57.876 364.805a9.097 9.097 0 1 1-18.002 2.632 9.097 9.097 0 0 1 18.002-2.632z" clip-rule="evenodd" fill="#5275e3" data-original="#000000" class=""></path></g></svg>