<svg xmlns="http://www.w3.org/2000/svg" version="1.1" xmlns:xlink="http://www.w3.org/1999/xlink" xmlns:svgjs="http://svgjs.com/svgjs" width="512" height="512" x="0" y="0" viewBox="0 0 512 512.002" style="enable-background:new 0 0 512 512" xml:space="preserve" class=""><g><path d="m364.152 160.61-24.039-29.165a25.797 25.797 0 0 1-5.8-14.007l-3.625-37.622c-1.883-19.546-17.438-35.101-36.985-36.984l-37.621-3.621a25.856 25.856 0 0 1-14.008-5.8L212.91 9.366c-15.152-12.488-37.148-12.488-52.3 0L131.444 33.41a25.831 25.831 0 0 1-14.007 5.8l-37.622 3.622C60.27 44.715 44.72 60.27 42.832 79.816l-3.621 37.621a25.856 25.856 0 0 1-5.8 14.008L9.366 160.61c-12.488 15.153-12.488 37.149 0 52.301l24.043 29.164a25.856 25.856 0 0 1 5.8 14.008l3.622 37.621c1.883 19.547 17.438 35.098 36.984 36.985l22.997 2.214-54.637 130.559a9.885 9.885 0 0 0 1.746 10.437c2.558 2.88 6.445 4.02 10.14 2.97l47.403-13.384a.43.43 0 0 1 .5.2l23.738 43.164a9.863 9.863 0 0 0 8.7 5.152c.171 0 .343-.004.519-.012 3.84-.195 7.16-2.515 8.68-6.093l57.683-137.852a40.98 40.98 0 0 0 5.63-3.89l29.163-24.04a25.79 25.79 0 0 1 12.824-5.644l52.246 124.84-36.972-10.438a15.559 15.559 0 0 0-17.922 7.496l-18.512 33.66-24.527-58.613a7.595 7.595 0 0 0-9.938-4.074 7.588 7.588 0 0 0-4.07 9.933l28.73 68.66a9.89 9.89 0 0 0 8.665 6.055c.175.008.347.016.52.016a9.866 9.866 0 0 0 8.698-5.156l23.735-43.157a.44.44 0 0 1 .5-.207l47.394 13.383a9.878 9.878 0 0 0 10.149-2.969c2.558-2.882 3.226-6.878 1.742-10.445l-54.633-130.555 22.996-2.214c19.547-1.883 35.102-17.434 36.985-36.98l3.625-37.626c.492-5.16 2.5-10 5.8-14.004l24.04-29.164c12.492-15.152 12.492-37.148 0-52.3zm-224.37 329.417-18.516-33.668a15.554 15.554 0 0 0-17.922-7.488l-36.969 10.434 52.242-124.836a25.816 25.816 0 0 1 12.828 5.64l29.164 24.043c7.579 6.246 16.864 9.368 26.153 9.368.597 0 1.191-.016 1.789-.043zm212.656-286.773-24.04 29.164a40.939 40.939 0 0 0-9.203 22.207l-3.62 37.621c-1.188 12.328-10.997 22.137-23.325 23.324l-33.047 3.184c-.129.008-.262.02-.39.039l-4.184.402a40.963 40.963 0 0 0-22.211 9.2l-29.164 24.039c-9.555 7.879-23.43 7.879-32.984 0l-29.165-24.04a40.934 40.934 0 0 0-22.21-9.199l-4.204-.406a5.222 5.222 0 0 0-.347-.031l-33.07-3.188c-12.329-1.187-22.137-10.996-23.325-23.324l-3.62-37.617a40.939 40.939 0 0 0-9.204-22.211l-24.04-29.164c-7.878-9.559-7.878-23.434 0-32.988l24.04-29.164a40.939 40.939 0 0 0 9.203-22.211L57.95 81.27c1.188-12.329 10.996-22.137 23.324-23.325l37.622-3.62a40.963 40.963 0 0 0 22.21-9.2l29.165-24.04c4.777-3.937 10.636-5.91 16.492-5.91s11.715 1.97 16.492 5.91l29.164 24.04a40.934 40.934 0 0 0 22.21 9.2l37.622 3.62c12.328 1.188 22.137 10.996 23.324 23.325l3.621 37.62a40.939 40.939 0 0 0 9.203 22.212l24.04 29.164c7.874 9.558 7.874 23.43 0 32.988zm0 0" fill="#5275e3" data-original="#000000" class=""></path><path d="M186.762 68.156c-5.07 0-10.172.32-15.172.961a7.593 7.593 0 0 0-6.567 8.492c.532 4.16 4.34 7.098 8.493 6.57 4.359-.558 8.816-.84 13.246-.84 57.027 0 103.422 46.395 103.422 103.423 0 57.027-46.399 103.418-103.422 103.418-57.028 0-103.422-46.395-103.422-103.422 0-40.676 23.984-77.727 61.101-94.395a7.59 7.59 0 0 0 3.817-10.035 7.59 7.59 0 0 0-10.035-3.816c-42.567 19.113-70.067 61.601-70.067 108.246 0 65.402 53.207 118.605 118.606 118.605 65.398 0 118.605-53.203 118.605-118.605 0-65.399-53.207-118.602-118.605-118.602zm0 0" fill="#5275e3" data-original="#000000" class=""></path><path d="M111.36 177.965c-9.051 9.05-9.051 23.781 0 32.832l33.16 33.164a23.074 23.074 0 0 0 16.417 6.797 23.08 23.08 0 0 0 16.418-6.797l72.387-72.39c9.051-9.055 9.051-23.782 0-32.837-9.05-9.05-23.781-9.05-32.836 0l-55.969 55.973-16.746-16.742c-9.05-9.05-23.78-9.05-32.832 0zm49.578 35.074a7.59 7.59 0 0 0 5.367-2.226l61.34-61.34c3.132-3.133 8.226-3.13 11.359 0 3.133 3.132 3.133 8.23 0 11.359l-72.387 72.39a7.984 7.984 0 0 1-5.68 2.352 7.977 7.977 0 0 1-5.68-2.351l-33.163-33.16c-3.13-3.133-3.13-8.231 0-11.36a8.015 8.015 0 0 1 5.683-2.351 8.01 8.01 0 0 1 5.676 2.347l22.113 22.113a7.593 7.593 0 0 0 5.371 2.227zm0 0" fill="#5275e3" data-original="#000000" class=""></path></g></svg>