<?xml version="1.0" encoding="utf-8"?>
<!-- Generator: Adobe Illustrator 26.0.1, SVG Export Plug-In . SVG Version: 6.00 Build 0)  -->
<svg version="1.1" id="svg2376" xmlns:svg="http://www.w3.org/2000/svg"
	 xmlns="http://www.w3.org/2000/svg" xmlns:xlink="http://www.w3.org/1999/xlink" x="0px" y="0px" viewBox="0 0 100 100"
	 style="enable-background:new 0 0 100 100;" xml:space="preserve">
<style type="text/css">
	.st0{clip-path:url(#SVGID_00000050630135539005304170000005607483749450611594_);}
	.st1{fill:none;stroke:#5275E3;stroke-width:2;stroke-linecap:round;stroke-linejoin:round;stroke-miterlimit:4.6453;}
</style>
<g id="g2382" transform="matrix(1.3333333,0,0,-1.3333333,0,682.66667)">
	<g id="g2384">
		<g>
			<g>
				<defs>
					<rect id="SVGID_1_" x="-23" y="414" width="121.1" height="121.1"/>
				</defs>
				<clipPath id="SVGID_00000142887247606209655550000006624400250076149123_">
					<use xlink:href="#SVGID_1_"  style="overflow:visible;"/>
				</clipPath>
				<g id="g2386" style="clip-path:url(#SVGID_00000142887247606209655550000006624400250076149123_);">
					<g id="g2392" transform="translate(256,245.6309)">
						<path id="path2394" class="st1" d="M-218.5,227.5v-5.7h-13.3c-0.7,0-1.3-0.6-1.3-1.3v-9h-13.3c-0.7,0-1.3-0.6-1.3-1.3v-13.9
							h58.5v38c0,0.7-0.6,1.3-1.3,1.3h-13.3v9.7h0.5c0.2,0,0.5,0.1,0.7,0.2c0.7,0.4,0.9,1.3,0.5,2l-7.8,13.4
							c-0.1,0.2-0.3,0.4-0.5,0.5c-0.7,0.4-1.6,0.2-2-0.5l-7.8-13.4c-0.2-0.2-0.3-0.5-0.3-0.8c0-0.8,0.7-1.5,1.5-1.5h0.5v-5.7"/>
					</g>
					<g id="g2396" transform="translate(146,124.3848)">
						<path id="path2398" class="st1" d="M-123.1,332.6v-13.9"/>
					</g>
					<g id="g2400" transform="translate(256,202.3857)">
						<path id="path2402" class="st1" d="M-218.5,265v-24.2"/>
					</g>
					<g id="g2404" transform="translate(366,305.8857)">
						<path id="path2406" class="st1" d="M-313.9,175.2v-38"/>
					</g>
					<g id="g2408" transform="translate(256,290.6348)">
						<path id="path2410" class="st1" d="M-218.5,188.5L-218.5,188.5"/>
					</g>
				</g>
			</g>
		</g>
	</g>
</g>
</svg>
