<svg id="Layer_1" data-name="Layer 1" xmlns="http://www.w3.org/2000/svg" viewBox="0 0 70.47 95.47"><defs><style>.cls-1{fill:#5275e3;}</style></defs><path class="cls-1" d="M49.93,56.63a19.05,19.05,0,1,0-19-19.05A19.08,19.08,0,0,0,49.93,56.63Zm0-34.28A15.23,15.23,0,1,1,34.7,37.58,15.26,15.26,0,0,1,49.93,22.35Z" transform="translate(-14.68 -2.35)"/><path class="cls-1" d="M19.55,45.73A8.51,8.51,0,0,1,19.22,49c-.42,2-.89,4.25.21,6.18s3.34,2.65,5.31,3.3a8.19,8.19,0,0,1,3,1.34,8.74,8.74,0,0,1,1.33,3,24.54,24.54,0,0,0,.86,2.34L17.7,87.69a1.9,1.9,0,0,0,2,2.78l8.15-1.37,3.3,7.58a1.93,1.93,0,0,0,1.66,1.14h.08a1.91,1.91,0,0,0,1.68-1L47.82,72.38a5.29,5.29,0,0,0,2.15.48,5.37,5.37,0,0,0,2.16-.48L65.38,96.83a1.81,1.81,0,0,0,1.62,1h.07a1.87,1.87,0,0,0,1.66-1.14L72,89.06l8.13,1.37A1.87,1.87,0,0,0,82,89.67a1.93,1.93,0,0,0,.13-2L70,65.13a19.57,19.57,0,0,0,.86-2.35,8.37,8.37,0,0,1,1.34-3,8.55,8.55,0,0,1,3-1.34c2-.63,4.18-1.35,5.3-3.3s.63-4.18.21-6.18a8.62,8.62,0,0,1-.32-3.3,8.16,8.16,0,0,1,1.85-2.56c1.39-1.55,3-3.29,3-5.59s-1.59-4-3-5.6a8.49,8.49,0,0,1-1.85-2.55,8.66,8.66,0,0,1,.32-3.31c.42-2,.9-4.25-.21-6.18s-3.34-2.67-5.3-3.3a8.2,8.2,0,0,1-3-1.34,8.93,8.93,0,0,1-1.34-3c-.63-2-1.35-4.18-3.3-5.3s-4.18-.63-6.18-.21a8.62,8.62,0,0,1-3.3.32,8.28,8.28,0,0,1-2.56-1.85C54,3.93,52.22,2.35,49.93,2.35s-4,1.58-5.59,3a8.39,8.39,0,0,1-2.56,1.85,8.46,8.46,0,0,1-3.3-.33c-2-.42-4.25-.89-6.18.21S29.64,10.4,29,12.37a8.55,8.55,0,0,1-1.34,3,8.84,8.84,0,0,1-3,1.33c-2,.63-4.18,1.36-5.31,3.31s-.62,4.18-.21,6.18a8.46,8.46,0,0,1,.33,3.3A8.28,8.28,0,0,1,17.66,32c-1.4,1.55-3,3.3-3,5.59s1.58,4,3,5.6A7.68,7.68,0,0,1,19.55,45.73ZM33,91.52l-2.33-5.34a1.9,1.9,0,0,0-2.06-1.13l-5.74,1L32.55,68.2c1.87.93,4,.49,5.93.09a8.62,8.62,0,0,1,3.3-.32,8.28,8.28,0,0,1,2.56,1.85c.1.1.19.17.31.27Zm38.18-6.47a1.9,1.9,0,0,0-2.07,1.13l-2.32,5.34L55.22,70.11c.1-.1.19-.17.31-.27A8.49,8.49,0,0,1,58.08,68a8.66,8.66,0,0,1,3.31.32c1.9.4,4.06.84,5.93-.11L77,86ZM20.5,34.55a10.46,10.46,0,0,0,2.71-4.14,11,11,0,0,0-.28-5.08c-.29-1.32-.6-2.83-.23-3.47s1.87-1.15,3.17-1.59A10.59,10.59,0,0,0,30.35,18a10.82,10.82,0,0,0,2.27-4.48c.42-1.3.9-2.79,1.57-3.17s2.15-.06,3.47.23a11,11,0,0,0,5.08.28,10.6,10.6,0,0,0,4.14-2.71c1.07-.93,2.23-2,3-2s2,1,3,2a10.46,10.46,0,0,0,4.14,2.71,11,11,0,0,0,5.08-.28c1.31-.29,2.82-.6,3.47-.23s1.15,1.87,1.57,3.17A10.48,10.48,0,0,0,69.5,18,11.07,11.07,0,0,0,74,20.27c1.3.42,2.79.9,3.17,1.59s.06,2.15-.23,3.47a11,11,0,0,0-.28,5.08,10.6,10.6,0,0,0,2.71,4.14c.93,1,2,2.19,2,3s-1,2-2,3a10.46,10.46,0,0,0-2.71,4.14,11,11,0,0,0,.28,5.08c.29,1.32.59,2.82.23,3.47S75.28,54.42,74,54.86a10.59,10.59,0,0,0-4.48,2.27,10.82,10.82,0,0,0-2.27,4.48c-.42,1.3-.9,2.79-1.57,3.17s-2.16.06-3.47-.23a11,11,0,0,0-5.08-.28A10.6,10.6,0,0,0,53,67c-1,.93-2.2,2-3,2s-2-1-3-2a10.46,10.46,0,0,0-4.14-2.71,6,6,0,0,0-1.67-.21,17.94,17.94,0,0,0-3.41.47c-1.32.29-2.83.61-3.48.23s-1.14-1.87-1.56-3.17a10.59,10.59,0,0,0-2.27-4.48,11.11,11.11,0,0,0-4.49-2.27c-1.3-.42-2.78-.9-3.17-1.59s-.05-2.15.23-3.47a10.84,10.84,0,0,0,.29-5.08,10.6,10.6,0,0,0-2.71-4.14c-.94-1-2-2.19-2-3s1-2,1.93-3Z" transform="translate(-14.68 -2.35)"/></svg>