<svg id="Layer_1" data-name="Layer 1" xmlns="http://www.w3.org/2000/svg" viewBox="0 0 96.34 79.88"><defs><style>.cls-1{fill:#5275e3;}</style></defs><path class="cls-1" d="M84.06,52.29H74.63a14.14,14.14,0,0,0-3.71.49,14.13,14.13,0,0,0-12.59-7.73H41.67a14.13,14.13,0,0,0-12.59,7.73,14.05,14.05,0,0,0-3.71-.49H15.94A14.13,14.13,0,0,0,1.83,66.4V81.47a8.48,8.48,0,0,0,8.47,8.47H89.7a8.48,8.48,0,0,0,8.47-8.47V66.4A14.13,14.13,0,0,0,84.06,52.29ZM27.55,59.16V84.3H10.3a2.83,2.83,0,0,1-2.83-2.83V66.4a8.48,8.48,0,0,1,8.47-8.47h9.43a8.56,8.56,0,0,1,2.22.3C27.57,58.54,27.55,58.85,27.55,59.16ZM66.8,84.3H33.2V59.16a8.48,8.48,0,0,1,8.47-8.47H58.33a8.48,8.48,0,0,1,8.47,8.47Zm25.73-2.83A2.83,2.83,0,0,1,89.7,84.3H72.45V59.16c0-.31,0-.62,0-.93a8.31,8.31,0,0,1,2.22-.3h9.43a8.48,8.48,0,0,1,8.47,8.47Z" transform="translate(-1.83 -10.06)"/><path class="cls-1" d="M20.66,25.63A12.54,12.54,0,1,0,33.2,38.17,12.55,12.55,0,0,0,20.66,25.63Zm0,19.44a6.9,6.9,0,1,1,6.89-6.9A6.91,6.91,0,0,1,20.66,45.07ZM50,10.06A16.76,16.76,0,1,0,66.75,26.81,16.76,16.76,0,0,0,50,10.06Zm0,27.86A11.11,11.11,0,1,1,61.11,26.81,11.12,11.12,0,0,1,50,37.92ZM79.34,25.63A12.54,12.54,0,1,0,91.88,38.17,12.56,12.56,0,0,0,79.34,25.63Zm0,19.44a6.9,6.9,0,1,1,6.9-6.9A6.9,6.9,0,0,1,79.34,45.07Z" transform="translate(-1.83 -10.06)"/></svg>