<svg id="Layer_1" data-name="Layer 1" xmlns="http://www.w3.org/2000/svg" viewBox="0 0 86.12 93.61"><defs><style>.cls-1{fill:#5275e3;}</style></defs><path class="cls-1" d="M91.69,71.21a1.37,1.37,0,0,0,1.37-1.37V51a2.78,2.78,0,0,0-2.78-2.77H82.79A2.81,2.81,0,0,0,80,51.07v8.64H72.45A2.8,2.8,0,0,0,70,61.24l-2.27-.87a1.37,1.37,0,0,0-1,2.55l3,1.14v7.1H62.11A2.81,2.81,0,0,0,59.3,74v8.64H51.77a2.81,2.81,0,0,0-2.12,1L47.83,72.84l1.48-2.22c.86.62,1.64,1.35,3,1A2.6,2.6,0,0,0,54,70.29L59.1,60l1.19.46a1.35,1.35,0,0,0,1.77-.78h0a1.35,1.35,0,0,0-.78-1.77L52.53,54.5V49.74a14.84,14.84,0,0,0,5.7-10,6.62,6.62,0,0,0,6.4-6.6A6.53,6.53,0,0,0,63,28.82v-6a19.61,19.61,0,0,0-39.22,0V29a6.23,6.23,0,0,0-1.65,4.2,6.62,6.62,0,0,0,6.4,6.6,14.65,14.65,0,0,0,6,10.2V54.5L15.25,62A14.07,14.07,0,0,0,6.94,74.81V93.68a3.1,3.1,0,0,0,3.11,3.1c50.4,0,23.36,0,81.64,0a1.38,1.38,0,0,0,1.37-1.38V76.24a1.38,1.38,0,0,0-2.75,0V94.06H82.72v-43a.07.07,0,0,1,.07-.07h7.49a0,0,0,0,1,0,0V69.84a1.37,1.37,0,0,0,1.38,1.37ZM56.53,59l-4.93,9.9-6.08-4.32,6.07-7.5ZM47.07,69l-1.41,2.12H41.42L40,69l3.53-2.51L47.07,69Zm-9.79-14.1V51.52a16.3,16.3,0,0,0,6.29,1.26,14.67,14.67,0,0,0,6.21-1.38V55l-6.24,7.71-6.26-7.72ZM61.89,33.17A3.86,3.86,0,0,1,58.34,37V29.34a3.86,3.86,0,0,1,3.55,3.83ZM28.41,37a3.87,3.87,0,0,1-3.56-3.84,4.08,4.08,0,0,1,3.56-3.77Zm0-10.38a7.52,7.52,0,0,0-1.95.46V22.8a16.87,16.87,0,0,1,33.74,0V27a6.48,6.48,0,0,0-1.9-.38v-.37c0-1.27-.19-1.22-5-6.37A2.62,2.62,0,0,0,50,19.44a31.06,31.06,0,0,1-18.8,5.06A2.63,2.63,0,0,0,28.45,26.63ZM31.15,38V27.25A34,34,0,0,0,51.42,21.8c2.47,2.65,3.81,4,4.17,4.51,0,14.16,0,11.23,0,12A12.23,12.23,0,0,1,31.15,38Zm4.33,19.07,6.07,7.5-6.07,4.31L30.54,59l4.94-1.91ZM22.38,94V77.73a1.38,1.38,0,0,0-2.75,0V94H10.05a.37.37,0,0,1-.37-.36V74.81a11.29,11.29,0,0,1,6.6-10.29L28,60l5.14,10.31a2.62,2.62,0,0,0,1.68,1.35c1.31.32,2.05-.36,3-1l1.47,2.21L35.65,94Zm16.05,0L41.84,73.9h3.39L48.64,94Zm20.87,0H51.7V85.42a.08.08,0,0,1,.07-.07H59.3Zm10.34,0H62V74a.07.07,0,0,1,.07-.07h7.53V94.06Zm10.34,0h-7.6V62.52a.07.07,0,0,1,.07-.07H80V94.06Z" transform="translate(-6.94 -3.19)"/></svg>