<svg id="Layer_1" data-name="Layer 1" xmlns="http://www.w3.org/2000/svg" viewBox="0 0 88 88"><defs><style>.cls-1{fill:#5275e3;}</style></defs><path class="cls-1" d="M14.8,57.33h2.93a10.27,10.27,0,0,1,20.33-2,16,16,0,0,0-4.19,10.81H36.8a13.2,13.2,0,0,1,26.4,0h2.93a16,16,0,0,0-4.19-10.81,10.27,10.27,0,0,1,20.33,2H85.2A13.2,13.2,0,0,0,77,45.1a7.33,7.33,0,1,0-10.36-.46c.14.16.3.31.46.46a13.18,13.18,0,0,0-7.57,8,16.44,16.44,0,0,0-4-2.12A8.8,8.8,0,1,0,43.13,49.6,9.34,9.34,0,0,0,44.5,51a16.44,16.44,0,0,0-4,2.12,13.18,13.18,0,0,0-7.57-8,7.33,7.33,0,1,0-10.36-.46c.15.16.3.31.46.46A13.2,13.2,0,0,0,14.8,57.33Zm52.8-17.6a4.4,4.4,0,1,1,4.4,4.4A4.4,4.4,0,0,1,67.6,39.73Zm-23.47,4.4A5.87,5.87,0,1,1,50,50,5.87,5.87,0,0,1,44.13,44.13ZM23.6,39.73a4.4,4.4,0,1,1,4.4,4.4A4.4,4.4,0,0,1,23.6,39.73Z" transform="translate(-6 -6)"/><path class="cls-1" d="M81.77,6.36a1.47,1.47,0,0,0-2.07.14,1.44,1.44,0,0,0-.37,1v4.4H22.13A16.14,16.14,0,0,0,6,28V74.93H8.93V28a13.2,13.2,0,0,1,13.2-13.2H80.8a1.47,1.47,0,0,0,1.47-1.47V10.69l8,7-8,7V22.13a1.47,1.47,0,0,0-1.47-1.47H22.13A7.34,7.34,0,0,0,14.8,28v7.33h2.93V28a4.4,4.4,0,0,1,4.4-4.4h57.2V28a1.46,1.46,0,0,0,1.47,1.46,1.49,1.49,0,0,0,1-.36L93.5,18.83a1.46,1.46,0,0,0,.13-2.07l-.13-.13ZM91.07,72a13.2,13.2,0,0,1-13.2,13.2H19.2a1.46,1.46,0,0,0-1.47,1.46V89.3l-8-7,8-7v2.64a1.47,1.47,0,0,0,1.47,1.47H77.87A7.33,7.33,0,0,0,85.2,72V64.66H82.27V72a4.4,4.4,0,0,1-4.4,4.4H20.67V72a1.47,1.47,0,0,0-1.47-1.47,1.45,1.45,0,0,0-1,.37L6.5,81.16a1.47,1.47,0,0,0-.13,2.08l.13.12L18.23,93.63a1.47,1.47,0,0,0,2.44-1.1v-4.4h57.2A16.13,16.13,0,0,0,94,72V25.06H91.07Z" transform="translate(-6 -6)"/></svg>