<svg id="Layer_1" data-name="Layer 1" xmlns="http://www.w3.org/2000/svg" xmlns:xlink="http://www.w3.org/1999/xlink" viewBox="0 0 91.57 91.57"><defs><style>.cls-1{fill:#fff;}.cls-2,.cls-6{fill:none;}.cls-3{mask:url(#mask);}.cls-4{clip-path:url(#clip-path);}.cls-5{fill:#5275e3;}.cls-6{stroke:#5275e3;stroke-linecap:round;stroke-linejoin:round;stroke-width:3.58px;}</style><mask id="mask" x="0" y="0" width="91.57" height="91.57" maskUnits="userSpaceOnUse"><g transform="translate(-4.21 -4.21)"><g id="a"><rect class="cls-1" x="4.21" y="4.21" width="91.57" height="91.57"/><path class="cls-1" d="M36,48.81a1.79,1.79,0,1,1-2.53,0,1.79,1.79,0,0,1,2.53,0"/></g></g></mask><clipPath id="clip-path" transform="translate(-4.21 -4.21)"><rect class="cls-2" x="4.21" y="4.21" width="91.57" height="91.57"/></clipPath></defs><g class="cls-3"><g class="cls-4"><path class="cls-5" d="M36,48.81a1.79,1.79,0,0,1-2.53,2.53,1.8,1.8,0,0,1,0-2.53,1.79,1.79,0,0,1,2.53,0" transform="translate(-4.21 -4.21)"/><path class="cls-6" d="M44.24,30.47,54.79,19.91c4.86-4.85,11.4-8,17.75-10.07A84.88,84.88,0,0,1,94,6a84.88,84.88,0,0,1-3.84,21.46c-2.06,6.35-5.22,12.89-10.07,17.75L49.93,75.37,24.63,50.08Z" transform="translate(-4.21 -4.21)"/><path class="cls-6" d="M45.5,70.94l-5.69,9.49L19.57,60.19l9.49-5.69" transform="translate(-4.21 -4.21)"/><path class="cls-6" d="M69.53,55.77l-1.9,17.07L52.46,88l-1.9-13.28" transform="translate(-4.21 -4.21)"/><path class="cls-6" d="M25.26,49.44,12,47.54,27.16,32.37l17.07-1.9" transform="translate(-4.21 -4.21)"/><path class="cls-6" d="M24.63,75.37,6,94" transform="translate(-4.21 -4.21)"/><path class="cls-6" d="M29.69,80.43l-11,11" transform="translate(-4.21 -4.21)"/><path class="cls-6" d="M19.57,70.31l-11,11" transform="translate(-4.21 -4.21)"/><path class="cls-6" d="M68.7,43.94a8.94,8.94,0,1,1,0-12.64A8.92,8.92,0,0,1,68.7,43.94Z" transform="translate(-4.21 -4.21)"/><path class="cls-6" d="M72.54,9.84,90.16,27.46" transform="translate(-4.21 -4.21)"/><path class="cls-6" d="M39.81,55.13,55,70.31" transform="translate(-4.21 -4.21)"/></g></g></svg>