<?xml version="1.0" encoding="utf-8"?>
<!-- Generator: Adobe Illustrator 26.0.1, SVG Export Plug-In . SVG Version: 6.00 Build 0)  -->
<svg version="1.1" id="Layer_1" xmlns:svgjs="http://svgjs.com/svgjs"
	 xmlns="http://www.w3.org/2000/svg" xmlns:xlink="http://www.w3.org/1999/xlink" x="0px" y="0px" viewBox="0 0 100 100"
	 style="enable-background:new 0 0 100 100;" xml:space="preserve">
<style type="text/css">
	.st0{fill-rule:evenodd;clip-rule:evenodd;fill:#5275E3;}
</style>
<g transform="matrix(0.9400000000000002,0,0,0.9400000000000002,15.359997024536199,15.271979970931966)">
	<g>
		<path class="st0" d="M52.1,22.6L52.1,22.6c5.4,0,9.9,3.6,11.2,8.7H40.9C42.2,26.2,46.7,22.6,52.1,22.6z M47,14.5
			c0-2.8,2.3-5.1,5.1-5.1c2.8,0,5.1,2.3,5.1,5.1c0,2.8-2.3,5.1-5.1,5.1h0C49.3,19.6,47,17.3,47,14.5z M29.6,15.7
			c0.1-0.4,0.1-0.8,0.1-1.2c0-1.5-0.4-2.9-1.1-4C30.8,8.3,33.7,7,36.9,7c3.1,0,6.1,1.3,8.3,3.5c-0.7,1.2-1.1,2.6-1.1,4
			c0,0.4,0,0.8,0.1,1.2H29.6z M21.6,19.6L21.6,19.6c-2.8,0-5.1-2.3-5.1-5.1c0-2.8,2.3-5.1,5.1-5.1c2.8,0,5.1,2.3,5.1,5.1
			C26.7,17.3,24.4,19.6,21.6,19.6z M32.8,31.3H10.4c1.3-5.1,5.9-8.7,11.2-8.7h0C27,22.6,31.5,26.2,32.8,31.3L32.8,31.3z M36.9-6.2
			c2.8,0,5.1,2.3,5.1,5.1C42,1.7,39.7,4,36.9,4c-2.8,0-5.1-2.3-5.1-5.1C31.7-3.9,34-6.2,36.9-6.2z M65.1,34.3c0.4,0,0.8-0.2,1.1-0.5
			c0.3-0.3,0.4-0.7,0.4-1.2c-0.6-5.6-4.2-10.1-9.2-12c1.7-1.5,2.8-3.7,2.8-6.1c0-4.5-3.6-8.1-8.1-8.1c-1.9,0-3.7,0.7-5.1,1.8
			C45.6,6.8,44,5.7,42.1,5c1.7-1.5,2.8-3.7,2.8-6.1c0-4.5-3.6-8.1-8.1-8.1s-8.1,3.6-8.1,8.1c0,2.4,1.1,4.6,2.8,6.1
			c-1.8,0.7-3.5,1.8-4.9,3.2c-1.4-1.1-3.1-1.8-5.1-1.8c-4.5,0-8.1,3.6-8.1,8.1c0,2.4,1.1,4.6,2.8,6.1c-4.9,1.9-8.6,6.4-9.2,12
			c0,0.4,0.1,0.8,0.4,1.2c0.3,0.3,0.7,0.5,1.1,0.5h26c0.4,0,0.8-0.2,1.1-0.5c0.3-0.3,0.4-0.7,0.4-1.2c-0.6-5.6-4.2-10.1-9.2-12
			c0.6-0.6,1.2-1.2,1.6-2h16.6c0.4,0.7,1,1.4,1.6,2c-4.9,1.9-8.6,6.4-9.2,12c0,0.4,0.1,0.8,0.4,1.2c0.3,0.3,0.7,0.5,1.1,0.5
			L65.1,34.3z M30.1,76.1c0.3,0.8-0.1,1.6-0.8,1.9c-0.8,0.3-1.6-0.1-1.9-0.8c-0.3-0.8,0.1-1.6,0.8-1.9C29,75,29.8,75.4,30.1,76.1
			L30.1,76.1z M31.6,79.5c0.1-0.1,0.2-0.3,0.2-0.5l0-4.7c0-0.2-0.1-0.4-0.2-0.5c-0.1-0.1-0.2-0.2-0.5-0.2L6.4,73.8
			c-0.4,0-0.7,0.3-0.7,0.7l0,4.7c0,0.2,0.1,0.4,0.2,0.5c0.1,0.1,0.2,0.2,0.5,0.2l24.7-0.2C31.3,79.7,31.5,79.6,31.6,79.5L31.6,79.5z
			 M11.7,66.5c0.3,0.3,0.4,0.7,0.4,1v3.2l14.4-0.1l0-12.5c0-2.8-0.3-5.6-2.4-7.6c-0.7-0.6-1.5-1.3-2.3-2c-2.8-2.4-6.3-5.5-9.4-8.9
			c-0.4-0.5-1-0.7-1.7-0.8c-0.8,0-1.5,0.3-2,0.8c-1,1.1-1.1,2.3,0,3.7c1.5,1.8,3.1,3.3,4.7,4.8c0.7,0.7,1.5,1.4,2.3,2.2
			c0.6,0.6,0.6,1.5,0,2.1c-0.6,0.6-1.5,0.6-2.1,0c-0.8-0.8-1.5-1.5-2.2-2.2c-2.1-2-4.1-4-6.1-6.5c-1.8-2.2-2.6-4.5-2.6-7.2l0.1-17
			c0-4.8-1.3-7.7-3.6-7.7h0c-1.5,0-3.1,1.3-3.2,2.7L-5,46c-0.1,2.4,0.8,4.6,2.6,6.3L11.7,66.5z M33.6,71.7c-0.7-0.7-1.6-1.1-2.6-1.1
			h0l-1.4,0l0-12.5c0-3.3-0.4-7.1-3.4-9.8c-0.7-0.6-1.5-1.3-2.3-2c-2.8-2.4-6.2-5.4-9.2-8.6c-1-1.1-2.3-1.7-3.8-1.7
			c-1.6,0-3.1,0.6-4.2,1.7c-0.3,0.3-0.6,0.7-0.8,1c-0.2-0.6-0.2-1.3-0.2-2l0.1-17C5.7,9.8,0.7,9-0.8,9h-0.1c-3.1,0-6.1,2.6-6.1,5.5
			L-8,45.9c-0.1,3.2,1.1,6.2,3.4,8.5L9.2,68.2v2.6l-2.9,0c-2,0-3.6,1.7-3.6,3.7l0,4.7c0,1,0.4,1.9,1.1,2.6c0.7,0.7,1.6,1.1,2.6,1h0
			l24.7-0.2c2,0,3.6-1.7,3.6-3.7l0-4.7C34.7,73.3,34.3,72.3,33.6,71.7z M43.6,76.1c0.3-0.8,1.2-1.1,1.9-0.8c0.8,0.3,1.1,1.2,0.8,1.9
			C46,78,45.2,78.3,44.4,78C43.6,77.7,43.3,76.9,43.6,76.1L43.6,76.1z M47.1,70.7l14.4,0.1v-3.2c0-0.4,0.2-0.8,0.4-1l14.2-14.2
			c1.8-1.8,2.6-3.9,2.6-6.3l-0.9-31.4c0-1.3-1.6-2.7-3.2-2.7h0c-2.3,0-3.6,2.9-3.6,7.7l0.1,17c0,2.7-0.8,5-2.6,7.2
			c-0.4,0.5-0.8,1-1.2,1.5c0,0,0,0,0,0c-1.6,1.8-3.2,3.4-4.9,5c-0.7,0.7-1.5,1.4-2.2,2.2c-0.6,0.6-1.5,0.6-2.1,0
			c-0.6-0.6-0.6-1.5,0-2.1c0.8-0.8,1.5-1.5,2.3-2.2c1.6-1.6,3.2-3.1,4.7-4.8c1-1.4,1-2.6,0-3.7c-0.5-0.5-1.3-0.8-2-0.8
			c-0.7,0-1.3,0.3-1.7,0.8c-3.1,3.4-6.6,6.4-9.4,8.9c-0.8,0.7-1.6,1.4-2.3,2c-2.1,1.9-2.4,4.8-2.4,7.6L47.1,70.7z M68,74.5
			c0-0.4-0.3-0.7-0.7-0.7l-24.7-0.2h0c-0.2,0-0.4,0.1-0.5,0.2C42.1,73.9,42,74,42,74.3l0,4.7c0,0.2,0.1,0.4,0.2,0.5
			c0.1,0.1,0.3,0.2,0.5,0.2l24.7,0.2c0.2,0,0.4-0.1,0.5-0.2c0.1-0.1,0.2-0.2,0.2-0.5L68,74.5z M78.2,54.4c2.3-2.3,3.5-5.3,3.4-8.5
			l-0.9-31.4c-0.1-2.9-3-5.5-6.1-5.5h-0.1C73,9,68,9.8,68,19.7l0.1,17c0,0.7-0.1,1.3-0.2,2c-0.2-0.4-0.5-0.7-0.8-1
			c-1.1-1.1-2.6-1.7-4.2-1.7c-1.5,0-2.9,0.6-3.8,1.7c-3,3.3-6.4,6.3-9.2,8.6c-0.8,0.7-1.7,1.4-2.3,2c-3,2.7-3.4,6.5-3.4,9.8l0,12.5
			l-1.4,0h0c-1,0-1.9,0.4-2.6,1.1c-0.7,0.7-1.1,1.6-1.1,2.6l0,4.7c0,2,1.6,3.7,3.6,3.7l24.7,0.2h0c1,0,1.9-0.4,2.6-1
			c0.7-0.7,1.1-1.6,1.1-2.6l0-4.7c0-2-1.6-3.7-3.6-3.7l-2.9,0v-2.6L78.2,54.4z"/>
	</g>
</g>
</svg>
