<?xml version="1.0" encoding="utf-8"?>
<!-- Generator: Adobe Illustrator 26.0.1, SVG Export Plug-In . SVG Version: 6.00 Build 0)  -->
<svg version="1.1" id="Layer_1" xmlns:svgjs="http://svgjs.com/svgjs"
	 xmlns="http://www.w3.org/2000/svg" xmlns:xlink="http://www.w3.org/1999/xlink" x="0px" y="0px" viewBox="0 0 100 100"
	 style="enable-background:new 0 0 100 100;" xml:space="preserve">
<style type="text/css">
	.st0{fill:none;stroke:#5275E3;stroke-width:3.7417;stroke-linecap:round;stroke-linejoin:round;stroke-miterlimit:13.3333;}
</style>
<g>
	<g>
		<g>
			<defs>
				<rect id="SVGID_1_" x="2.8" y="552.1" width="127.7" height="127.7"/>
			</defs>
			<clipPath id="SVGID_00000159468385338188260970000011698964691307621761_">
				<use xlink:href="#SVGID_1_"  style="overflow:visible;"/>
			</clipPath>
		</g>
	</g>
</g>
<g transform="matrix(1.33333 0 0 -1.33333 0 682.667)">
	<path class="st0" d="M22.8,506.1c4.5,2.1,9.4,3.2,14.7,3.2c19.3,0,34.9-15.6,34.9-34.9s-15.6-34.9-34.9-34.9s-34.9,15.7-34.9,35
		c0,12.3,6.3,23,15.9,29.2"/>
	<path class="st0" d="M53.6,450.7c-4.1-2.8-8.9-4.5-14-4.9v3.9c0,1.2-1,2.1-2.1,2.1s-2.1-1-2.1-2.1v-3.9
		c-14.2,1.1-25.5,12.4-26.5,26.6h3.9c1.2,0,2.1,1,2.1,2.1c0,1.2-1,2.1-2.1,2.1h-4c1,14.2,12.4,25.5,26.5,26.6v-5.3
		c0-1.2,1-2.1,2.1-2.1l0,0c1.2,0,2.1,0.9,2.1,2.1v5.3c14.2-1,25.6-12.4,26.6-26.6h-4c-1.2,0-2.1-1-2.1-2.1c0-1.2,1-2.1,2.1-2.1h4
		c-0.5-7.3-3.8-13.9-8.8-18.6"/>
	<path class="st0" d="M33.5,482.9c0,2.2,1.8,4,4,4s4-1.8,4-4s-1.8-4-4-4S33.5,480.7,33.5,482.9z"/>
	<path class="st0" d="M32.5,461.8h9.9c1.6,0,2.8,1.3,2.8,2.8v3c0,4.3-3.5,7.8-7.8,7.8h-0.1c-4.3,0-7.8-3.5-7.8-7.8v-3
		C29.7,463.1,31,461.8,32.5,461.8z"/>
	<path class="st0" d="M45.7,483.9c0,1.9,1.5,3.4,3.4,3.4s3.4-1.5,3.4-3.4s-1.5-3.4-3.4-3.4S45.7,482,45.7,483.9z"/>
	<path class="st0" d="M45.3,465.6h8c1.3,0,2.5,1,2.5,2.4v2.2c0,3.7-3,6.7-6.7,6.7H49c-2.6,0-4.9-1.6-6-3.8"/>
	<path class="st0" d="M29.2,483.9c0,1.9-1.5,3.4-3.4,3.4s-3.4-1.5-3.4-3.4s1.5-3.4,3.4-3.4S29.2,482,29.2,483.9z"/>
	<path class="st0" d="M22.4,476.1c1,0.6,2.1,0.9,3.3,0.9h0.1c2.7,0,5-1.6,6-3.9"/>
	<path class="st0" d="M29.7,465.6h-8.2c-1.3,0-2.5,1-2.5,2.4v2.2c0,0.7,0.1,1.4,0.3,2"/>
</g>
</svg>
