<?xml version="1.0" encoding="utf-8"?>
<!-- Generator: Adobe Illustrator 26.0.1, SVG Export Plug-In . SVG Version: 6.00 Build 0)  -->
<svg version="1.1" id="Layer_1" xmlns:svgjs="http://svgjs.com/svgjs"
	 xmlns="http://www.w3.org/2000/svg" xmlns:xlink="http://www.w3.org/1999/xlink" x="0px" y="0px" viewBox="0 0 100 100"
	 style="enable-background:new 0 0 100 100;" xml:space="preserve">
<style type="text/css">
	.st0{fill:#5275E3;}
</style>
<g>
	<path class="st0" d="M50,58c4.7,0,8.5-3.8,8.5-8.5s-3.8-8.5-8.5-8.5s-8.5,3.8-8.5,8.5S45.3,58,50,58z M50,43.2
		c3.5,0,6.4,2.9,6.4,6.4s-2.9,6.4-6.4,6.4c-3.5,0-6.4-2.9-6.4-6.4S46.5,43.2,50,43.2z M50,23.9c5.5,0,10-4.5,10-10s-4.5-10-10-10
		s-10,4.5-10,10S44.5,23.9,50,23.9z M42.8,17.1h1.4c0.1,0.9,0.3,1.7,0.5,2.5C43.9,19,43.3,18.1,42.8,17.1z M57.9,13.9
		c0,0.4,0,0.8-0.1,1.1H56c0-0.8,0-1.5,0-2.3h1.8C57.8,13.1,57.9,13.5,57.9,13.9L57.9,13.9z M53.9,15h-2.8v-2.3h2.8
		C53.9,13.5,53.9,14.2,53.9,15L53.9,15z M47.3,21.3c-0.4-1.4-0.8-2.8-1-4.1h2.6v4.5C48.4,21.6,47.8,21.5,47.3,21.3L47.3,21.3z
		 M51.1,17.1h2.6c-0.2,1.4-0.5,2.8-1,4.1c-0.5,0.2-1.1,0.3-1.6,0.4V17.1z M51.1,10.6V6.1c0.6,0.1,1.1,0.2,1.6,0.4
		c0.4,1.4,0.8,2.7,1,4.1H51.1z M48.9,10.6h-2.6c0.2-1.4,0.5-2.7,0.9-4.1c0.5-0.2,1.1-0.3,1.6-0.4V10.6z M48.9,12.7V15h-2.8
		c0-0.8,0-1.5,0-2.3H48.9L48.9,12.7z M44.1,15h-1.8c-0.1-0.4-0.1-0.7-0.1-1.1c0-0.4,0-0.8,0.1-1.2h1.8C44,13.5,44,14.2,44.1,15
		L44.1,15z M55.3,19.6c0.2-0.8,0.3-1.7,0.5-2.5h1.4C56.7,18.1,56.1,18.9,55.3,19.6L55.3,19.6z M57.1,10.6h-1.4
		c-0.1-0.8-0.3-1.6-0.5-2.5C56.1,8.8,56.7,9.6,57.1,10.6z M44.7,8.1c-0.2,0.8-0.3,1.7-0.4,2.5h-1.4C43.3,9.6,44,8.8,44.7,8.1z
		 M22.1,50.6c2.6,0,4.7-2.1,4.7-4.8c0-1.4-0.7-2.8-1.8-3.7c0-2.6-2.1-4.8-4.7-4.8c-0.5,0-0.9,0.1-1.4,0.2c-1-2.3-3.4-3.9-6-3.9
		c-3.6,0-6.6,3-6.6,6.6c0,0.3,0,0.6,0.1,0.9c-2.2,0.5-3.8,2.4-3.8,4.6c0,2.6,2.1,4.8,4.7,4.8H22.1z M4.7,45.9c0-1.5,1.2-2.6,2.6-2.6
		h0.3c0.3,0,0.7-0.2,0.9-0.4c0.2-0.3,0.2-0.6,0.1-1c-0.2-0.5-0.3-1-0.3-1.5c0-2.5,2-4.5,4.5-4.5c2.1,0,3.9,1.5,4.4,3.5
		c0.1,0.3,0.3,0.6,0.6,0.7c0.3,0.1,0.7,0.1,1-0.1c0.5-0.3,0.9-0.5,1.4-0.5c1.5,0,2.6,1.2,2.6,2.7c0,0.1-0.1,0.2-0.1,0.3
		c-0.1,0.4,0.1,0.9,0.5,1.1c0.9,0.5,1.4,1.3,1.4,2.3c0,1.5-1.2,2.6-2.6,2.6H7.3C5.9,48.5,4.7,47.3,4.7,45.9z M96.4,34.8H82.7
		c-0.6,0-1.1,0.5-1.1,1.1v2.1h-3.2c-0.6,0-1.1,0.5-1.1,1.1v17.9c0,0.6,0.5,1.1,1.1,1.1h14.8c0.6,0,1.1-0.5,1.1-1.1v-2.1h2.1
		c0.6,0,1.1-0.5,1.1-1.1V35.8C97.4,35.2,97,34.8,96.4,34.8z M92.2,55.8H79.5V40h9.6l3.1,3V55.8z M95.3,52.7h-1.1V42.6
		c0-0.3-0.1-0.6-0.3-0.8l-3.7-3.6c-0.2-0.2-0.5-0.3-0.7-0.3h-5.8v-1.1h11.6V52.7z"/>
	<path class="st0" d="M80.6,46.4c0,0.6,0.5,1.1,1.1,1.1H90c0.6,0,1.1-0.5,1.1-1.1c0-0.6-0.5-1.1-1.1-1.1h-8.4
		C81,45.3,80.6,45.8,80.6,46.4z M90,48.5h-8.4c-0.6,0-1.1,0.5-1.1,1.1c0,0.6,0.5,1.1,1.1,1.1H90c0.6,0,1.1-0.5,1.1-1.1
		C91.1,48.9,90.6,48.5,90,48.5z M18.6,32.6c0.2,0.1,0.3,0.1,0.5,0.1c0.4,0,0.7-0.2,0.9-0.5c0.3-0.6,0.7-1.2,1.1-1.7
		c0.3-0.5,0.2-1.1-0.3-1.5c-0.5-0.3-1.1-0.2-1.5,0.3c-0.4,0.6-0.8,1.2-1.1,1.9C17.9,31.7,18.1,32.3,18.6,32.6L18.6,32.6z M22.4,28
		c0.3,0,0.6-0.1,0.8-0.4c0.7-0.9,1.6-1.8,2.4-2.6c0.4-0.4,0.4-1.1,0-1.5s-1.1-0.4-1.5,0c-0.9,0.9-1.8,1.8-2.6,2.8
		c-0.4,0.4-0.3,1.1,0.1,1.5c0,0,0,0,0,0C21.9,27.9,22.2,28,22.4,28L22.4,28z M27.6,22.8c0.2,0,0.5-0.1,0.7-0.2
		c0.9-0.7,1.9-1.5,2.9-2.1c0.5-0.3,0.6-1,0.3-1.5c-0.3-0.5-1-0.6-1.5-0.3C29,19.4,28,20.2,27,20.9c-0.5,0.4-0.5,1-0.2,1.5
		C27,22.7,27.3,22.8,27.6,22.8L27.6,22.8z M33.8,18.8c0.2,0,0.3,0,0.5-0.1c0.6-0.3,1.2-0.6,1.8-0.9c0.5-0.2,0.8-0.9,0.5-1.4
		c-0.2-0.5-0.9-0.8-1.4-0.5c-0.7,0.3-1.3,0.6-2,0.9c-0.5,0.3-0.7,0.9-0.5,1.4C33.1,18.6,33.4,18.8,33.8,18.8L33.8,18.8z M80,32.2
		c0.2,0.3,0.5,0.5,0.9,0.5c0.2,0,0.4,0,0.5-0.1c0.5-0.3,0.7-0.9,0.4-1.4c-0.4-0.6-0.7-1.2-1.1-1.9c-0.3-0.5-1-0.6-1.5-0.3
		c0,0,0,0,0,0c-0.5,0.3-0.6,1-0.3,1.5C79.3,31.1,79.6,31.7,80,32.2L80,32.2z M68.8,20.5c1,0.6,2,1.3,2.9,2.1
		c0.5,0.4,1.1,0.3,1.5-0.2c0.4-0.5,0.3-1.1-0.2-1.5c-1-0.8-2-1.5-3.1-2.2c-0.5-0.3-1.1-0.2-1.4,0.3c0,0,0,0,0,0
		C68.2,19.5,68.3,20.2,68.8,20.5L68.8,20.5z M76.8,27.6c0.2,0.2,0.5,0.4,0.8,0.4c0.2,0,0.5-0.1,0.7-0.2c0.5-0.4,0.5-1,0.2-1.5
		c0,0,0,0,0,0c-0.8-1-1.7-1.9-2.6-2.8c-0.4-0.4-1.1-0.4-1.5,0c-0.4,0.4-0.4,1.1,0,1.5C75.2,25.8,76,26.7,76.8,27.6L76.8,27.6z
		 M63.8,17.8c0.6,0.3,1.2,0.6,1.8,0.9c0.2,0.1,0.3,0.1,0.5,0.1c0.6,0,1.1-0.5,1.1-1.1c0-0.4-0.2-0.8-0.6-0.9c-0.6-0.3-1.3-0.6-2-0.9
		c-0.5-0.2-1.2,0-1.4,0.5C63.1,17,63.3,17.6,63.8,17.8L63.8,17.8z M70.7,61c-3.3,2.4-15.1,14.4-15.6,14.9c-1.7,1.7-4,2.6-6.4,2.6
		H38.6c-0.6,0-2.4-0.2-2.4-2.5s2-2.4,2.4-2.5h10.5c1.6-0.1,4.7-1.2,4.7-4.7c0-1.2-0.4-2.1-0.9-2.8c2.1-0.4,4.2-1.2,5.7-2l1.4,1.4
		c0.4,0.4,1.1,0.4,1.5,0l3.6-3.7c0.4-0.4,0.4-1.1,0-1.5l-1.4-1.4c1-1.6,1.7-3.4,2.1-5.3h1.9c0.6,0,1.1-0.5,1.1-1.1v-5.2
		c0-0.6-0.5-1.1-1.1-1.1H66c-0.4-1.9-1.1-3.6-2.1-5.3l1.4-1.4c0.4-0.4,0.4-1.1,0-1.5l-3.6-3.7c-0.4-0.4-1.1-0.4-1.5,0l-1.3,1.4
		c-1.6-1-3.3-1.7-5.1-2.2v-2c0-0.6-0.5-1.1-1.1-1.1h-5.1c-0.6,0-1.1,0.5-1.1,1.1v2c-1.8,0.4-3.6,1.1-5.1,2.2l-1.3-1.4
		c-0.4-0.4-1.1-0.4-1.5,0l-3.6,3.7c-0.4,0.4-0.4,1.1,0,1.5l1.4,1.4c-1,1.6-1.7,3.4-2.1,5.3h-1.9c-0.6,0-1.1,0.5-1.1,1.1v5.2
		c0,0.6,0.5,1.1,1.1,1.1H34c0.4,1.9,1.1,3.6,2.1,5.3l-1.4,1.4c-0.4,0.4-0.4,1.1,0,1.5l2.1,2.1c-0.7-0.3-1.4-0.7-2.1-1.2
		c-1.7-1.3-3.8-2-5.9-2h-1c-2.4,0-4.8,0.9-6.6,2.5L5,77.5c-0.2,0.2-0.3,0.5-0.4,0.8c0,0.3,0.1,0.6,0.3,0.8l15.3,15.5
		c0.2,0.2,0.5,0.3,0.7,0.3c0.3,0,0.6-0.1,0.7-0.3l3.4-3.5c1.1-1,2.5-1.5,3.9-1.5h24.2c2.3,0,4.5-1,6-2.8l15.5-17.2
		c3.3-3.8,3-6.8,1.6-8.3C75,59.7,72.6,59.6,70.7,61L70.7,61z M35.9,52.3c-0.1-0.5-0.5-0.9-1-0.9h-1.7v-3.1h1.7c0.5,0,1-0.4,1-0.9
		c0.4-2.2,1.2-4.2,2.4-6c0.3-0.4,0.2-1-0.1-1.3L37,38.8l2.1-2.2l1.2,1.2c0.4,0.4,0.9,0.4,1.4,0.1c1.8-1.3,3.7-2.1,5.9-2.5
		c0.5-0.1,0.9-0.5,0.9-1v-1.8h3v1.8c0,0.5,0.4,0.9,0.9,1c2.1,0.4,4.1,1.2,5.9,2.5c0.4,0.3,1,0.3,1.4-0.1l1.2-1.2l2.1,2.2l-1.2,1.3
		c-0.4,0.4-0.4,0.9-0.1,1.3c1.3,1.8,2.1,3.8,2.4,6c0.1,0.5,0.5,0.9,1,0.9h1.7v3.1h-1.7c-0.5,0-1,0.4-1,0.9c-0.4,2.2-1.2,4.2-2.4,6
		c-0.3,0.4-0.2,1,0.1,1.3L63,61l-2.1,2.2l-1.2-1.2c-0.4-0.4-0.9-0.4-1.4-0.1c-4.1,2.8-12.2,3.7-16.5,0c-0.4-0.3-1-0.3-1.4,0.1
		l-1.2,1.2L37,61l1.2-1.3c0.4-0.4,0.4-0.9,0.1-1.3C37.1,56.6,36.3,54.5,35.9,52.3L35.9,52.3z M73.2,68.1L57.7,85.3
		c-1.1,1.3-2.7,2-4.4,2H29.1c-2,0-3.9,0.7-5.4,2.1L21,92.3l-13.8-14l15.4-13.6c1.4-1.3,3.3-2,5.2-2h1c1.7,0,3.3,0.5,4.7,1.5
		c1.9,1.4,3.8,2.1,5.8,2.1h9.9c0.5,0,2.8,0.2,2.8,2.4c0,2.4-2.3,2.6-2.7,2.6H38.7c-0.2,0-2,0-3.3,1.3c-0.8,0.8-1.2,1.9-1.2,3.2
		c0,1.3,0.4,2.5,1.3,3.3c1.3,1.3,3,1.3,3.3,1.3h10.1c2.9,0,5.7-1.1,7.9-3.2C56.8,77.3,68.8,65,72,62.7c1-0.7,2.3-0.7,2.9-0.1
		C75.6,63.5,75.6,65.4,73.2,68.1L73.2,68.1z"/>
</g>
</svg>
