<?xml version="1.0" encoding="utf-8"?>
<!-- Generator: Adobe Illustrator 26.0.1, SVG Export Plug-In . SVG Version: 6.00 Build 0)  -->
<svg version="1.1" id="Layer_1" xmlns:svgjs="http://svgjs.com/svgjs"
	 xmlns="http://www.w3.org/2000/svg" xmlns:xlink="http://www.w3.org/1999/xlink" x="0px" y="0px" viewBox="0 0 100 100"
	 style="enable-background:new 0 0 100 100;" xml:space="preserve">
<style type="text/css">
	.st0{fill:#5275E3;}
</style>
<g>
	<path class="st0" d="M11.8,31.7H8.8c0,4.2,3.4,7.6,7.6,7.6v-3.1C13.9,36.3,11.8,34.2,11.8,31.7z M23.9,18.8l2.8,1.2
		c3-7,11.1-10.1,18.1-7.1l1.2-2.8c-2.1-0.9-4.4-1.4-6.7-1.4C32.6,8.8,26.6,12.7,23.9,18.8z M93.8,67.8c-0.5-0.1-0.9-0.5-1.1-0.9
		c-0.2-0.5-0.2-1,0.1-1.4c1.1-1.8,0.8-4.1-0.7-5.6l-3.1-3.1c-1.5-1.5-3.8-1.8-5.7-0.7c-0.4,0.3-1,0.3-1.4,0.1
		c-0.5-0.2-0.8-0.6-0.9-1.1c-0.5-2-2.4-3.5-4.5-3.5h-4.4c-2.1,0-4,1.5-4.5,3.5c-0.1,0.5-0.5,0.9-0.9,1.1c-0.5,0.2-1,0.2-1.4-0.1
		c-1.8-1.1-4.1-0.8-5.6,0.7l-3.1,3.1c-1.5,1.5-1.8,3.8-0.7,5.7c0.2,0.4,0.3,0.9,0.1,1.4c-0.2,0.5-0.6,0.8-1.1,0.9
		c-2,0.5-3.5,2.4-3.5,4.5v4.4c0,2.1,1.5,4,3.5,4.5c0.5,0.1,0.9,0.5,1.1,0.9c0.2,0.5,0.2,1-0.1,1.4c-1.1,1.8-0.8,4.1,0.7,5.6l3.1,3.1
		c1.5,1.5,3.8,1.8,5.7,0.7c0.4-0.3,0.9-0.3,1.4-0.1c0.5,0.2,0.8,0.6,0.9,1.1c0.5,2,2.4,3.5,4.5,3.5h4.4c2.1,0,4-1.5,4.5-3.5
		c0.1-0.5,0.5-0.9,0.9-1.1c0.5-0.2,1-0.2,1.4,0.1c1.8,1.1,4.1,0.8,5.6-0.7l3.1-3.1c1.5-1.5,1.8-3.8,0.7-5.7c-0.3-0.4-0.3-1-0.1-1.4
		c0.2-0.5,0.6-0.8,1.1-0.9c2-0.5,3.5-2.4,3.5-4.5v-4.4C97.3,70.1,95.9,68.3,93.8,67.8L93.8,67.8z M94.3,76.6c0,0.7-0.5,1.3-1.2,1.5
		c-1.4,0.4-2.6,1.4-3.1,2.7c-0.6,1.4-0.5,2.9,0.3,4.2c0.4,0.6,0.3,1.4-0.2,1.9L86.9,90c-0.5,0.5-1.3,0.6-1.9,0.2
		c-1.3-0.7-2.8-0.8-4.2-0.3c-1.3,0.6-2.3,1.7-2.7,3.1c-0.2,0.7-0.8,1.2-1.5,1.2h-4.4c-0.7,0-1.3-0.5-1.5-1.2
		c-0.4-1.4-1.4-2.6-2.7-3.1c-0.6-0.2-1.2-0.4-1.8-0.4c-0.8,0-1.7,0.2-2.4,0.7c-0.6,0.4-1.4,0.3-1.9-0.2l-3.1-3.1
		c-0.5-0.5-0.6-1.3-0.2-1.9c0.7-1.3,0.8-2.8,0.3-4.2c-0.6-1.3-1.7-2.3-3.2-2.7c-0.7-0.2-1.2-0.8-1.2-1.5v-4.4c0-0.7,0.5-1.3,1.2-1.5
		c1.4-0.4,2.6-1.4,3.1-2.7c0.6-1.4,0.5-2.9-0.3-4.2c-0.4-0.6-0.3-1.4,0.2-1.9l3.1-3.1c0.5-0.5,1.3-0.6,1.9-0.2
		c1.3,0.7,2.8,0.8,4.2,0.3c1.3-0.6,2.3-1.7,2.7-3.1c0.2-0.7,0.8-1.2,1.5-1.2h4.4c0.7,0,1.3,0.5,1.5,1.2c0.4,1.4,1.4,2.6,2.7,3.1
		c1.3,0.6,2.9,0.5,4.2-0.3c0.6-0.4,1.4-0.3,1.9,0.2l3.1,3.1c0.5,0.5,0.6,1.3,0.2,1.9c-0.7,1.3-0.8,2.8-0.3,4.2
		c0.6,1.3,1.7,2.3,3.1,2.7c0.7,0.2,1.2,0.8,1.2,1.5V76.6z"/>
	<path class="st0" d="M74.4,60.7c-7.6,0-13.7,6.2-13.7,13.7c0,7.6,6.2,13.7,13.7,13.7c7.6,0,13.7-6.2,13.7-13.7
		C88.2,66.9,82,60.7,74.4,60.7z M74.4,85.1c-5.9,0-10.7-4.8-10.7-10.7c0-5.9,4.8-10.7,10.7-10.7c5.9,0,10.7,4.8,10.7,10.7
		C85.1,80.3,80.3,85.1,74.4,85.1z"/>
	<path class="st0" d="M74.4,66.8c-4.2,0-7.6,3.4-7.6,7.6c0,4.2,3.4,7.6,7.6,7.6s7.6-3.4,7.6-7.6C82.1,70.2,78.6,66.8,74.4,66.8z
		 M74.4,79c-2.5,0-4.6-2.1-4.6-4.6c0-2.5,2.1-4.6,4.6-4.6s4.6,2.1,4.6,4.6C79,77,77,79,74.4,79z M39.3,24h12.2v3.1H39.3V24z
		 M39.3,30.1h12.2v3.1H39.3V30.1z M39.3,36.3h12.2v3.1H39.3V36.3z M39.3,42.4h12.2v3.1H39.3V42.4z M27.1,48.5H2.7v33.6h24.4v-9.2
		h21.4v-3.1H27.1V48.5z M24,79H5.7V51.5H24V79z"/>
	<path class="st0" d="M8.8,54.6H21v3.1H8.8V54.6z M8.8,60.7H21v3.1H8.8V60.7z M8.8,66.8H21v3.1H8.8V66.8z M8.8,72.9H21V76H8.8V72.9z
		 M37.8,85.3c-2.6,0.7-4.6,3.1-4.6,5.9c0,3.4,2.7,6.1,6.1,6.1s6.1-2.7,6.1-6.1c0-2.8-2-5.2-4.6-5.9V79h7.6V76H37.8V85.3z M42.4,91.2
		c0,1.7-1.4,3.1-3.1,3.1c-1.7,0-3.1-1.4-3.1-3.1s1.4-3.1,3.1-3.1C41,88.2,42.4,89.5,42.4,91.2z M42.4,51.5h15.3v-6.1h27.5
		c6.7,0,12.2-5.5,12.2-12.2S91.9,21,85.1,21c-0.8,0-1.7,0.1-2.5,0.3c-2.5-7.5-9.5-12.5-17.4-12.5c-2.9,0-5.8,0.7-8.4,2.1
		c-4.4-5.2-10.7-8.2-17.5-8.2c-9.7,0-18.4,6.2-21.6,15.3c-8.1-0.8-15,5.7-15,13.7c0,7.6,6.2,13.7,13.7,13.7h16.8v6.1h6.1v15.3h9.2
		v-3.1h-6.1V51.5z M33.2,42.4H16.4c-5.9,0-10.7-4.8-10.7-10.7c0-6.6,6.1-11.8,12.8-10.5l1.4,0.3l0.4-1.3
		c2.4-8.5,10.3-14.4,19.1-14.4c6.3,0,12.1,2.9,15.9,8l0.8,1.1l1.2-0.7c2.4-1.5,5.2-2.3,8-2.3c7,0,13.2,4.8,14.8,11.7l0.4,1.6
		l1.6-0.6c1-0.3,2-0.5,3-0.5c5.1,0,9.2,4.1,9.2,9.2s-4.1,9.2-9.2,9.2H57.6V17.9H33.2V42.4z M36.3,48.5V21h18.3v27.5H36.3z"/>
	<path class="st0" d="M88.2,33.2h3.1c0-3.4-2.7-6.1-6.1-6.1v3.1C86.8,30.1,88.2,31.5,88.2,33.2z M74.1,24.5l2.9-0.9
		c-1.5-5.1-6.3-8.7-11.7-8.7v3.1C69.3,17.9,72.9,20.6,74.1,24.5z M72.9,36.3H76v3.1h-3.1V36.3z M66.8,36.3h3.1v3.1h-3.1V36.3z
		 M60.7,36.3h3.1v3.1h-3.1V36.3z"/>
</g>
</svg>
