<?xml version="1.0" encoding="utf-8"?>
<!-- Generator: Adobe Illustrator 26.0.1, SVG Export Plug-In . SVG Version: 6.00 Build 0)  -->
<svg version="1.1" id="Layer_1" xmlns:svgjs="http://svgjs.com/svgjs"
	 xmlns="http://www.w3.org/2000/svg" xmlns:xlink="http://www.w3.org/1999/xlink" x="0px" y="0px" viewBox="0 0 100 100"
	 style="enable-background:new 0 0 100 100;" xml:space="preserve">
<style type="text/css">
	.st0{fill:#5275E3;}
</style>
<g>
	<path class="st0" d="M19.3,44.3c-0.8,0-1.5,0.6-1.5,1.5v8.5c0,0.8,0.6,1.5,1.5,1.5h3.8c0.7,3.3,2,6.5,3.9,9.3l-2.7,2.7
		c-0.6,0.6-0.6,1.5,0,2.1l6,6c0.6,0.6,1.5,0.6,2.1,0L35,73c2.8,1.8,6,3.2,9.3,3.9v3.8c0,0.8,0.6,1.5,1.5,1.5h8.5
		c0.8,0,1.5-0.6,1.5-1.5v-3.8c3.3-0.7,6.5-2,9.3-3.8l2.7,2.7c0.6,0.6,1.5,0.6,2.1,0l6-6c0.6-0.6,0.6-1.5,0-2.1L73,65
		c1.9-2.8,3.2-6,3.9-9.3h3.8c0.8,0,1.5-0.6,1.5-1.5v-8.5c0-0.8-0.6-1.5-1.5-1.5h-3.8c-0.7-3.3-2-6.5-3.9-9.3l2.7-2.7
		c0.6-0.6,0.6-1.5,0-2.1l-6-6c-0.6-0.6-1.5-0.6-2,0c0,0,0,0,0,0L65,26.9c-2.8-1.8-6-3.2-9.3-3.8v-3.8c0-0.8-0.6-1.5-1.5-1.5h-8.5
		c-0.8,0-1.5,0.6-1.5,1.5v3.8c-3.3,0.7-6.5,2-9.3,3.9l-2.7-2.7c-0.6-0.6-1.5-0.6-2.1,0l-6,6c-0.6,0.6-0.6,1.5,0,2.1L27,35
		c-1.8,2.8-3.2,6-3.8,9.3L19.3,44.3L19.3,44.3z M25.8,46c0.6-3.7,2.1-7.2,4.3-10.3c0.4-0.6,0.3-1.4-0.1-1.9l-2.5-2.5l3.9-3.9
		l2.5,2.5c0.5,0.5,1.3,0.6,1.9,0.1c3-2.2,6.6-3.7,10.3-4.3c0.7-0.1,1.2-0.7,1.2-1.4v-3.5h5.6v3.5c0,0.7,0.5,1.3,1.2,1.4
		c3.7,0.6,7.3,2.1,10.3,4.3c0.6,0.4,1.4,0.3,1.9-0.1l2.5-2.5l3.9,3.9l-2.5,2.5c-0.5,0.5-0.6,1.3-0.1,1.9c2.2,3.1,3.7,6.6,4.3,10.3
		c0.1,0.7,0.7,1.2,1.4,1.2h3.6v5.6h-3.6c-0.7,0-1.3,0.5-1.4,1.2c-0.6,3.7-2.1,7.3-4.3,10.3c-0.4,0.6-0.4,1.4,0.1,1.9l2.5,2.5
		l-3.9,3.9l-2.5-2.5c-0.5-0.5-1.3-0.6-1.9-0.1c-3.1,2.2-6.6,3.7-10.3,4.3c-0.7,0.1-1.2,0.7-1.2,1.4v3.6h-5.6v-3.6
		c0-0.7-0.5-1.3-1.2-1.4c-3.7-0.6-7.3-2.1-10.3-4.3c-0.6-0.4-1.4-0.4-1.9,0.1l-2.5,2.5l-3.9-3.9l2.5-2.5c0.5-0.5,0.6-1.3,0.1-1.9
		c-2.2-3.1-3.7-6.6-4.3-10.3c-0.1-0.7-0.7-1.2-1.4-1.2h-3.6v-5.6h3.6C25,47.2,25.6,46.7,25.8,46L25.8,46z"/>
	<path class="st0" d="M50,69.6c10.8,0,19.6-8.8,19.6-19.6S60.8,30.4,50,30.4S30.4,39.2,30.4,50S39.2,69.6,50,69.6z M50,33.3
		c9.2,0,16.7,7.5,16.7,16.7S59.2,66.7,50,66.7S33.3,59.2,33.3,50S40.8,33.3,50,33.3z"/>
	<path class="st0" d="M94,61c-0.8-0.2-1.6,0.2-1.8,1C86.9,80.8,69.5,93.9,50,93.9c-17.2,0-32.9-10.2-40-25.7l6.3,3.1
		c0.7,0.4,1.6,0.1,1.9-0.7c0.4-0.7,0.1-1.6-0.7-1.9l-9.5-4.6c-0.4-0.2-0.8-0.2-1.2,0c-0.4,0.1-0.7,0.4-0.9,0.8l-3.9,9.8
		c-0.3,0.7,0.1,1.6,0.8,1.9c0.2,0.1,0.4,0.1,0.6,0.1c0.6,0,1.1-0.3,1.3-0.9l2.5-6.2C15,86,31.6,96.8,50,96.8c20.8,0,39.4-14,45.1-34
		C95.3,62.1,94.8,61.3,94,61L94,61z M97,23.5c-0.7-0.3-1.6,0.1-1.9,0.8c0,0,0,0,0,0l-2.5,6.3C85,14,68.4,3.2,50,3.2
		c-20.8,0-39.4,14-45,34c-0.2,0.8,0.2,1.6,1,1.8C6.1,39,6.2,39,6.4,39C7,39,7.6,38.6,7.8,38C13.1,19.2,30.5,6.1,50,6.1
		c17.2,0,32.9,10.2,40,25.7l-6.2-3.1c-0.7-0.3-1.6-0.1-1.9,0.7c-0.3,0.7-0.1,1.6,0.7,1.9l9.5,4.6c0.2,0.1,0.4,0.1,0.6,0.1
		c0.2,0,0.3,0,0.5-0.1c0.4-0.1,0.7-0.4,0.8-0.8l3.9-9.8C98.1,24.7,97.7,23.8,97,23.5z"/>
</g>
</svg>
