<?xml version="1.0" encoding="utf-8"?>
<!-- Generator: Adobe Illustrator 26.0.1, SVG Export Plug-In . SVG Version: 6.00 Build 0)  -->
<svg version="1.1" id="Layer_1" xmlns:svgjs="http://svgjs.com/svgjs"
	 xmlns="http://www.w3.org/2000/svg" xmlns:xlink="http://www.w3.org/1999/xlink" x="0px" y="0px" viewBox="0 0 100 100"
	 style="enable-background:new 0 0 100 100;" xml:space="preserve">
<style type="text/css">
	.st0{fill:#5275E3;}
</style>
<g>
	<path class="st0" d="M14.7,10.1h-1.5c-0.8,0-1.5,0.7-1.5,1.5s0.7,1.5,1.5,1.5h1.5c0.8,0,1.5-0.7,1.5-1.5S15.5,10.1,14.7,10.1z
		 M22.4,10.1h-1.5c-0.8,0-1.5,0.7-1.5,1.5c0,0.8,0.7,1.5,1.5,1.5h1.5c0.8,0,1.5-0.7,1.5-1.5S23.2,10.1,22.4,10.1z M30,10.1h-1.5
		c-0.8,0-1.5,0.7-1.5,1.5s0.7,1.5,1.5,1.5H30c0.8,0,1.5-0.7,1.5-1.5C31.6,10.8,30.9,10.1,30,10.1z M77.6,10.1H36.2
		c-0.8,0-1.5,0.7-1.5,1.5s0.7,1.5,1.5,1.5h41.5c0.8,0,1.5-0.7,1.5-1.5S78.5,10.1,77.6,10.1L77.6,10.1z"/>
	<path class="st0" d="M93,59.2h-1.5v-7.7c0-4.3-1.6-8.4-4.6-11.6V11.6c0-4.2-3.4-7.7-7.7-7.7H11.6c-4.2,0-7.7,3.4-7.7,7.7V73
		c0,4.2,3.4,7.7,7.7,7.7h41.5v4.6c0,5.9,4.8,10.7,10.7,10.7h21.5c5.9,0,10.7-4.8,10.7-10.7v-23C96.1,60.6,94.7,59.2,93,59.2z
		 M88.4,51.5v7.7H60.7v-7.7c0-7.6,6.2-13.8,13.8-13.8S88.4,43.9,88.4,51.5z M7,11.6C7,9.1,9.1,7,11.6,7h67.6c2.5,0,4.6,2.1,4.6,4.6
		v4.6H7V11.6z M53.1,62.3v15.4H11.6C9.1,77.6,7,75.6,7,73V19.3h76.8v18.1C78.6,34,72,33.7,66.5,36.7c-5.5,3-8.8,8.7-8.8,14.9v7.7
		h-1.5C54.4,59.2,53.1,60.6,53.1,62.3L53.1,62.3z M93,65.4h-4.6c-0.8,0-1.5,0.7-1.5,1.5c0,0.8,0.7,1.5,1.5,1.5H93v3.1h-4.6
		c-0.8,0-1.5,0.7-1.5,1.5c0,0.8,0.7,1.5,1.5,1.5H93v3.1h-4.6c-0.8,0-1.5,0.7-1.5,1.5s0.7,1.5,1.5,1.5H93v3.1h-4.6
		c-0.8,0-1.5,0.7-1.5,1.5c0,0.8,0.7,1.5,1.5,1.5h4.5C92.1,90.4,89,93,85.3,93H63.8c-3.6,0-6.8-2.6-7.5-6.1h4.5
		c0.8,0,1.5-0.7,1.5-1.5c0-0.8-0.7-1.5-1.5-1.5h-4.6v-3.1h4.6c0.8,0,1.5-0.7,1.5-1.5s-0.7-1.5-1.5-1.5h-4.6v-3.1h4.6
		c0.8,0,1.5-0.7,1.5-1.5s-0.7-1.5-1.5-1.5h-4.6v-3.1h4.6c0.8,0,1.5-0.7,1.5-1.5c0-0.8-0.7-1.5-1.5-1.5h-4.6v-3.1H93L93,65.4L93,65.4
		z"/>
	<path class="st0" d="M73,78.9v3.4c0,0.8,0.7,1.5,1.5,1.5c0.8,0,1.5-0.7,1.5-1.5v-3.4c2.1-0.7,3.4-2.9,3-5.1
		c-0.4-2.2-2.3-3.8-4.5-3.8c-2.2,0-4.2,1.6-4.5,3.8C69.6,76,70.9,78.1,73,78.9L73,78.9z M74.6,73c0.8,0,1.5,0.7,1.5,1.5
		c0,0.8-0.7,1.5-1.5,1.5S73,75.4,73,74.6C73,73.7,73.7,73,74.6,73z M30,34.6c-0.8,0-1.5,0.7-1.5,1.5c0,0,0,0,0,0v4.6H16.2V28.5h6.1
		c0.8,0,1.5-0.7,1.5-1.5s-0.7-1.5-1.5-1.5h-6.1c-1.7,0-3.1,1.4-3.1,3.1v12.3c0,1.7,1.4,3.1,3.1,3.1h12.3c1.7,0,3.1-1.4,3.1-3.1v-4.6
		C31.6,35.3,30.9,34.6,30,34.6L30,34.6z"/>
	<path class="st0" d="M20.4,32c-0.6-0.6-1.6-0.6-2.2,0c-0.6,0.6-0.6,1.5,0,2.2l3.1,3.1c0.3,0.3,0.7,0.4,1.1,0.4h0.1
		c0.4,0,0.8-0.2,1.1-0.5l7.7-9.2c0.5-0.7,0.5-1.6-0.2-2.2c-0.7-0.5-1.6-0.5-2.2,0.2l-6.6,7.9L20.4,32z M30,60.7
		c-0.8,0-1.5,0.7-1.5,1.5v4.6H16.2V54.6h6.1c0.8,0,1.5-0.7,1.5-1.5c0-0.8-0.7-1.5-1.5-1.5h-6.1c-1.7,0-3.1,1.4-3.1,3.1v12.3
		c0,1.7,1.4,3.1,3.1,3.1h12.3c1.7,0,3.1-1.4,3.1-3.1v-4.6C31.6,61.4,30.9,60.7,30,60.7L30,60.7z"/>
	<path class="st0" d="M20.4,58.1c-0.6-0.6-1.6-0.6-2.2,0c-0.6,0.6-0.6,1.5,0,2.2l3.1,3.1c0.3,0.3,0.7,0.4,1.1,0.4h0.1
		c0.4,0,0.8-0.2,1.1-0.5l7.7-9.2c0.5-0.7,0.5-1.6-0.2-2.2c-0.2-0.2-0.5-0.3-0.7-0.3c-0.5-0.1-1.1,0.1-1.4,0.5L22.3,60L20.4,58.1z
		 M37.7,30H50c0.8,0,1.5-0.7,1.5-1.5S50.8,27,50,27H37.7c-0.8,0-1.5,0.7-1.5,1.6C36.2,29.4,36.9,30,37.7,30z M59.2,36.2
		c0-0.8-0.7-1.5-1.5-1.5h-20c-0.8,0-1.5,0.7-1.5,1.5s0.7,1.5,1.5,1.5h20C58.5,37.7,59.2,37,59.2,36.2C59.2,36.2,59.2,36.2,59.2,36.2
		z M50,53.1H37.7c-0.8,0-1.5,0.7-1.5,1.5s0.7,1.5,1.5,1.5l0,0H50c0.8,0,1.5-0.7,1.5-1.5S50.8,53.1,50,53.1L50,53.1z M48.5,60.7H37.7
		c-0.8,0-1.5,0.7-1.5,1.5c0,0.8,0.7,1.5,1.5,1.5h10.7c0.8,0,1.5-0.7,1.5-1.5C50,61.4,49.3,60.7,48.5,60.7z"/>
</g>
</svg>
