<?xml version="1.0" encoding="utf-8"?>
<!-- Generator: Adobe Illustrator 26.0.1, SVG Export Plug-In . SVG Version: 6.00 Build 0)  -->
<svg version="1.1" id="Layer_1" xmlns:svgjs="http://svgjs.com/svgjs"
	 xmlns="http://www.w3.org/2000/svg" xmlns:xlink="http://www.w3.org/1999/xlink" x="0px" y="0px" viewBox="0 0 100 100"
	 style="enable-background:new 0 0 100 100;" xml:space="preserve">
<style type="text/css">
	.st0{fill:#5275E3;}
</style>
<g>
	<g>
		<path class="st0" d="M95.1,79V21c0-4.4-3.6-8.1-8.1-8.1H70.5c0-0.9-0.3-1.8-0.9-2.4l-2.7-2.7c-1.1-1.1-2.8-1.3-4.1-0.4l-4.1,2.7
			c-0.9-0.4-1.7-0.8-2.7-1.1l-1-4.8c-0.3-1.5-1.6-2.6-3.2-2.6h-3.8c-1.5,0-2.9,1.1-3.2,2.6l-1,4.9c-0.9,0.3-1.8,0.7-2.7,1.1
			l-4.1-2.7c-1.3-0.9-3-0.7-4.1,0.4l-2.7,2.7c-0.6,0.6-1,1.5-0.9,2.4H12.9c-4.4,0-8.1,3.6-8.1,8.1v58c-1.8,0-3.2,1.4-3.2,3.2v4.8
			c0,6.2,5.1,11.3,11.3,11.3h74.2c6.2,0,11.3-5.1,11.3-11.3v-4.8C98.4,80.5,96.9,79,95.1,79z M35.4,10.1l4.1,2.7
			c1,0.6,2.2,0.7,3.3,0.2c0.7-0.4,1.4-0.7,2.2-0.9c1.1-0.4,2-1.3,2.2-2.4l1-4.8h3.8l1,4.8c0.2,1.1,1.1,2.1,2.2,2.4
			c0.7,0.2,1.5,0.5,2.2,0.9c1,0.5,2.3,0.5,3.3-0.2l4.1-2.7l2.7,2.7l-2.7,4.1c-0.6,1-0.7,2.2-0.2,3.3c0.4,0.7,0.7,1.4,0.9,2.2
			c0.4,1.1,1.3,2,2.4,2.2l4.8,1v3.8l-4.8,1c-1.1,0.2-2.1,1.1-2.4,2.2c-0.2,0.7-0.5,1.5-0.9,2.2c-0.5,1-0.5,2.3,0.2,3.3l2.7,4.1
			l-2.7,2.7L60.5,42c-1-0.6-2.2-0.7-3.3-0.2c-0.7,0.4-1.4,0.7-2.2,0.9c-1.1,0.4-2,1.3-2.2,2.4l-1,4.8h-3.8l-1-4.8
			c-0.2-1.1-1.1-2.1-2.2-2.4c-0.7-0.2-1.5-0.5-2.2-0.9c-0.5-0.2-1-0.4-1.5-0.4c-0.6,0-1.2,0.2-1.8,0.5l-4.1,2.7l-2.7-2.7l2.7-4.1
			c0.6-1,0.7-2.2,0.2-3.3c-0.4-0.7-0.7-1.4-0.9-2.2c-0.4-1.1-1.3-2-2.4-2.2l-4.8-1v-3.8l4.8-1c1.1-0.2,2.1-1.1,2.4-2.2
			c0.2-0.7,0.5-1.5,0.9-2.2c0.5-1,0.5-2.3-0.2-3.3l-2.7-4.1L35.4,10.1z M8.1,21c0-2.7,2.2-4.8,4.8-4.8H31l1.7,2.6
			c-0.4,0.9-0.8,1.7-1.1,2.7l-4.8,1c-1.5,0.3-2.6,1.6-2.6,3.2v3.8c0,1.5,1.1,2.9,2.6,3.2l4.9,1c0.3,0.9,0.7,1.8,1.1,2.7L30,40.3
			c-0.9,1.3-0.7,3,0.4,4.1l2.7,2.7c1.1,1.1,2.8,1.3,4.1,0.4l4.1-2.7c0.9,0.4,1.7,0.8,2.7,1.1l1,4.8c0.3,1.5,1.6,2.6,3.2,2.6h3.8
			c1.5,0,2.9-1.1,3.2-2.6l1-4.9c0.9-0.3,1.8-0.7,2.7-1.1l4.1,2.7c1.3,0.9,3,0.7,4.1-0.4l2.7-2.7c1.1-1.1,1.3-2.8,0.4-4.1l-2.7-4.1
			c0.4-0.9,0.8-1.7,1.1-2.7l4.8-1c1.5-0.3,2.6-1.6,2.6-3.2v-3.8c0-1.5-1.1-2.9-2.6-3.2l-4.9-1c-0.3-0.9-0.7-1.8-1.1-2.7l1.7-2.6
			h18.1c2.7,0,4.8,2.2,4.8,4.8v58H8.1V21z M35.5,82.2h29v1.6c0,1.8-1.4,3.2-3.2,3.2H38.7c-1.8,0-3.2-1.4-3.2-3.2V82.2z M95.1,87.1
			c0,4.4-3.6,8.1-8.1,8.1H12.9c-4.4,0-8.1-3.6-8.1-8.1v-4.8h27.4v1.6c0,3.6,2.9,6.4,6.4,6.4h22.6c3.6,0,6.4-2.9,6.4-6.4v-1.6h27.4
			V87.1z"/>
		<path class="st0" d="M25.8,85.5H21c-0.9,0-1.6,0.7-1.6,1.6c0,0.9,0.7,1.6,1.6,1.6h4.8c0.9,0,1.6-0.7,1.6-1.6
			C27.4,86.2,26.7,85.5,25.8,85.5z"/>
		<circle class="st0" cx="11.3" cy="87.1" r="1.6"/>
		<circle class="st0" cx="16.1" cy="87.1" r="1.6"/>
		<path class="st0" d="M50,40.3c7.1,0,12.9-5.8,12.9-12.9S57.1,14.5,50,14.5s-12.9,5.8-12.9,12.9C37.1,34.6,42.9,40.3,50,40.3z
			 M50,17.8c5.3,0,9.7,4.3,9.7,9.7s-4.3,9.7-9.7,9.7s-9.7-4.3-9.7-9.7S44.7,17.8,50,17.8z M40.3,61.3c0-8-6.5-14.5-14.5-14.5
			s-14.5,6.5-14.5,14.5s6.5,14.5,14.5,14.5C33.8,75.8,40.3,69.3,40.3,61.3z M25.8,72.6c-6.2,0-11.3-5.1-11.3-11.3S19.6,50,25.8,50
			s11.3,5.1,11.3,11.3C37.1,67.5,32,72.6,25.8,72.6z M74.2,75.8c8,0,14.5-6.5,14.5-14.5s-6.5-14.5-14.5-14.5s-14.5,6.5-14.5,14.5
			C59.7,69.3,66.2,75.8,74.2,75.8z M74.2,50c6.2,0,11.3,5.1,11.3,11.3s-5.1,11.3-11.3,11.3s-11.3-5.1-11.3-11.3
			C62.9,55.1,68,50,74.2,50z"/>
		<path class="st0" d="M33.4,55.3c-0.6-0.6-1.6-0.6-2.3,0l-8.5,8.5l-2.1-2.1c-0.6-0.6-1.7-0.6-2.3,0c-0.6,0.6-0.6,1.6,0,2.2l3.2,3.2
			c0.6,0.6,1.6,0.6,2.3,0l9.7-9.7C34,57,34,55.9,33.4,55.3L33.4,55.3z M68.2,67.3c0.6,0.6,1.6,0.6,2.3,0l3.7-3.7l3.7,3.7
			c0.6,0.6,1.7,0.6,2.3,0c0.6-0.6,0.6-1.6,0-2.2l-3.7-3.7l3.7-3.7c0.6-0.6,0.6-1.7,0-2.3c-0.6-0.6-1.6-0.6-2.2,0L74.2,59l-3.7-3.7
			c-0.6-0.6-1.7-0.6-2.3,0c-0.6,0.6-0.6,1.6,0,2.2l3.7,3.7L68.2,65C67.6,65.6,67.6,66.6,68.2,67.3z"/>
	</g>
</g>
</svg>
