<?xml version="1.0" encoding="utf-8"?>
<!-- Generator: Adobe Illustrator 26.0.1, SVG Export Plug-In . SVG Version: 6.00 Build 0)  -->
<svg version="1.1" id="Layer_1" xmlns:svgjs="http://svgjs.com/svgjs"
	 xmlns="http://www.w3.org/2000/svg" xmlns:xlink="http://www.w3.org/1999/xlink" x="0px" y="0px" viewBox="0 0 100 100"
	 style="enable-background:new 0 0 100 100;" xml:space="preserve">
<style type="text/css">
	.st0{fill:#5275E3;}
</style>
<g>
	<g>
		<path class="st0" d="M90.8,10.8c0-4.3-3.5-7.8-7.8-7.8H10.8c-4.3,0-7.8,3.5-7.8,7.8v72.2c0,4.3,3.5,7.8,7.8,7.8h46.8
			c9.3,8.6,23.7,8.3,32.6-0.6s9.2-23.3,0.6-32.6V10.8z M6.1,10.8c0-2.6,2.1-4.7,4.7-4.7h72.2c2.6,0,4.7,2.1,4.7,4.7v4.7H6.1V10.8z
			 M10.8,87.6c-2.6,0-4.7-2.1-4.7-4.7V18.6h81.6v36.1c-10.3-7.8-25.1-5.8-32.9,4.6c-6.3,8.4-6.3,19.9,0,28.3H10.8z M93.9,73.5
			c0,11.3-9.1,20.4-20.4,20.4s-20.4-9.1-20.4-20.4s9.1-20.4,20.4-20.4C84.8,53.1,93.9,62.2,93.9,73.5z"/>
		<circle class="st0" cx="10.8" cy="10.8" r="1.6"/>
		<circle class="st0" cx="17" cy="10.8" r="1.6"/>
		<circle class="st0" cx="23.3" cy="10.8" r="1.6"/>
		<path class="st0" d="M56.2,9.2H37.4c-0.9,0-1.6,0.7-1.6,1.6s0.7,1.6,1.6,1.6h18.8c0.9,0,1.6-0.7,1.6-1.6S57.1,9.2,56.2,9.2z
			 M79.8,67.2h-9.4v-4.7c0-1.7,1.4-3.1,3.1-3.1s3.1,1.4,3.1,3.1c0,0.9,0.7,1.6,1.6,1.6c0.9,0,1.6-0.7,1.6-1.6c0-3.5-2.8-6.3-6.3-6.3
			s-6.3,2.8-6.3,6.3v4.7c-2.6,0-4.7,2.1-4.7,4.7v12.5c0,2.6,2.1,4.7,4.7,4.7h12.5c2.6,0,4.7-2.1,4.7-4.7V71.9
			C84.5,69.3,82.4,67.2,79.8,67.2z M81.3,84.5c0,0.9-0.7,1.6-1.6,1.6H67.2c-0.9,0-1.6-0.7-1.6-1.6V71.9c0-0.9,0.7-1.6,1.6-1.6h12.5
			c0.9,0,1.6,0.7,1.6,1.6V84.5z"/>
		<path class="st0" d="M73.5,73.5c-2.6,0-4.7,2.1-4.7,4.7c0,2.6,2.1,4.7,4.7,4.7s4.7-2.1,4.7-4.7C78.2,75.6,76.1,73.5,73.5,73.5z
			 M73.5,79.8c-0.9,0-1.6-0.7-1.6-1.6c0-0.9,0.7-1.6,1.6-1.6s1.6,0.7,1.6,1.6C75.1,79.1,74.4,79.8,73.5,79.8z M34.8,41.7
			c0.6,0.6,1.6,0.5,2.2-0.1c0.6-0.6,0.5-1.6-0.1-2.2l-7.3-6.6l7.3-6.7c0.6-0.6,0.7-1.6,0.1-2.2c-0.6-0.6-1.6-0.7-2.2-0.1l-7.3,6.7
			c-1.3,1.1-1.4,3.1-0.2,4.3c0.1,0.1,0.1,0.2,0.2,0.2L34.8,41.7z M56.7,41.6c0.6,0.6,1.6,0.7,2.2,0.1c0,0,0,0,0,0l7.3-6.7
			c1.3-1.1,1.4-3.1,0.2-4.3c-0.1-0.1-0.1-0.2-0.2-0.2l-7.3-6.7c-0.6-0.6-1.6-0.5-2.2,0.1c-0.6,0.6-0.5,1.6,0.1,2.2l7.3,6.6l-7.3,6.7
			C56.1,40,56.1,41,56.7,41.6C56.7,41.6,56.7,41.6,56.7,41.6L56.7,41.6z M41.3,41.9c0.7,0.4,1.7,0.2,2.2-0.5l9.4-15.7
			c0.4-0.8,0.2-1.7-0.6-2.1c-0.7-0.4-1.7-0.2-2.1,0.5l-9.4,15.7C40.3,40.5,40.6,41.5,41.3,41.9z"/>
		<circle class="st0" cx="13.9" cy="50" r="1.6"/>
		<circle class="st0" cx="13.9" cy="56.2" r="1.6"/>
		<circle class="st0" cx="13.9" cy="62.5" r="1.6"/>
		<circle class="st0" cx="13.9" cy="68.8" r="1.6"/>
		<circle class="st0" cx="13.9" cy="75.1" r="1.6"/>
		<circle class="st0" cx="13.9" cy="81.3" r="1.6"/>
		<path class="st0" d="M20.2,51.5h15.7c0.9,0,1.6-0.7,1.6-1.6c0-0.9-0.7-1.6-1.6-1.6H20.2c-0.9,0-1.6,0.7-1.6,1.6
			C18.6,50.8,19.3,51.5,20.2,51.5z M43.7,61H20.2c-0.9,0-1.6,0.7-1.6,1.6s0.7,1.6,1.6,1.6h23.5c0.9,0,1.6-0.7,1.6-1.6
			S44.6,61,43.7,61z M39,73.5H20.2c-0.9,0-1.6,0.7-1.6,1.6c0,0.9,0.7,1.6,1.6,1.6H39c0.9,0,1.6-0.7,1.6-1.6
			C40.6,74.2,39.9,73.5,39,73.5z M20.2,57.8H50c0.9,0,1.6-0.7,1.6-1.6s-0.7-1.6-1.6-1.6H20.2c-0.9,0-1.6,0.7-1.6,1.6
			S19.3,57.8,20.2,57.8z M20.2,70.4h9.4c0.9,0,1.6-0.7,1.6-1.6c0-0.9-0.7-1.6-1.6-1.6h-9.4c-0.9,0-1.6,0.7-1.6,1.6
			C18.6,69.7,19.3,70.4,20.2,70.4z M28,79.8h-7.8c-0.9,0-1.6,0.7-1.6,1.6c0,0.9,0.7,1.6,1.6,1.6H28c0.9,0,1.6-0.7,1.6-1.6
			C29.6,80.5,28.9,79.8,28,79.8z M42.1,51.5h4.7c0.9,0,1.6-0.7,1.6-1.6c0-0.9-0.7-1.6-1.6-1.6h-4.7c-0.9,0-1.6,0.7-1.6,1.6
			C40.6,50.8,41.3,51.5,42.1,51.5z M40.6,67.2h-4.7c-0.9,0-1.6,0.7-1.6,1.6c0,0.9,0.7,1.6,1.6,1.6h4.7c0.9,0,1.6-0.7,1.6-1.6
			C42.1,67.9,41.4,67.2,40.6,67.2z"/>
	</g>
</g>
</svg>
