<?xml version="1.0" encoding="utf-8"?>
<!-- Generator: Adobe Illustrator 26.0.1, SVG Export Plug-In . SVG Version: 6.00 Build 0)  -->
<svg version="1.1" id="Layer_1" xmlns:svgjs="http://svgjs.com/svgjs"
	 xmlns="http://www.w3.org/2000/svg" xmlns:xlink="http://www.w3.org/1999/xlink" x="0px" y="0px" viewBox="0 0 100 100"
	 style="enable-background:new 0 0 100 100;" xml:space="preserve">
<style type="text/css">
	.st0{fill:#5275E3;}
</style>
<g>
	<path class="st0" d="M86.4,87.9c-1.8-2.7-4.2-5.6-6.9-8.3c-3.2-3.3-6.7-6.1-9.7-8c0.1-1.1-0.3-2.2-1.1-3l-0.1-0.1l0,0
		c-0.7-0.8-1.8-1.2-2.8-1.2c-0.6,0-1.3,0.2-1.8,0.4l-9.4-9.5c0.3-0.4,0.5-0.8,0.8-1.2c0.5,0.3,1.1,0.5,1.7,0.5h4.4
		c1.6,0,3-1.2,3.2-2.8l0.8-5.1c1-0.3,2-0.8,3-1.2l4.2,3c1.3,0.9,3.1,0.8,4.2-0.4l3.1-3.1c1.1-1.1,1.3-2.9,0.3-4.2l-3-4.2
		c0.5-1,0.9-2,1.2-3l5.1-0.9c1.6-0.3,2.7-1.6,2.7-3.3v-4.4c0-1.6-1.2-3-2.7-3.3l-5.1-0.9c-0.3-1-0.7-2.1-1.2-3l3-4.2
		c0.9-1.3,0.8-3.1-0.3-4.2l-3.1-3.1c-1.1-1.2-2.9-1.3-4.2-0.4l-4.2,3c-1-0.5-2-0.9-3-1.2l-0.8-5.1c-0.3-1.6-1.6-2.8-3.2-2.8h-4.4
		c-1.6,0-3,1.2-3.2,2.8l-0.8,5.1c-1,0.3-2,0.8-3,1.2l-4.2-3c-1.3-0.9-3.1-0.8-4.2,0.4l-3.1,3.1c-1.1,1.1-1.3,2.9-0.3,4.2l3,4.2
		c-0.2,0.5-0.5,1-0.7,1.4c-1.5-0.3-3-0.4-4.5-0.4c-6.2,0-12,2.4-16.4,6.9c-9,9.1-9.1,23.9-0.2,32.9c4.3,4.3,10,6.7,16.2,6.7
		c4.8,0,9.4-1.5,13.3-4.2l9.4,9.5c-0.8,1.5-0.5,3.4,0.7,4.7l0.1,0.1c0.7,0.8,1.8,1.2,2.8,1.2c0.1,0,0.1,0,0.2,0
		c1.9,3.1,4.6,6.6,7.9,9.8c2.7,2.7,5.5,5.1,8.2,7c1,0.7,2.2,1,3.4,1c1.6,0,3.1-0.6,4.3-1.8C87.7,93.5,88,90.3,86.4,87.9L86.4,87.9z
		 M40.2,14.9c-0.1-0.2-0.1-0.5,0.1-0.7l3.1-3.1c0.2-0.2,0.4-0.2,0.6-0.1l4.9,3.5c0.4,0.3,1,0.3,1.5,0.1c1.3-0.7,2.6-1.3,4-1.7
		c0.5-0.1,0.9-0.6,1-1.1l1-6c0-0.3,0.3-0.4,0.5-0.4h4.4c0.2,0,0.5,0.2,0.5,0.4l1,6c0.1,0.5,0.5,1,1,1.1c1.4,0.4,2.7,1,4,1.7
		c0.5,0.3,1.1,0.2,1.5-0.1l4.9-3.5c0.2-0.1,0.5-0.1,0.6,0.1l3.1,3.1c0.2,0.2,0.2,0.5,0.1,0.7l-3.5,4.9c-0.3,0.4-0.3,1-0.1,1.5
		c0.7,1.3,1.3,2.6,1.7,4c0.1,0.5,0.6,0.9,1.1,1l5.9,1c0.2,0,0.4,0.3,0.4,0.5v4.4c0,0.3-0.2,0.5-0.4,0.5l-5.9,1c-0.5,0.1-1,0.5-1.1,1
		c-0.4,1.4-0.9,2.8-1.7,4c-0.3,0.5-0.2,1,0.1,1.5l3.5,4.9c0.1,0.2,0.1,0.5-0.1,0.7l-3.1,3.1c-0.2,0.2-0.4,0.2-0.6,0.1l-4.9-3.5
		c-0.4-0.3-1-0.3-1.5-0.1c-1.3,0.7-2.6,1.3-4,1.7c-0.5,0.1-0.9,0.6-1,1.1l-1,6c0,0.3-0.3,0.4-0.5,0.4h-4.4c-0.1,0-0.3-0.1-0.4-0.2
		c1.7-3.7,2.3-7.7,2-11.6c0.2,0,0.3,0,0.5,0c7,0,12.8-5.8,12.8-12.9c0-2.6-0.7-5-2.1-7.1c-0.4-0.6-1.3-0.8-1.9-0.4
		c-0.6,0.4-0.8,1.3-0.4,1.9c1.1,1.7,1.7,3.6,1.7,5.6c0,5.6-4.5,10.1-10,10.1c-0.3,0-0.6,0-0.9,0c-0.2-0.9-0.4-1.8-0.7-2.7
		c0.5,0.1,1.1,0.2,1.6,0.2c4.1,0,7.4-3.4,7.4-7.5s-3.3-7.5-7.4-7.5c-3.5,0-6.4,2.5-7.2,5.8c-0.7-0.7-1.4-1.3-2.1-1.9
		c1.5-3.9,5.2-6.5,9.3-6.5c1.9,0,3.9,0.6,5.5,1.7c0.6,0.4,1.5,0.3,1.9-0.4c0.4-0.6,0.3-1.5-0.4-1.9c-2.1-1.4-4.5-2.1-7-2.1
		c-5.1,0-9.7,3.1-11.7,7.7c-1.4-0.8-2.9-1.5-4.4-2c0.2-0.5,0.5-1.1,0.8-1.6c0.3-0.5,0.2-1-0.1-1.5L40.2,14.9L40.2,14.9z M56,33.7
		c-0.1-0.1-0.1-0.1-0.2-0.1c-0.4-0.7-0.8-1.4-1.3-2.1c0-0.1,0-0.1,0-0.2c-0.1-0.3-0.1-0.7-0.1-1.1l0-0.2c0-2.6,2.1-4.7,4.7-4.7
		c2.6,0,4.7,2.1,4.7,4.7s-2.1,4.7-4.7,4.7C57.9,34.8,56.8,34.4,56,33.7L56,33.7z M35.4,65.5c-5.4,0-10.4-2.1-14.2-5.9
		c-7.9-8-7.8-21,0.2-29c3.9-3.9,9-6.1,14.5-6.1c5.4,0,10.4,2.1,14.2,5.9c7.9,8,7.8,21-0.2,29C46,63.3,40.8,65.5,35.4,65.5L35.4,65.5
		z M50.9,62.3c0.3-0.3,0.6-0.6,0.9-0.9c0.3-0.3,0.6-0.6,0.9-0.9l9.1,9.1l-1.8,1.8L50.9,62.3L50.9,62.3z M61.8,76.7
		c-0.3,0-0.6-0.1-0.8-0.4l-0.1-0.1c-0.5-0.5-0.5-1.3,0-1.8l4-4c0.2-0.2,0.6-0.4,0.9-0.4c0.3,0,0.6,0.1,0.8,0.4l0.1,0.1
		c0.5,0.5,0.5,1.3,0,1.8l-4,4C62.4,76.6,62.1,76.7,61.8,76.7L61.8,76.7z M83.7,93.6c-1.1,1.1-2.8,1.3-4.1,0.4
		c-2.5-1.7-5.2-4-7.8-6.6c-3-3-5.5-6.2-7.3-9c0,0,0.1-0.1,0.1-0.1l4-4c0,0,0,0,0.1-0.1c2.8,1.8,5.9,4.3,8.9,7.3
		c2.6,2.6,4.8,5.3,6.6,7.9C85,90.7,84.8,92.5,83.7,93.6L83.7,93.6z"/>
	<path class="st0" d="M49.8,34.1c-0.5-0.6-1.3-0.7-1.9-0.3c0,0,0,0,0,0c-0.6,0.5-0.7,1.3-0.3,1.9c0,0,0,0,0,0
		c2.2,2.9,3.1,6.4,2.9,9.8l-0.1,0c-0.5-0.3-1.1-0.2-1.5,0.1L44,49.1c-0.2,0.1-0.5,0.1-0.6-0.1l-3.1-3.1c-0.2-0.2-0.2-0.5-0.1-0.7
		l3.5-4.9c0.3-0.4,0.3-1,0.1-1.5c-0.7-1.3-1.3-2.6-1.7-4c-0.1-0.5-0.6-0.9-1.1-1l-5.9-1c-0.2,0-0.4-0.3-0.4-0.5v-2.4
		c3.3-0.3,6.8,0.6,9.7,2.7c0.6,0.4,1.5,0.3,1.9-0.3c0,0,0,0,0,0c0.4-0.6,0.3-1.5-0.3-1.9c-3.4-2.4-7.5-3.5-11.7-3.2
		c-4.2,0.4-8.2,2.2-11.2,5.2c-6.9,7-7,18.4-0.2,25.3c3.3,3.3,7.7,5.2,12.4,5.2c4.8,0,9.3-1.9,12.7-5.3
		C54.3,51.2,55.1,41.1,49.8,34.1L49.8,34.1z M46.1,55.6c-2.9,2.9-6.7,4.5-10.7,4.5c-4,0-7.7-1.5-10.4-4.3
		c-5.8-5.9-5.7-15.4,0.2-21.4c2-2,4.3-3.3,6.8-4v1.9c0,1.6,1.2,3,2.7,3.3l5.1,0.9c0.3,1,0.7,2.1,1.2,3l-3,4.2
		c-0.9,1.3-0.8,3.1,0.3,4.2l3.1,3.1c1.1,1.2,2.9,1.3,4.2,0.4l4.2-3c0.1,0,0.2,0.1,0.2,0.1C49.4,51.1,48.1,53.6,46.1,55.6L46.1,55.6z
		"/>
	<path class="st0" d="M35.5,54.3L35.5,54.3c-2.5,0-4.7-0.9-6.5-2.7c-1.8-1.8-2.7-4.1-2.7-6.6c0-0.8-0.6-1.4-1.4-1.4c0,0,0,0,0,0h0
		c-0.8,0-1.4,0.6-1.4,1.4c0,3.2,1.2,6.3,3.5,8.6c2.2,2.2,5.2,3.5,8.4,3.5l0.1,0c0.8,0,1.4-0.6,1.4-1.4
		C36.9,54.9,36.3,54.3,35.5,54.3L35.5,54.3z"/>
</g>
</svg>
