<?xml version="1.0" encoding="utf-8"?>
<!-- Generator: Adobe Illustrator 26.0.1, SVG Export Plug-In . SVG Version: 6.00 Build 0)  -->
<svg version="1.1" id="Layer_1" xmlns:svgjs="http://svgjs.com/svgjs"
	 xmlns="http://www.w3.org/2000/svg" xmlns:xlink="http://www.w3.org/1999/xlink" x="0px" y="0px" viewBox="0 0 100 100"
	 style="enable-background:new 0 0 100 100;" xml:space="preserve">
<style type="text/css">
	.st0{fill:#5275E3;}
</style>
<g>
	<path class="st0" d="M64.6,36.7c0.6-0.1,1.1-0.7,1.1-1.3v-3.9c0-0.6-0.5-1.2-1.1-1.3l-2-0.3c0,0,0-0.1,0-0.1l1.2-1.7
		c0.4-0.5,0.3-1.2-0.1-1.7l-2.7-2.7c-0.5-0.5-1.2-0.5-1.7-0.1l-1.7,1.2c0,0-0.1,0-0.1,0l-0.3-2c-0.1-0.6-0.7-1.1-1.3-1.1h-3.9
		c-0.6,0-1.2,0.5-1.3,1.1l-0.3,2c0,0-0.1,0-0.1,0l-1.7-1.2c-0.5-0.4-1.2-0.3-1.7,0.1L44,26.4c-0.5,0.5-0.5,1.2-0.1,1.7l1.2,1.7
		c0,0,0,0.1,0,0.1l-2,0.3c-0.6,0.1-1.1,0.7-1.1,1.3v3.9c0,0.6,0.5,1.2,1.1,1.3l2,0.3c0,0,0,0.1,0,0.1l-1.2,1.7
		c-0.4,0.5-0.3,1.2,0.1,1.7l2.7,2.7c0.5,0.5,1.2,0.5,1.7,0.1l1.7-1.2c0,0,0.1,0,0.1,0l0.3,2c0.1,0.6,0.7,1.1,1.3,1.1h3.9
		c0.6,0,1.2-0.5,1.3-1.1l0.3-2c0,0,0.1,0,0.1,0l1.7,1.2c0.5,0.4,1.3,0.3,1.7-0.1l2.7-2.7c0.5-0.5,0.5-1.2,0.1-1.7l-1.2-1.7
		c0,0,0-0.1,0-0.1L64.6,36.7z M61.3,34.5c-0.5,0.1-0.9,0.4-1,0.9c-0.1,0.4-0.3,0.8-0.5,1.2c-0.2,0.4-0.2,1,0.1,1.4l1,1.4l-1.1,1.1
		l-1.4-1c-0.4-0.3-0.9-0.3-1.4-0.1c-0.4,0.2-0.8,0.4-1.2,0.5c-0.5,0.2-0.8,0.6-0.9,1l-0.3,1.7h-1.6L52.7,41c-0.1-0.5-0.4-0.9-0.9-1
		c-0.4-0.1-0.8-0.3-1.2-0.5c-0.4-0.2-1-0.2-1.4,0.1l-1.4,1l-1.1-1.1l1-1.4c0.3-0.4,0.3-1,0.1-1.4c-0.2-0.4-0.4-0.8-0.5-1.2
		c-0.2-0.5-0.6-0.8-1-0.9l-1.7-0.3v-1.6l1.7-0.3c0.5-0.1,0.9-0.4,1-0.9c0.1-0.4,0.3-0.8,0.5-1.2c0.2-0.4,0.2-1-0.1-1.4l-1-1.4
		l1.1-1.1l1.4,1c0.4,0.3,1,0.3,1.4,0.1c0.4-0.2,0.8-0.4,1.2-0.5c0.5-0.2,0.8-0.6,0.9-1l0.3-1.7h1.6l0.3,1.7c0.1,0.5,0.4,0.9,0.9,1
		c0.4,0.1,0.8,0.3,1.2,0.5c0.4,0.2,1,0.2,1.4-0.1l1.4-1l1.1,1.1l-1,1.4c-0.3,0.4-0.3,1-0.1,1.4c0.2,0.4,0.4,0.8,0.5,1.2
		c0.2,0.5,0.6,0.8,1,0.9l1.7,0.3v1.6L61.3,34.5z"/>
	<path class="st0" d="M53.8,27.9c-3.1,0-5.5,2.5-5.5,5.5c0,3.1,2.5,5.5,5.5,5.5s5.6-2.5,5.6-5.5C59.3,30.4,56.8,27.9,53.8,27.9z
		 M53.8,36.4c-1.6,0-2.9-1.3-2.9-2.9c0-1.6,1.3-2.9,2.9-2.9c1.6,0,2.9,1.3,2.9,2.9C56.7,35.1,55.4,36.4,53.8,36.4z M42.6,84.8
		c0,0.7,0.6,1.3,1.3,1.3h12.1c0.7,0,1.3-0.6,1.3-1.3c0-0.7-0.6-1.3-1.3-1.3H44C43.2,83.5,42.6,84.1,42.6,84.8z M50,89.5h-6
		c-0.7,0-1.3,0.6-1.3,1.3s0.6,1.3,1.3,1.3h6c0.7,0,1.3-0.6,1.3-1.3S50.7,89.5,50,89.5z"/>
	<path class="st0" d="M96.8,77.5H86.1V65.2c0-0.7-0.6-1.3-1.3-1.3H57.2c-0.6-3-2.9-5.4-5.9-5.9v-6.6h10.8c0.7,0,1.3-0.6,1.3-1.3
		s-0.6-1.3-1.3-1.3H32.2c0.6-0.9,1-2,1-3.2V18.2h42.7V44c0,2.6-2.1,4.7-4.7,4.7h-4.1c-0.7,0-1.3,0.6-1.3,1.3s0.6,1.3,1.3,1.3h4.1
		c4.1,0,7.4-3.3,7.4-7.4V16.8c0-0.7-0.6-1.3-1.3-1.3H31.9c-0.7,0-1.3,0.6-1.3,1.3v28.7c0,1.7-1.4,3.1-3.1,3.2h-0.1
		c-0.7,0-1.3,0.6-1.3,1.3c0,0.7,0.6,1.3,1.3,1.3h21.3v6.6c-3,0.6-5.4,2.9-5.9,5.9H15.2c-0.7,0-1.3,0.6-1.3,1.3v12.3H3.2
		c-0.7,0-1.3,0.6-1.3,1.3v18.1c0,0.7,0.6,1.3,1.3,1.3h24.2c0.7,0,1.3-0.6,1.3-1.3V78.8c0-0.7-0.6-1.3-1.3-1.3H16.6v-11h26.2
		c0.6,3,2.9,5.4,5.9,5.9v5H37.9c-0.7,0-1.3,0.6-1.3,1.3v18.1c0,0.7,0.6,1.3,1.3,1.3h24.2c0.7,0,1.3-0.6,1.3-1.3V78.8
		c0-0.7-0.6-1.3-1.3-1.3H51.3v-5c3-0.6,5.4-2.9,5.9-5.9h26.2v11H72.7c-0.7,0-1.3,0.6-1.3,1.3v18.1c0,0.7,0.6,1.3,1.3,1.3h24.2
		c0.7,0,1.3-0.6,1.3-1.3V78.8C98.2,78,97.6,77.5,96.8,77.5L96.8,77.5z M26,95.6H4.5V80.1H26V95.6z M60.8,95.6H39.2V80.1h21.5
		L60.8,95.6z M50,69.9c-2.6,0-4.7-2.1-4.7-4.7c0-2.6,2.1-4.7,4.7-4.7s4.7,2.1,4.7,4.7C54.7,67.8,52.6,69.9,50,69.9z M95.5,95.6H74
		V80.1h21.5L95.5,95.6z"/>
	<path class="st0" d="M77.4,84.8c0,0.7,0.6,1.3,1.3,1.3h12.1c0.7,0,1.3-0.6,1.3-1.3c0-0.7-0.6-1.3-1.3-1.3H78.7
		C78,83.5,77.4,84.1,77.4,84.8z M84.8,89.5h-6c-0.7,0-1.3,0.6-1.3,1.3s0.6,1.3,1.3,1.3h6c0.7,0,1.3-0.6,1.3-1.3S85.5,89.5,84.8,89.5
		z M7.9,84.8c0,0.7,0.6,1.3,1.3,1.3h12.1c0.7,0,1.3-0.6,1.3-1.3c0-0.7-0.6-1.3-1.3-1.3H9.2C8.5,83.5,7.9,84.1,7.9,84.8z M15.2,89.5
		h-6c-0.7,0-1.3,0.6-1.3,1.3s0.6,1.3,1.3,1.3h6c0.7,0,1.3-0.6,1.3-1.3S16,89.5,15.2,89.5z M28.8,8c-0.7,0-1.3,0.6-1.3,1.3
		s0.6,1.3,1.3,1.3h3c0.7,0,1.3-0.6,1.3-1.3c0-0.7-0.6-1.3-1.3-1.3H28.8z"/>
	<path class="st0" d="M24.3,50.2c0.7,0,1.3-0.6,1.3-1.3c0-0.4-0.2-0.7-0.4-1c-0.7-0.6-1.1-1.5-1.1-2.4v-41h11.6l2.6,3.9
		c0.2,0.4,0.7,0.6,1.1,0.6h30.4v3.2c0,0.7,0.6,1.3,1.3,1.3s1.3-0.6,1.3-1.3V7.8c0-0.7-0.6-1.3-1.3-1.3h-31l-2.6-3.9
		c-0.2-0.4-0.7-0.6-1.1-0.6H22.8c-0.7,0-1.3,0.6-1.3,1.3v42.3c0,1.6,0.7,3.2,1.9,4.3C23.7,50.1,24,50.2,24.3,50.2z"/>
</g>
</svg>
