<?xml version="1.0" encoding="utf-8"?>
<!-- Generator: Adobe Illustrator 26.0.1, SVG Export Plug-In . SVG Version: 6.00 Build 0)  -->
<svg version="1.1" id="Layer_1" xmlns:svgjs="http://svgjs.com/svgjs"
	 xmlns="http://www.w3.org/2000/svg" xmlns:xlink="http://www.w3.org/1999/xlink" x="0px" y="0px" viewBox="0 0 100 100"
	 style="enable-background:new 0 0 100 100;" xml:space="preserve">
<style type="text/css">
	.st0{fill:#5275E3;}
</style>
<g>
	<path class="st0" d="M33.2,18.4h3.2v3.2h-3.2V18.4z M39.5,18.4h3.2v3.2h-3.2V18.4z M45.8,18.4h3.2v3.2h-3.2V18.4z M55.2,9h3.2v3.2
		h-3.2V9z"/>
	<path class="st0" d="M85.1,96.4c0.2-0.6,0.1-1.3-0.3-1.7l-9.2-9.2l-3-11.9l1.5-10.7c0-0.2,0-0.3,0-0.5L71,45
		c-0.2-2.5-2.2-4.4-4.7-4.5c-0.5,0-1.1,0.1-1.6,0.3V10.5c0-4.4-3.5-7.9-7.9-7.9H25.3c-4.4,0-7.9,3.5-7.9,7.9v19.4
		c-1.1-0.4-2.4-0.3-3.5,0.1c-2,0.7-3.5,2.4-4,4.5c-0.5,2,0.2,4.1,1.6,5.6l4.7,4.7c-2.6,1.3-3.9,4.4-2.9,7.2
		c-1.3,0.2-2.4,0.8-3.3,1.7c-2.4,2.4-2.4,6.2,0,8.5c0,0,0,0,0,0l2.6,2.6c-1,0.3-1.9,0.8-2.6,1.5c-2.4,2.4-2.4,6.2,0,8.5l6.3,6.3
		c0.3,0.3,0.7,0.6,1.1,0.9v1.2c0,4.4,3.5,7.9,7.9,7.9h15.1l5.8,5.8c0.3,0.3,0.7,0.5,1.1,0.5h36.3C84.3,97.3,84.9,97,85.1,96.4z
		 M33.2,5.8h15.8V9H33.2V5.8z M20.5,32.6V10.5c0-2.6,2.1-4.7,4.7-4.7H30v4.7c0,0.9,0.7,1.6,1.6,1.6h18.9c0.9,0,1.6-0.7,1.6-1.6V5.8
		h4.7c2.6,0,4.7,2.1,4.7,4.7v64.7H26.3c-0.3-1-0.8-1.9-1.5-2.7L22.2,70c2.6-0.7,4.4-3.1,4.4-5.8c0-0.7-0.1-1.3-0.3-1.9
		c1.7-0.3,3.3-1.3,4.2-2.8h7.5c0.9,0,1.6-0.7,1.6-1.6v-9.5c0-0.9-0.7-1.6-1.6-1.6h-9.5c-0.9,0-1.6,0.7-1.6,1.6v0.9l-3.6-3.6
		c-0.8-0.7-1.7-1.3-2.7-1.5L20.5,32.6z M30,52.6V50h6.3v6.3h-5C31.3,55,30.8,53.7,30,52.6L30,52.6z M13.7,37.8
		c-0.7-0.7-1-1.7-0.8-2.7c0.2-1,1-1.9,2-2.2c0.2-0.1,0.5-0.1,0.8-0.1c0.6,0,1.2,0.2,1.7,0.6v8.1L13.7,37.8z M16.9,48
		c0.6-0.5,1.3-0.8,2.1-0.8c0.8,0,1.5,0.3,2,0.8l6.3,6.3c0.5,0.5,0.9,1.3,0.9,2.1c0,0.3-0.1,0.7-0.2,1c-0.1,0.4-0.4,0.7-0.7,1
		c-1,1-2.7,1.1-3.8,0.2l-6.6-6.6c-0.5-0.5-0.8-1.3-0.8-2C16.1,49.3,16.4,48.5,16.9,48L16.9,48z M12.2,59.9c-1.1-1.1-1.1-3,0-4.1
		c0.5-0.5,1.3-0.8,2-0.8c0.7,0,1.3,0.2,1.8,0.6l6.5,6.5c1.1,1.2,1.1,3-0.1,4.1c-1.1,1.1-2.9,1.1-4,0L12.2,59.9z M18.5,78.9l-6.3-6.3
		c-1.1-1.2-1-3,0.2-4.1c1.1-1,2.8-1,3.9,0l6.3,6.3c1.1,1.2,1.1,3-0.1,4.1C21.4,79.9,19.6,79.9,18.5,78.9L18.5,78.9z M25.3,87.9
		c-2.6,0-4.7-2.1-4.7-4.7v-0.3h0c2.7,0,5.1-1.8,5.8-4.5h35.2v4.7c0,2.6-2.1,4.7-4.7,4.7H25.3z M48,94.2L44.9,91h12
		c4.4,0,7.9-3.5,7.9-7.9V45.3c0-0.9,0.7-1.6,1.6-1.6c0.8,0,1.5,0.9,1.6,1.9L71,62.7l-1.5,10.8c0,0.2,0,0.4,0,0.6l3.2,12.6
		c0.1,0.3,0.2,0.5,0.4,0.7l6.8,6.8H48z"/>
	<path class="st0" d="M37.9,81.6h6.3v3.2h-6.3V81.6z M28.4,43.7h9.5c0.9,0,1.6-0.7,1.6-1.6v-9.5c0-0.9-0.7-1.6-1.6-1.6h-9.5
		c-0.9,0-1.6,0.7-1.6,1.6v9.5C26.8,43,27.5,43.7,28.4,43.7z M30,34.2h6.3v6.3H30V34.2z M42.6,42.1c0,0.9,0.7,1.6,1.6,1.6h9.5
		c0.9,0,1.6-0.7,1.6-1.6v-9.5c0-0.9-0.7-1.6-1.6-1.6h-9.5c-0.9,0-1.6,0.7-1.6,1.6V42.1z M45.8,34.2h6.3v6.3h-6.3V34.2z M53.7,46.8
		h-9.5c-0.9,0-1.6,0.7-1.6,1.6v9.5c0,0.9,0.7,1.6,1.6,1.6h9.5c0.9,0,1.6-0.7,1.6-1.6v-9.5C55.2,47.6,54.5,46.8,53.7,46.8z
		 M52.1,56.3h-6.3V50h6.3V56.3z M33.2,68.9h3.2v3.2h-3.2V68.9z M39.5,68.9h3.2v3.2h-3.2V68.9z M45.8,68.9h3.2v3.2h-3.2V68.9z"/>
</g>
</svg>
