<?xml version="1.0" encoding="utf-8"?>
<!-- Generator: Adobe Illustrator 26.0.1, SVG Export Plug-In . SVG Version: 6.00 Build 0)  -->
<svg version="1.1" id="Layer_1" xmlns:svgjs="http://svgjs.com/svgjs"
	 xmlns="http://www.w3.org/2000/svg" xmlns:xlink="http://www.w3.org/1999/xlink" x="0px" y="0px" viewBox="0 0 100 100"
	 style="enable-background:new 0 0 100 100;" xml:space="preserve">
<style type="text/css">
	.st0{fill:#5275E3;}
</style>
<g>
	<path class="st0" d="M66.1,42c1.6-1.6,2.6-3.8,2.6-6.3c0-4.9-4-8.8-8.8-8.8c-3.7,0-7.1,2.4-8.3,5.8c-0.5-0.1-1.1-0.1-1.6-0.1
		c-0.5,0-1.1,0.1-1.6,0.1c-1.2-3.5-4.6-5.8-8.3-5.8c-4.9,0-8.8,4-8.8,8.8c0,2.4,1,4.7,2.6,6.3c-3.9,2.2-6.4,6.4-6.4,10.9
		c0,0.8,0.6,1.4,1.4,1.4s1.4-0.6,1.4-1.4c0-4,2.5-7.7,6.3-9.1c1.6,0.7,3.4,0.9,5.1,0.6c0.4,1.2,1.2,2.4,2.1,3.3
		c-3.9,2.2-6.4,6.4-6.4,10.9c0,0.8,0.6,1.4,1.4,1.4c0.8,0,1.4-0.6,1.4-1.4c0-3.9,2.3-7.4,5.9-9c0.1,0,0.2-0.1,0.3-0.1
		c1.1,0.5,2.3,0.7,3.5,0.7c1.2,0,2.4-0.3,3.5-0.7c3.7,1.4,6.3,5.1,6.3,9.1c0,0.8,0.6,1.4,1.4,1.4c0.8,0,1.4-0.6,1.4-1.4
		c0-4.5-2.5-8.7-6.4-10.9c0.9-0.9,1.7-2.1,2.1-3.3c1.7,0.3,3.5,0.1,5.1-0.6c3.7,1.4,6.3,5.1,6.3,9.1c0,0.8,0.6,1.4,1.4,1.4
		s1.4-0.6,1.4-1.4C72.5,48.4,70,44.2,66.1,42L66.1,42z M41.2,41.5c0,0.1,0,0.1,0,0.2c-0.4,0.1-0.7,0.1-1.1,0.1c-3.3,0-6-2.7-6-6
		c0-3.3,2.7-6,6-6c2.5,0,4.8,1.6,5.6,4C43,35.3,41.2,38.2,41.2,41.5z M44,41.5c0-3.3,2.7-6,6-6c3.3,0,6,2.7,6,6c0,3.3-2.7,6-6,6
		C46.7,47.4,44,44.8,44,41.5L44,41.5z M58.8,41.6c0-0.1,0-0.1,0-0.2c0-3.3-1.8-6.2-4.5-7.7c0.8-2.4,3.1-4,5.6-4c3.3,0,6,2.7,6,6
		c0,3.3-2.7,6-6,6C59.5,41.7,59.2,41.7,58.8,41.6z"/>
	<path class="st0" d="M86.7,62.9V37.1c3.5-0.7,6.2-3.8,6.2-7.5c0-4.2-3.4-7.6-7.6-7.6c-2.3,0-4.4,1-5.8,2.7L57.2,11.7
		c0.3-0.8,0.4-1.7,0.4-2.5c0-4.2-3.4-7.6-7.6-7.6S42.4,5,42.4,9.2c0,0.9,0.2,1.7,0.4,2.5L20.5,24.6C19.1,23,17,22,14.7,22
		C10.5,22,7,25.4,7,29.6c0,3.7,2.7,6.8,6.2,7.5v25.8C9.7,63.6,7,66.7,7,70.4c0,4.2,3.4,7.6,7.6,7.6c2.3,0,4.4-1,5.8-2.7l22.3,12.9
		c-0.3,0.8-0.4,1.7-0.4,2.5c0,4.2,3.4,7.6,7.6,7.6s7.6-3.4,7.6-7.6c0-0.9-0.2-1.7-0.4-2.5l22.3-12.9C80.9,77,83,78,85.3,78
		c4.2,0,7.6-3.4,7.6-7.6C93,66.7,90.3,63.6,86.7,62.9z M85.3,24.8c2.6,0,4.8,2.2,4.8,4.8s-2.2,4.8-4.8,4.8s-4.8-2.2-4.8-4.8
		S82.7,24.8,85.3,24.8z M50,4.4c2.6,0,4.8,2.2,4.8,4.8c0,2.6-2.2,4.8-4.8,4.8l0,0l0,0c-2.6,0-4.8-2.2-4.8-4.8
		C45.2,6.6,47.4,4.4,50,4.4z M9.9,29.6c0-2.6,2.2-4.8,4.8-4.8s4.8,2.2,4.8,4.8s-2.2,4.8-4.8,4.8S9.9,32.2,9.9,29.6L9.9,29.6z
		 M14.7,75.2c-2.6,0-4.8-2.2-4.8-4.8c0-2.6,2.2-4.8,4.8-4.8s4.8,2.2,4.8,4.8C19.5,73,17.3,75.2,14.7,75.2z M50,95.6
		c-2.6,0-4.8-2.2-4.8-4.8S47.4,86,50,86c2.6,0,4.8,2.2,4.8,4.8S52.6,95.6,50,95.6L50,95.6z M55.8,85.8c-1.1-1.3-2.6-2.2-4.4-2.5
		v-5.5c0-0.8-0.6-1.4-1.4-1.4c-0.8,0-1.4,0.6-1.4,1.4v5.5c-1.7,0.3-3.3,1.2-4.4,2.5L21.9,72.9c0.3-0.8,0.4-1.7,0.4-2.5
		c0-0.9-0.2-1.7-0.4-2.5l4.7-2.7c0.7-0.4,0.9-1.3,0.5-1.9c-0.4-0.7-1.2-0.9-1.9-0.5l-4.7,2.7c-1.1-1.3-2.6-2.2-4.4-2.5V37.1
		c1.7-0.3,3.3-1.2,4.4-2.5l4.7,2.7c0.7,0.4,1.5,0.2,1.9-0.5c0,0,0,0,0,0c0.4-0.7,0.2-1.5-0.5-1.9c0,0,0,0,0,0l-4.7-2.7
		c0.3-0.8,0.4-1.7,0.4-2.5c0-0.9-0.1-1.7-0.4-2.5l22.3-12.9c1.1,1.3,2.6,2.2,4.4,2.5v5.5c0,0.8,0.6,1.4,1.4,1.4s1.4-0.6,1.4-1.4
		v-5.5c1.7-0.3,3.3-1.2,4.4-2.5l22.3,12.9c-0.3,0.8-0.4,1.7-0.4,2.5c0,0.9,0.2,1.7,0.4,2.5l-4.7,2.7c-0.7,0.4-0.9,1.3-0.5,1.9
		c0.4,0.7,1.3,0.9,1.9,0.5l4.7-2.7c1.1,1.3,2.6,2.2,4.4,2.5v25.8c-1.7,0.3-3.3,1.2-4.4,2.5l-4.7-2.7c-0.7-0.4-1.5-0.2-1.9,0.5
		c-0.4,0.7-0.2,1.5,0.5,1.9l0,0l4.7,2.7c-0.3,0.8-0.4,1.7-0.4,2.5c0,0.9,0.2,1.7,0.4,2.5L55.8,85.8z M85.3,75.2
		c-2.6,0-4.8-2.2-4.8-4.8c0-2.6,2.2-4.8,4.8-4.8s4.8,2.2,4.8,4.8C90.1,73,88,75.2,85.3,75.2z"/>
	<path class="st0" d="M61.9,64.7h-4.2c-0.8,0-1.4,0.6-1.4,1.4s0.6,1.4,1.4,1.4h4.2c0.8,0,1.4-0.6,1.4-1.4S62.7,64.7,61.9,64.7z
		 M61.9,70.2H38.1c-0.8,0-1.4,0.6-1.4,1.4c0,0.8,0.6,1.4,1.4,1.4h23.8c0.8,0,1.4-0.6,1.4-1.4C63.3,70.9,62.7,70.2,61.9,70.2
		C61.9,70.2,61.9,70.2,61.9,70.2z M38.1,67.5L38.1,67.5c0.8,0,1.4-0.6,1.4-1.4s-0.6-1.4-1.4-1.4h0c-0.8,0-1.4,0.6-1.4,1.4
		S37.3,67.5,38.1,67.5z M43.1,67.5c0.8,0,1.4-0.6,1.4-1.4s-0.6-1.4-1.4-1.4h0c-0.8,0-1.4,0.6-1.4,1.4S42.2,67.5,43.1,67.5L43.1,67.5
		z M48,67.5c0.8,0,1.4-0.6,1.4-1.4s-0.6-1.4-1.4-1.4h0c-0.8,0-1.4,0.6-1.4,1.4S47.2,67.5,48,67.5L48,67.5z"/>
</g>
</svg>
