<?xml version="1.0" encoding="utf-8"?>
<!-- Generator: Adobe Illustrator 26.0.1, SVG Export Plug-In . SVG Version: 6.00 Build 0)  -->
<svg version="1.1" id="Layer_1" xmlns:svgjs="http://svgjs.com/svgjs"
	 xmlns="http://www.w3.org/2000/svg" xmlns:xlink="http://www.w3.org/1999/xlink" x="0px" y="0px" viewBox="0 0 100 100"
	 style="enable-background:new 0 0 100 100;" xml:space="preserve">
<style type="text/css">
	.st0{fill:#5275E3;}
</style>
<g>
	<path class="st0" d="M15.6,61.1c-5.3,0-9.6-4.3-9.6-9.6c0-5.3,4.3-9.6,9.6-9.6s9.6,4.3,9.6,9.6c0,0,0,0,0,0
		C25.2,56.8,20.9,61.1,15.6,61.1z M15.6,44.9c-3.6,0-6.6,3-6.6,6.6c0,3.6,3,6.6,6.6,6.6c3.6,0,6.6-3,6.6-6.6c0,0,0,0,0,0
		C22.2,47.9,19.2,44.9,15.6,44.9L15.6,44.9z M18.8,94.3c-0.8,0-1.5-0.7-1.5-1.5v-17c0-0.8,0.7-1.5,1.5-1.5c0.2,0,0.5,0.1,0.7,0.2
		l6.3,3.4l9.9,0.4c0.1,0,0.2,0,0.3-0.1C36,78.1,36,78,36,77.9c0-1.5-1-2.7-2.4-3.1L25,72.8c-0.3-0.1-0.6-0.2-0.8-0.5l-3.6-4
		c-3.1-3.5-8.5-3.8-12-0.7c-1.8,1.6-2.8,3.9-2.8,6.3v18.9c0,0.8-0.7,1.5-1.5,1.5s-1.5-0.7-1.5-1.5V73.9c0-6.3,5.1-11.5,11.5-11.5
		c3.3,0,6.4,1.4,8.6,3.9l3.3,3.7l8.1,1.9c2.8,0.7,4.7,3.1,4.7,6c0,1.8-1.5,3.3-3.3,3.3c0,0-0.1,0-0.1,0l-10.2-0.5
		c-0.2,0-0.4-0.1-0.6-0.2l-4.4-2.4v14.5C20.3,93.6,19.6,94.3,18.8,94.3z M84.4,61.1c-5.3,0-9.6-4.3-9.6-9.6c0-5.3,4.3-9.6,9.6-9.6
		s9.6,4.3,9.6,9.6l0,0C94,56.8,89.7,61.1,84.4,61.1z M84.4,44.9c-3.6,0-6.6,3-6.6,6.6s3,6.6,6.6,6.6s6.6-3,6.6-6.6c0,0,0,0,0,0
		C91,47.9,88.1,44.9,84.4,44.9L84.4,44.9z M95.7,94.3c-0.8,0-1.5-0.7-1.5-1.5V73.9c0-4.7-3.8-8.5-8.5-8.5c-2.4,0-4.7,1-6.3,2.8
		l-3.6,4c-0.2,0.2-0.5,0.4-0.8,0.5l-8.6,2.1C65,75.2,64,76.4,64,77.9c0,0.2,0.2,0.4,0.4,0.4c0,0,0,0,0,0l9.9-0.4l6.3-3.4
		c0.7-0.4,1.6-0.1,2,0.6c0.1,0.2,0.2,0.5,0.2,0.7v17c0,0.8-0.7,1.5-1.5,1.5c-0.8,0-1.5-0.7-1.5-1.5V78.3l-4.4,2.4
		c-0.2,0.1-0.4,0.2-0.6,0.2l-10.2,0.5c-1.8,0.1-3.4-1.4-3.5-3.2c0,0,0-0.1,0-0.1c0-2.8,1.9-5.3,4.7-6l8.1-1.9l3.3-3.7
		c4.2-4.7,11.5-5.2,16.2-1c2.5,2.2,3.9,5.3,3.9,8.6v18.9C97.2,93.6,96.5,94.3,95.7,94.3C95.7,94.3,95.7,94.3,95.7,94.3L95.7,94.3z
		 M69.8,46.6c-0.3,0-0.6-0.1-0.9-0.3L57.3,38H41.7c-2.4,0-4.3-1.9-4.3-4.3V10c0-2.4,1.9-4.3,4.3-4.3h35c2.4,0,4.3,1.9,4.3,4.3v23.6
		c0,2.4-1.9,4.3-4.3,4.3h-5.4v7.1C71.3,45.9,70.7,46.6,69.8,46.6z M41.7,8.7c-0.7,0-1.3,0.6-1.3,1.3v23.6c0,0.7,0.6,1.3,1.3,1.3
		h16.1c0.3,0,0.6,0.1,0.9,0.3l9.7,6.9v-5.7c0-0.8,0.7-1.5,1.5-1.5h6.9c0.7,0,1.3-0.6,1.3-1.3V10c0-0.7-0.6-1.3-1.3-1.3H41.7z"/>
	<path class="st0" d="M72.5,20.8H46c-0.8,0-1.5-0.7-1.5-1.5c0-0.8,0.7-1.5,1.5-1.5h26.5c0.8,0,1.5,0.7,1.5,1.5
		C74,20.1,73.3,20.8,72.5,20.8L72.5,20.8z M67,27.7h-1.7c-0.8,0-1.5-0.7-1.5-1.5s0.7-1.5,1.5-1.5H67c0.8,0,1.5,0.7,1.5,1.5
		S67.8,27.7,67,27.7z M61.5,27.7H46c-0.8,0-1.5-0.7-1.5-1.5s0.7-1.5,1.5-1.5h15.6c0.8,0,1.5,0.7,1.5,1.5S62.4,27.7,61.5,27.7z"/>
	<path class="st0" d="M31.6,50.7c-0.8,0-1.5-0.7-1.5-1.5v-6.3h-4.8c-2.2,0-4.1-1.8-4.1-4.1V17.2c0-2.2,1.8-4.1,4.1-4.1h8.6
		c0.8,0,1.5,0.7,1.5,1.5c0,0.8-0.7,1.5-1.5,1.5h-8.6c-0.6,0-1.1,0.5-1.1,1.1v21.5c0,0.6,0.5,1.1,1.1,1.1h6.3c0.8,0,1.5,0.7,1.5,1.5
		v4.9l8.6-6.1c0.3-0.2,0.6-0.3,0.9-0.3h14.7c0.8,0,1.5,0.7,1.5,1.5s-0.7,1.5-1.5,1.5H43.1l-10.6,7.6C32.3,50.6,31.9,50.7,31.6,50.7
		L31.6,50.7z M73.2,85.2h-5.9c-0.8,0-1.5-0.7-1.5-1.5c0-0.8,0.7-1.5,1.5-1.5h5.9c0.8,0,1.5,0.7,1.5,1.5C74.7,84.6,74,85.2,73.2,85.2
		z M62.5,85.2H61c-0.8,0-1.5-0.7-1.5-1.5c0-0.8,0.7-1.5,1.5-1.5h1.5c0.8,0,1.5,0.7,1.5,1.5C64,84.6,63.3,85.2,62.5,85.2z M56.8,85.2
		H26.8c-0.8,0-1.5-0.7-1.5-1.5c0-0.8,0.7-1.5,1.5-1.5h29.9c0.8,0,1.5,0.7,1.5,1.5C58.2,84.6,57.6,85.2,56.8,85.2z"/>
</g>
</svg>
