<?xml version="1.0" encoding="utf-8"?>
<!-- Generator: Adobe Illustrator 26.0.1, SVG Export Plug-In . SVG Version: 6.00 Build 0)  -->
<svg version="1.1" id="Layer_1" xmlns:svgjs="http://svgjs.com/svgjs"
	 xmlns="http://www.w3.org/2000/svg" xmlns:xlink="http://www.w3.org/1999/xlink" x="0px" y="0px" viewBox="0 0 100 100"
	 style="enable-background:new 0 0 100 100;" xml:space="preserve">
<style type="text/css">
	.st0{fill:#5275E3;}
</style>
<g>
	<path class="st0" d="M90.2,83.6c3.5,0,6.4-2.8,6.4-6.4V12.5c0-5-4.1-9.1-9.1-9.1h-75c-5,0-9.1,4.1-9.1,9.1v64.7
		c0,3.5,2.8,6.4,6.4,6.4h2v9.4H5.2c-1,0-1.8,0.8-1.8,1.8c0,1,0.8,1.8,1.8,1.8h89.5c1,0,1.8-0.8,1.8-1.8c0-1-0.8-1.8-1.8-1.8h-6.5
		v-9.4H90.2z M7.1,12.5c0-3,2.4-5.5,5.5-5.5h75c3,0,5.5,2.4,5.5,5.5v4H7.2c-0.1,0-0.1,0-0.2,0V12.5z M23.4,92.9h-8V76.6h8V92.9z
		 M43.8,92.9h-8V56.4h8V92.9z M64.2,92.9h-8V71.8h8V92.9z M86.4,50.1H74.7c-1,0-1.8,0.8-1.8,1.8v9.2c0,1,0.8,1.8,1.8,1.8
		c1,0,1.8-0.8,1.8-1.8v-7.4h8v39.2h-8V73.3c0-1-0.8-1.8-1.8-1.8c-1,0-1.8,0.8-1.8,1.8v19.6h-5.1V70c0-1-0.8-1.8-1.8-1.8H54.4
		c-1,0-1.8,0.8-1.8,1.8v22.9h-5.1V54.6c0-1-0.8-1.8-1.8-1.8H34c-1,0-1.8,0.8-1.8,1.8v38.3h-5.1V74.7c0-1-0.8-1.8-1.8-1.8H13.6
		c-1,0-1.8,0.8-1.8,1.8v5.2h-2c-1.5,0-2.7-1.2-2.7-2.7V20.2c0.1,0,0.1,0,0.2,0h85.7v57.1c0,1.5-1.2,2.7-2.7,2.7h-2v-28
		C88.2,50.9,87.4,50.1,86.4,50.1z"/>
	<path class="st0" d="M84.9,10H43.8c-1,0-1.8,0.8-1.8,1.8s0.8,1.8,1.8,1.8h41.1c1,0,1.8-0.8,1.8-1.8S85.9,10,84.9,10z M23.6,10.5
		c-0.3-0.3-0.8-0.5-1.3-0.5s-0.9,0.2-1.3,0.5c-0.3,0.3-0.5,0.8-0.5,1.3c0,0.5,0.2,0.9,0.5,1.3c0.3,0.3,0.8,0.5,1.3,0.5
		s0.9-0.2,1.3-0.5c0.3-0.3,0.5-0.8,0.5-1.3C24.2,11.3,24,10.8,23.6,10.5z M16.4,10.5C16,10.2,15.5,10,15.1,10s-0.9,0.2-1.3,0.5
		c-0.3,0.3-0.5,0.8-0.5,1.3c0,0.5,0.2,0.9,0.5,1.3c0.3,0.3,0.8,0.5,1.3,0.5s0.9-0.2,1.3-0.5c0.3-0.3,0.5-0.8,0.5-1.3
		C16.9,11.3,16.7,10.8,16.4,10.5z M30.9,10.5c-0.3-0.3-0.8-0.5-1.3-0.5c-0.5,0-0.9,0.2-1.3,0.5c-0.3,0.3-0.5,0.8-0.5,1.3
		c0,0.5,0.2,0.9,0.5,1.3c0.3,0.3,0.8,0.5,1.3,0.5s0.9-0.2,1.3-0.5c0.3-0.3,0.5-0.8,0.5-1.3C31.4,11.3,31.2,10.8,30.9,10.5z M76,66.3
		c-0.3-0.3-0.8-0.5-1.3-0.5c-0.5,0-0.9,0.2-1.3,0.5c-0.3,0.3-0.5,0.8-0.5,1.3c0,0.5,0.2,0.9,0.5,1.3c0.3,0.3,0.8,0.5,1.3,0.5
		c0.5,0,0.9-0.2,1.3-0.5c0.3-0.3,0.5-0.8,0.5-1.3C76.6,67.1,76.4,66.6,76,66.3z M80.6,28.2c-3.6,0-6.5,2.9-6.5,6.5
		c0,1.4,0.4,2.7,1.3,3.8L63.2,50.6c-1-0.5-2.1-0.8-3.2-0.8c-1,0-2,0.2-2.9,0.7L44.5,37.9c0.5-1,0.8-2.1,0.8-3.2
		c0-3.6-2.9-6.5-6.5-6.5s-6.5,2.9-6.5,6.5c0,1.3,0.4,2.4,1,3.4L22.5,48.9c-1-0.5-2.1-0.8-3.2-0.8c-3.6,0-6.5,2.9-6.5,6.5
		c0,3.6,2.9,6.5,6.5,6.5s6.5-2.9,6.5-6.5c0-1.1-0.3-2.2-0.8-3.2l10.9-10.9c0.9,0.4,1.9,0.7,2.9,0.7c1.1,0,2.2-0.3,3.2-0.8l12.5,12.5
		c-0.6,1-1,2.2-1,3.4c0,3.6,2.9,6.5,6.5,6.5s6.5-2.9,6.5-6.5c0-1.1-0.3-2.2-0.8-3.2l12.4-12.4c0.8,0.3,1.6,0.5,2.4,0.5
		c3.6,0,6.5-2.9,6.5-6.5S84.2,28.2,80.6,28.2z M19.3,57.5c-1.6,0-2.9-1.3-2.9-2.9c0-1.6,1.3-2.9,2.9-2.9s2.9,1.3,2.9,2.9
		C22.2,56.2,20.9,57.5,19.3,57.5z M38.8,37.6c-1.6,0-2.9-1.3-2.9-2.9c0-1.6,1.3-2.9,2.9-2.9c1.6,0,2.9,1.3,2.9,2.9
		C41.7,36.3,40.4,37.6,38.8,37.6z M60,59.3c-1.6,0-2.9-1.3-2.9-2.9c0-1.6,1.3-2.9,2.9-2.9s2.9,1.3,2.9,2.9
		C62.9,58,61.6,59.3,60,59.3z M80.6,37.6c-1.6,0-2.9-1.3-2.9-2.9s1.3-2.9,2.9-2.9c1.6,0,2.9,1.3,2.9,2.9S82.2,37.6,80.6,37.6z
		 M30.4,26.9c-0.3-0.3-0.8-0.5-1.3-0.5c-0.5,0-0.9,0.2-1.3,0.5c-0.3,0.3-0.5,0.8-0.5,1.3s0.2,0.9,0.5,1.3c0.3,0.3,0.8,0.5,1.3,0.5
		c0.5,0,0.9-0.2,1.3-0.5c0.3-0.3,0.5-0.8,0.5-1.3S30.7,27.2,30.4,26.9z M22.3,26.4h-8.7c-1,0-1.8,0.8-1.8,1.8c0,1,0.8,1.8,1.8,1.8
		h8.7c1,0,1.8-0.8,1.8-1.8C24.2,27.2,23.4,26.4,22.3,26.4z M22.3,35.1h-8.7c-1,0-1.8,0.8-1.8,1.8s0.8,1.8,1.8,1.8h8.7
		c1,0,1.8-0.8,1.8-1.8S23.4,35.1,22.3,35.1z"/>
</g>
</svg>
