<?xml version="1.0" encoding="utf-8"?>
<!-- Generator: Adobe Illustrator 26.0.1, SVG Export Plug-In . SVG Version: 6.00 Build 0)  -->
<svg version="1.1" id="Layer_1" xmlns:svgjs="http://svgjs.com/svgjs"
	 xmlns="http://www.w3.org/2000/svg" xmlns:xlink="http://www.w3.org/1999/xlink" x="0px" y="0px" viewBox="0 0 100 100"
	 style="enable-background:new 0 0 100 100;" xml:space="preserve">
<style type="text/css">
	.st0{fill:#5275E3;}
</style>
<g>
	<path class="st0" d="M86.6,30l-0.5-2.1c1-1.2,1.5-2.7,1.6-4.2c0.3,0,0.7,0,1-0.2c0.4-0.3,0.7-0.7,0.7-1.2v-5.7c0-2.2-1-4.1-2.8-5.3
		c-1.5-1-3.5-1.6-5.6-1.6c-4.4,0-8.8,2.4-8.8,6.9v5.7c0,0.5,0.2,0.9,0.6,1.2c0.3,0.2,0.6,0.3,0.9,0.3c0.1,0,0.1,0,0.2,0
		c0,1.6,0.6,3.1,1.6,4.2L75,30c-3.4,0.2-6.3,1.8-8,4.1c-1.7-3.9-5.6-6.6-10.5-6.9l-0.6-2.7c1.1-1.4,1.8-3.1,1.8-5v0
		c0.4,0.1,0.8,0.1,1.2-0.1c0.4-0.3,0.7-0.7,0.7-1.2v-6.5c0-2.4-1.1-4.5-3.1-5.9c-1.7-1.2-3.9-1.8-6.3-1.8c-4.9,0-9.9,2.7-9.9,7.7
		v6.5c0,0.4,0.2,0.9,0.5,1.1c0.3,0.3,0.8,0.4,1.2,0.3c0,0,0.1,0,0.1,0v0c0,1.9,0.7,3.7,1.8,5l-0.6,2.7c-4.9,0.3-8.8,2.9-10.5,6.9
		c-1.8-2.4-4.6-3.9-8-4.1l-0.5-2.1c1-1.2,1.5-2.7,1.6-4.2c0.3,0,0.7,0,1-0.2c0.4-0.3,0.7-0.7,0.7-1.2v-5.7c0-2.2-1-4.1-2.8-5.3
		c-1.5-1-3.5-1.6-5.6-1.6c-4.4,0-8.8,2.4-8.8,6.9v5.7c0,0.5,0.2,0.9,0.6,1.2c0.3,0.2,0.6,0.3,0.9,0.3c0.1,0,0.1,0,0.2,0
		c0,1.6,0.6,3.1,1.6,4.2L13.3,30c-5.8,0.4-10,4.6-10,10.2v9.3c0,2.8,0.3,5.6,0.8,8.4c0.1,0.5,0.5,1,1,1.1l8.5,2.4
		c0.6,1.8,1.3,3.6,2.2,5.3l-4.4,7.7c-0.3,0.5-0.2,1.1,0.1,1.5c3.2,4.7,7.2,8.7,11.9,11.9c0.5,0.3,1.1,0.3,1.5,0.1l7.7-4.4
		c1.7,0.9,3.5,1.6,5.3,2.2l2.4,8.5c0.1,0.5,0.6,0.9,1.1,1c2.8,0.5,5.6,0.8,8.4,0.8c2.8,0,5.7-0.3,8.4-0.8c0.5-0.1,1-0.5,1.1-1
		l2.4-8.5c1.8-0.6,3.6-1.3,5.3-2.2l7.7,4.4c0.5,0.3,1.1,0.2,1.5-0.1c4.7-3.2,8.7-7.2,11.9-11.9c0.3-0.5,0.3-1.1,0.1-1.5l-4.4-7.7
		c0.9-1.7,1.6-3.5,2.2-5.3l8.5-2.4c0.5-0.1,0.9-0.6,1-1.1c0.5-2.8,0.8-5.6,0.8-8.4v-9.3C96.6,34.6,92.5,30.4,86.6,30L86.6,30z
		 M84.1,31.9c-0.4,0.5-1.6,1.1-3.3,1.1c-1.8,0-2.9-0.6-3.3-1.1l0.5-2.2c0.9,0.4,1.8,0.6,2.8,0.6c1,0,1.9-0.2,2.8-0.6L84.1,31.9z
		 M78.7,20.7c1.5-1,2.5-1.6,3.2-2.1c0.7,1.2,1.7,2.3,2.9,3.3v1.5c0,1.1-0.5,2.1-1.2,2.9c-0.1,0-0.1,0.1-0.1,0.1
		c-0.7,0.6-1.7,1-2.7,1c-1,0-2-0.4-2.7-1.1c0,0-0.1-0.1-0.1-0.1c-0.8-0.8-1.2-1.8-1.2-2.9V22C77.3,21.6,77.9,21.2,78.7,20.7
		L78.7,20.7z M75.1,16.5c0-2.9,3.5-4,5.9-4c1.5,0,3,0.4,4,1.1c1,0.7,1.5,1.7,1.5,2.9v3c-1.2-1-2.1-2.1-2.7-3.6
		c-0.2-0.4-0.5-0.7-1-0.9c-0.4-0.1-0.9,0-1.3,0.3c-0.4,0.3-4,2.6-6.4,4.1L75.1,16.5z M74.8,32.9c0.8,1.8,3.2,3,6.1,3
		c2.8,0,5.3-1.2,6.1-3c4.1,0.5,6.8,3.3,6.8,7.3v7.8h-3.2v-7.3c0-0.8-0.7-1.5-1.5-1.5c-0.8,0-1.5,0.7-1.5,1.5v7.3H74.1v-7.3
		c0-0.8-0.7-1.5-1.5-1.5c-0.8,0-1.5,0.7-1.5,1.5v7.3h-3.2v-7.8C67.9,36.2,70.7,33.4,74.8,32.9L74.8,32.9z M33.5,51h38.7
		C71.5,62.6,61.8,71.8,50,71.8c-11.8,0-21.5-9.2-22.2-20.8H33.5z M53.9,29.4c-0.5,0.6-1.9,1.4-4,1.4c-2.1,0-3.5-0.7-4-1.4l0.6-2.8
		c1,0.5,2.2,0.8,3.4,0.8c1.2,0,2.3-0.3,3.4-0.8L53.9,29.4z M43.2,11.6c0-3.2,3.5-4.8,7-4.8c1.8,0,3.5,0.5,4.7,1.3
		c1.2,0.9,1.9,2.1,1.9,3.5v3.9c-1.6-1.2-2.8-2.6-3.5-4.4c-0.2-0.5-0.8-0.9-1.3-0.9c-0.3,0-0.7,0.1-0.9,0.3c-0.5,0.3-5,3.2-7.8,5
		L43.2,11.6L43.2,11.6z M47.4,16.3c1.9-1.2,3.1-2,3.9-2.5c0.9,1.5,2,2.8,3.5,3.9v1.8c0,2.7-2.2,4.9-4.9,4.9c-1.3,0-2.4-0.5-3.3-1.3
		c0,0-0.1-0.1-0.1-0.1c-0.9-0.9-1.5-2.1-1.5-3.5v-1.8C45.7,17.3,46.5,16.9,47.4,16.3z M34.9,38.8c0-4.7,3.3-8.1,8.2-8.6
		c0.8,2,3.5,3.5,6.8,3.5c3.3,0,6-1.4,6.8-3.5c4.9,0.5,8.2,3.9,8.2,8.6v9.2h-4.2v-8.6c0-0.8-0.7-1.5-1.5-1.5s-1.5,0.7-1.5,1.5v8.6H42
		v-8.6c0-0.8-0.7-1.5-1.5-1.5s-1.5,0.7-1.5,1.5v8.6h-4.2V38.8z M22.4,31.9C22,32.4,20.9,33,19.1,33c-1.7,0-2.8-0.6-3.3-1.1l0.5-2.2
		c0.9,0.4,1.8,0.6,2.8,0.6c1,0,1.9-0.2,2.8-0.6L22.4,31.9z M17,20.7c1.5-1,2.5-1.6,3.2-2.1c0.7,1.2,1.7,2.3,2.9,3.3v1.5
		c0,1.1-0.5,2.1-1.2,2.9c0,0-0.1,0.1-0.1,0.1c-0.7,0.7-1.7,1.1-2.7,1.1c-2.2,0-4-1.8-4-4V22C15.6,21.6,16.2,21.2,17,20.7z
		 M13.4,16.5c0-2.9,3.5-4,5.9-4c1.5,0,3,0.4,4,1.1c1,0.7,1.5,1.7,1.5,2.9v3c-1.2-1-2.1-2.1-2.7-3.6c-0.2-0.4-0.5-0.7-1-0.9
		c-0.4-0.1-0.9,0-1.3,0.3c-0.4,0.3-4,2.6-6.4,4.1L13.4,16.5z M6.2,40.2c0-4,2.8-6.8,6.8-7.3c0.8,1.8,3.2,3,6.1,3
		c2.8,0,5.3-1.2,6.1-3c4.1,0.5,6.8,3.3,6.8,7.3v7.8h-3.2v-7.3c0-0.8-0.7-1.5-1.5-1.5c-0.8,0-1.5,0.7-1.5,1.5v7.3H12.4v-7.3
		c0-0.8-0.7-1.5-1.5-1.5c-0.8,0-1.5,0.7-1.5,1.5v7.3H6.2V40.2z M84.7,58.8c-0.5,0.1-0.9,0.5-1,1c-0.7,2.2-1.5,4.3-2.6,6.3
		c-0.2,0.4-0.2,1,0,1.4l4.3,7.6c-2.8,3.8-6.1,7.1-9.9,9.9L68,80.7c-0.4-0.2-1-0.3-1.4,0c-2,1.1-4.1,1.9-6.3,2.6
		c-0.5,0.1-0.8,0.5-1,1L57,92.7c-4.6,0.7-9.4,0.7-14,0l-2.3-8.4c-0.1-0.5-0.5-0.9-1-1c-2.2-0.7-4.3-1.5-6.3-2.6
		c-0.4-0.2-1-0.2-1.4,0L24.4,85c-3.8-2.7-7.2-6.1-9.9-9.9l4.3-7.6c0.2-0.4,0.3-1,0-1.4c-1.1-2-1.9-4.1-2.6-6.3c-0.1-0.5-0.5-0.8-1-1
		l-8.4-2.3c-0.3-1.8-0.5-3.7-0.5-5.5h18.5C25.5,64.2,36.5,74.7,50,74.7c13.4,0,24.4-10.5,25.2-23.8h18.5c-0.1,1.9-0.2,3.7-0.5,5.5
		L84.7,58.8z"/>
</g>
</svg>
