<svg xmlns="http://www.w3.org/2000/svg" version="1.1" xmlns:xlink="http://www.w3.org/1999/xlink" xmlns:svgjs="http://svgjs.com/svgjs" width="512" height="512" x="0" y="0" viewBox="0 0 512 512" style="enable-background:new 0 0 512 512" xml:space="preserve" class=""><g><path d="M501.981 472.003H322.995c-5.523 0-9.999 4.477-9.999 9.999s4.477 9.999 9.999 9.999h178.986c5.523 0 9.999-4.477 9.999-9.999s-4.477-9.999-9.999-9.999zM188.005 472.003H10.019c-5.523 0-9.999 4.477-9.999 9.999s4.477 9.999 9.999 9.999h177.986c5.523 0 9.999-4.477 9.999-9.999s-4.477-9.999-9.999-9.999zM259.953 204.555h-77.492c-5.523 0-9.999 4.477-9.999 9.999 0 5.523 4.477 9.999 9.999 9.999h77.492c5.523 0 9.999-4.477 9.999-9.999s-4.477-9.999-9.999-9.999zM337.783 207.483a10.075 10.075 0 0 0-7.069-2.93c-2.64 0-5.22 1.07-7.069 2.93a10.033 10.033 0 0 0-2.93 7.069c0 2.63 1.06 5.21 2.93 7.069 1.86 1.86 4.43 2.93 7.069 2.93 2.63 0 5.21-1.07 7.069-2.93s2.93-4.44 2.93-7.069c0-2.629-1.07-5.209-2.93-7.069zM302.855 207.483a10.099 10.099 0 0 0-7.079-2.93c-2.63 0-5.21 1.07-7.069 2.93a10.075 10.075 0 0 0-2.93 7.069c0 2.64 1.07 5.21 2.93 7.069 1.87 1.86 4.44 2.93 7.069 2.93s5.21-1.07 7.079-2.93c1.86-1.86 2.92-4.44 2.92-7.069 0-2.629-1.06-5.209-2.92-7.069zM259.953 284.549h-77.492c-5.523 0-9.999 4.477-9.999 9.999s4.477 9.999 9.999 9.999h77.492c5.523 0 9.999-4.477 9.999-9.999s-4.477-9.999-9.999-9.999zM337.783 287.477a10.075 10.075 0 0 0-7.069-2.93c-2.64 0-5.21 1.07-7.069 2.93a10.033 10.033 0 0 0-2.93 7.069c0 2.64 1.06 5.21 2.93 7.069 1.86 1.86 4.43 2.93 7.069 2.93 2.63 0 5.21-1.07 7.069-2.93s2.93-4.44 2.93-7.069-1.07-5.209-2.93-7.069zM302.855 287.477a10.099 10.099 0 0 0-7.079-2.93c-2.63 0-5.21 1.07-7.069 2.93-1.86 1.86-2.93 4.44-2.93 7.069s1.07 5.21 2.93 7.069c1.86 1.86 4.44 2.93 7.069 2.93 2.64 0 5.21-1.07 7.079-2.93 1.86-1.86 2.92-4.44 2.92-7.069s-1.06-5.209-2.92-7.069zM259.953 364.543h-77.492c-5.523 0-9.999 4.477-9.999 9.999s4.477 9.999 9.999 9.999h77.492c5.523 0 9.999-4.477 9.999-9.999s-4.477-9.999-9.999-9.999zM337.783 367.471a10.093 10.093 0 0 0-7.069-2.93c-2.64 0-5.21 1.07-7.079 2.93-1.86 1.86-2.92 4.44-2.92 7.069s1.06 5.21 2.92 7.069c1.87 1.86 4.44 2.93 7.079 2.93 2.63 0 5.21-1.07 7.069-2.93s2.93-4.44 2.93-7.069-1.07-5.209-2.93-7.069zM302.845 367.471a10.057 10.057 0 0 0-7.069-2.93c-2.63 0-5.21 1.07-7.069 2.93s-2.93 4.44-2.93 7.069 1.07 5.21 2.93 7.069c1.86 1.86 4.44 2.93 7.069 2.93 2.64 0 5.21-1.07 7.069-2.93 1.87-1.86 2.93-4.44 2.93-7.069s-1.06-5.209-2.93-7.069z" fill="#5275e3" data-original="#000000" class=""></path><path d="M386.117 295.977c0-16.338-7.877-30.868-20.033-39.997 12.155-9.129 20.033-23.659 20.033-39.997 0-27.568-22.428-49.996-49.996-49.996H176.133c-27.568 0-49.996 22.428-49.996 49.996 0 16.338 7.877 30.868 20.033 39.997-12.155 9.129-20.033 23.659-20.033 39.997s7.877 30.868 20.033 39.997c-12.155 9.129-20.033 23.659-20.033 39.997 0 27.568 22.428 49.996 49.996 49.996h69.868v27.757c-11.638 4.128-19.998 15.242-19.998 28.278C226.002 498.543 239.459 512 256 512s29.998-13.457 29.998-29.998c0-13.035-8.36-24.15-19.998-28.278v-27.757h70.122c27.568 0 49.996-22.428 49.996-49.996 0-16.338-7.877-30.868-20.033-39.997 12.154-9.129 20.032-23.659 20.032-39.997zm-239.983-79.993c0-16.541 13.457-29.998 29.998-29.998H336.12c16.541 0 29.998 13.457 29.998 29.998s-13.457 29.998-29.998 29.998H176.132c-16.541-.001-29.998-13.458-29.998-29.998zM256 492.002c-5.514 0-9.999-4.486-9.999-9.999 0-5.514 4.486-9.999 9.999-9.999s9.999 4.486 9.999 9.999c0 5.513-4.485 9.999-9.999 9.999zm110.118-116.031c0 16.541-13.457 29.998-29.998 29.998H176.132c-16.541 0-29.998-13.457-29.998-29.998s13.457-29.998 29.998-29.998H336.12c16.541.001 29.998 13.458 29.998 29.998zm-29.998-49.996H176.132c-16.541 0-29.998-13.457-29.998-29.998s13.457-29.998 29.998-29.998H336.12c16.541 0 29.998 13.457 29.998 29.998s-13.457 29.998-29.998 29.998z" fill="#5275e3" data-original="#000000" class=""></path><path d="M490.513 154.835c-12.84-18.637-30.375-33.202-50.909-42.343C414.437 45.021 349.86 0 277.499 0c-42.105 0-82.68 15.307-114.248 43.1-28.864 25.411-48.374 59.558-55.596 96.975a103.09 103.09 0 0 0-4.644-.105C46.221 139.97.019 186.172.019 242.962c0 24.713 8.886 48.612 25.021 67.293 15.965 18.483 37.981 30.723 61.994 34.466.522.081 1.04.121 1.552.121 4.843 0 9.098-3.526 9.868-8.46.851-5.457-2.884-10.569-8.34-11.42-40.617-6.331-70.097-40.816-70.097-81.999 0-45.763 37.23-82.994 82.994-82.994 3.853 0 7.76.273 11.614.813a9.996 9.996 0 0 0 7.424-1.934 9.994 9.994 0 0 0 3.869-6.624c10.224-75.381 75.39-132.225 151.58-132.225 65.334 0 123.49 41.49 144.714 103.242a9.998 9.998 0 0 0 5.733 6.03c38.9 15.609 64.036 52.778 64.036 94.692 0 48.243-34.245 90.265-81.427 99.92-5.411 1.107-8.898 6.391-7.791 11.801 1.107 5.411 6.389 8.897 11.801 7.791 56.447-11.55 97.416-61.812 97.416-119.512 0-24.84-7.423-48.744-21.467-69.128z" fill="#5275e3" data-original="#000000" class=""></path></g></svg>