<svg xmlns="http://www.w3.org/2000/svg" version="1.1" xmlns:xlink="http://www.w3.org/1999/xlink" xmlns:svgjs="http://svgjs.com/svgjs" width="512" height="512" x="0" y="0" viewBox="0 0 64 64" style="enable-background:new 0 0 512 512" xml:space="preserve" class=""><g><path d="M58 1H6C3.243 1 1 3.243 1 6v37c0 2.757 2.243 5 5 5h18.713C25.532 49.17 26 50.562 26 52a7.006 7.006 0 0 1-.689 3H21c-2.757 0-5 2.243-5 5v2a1 1 0 0 0 1 1h30a1 1 0 0 0 1-1v-2c0-2.757-2.243-5-5-5h-4.311A6.995 6.995 0 0 1 38 52c0-1.457.456-2.823 1.283-4H58c2.757 0 5-2.243 5-5V6c0-2.757-2.243-5-5-5zM6 3h52c1.654 0 3 1.346 3 3v28h-2V7c0-1.103-.897-2-2-2H7c-1.103 0-2 .897-2 2v27H3V6c0-1.654 1.346-3 3-3zm34.168 13.003A4.842 4.842 0 0 1 43.105 15c2.064 0 3.916 1.337 4.608 3.328.141.402.519.672.945.672H57v2h-8.354a.998.998 0 0 0-.943.668c-.603 1.714-2.096 2.997-3.806 3.268a4.839 4.839 0 0 1-3.735-.94A4.003 4.003 0 0 0 44 20a4.006 4.006 0 0 0-3.832-3.997zM57 17h-7.67c-1.131-2.419-3.55-4-6.225-4-2.457 0-4.746 1.344-5.974 3.506a1 1 0 0 0 .87 1.494H40c1.103 0 2 .897 2 2s-.897 2-2.001 2l-2 .001a1 1 0 0 0-.868 1.495C38.384 25.698 40.651 27 43.106 27c.365 0 .734-.029 1.105-.087 2.193-.349 4.13-1.854 5.104-3.912H57v11H7V7h50zM46 60v1H18v-1c0-1.654 1.346-3 3-3h22c1.654 0 3 1.346 3 3zm-9.467-5h-9.066c.34-.96.533-1.971.533-3a9.011 9.011 0 0 0-.947-4h9.894A9.038 9.038 0 0 0 36 52c0 1.028.194 2.04.533 3zM58 46H6c-1.654 0-3-1.346-3-3v-7h58v7c0 1.654-1.346 3-3 3z" fill="#5275e3" data-original="#000000" class=""></path><path d="M32 38c-1.654 0-3 1.346-3 3s1.346 3 3 3 3-1.346 3-3-1.346-3-3-3zm0 4a1.001 1.001 0 0 1 0-2 1.001 1.001 0 0 1 0 2zM14 23h1.382l.401.803-1.49 1.49a.999.999 0 0 0 0 1.414l3 3a.999.999 0 0 0 1.414 0l1.49-1.49.803.401V30a1 1 0 0 0 1 1h4a1 1 0 0 0 1-1v-1.382l.803-.401 1.49 1.49a.999.999 0 0 0 1.414 0l3-3a.999.999 0 0 0 0-1.414l-1.49-1.49.401-.803H34a1 1 0 0 0 1-1v-4a1 1 0 0 0-1-1h-1.382l-.401-.803 1.49-1.49a.999.999 0 0 0 0-1.414l-3-3a.999.999 0 0 0-1.414 0l-1.49 1.49-.803-.401V10a1 1 0 0 0-1-1h-4a1 1 0 0 0-1 1v1.382l-.803.401-1.49-1.49a.999.999 0 0 0-1.414 0l-3 3a.999.999 0 0 0 0 1.414l1.49 1.49-.401.803H14a1 1 0 0 0-1 1v4a1 1 0 0 0 1 1zm1-4h1c.379 0 .725-.214.895-.553l1-2a1 1 0 0 0-.188-1.154L16.414 14 18 12.414l1.293 1.293c.306.305.771.379 1.154.188l2-1c.339-.17.553-.516.553-.895v-1h2v1c0 .379.214.725.553.895l2 1c.385.19.849.117 1.154-.188L30 12.414 31.586 14l-1.293 1.293a1 1 0 0 0-.188 1.154l1 2c.17.339.516.553.895.553h1v2h-1c-.379 0-.725.214-.895.553l-1 2a1 1 0 0 0 .188 1.154L31.586 26 30 27.586l-1.293-1.293a1.006 1.006 0 0 0-1.154-.188l-2 1c-.339.17-.553.516-.553.895v1h-2v-1c0-.379-.214-.725-.553-.895l-2-1a1 1 0 0 0-1.154.188L18 27.586 16.414 26l1.293-1.293a1 1 0 0 0 .188-1.154l-1-2A1.001 1.001 0 0 0 16 21h-1z" fill="#5275e3" data-original="#000000" class=""></path><path d="M24 25c2.757 0 5-2.243 5-5s-2.243-5-5-5-5 2.243-5 5 2.243 5 5 5zm0-8c1.654 0 3 1.346 3 3s-1.346 3-3 3-3-1.346-3-3 1.346-3 3-3z" fill="#5275e3" data-original="#000000" class=""></path></g></svg>