<svg xmlns="http://www.w3.org/2000/svg" version="1.1" xmlns:xlink="http://www.w3.org/1999/xlink" xmlns:svgjs="http://svgjs.com/svgjs" width="512" height="512" x="0" y="0" viewBox="0 0 64 64" style="enable-background:new 0 0 512 512" xml:space="preserve" class=""><g><path d="M50 43c-3.86 0-7 3.14-7 7s3.14 7 7 7 7-3.14 7-7-3.14-7-7-7zm0 12c-2.757 0-5-2.243-5-5s2.243-5 5-5 5 2.243 5 5-2.243 5-5 5z" fill="#5275e3" data-original="#000000"></path><path d="M50 47c-1.654 0-3 1.346-3 3s1.346 3 3 3 3-1.346 3-3-1.346-3-3-3zm0 4c-.551 0-1-.449-1-1s.449-1 1-1 1 .449 1 1-.449 1-1 1zM3.618 26H4v15h2V24H3.618a.618.618 0 0 1-.553-.894l3.382-6.764c.211-.421.895-.421 1.105 0l3.382 6.764a.618.618 0 0 1-.552.894H8v17h2V26h.382a2.62 2.62 0 0 0 2.342-3.789l-3.382-6.763C8.896 14.555 7.999 14 7 14s-1.896.555-2.342 1.447l-3.382 6.764A2.62 2.62 0 0 0 3.618 26zM18.658 28.552C19.104 29.445 20.001 30 21 30s1.896-.555 2.342-1.447l3.382-6.764A2.62 2.62 0 0 0 24.382 18H24V3h-2v17h2.382a.618.618 0 0 1 .553.894l-3.382 6.764c-.211.421-.895.421-1.105 0l-3.382-6.764a.618.618 0 0 1 .552-.894H20V3h-2v15h-.382a2.62 2.62 0 0 0-2.342 3.789z" fill="#5275e3" data-original="#000000"></path><path d="M58 1H34c-2.757 0-5 2.243-5 5v27.043a13.049 13.049 0 0 0-9.951 5.96c-.016 0-.032-.003-.049-.003-4.066 0-7.734 2.511-9.253 6.221A7.008 7.008 0 0 0 1 52c0 3.86 3.14 7 7 7h32.616l.544.544a3.07 3.07 0 0 0 3.561.57 1.02 1.02 0 0 1 .874-.038c.129.056.26.11.39.161.28.108.497.345.596.648A3.07 3.07 0 0 0 49.502 63h.996a3.07 3.07 0 0 0 2.921-2.116c.099-.302.316-.538.594-.646.132-.051.263-.104.393-.161.272-.119.591-.104.873.038a3.069 3.069 0 0 0 3.561-.57l.705-.704a3.067 3.067 0 0 0 .57-3.561 1.028 1.028 0 0 1-.038-.874c.056-.129.11-.26.161-.39.108-.28.345-.497.648-.596A3.072 3.072 0 0 0 63 50.498V6c0-2.757-2.243-5-5-5zM34 3h24c1.654 0 3 1.346 3 3v40.629c-.04-.015-.076-.035-.116-.049a1.025 1.025 0 0 1-.646-.594 9.529 9.529 0 0 0-.161-.393 1.03 1.03 0 0 1 .038-.873 3.067 3.067 0 0 0-.57-3.561L59 40.615V7c0-1.103-.897-2-2-2H35c-1.103 0-2 .897-2 2v26.356a12.939 12.939 0 0 0-2-.317V6c0-1.654 1.346-3 3-3zm7.58 37.108A13.08 13.08 0 0 0 35 34.015V31h22v8.579a3.066 3.066 0 0 0-1.721.306 1.024 1.024 0 0 1-.874.038 12.256 12.256 0 0 0-.39-.161 1.026 1.026 0 0 1-.596-.648A3.07 3.07 0 0 0 50.498 37h-.996a3.07 3.07 0 0 0-2.921 2.116 1.023 1.023 0 0 1-.596.646c-.131.051-.261.104-.391.161a1.026 1.026 0 0 1-.873-.038 3.065 3.065 0 0 0-3.141.223zM57 13H35V7h22zm-22 2h22v6H35zm0 8h22v6H35zM3 52c0-2.757 2.243-5 5-5a4.97 4.97 0 0 1 1.969.404l1.039.445.316-1.085C12.31 43.37 15.467 41 19 41a7.995 7.995 0 0 1 6.653 3.556l1.662-1.112a9.989 9.989 0 0 0-6.017-4.169A11.04 11.04 0 0 1 30 35c4.373 0 8.352 2.639 10.085 6.618a3.06 3.06 0 0 0-.199 3.102c.143.282.156.6.038.874-.056.129-.11.26-.161.39-.108.28-.345.497-.648.596A3.072 3.072 0 0 0 37 49.502v.996a3.07 3.07 0 0 0 2.116 2.921c.302.099.538.316.646.594.051.132.104.263.161.393a1.03 1.03 0 0 1-.038.873A3.064 3.064 0 0 0 39.579 57H8c-2.757 0-5-2.243-5-5zm58-1.502c0 .465-.297.875-.74 1.021a3.016 3.016 0 0 0-1.886 1.772c-.042.107-.086.214-.131.318a3.02 3.02 0 0 0 .087 2.572c.21.415.13.915-.199 1.244l-.705.705a1.072 1.072 0 0 1-1.244.199 3.017 3.017 0 0 0-2.571-.087c-.105.045-.212.089-.321.132a3.02 3.02 0 0 0-1.771 1.887 1.073 1.073 0 0 1-1.021.739h-.996c-.465 0-.875-.297-1.021-.74a3.016 3.016 0 0 0-1.772-1.886 10.068 10.068 0 0 1-.318-.131 2.96 2.96 0 0 0-1.186-.247c-.473 0-.947.112-1.386.333-.416.209-.916.13-1.244-.199l-.705-.705a1.072 1.072 0 0 1-.199-1.244 3.017 3.017 0 0 0 .087-2.571 11.912 11.912 0 0 1-.132-.321 3.02 3.02 0 0 0-1.887-1.771 1.07 1.07 0 0 1-.739-1.02v-.996c0-.465.297-.875.739-1.021a3.016 3.016 0 0 0 1.887-1.772c.042-.107.086-.214.131-.318a3.02 3.02 0 0 0-.087-2.572c-.21-.415-.13-.916.199-1.245l.704-.704c.329-.33.829-.411 1.245-.199a3.017 3.017 0 0 0 2.571.087c.106-.046.213-.09.32-.131a3.026 3.026 0 0 0 1.772-1.887c.145-.443.556-.74 1.021-.74h.996c.465 0 .875.297 1.021.74a3.02 3.02 0 0 0 1.771 1.886c.107.042.214.086.319.131a3.023 3.023 0 0 0 2.572-.087c.415-.211.915-.13 1.245.199l.704.704c.329.329.409.83.199 1.245a3.017 3.017 0 0 0-.087 2.571c.045.105.089.212.132.321a3.02 3.02 0 0 0 1.887 1.771c.442.145.739.556.739 1.021V50z" fill="#5275e3" data-original="#000000"></path><path d="M37 9h2v2h-2zM41 9h2v2h-2zM37 25h2v2h-2zM41 25h2v2h-2zM53 17h2v2h-2zM49 17h2v2h-2zM53 33h2v2h-2zM49 33h2v2h-2zM30 37c-.762 0-1.519.095-2.25.284l.499 1.937A6.992 6.992 0 0 1 30 39a6.997 6.997 0 0 1 6.78 5.25l1.937-.499A8.997 8.997 0 0 0 30 37zM19 43a6.017 6.017 0 0 0-5.88 4.801l1.96.398A4.01 4.01 0 0 1 19 45a3.97 3.97 0 0 1 3.201 1.601L23.8 45.4A5.955 5.955 0 0 0 19 43z" fill="#5275e3" data-original="#000000"></path></g></svg>