<svg xmlns="http://www.w3.org/2000/svg" version="1.1" xmlns:xlink="http://www.w3.org/1999/xlink" xmlns:svgjs="http://svgjs.com/svgjs" width="512" height="512" x="0" y="0" viewBox="0 0 66 66" style="enable-background:new 0 0 512 512" xml:space="preserve" class=""><g><path d="M5.475 47.987a1 1 0 0 0-1 1v5.607c-1.68.446-2.928 1.965-2.928 3.783a3.933 3.933 0 0 0 3.928 3.928 3.933 3.933 0 0 0 3.928-3.928c0-1.819-1.248-3.338-2.928-3.783v-4.607h16.647a1 1 0 0 0 1-1v-15.29h7.363v4.289l-.52-.52a1 1 0 1 0-1.413 1.415l2.226 2.226a1.003 1.003 0 0 0 1.414 0l2.226-2.226a1 1 0 1 0-1.414-1.414l-.519.519v-4.29h8.187v15.291a1 1 0 0 0 1 1h17.116v4.536a3.931 3.931 0 0 0-3.191 3.854c0 2.166 1.762 3.928 3.928 3.928s3.928-1.762 3.928-3.928c0-1.722-1.12-3.172-2.665-3.701v-5.689a1 1 0 0 0-1-1H43.672v-14.29h4.192v6.758a1 1 0 0 0 1 1h6.984l-.519.52a1 1 0 1 0 1.414 1.413l2.226-2.226c.39-.39.387-1.028 0-1.414l-2.226-2.226a1 1 0 1 0-1.414 1.414l.52.519h-5.985v-5.758h1.181c4.445 0 8.061-3.617 8.061-8.062a7.988 7.988 0 0 0-2.968-6.242c1.135-2.528-.234-5.535-2.93-6.266A12.355 12.355 0 0 0 40.858 1a12.383 12.383 0 0 0-11.965 9.193C24 7.05 17.22 10.045 16.584 16.183c-5.43-1.21-10.72 2.98-10.72 8.665 0 4.88 3.969 8.849 8.848 8.849h.977v5.76H9.704l.52-.52a1 1 0 1 0-1.415-1.414L6.583 39.75a1.004 1.004 0 0 0 0 1.415L8.81 43.39a1 1 0 1 0 1.414-1.414l-.52-.52h6.986a1 1 0 0 0 1-1v-6.76h4.433v14.291H5.475zm1.928 10.39c0 1.063-.865 1.928-1.928 1.928s-1.928-.865-1.928-1.928.865-1.928 1.928-1.928 1.928.865 1.928 1.928zm55.05 0c0 1.063-.865 1.928-1.928 1.928s-1.928-.865-1.928-1.928.865-1.928 1.928-1.928 1.928.865 1.928 1.928zm-47.74-26.68a6.857 6.857 0 0 1-6.85-6.85c0-4.996 5.068-8.093 9.313-6.395a.998.998 0 0 0 1.37-.978c-.293-5.889 6.46-8.605 10.309-4.756a1 1 0 0 0 1.7-.589C31.176 6.925 35.606 3 40.86 3 46.582 3 51.472 7.712 51.2 13.927a1 1 0 0 0 .938 1.042c2.045.125 3.113 2.467 1.879 4.106a.999.999 0 0 0 .267 1.448 6.003 6.003 0 0 1 2.822 5.112 6.068 6.068 0 0 1-6.062 6.062H14.712z" fill="#5275e3" data-original="#000000"></path><path d="M22.75 63.69V64a1 1 0 0 0 1 1h17.47a1 1 0 0 0 1-1v-.31c0-5.367-4.367-9.735-9.735-9.735s-9.734 4.368-9.734 9.736zm9.735-7.734c4.032 0 7.353 3.101 7.703 7.044h-2.731v-2.072a1 1 0 0 0-2 0V63h-5.944v-2.072a1 1 0 0 0-2 0V63H24.78c.35-3.943 3.672-7.044 7.704-7.044zM36.578 47.995c0-2.257-1.836-4.093-4.093-4.093s-4.093 1.836-4.093 4.093c0 2.257 1.836 4.093 4.093 4.093s4.093-1.836 4.093-4.093zm-6.186 0c0-1.154.94-2.093 2.093-2.093s2.093.939 2.093 2.093-.94 2.093-2.093 2.093-2.093-.94-2.093-2.093zM49.408 16.608l-1.898-.454 1.018-1.663a1 1 0 0 0-.146-1.229L46.23 11.11a1 1 0 0 0-1.229-.146l-1.664 1.018-.453-1.89a1 1 0 0 0-.973-.767h-3.04a1 1 0 0 0-.974.766l-.453 1.891-1.663-1.018a1.001 1.001 0 0 0-1.23.146L32.4 13.262a1 1 0 0 0-.146 1.23l1.018 1.662-1.897.454a1 1 0 0 0-.768.973v3.049a1 1 0 0 0 .767.973l1.898.454-1.018 1.662a1 1 0 0 0 .146 1.23l2.153 2.152a1 1 0 0 0 1.229.146l1.663-1.018.453 1.89a1 1 0 0 0 .973.767h3.041a1 1 0 0 0 .973-.767l.453-1.89L45 27.247a.999.999 0 0 0 1.229-.146l2.152-2.153a1 1 0 0 0 .146-1.229l-1.018-1.662 1.898-.454a1 1 0 0 0 .767-.973v-3.05a1 1 0 0 0-.767-.972zm-1.233 3.233-2.47.59a1.001 1.001 0 0 0-.62 1.495l1.326 2.165-1.038 1.038-2.165-1.325a.998.998 0 0 0-1.495.62l-.59 2.462h-1.464l-.59-2.462a1 1 0 0 0-1.495-.62l-2.165 1.325-1.038-1.038 1.325-2.165a1 1 0 0 0-.62-1.494l-2.47-.591V18.37l2.47-.591a1.001 1.001 0 0 0 .62-1.495L34.37 14.12l1.038-1.038 2.165 1.325a1 1 0 0 0 1.495-.62l.59-2.461h1.464l.59 2.462a1 1 0 0 0 1.495.62l2.165-1.326 1.038 1.038-1.326 2.165a1 1 0 0 0 .62 1.495l2.47.59z" fill="#5275e3" data-original="#000000"></path><path d="M40.39 15.249a3.86 3.86 0 0 0-3.856 3.856c0 2.127 1.73 3.857 3.857 3.857s3.857-1.73 3.857-3.857a3.86 3.86 0 0 0-3.857-3.856zm0 5.713a1.859 1.859 0 0 1-1.856-1.857c0-1.023.833-1.856 1.857-1.856s1.857.833 1.857 1.856a1.859 1.859 0 0 1-1.857 1.857z" fill="#5275e3" data-original="#000000"></path></g></svg>