<?xml version="1.0" encoding="utf-8"?>
<!-- Generator: Adobe Illustrator 26.0.1, SVG Export Plug-In . SVG Version: 6.00 Build 0)  -->
<svg version="1.1" id="Layer_1" xmlns:svgjs="http://svgjs.com/svgjs"
	 xmlns="http://www.w3.org/2000/svg" xmlns:xlink="http://www.w3.org/1999/xlink" x="0px" y="0px" viewBox="0 0 100 100"
	 style="enable-background:new 0 0 100 100;" xml:space="preserve">
<style type="text/css">
	.st0{fill:#5275E3;}
</style>
<g>
	<path class="st0" d="M10.8,53.4c2.8,0,5.1-2.3,5.1-5.1c0-0.6-0.1-1.2-0.3-1.8l7.7-6c0.8,0.6,1.9,0.9,2.9,0.9c1.9,0,3.6-1,4.4-2.6
		l5.9,1.2c0.3,2.6,2.4,4.6,5.1,4.6c2.8,0,5.1-2.3,5.1-5.1c0-0.7-0.2-1.4-0.5-2.1l8.2-7.3c0.8,0.5,1.7,0.7,2.6,0.7
		c2.8,0,5.1-2.3,5.1-5.1s-2.3-5.1-5.1-5.1s-5.1,2.3-5.1,5.1c0,0.7,0.2,1.5,0.5,2.1l-8.2,7.3c-0.8-0.5-1.7-0.7-2.6-0.7
		c-1.9,0-3.6,1-4.4,2.6l-5.9-1.2c-0.3-2.6-2.4-4.6-5.1-4.6c-2.8,0-5.1,2.3-5.1,5.1c0,0.6,0.1,1.2,0.3,1.8l-7.7,6
		c-0.8-0.6-1.9-0.9-2.9-0.9c-2.8,0-5.1,2.3-5.1,5.1C5.7,51.1,8,53.4,10.8,53.4L10.8,53.4z M57,23.7c1.1,0,2,0.9,2,2c0,1.1-0.9,2-2,2
		c-1.1,0-2-0.9-2-2C54.9,24.6,55.8,23.7,57,23.7z M41.6,37.5c1.1,0,2,0.9,2,2c0,1.1-0.9,2-2,2c-1.1,0-2-0.9-2-2
		C39.5,38.4,40.4,37.5,41.6,37.5z M26.2,34.3c1.1,0,2,0.9,2,2c0,1.1-0.9,2-2,2c-1.1,0-2-0.9-2-2C24.1,35.2,25.1,34.3,26.2,34.3z
		 M10.8,46.3c1.1,0,2,0.9,2,2c0,1.1-0.9,2-2,2c-1.1,0-2-0.9-2-2C8.8,47.2,9.7,46.3,10.8,46.3z M66.7,78.3v-4.3
		c0-0.8-0.7-1.5-1.5-1.5h-2.6V35.7c0-0.8-0.7-1.5-1.5-1.5h-8.3c-0.8,0-1.5,0.7-1.5,1.5v36.8h-4V52.3c0-0.8-0.7-1.5-1.5-1.5h-8.3
		c-0.8,0-1.5,0.7-1.5,1.5v20.3h-4V46.6c0-0.8-0.7-1.5-1.5-1.5H22c-0.8,0-1.5,0.7-1.5,1.5v25.9h-4V60.6c0-0.8-0.7-1.5-1.5-1.5H6.6
		c-0.8,0-1.5,0.7-1.5,1.5v11.9H2.5c-0.8,0-1.5,0.7-1.5,1.5v4.3c0,0.8,0.7,1.5,1.5,1.5h62.7C66.1,79.9,66.7,79.2,66.7,78.3L66.7,78.3
		z M54.3,37.3h5.2v35.3h-5.2V37.3z M39,53.8h5.2v18.7H39L39,53.8z M23.6,48.1h5.2v24.4h-5.2L23.6,48.1z M8.2,62.1h5.2v10.4H8.2V62.1
		z M63.7,76.8H4.1v-1.2h59.6L63.7,76.8z M92.5,58.8c3.7-0.7,6.5-3.8,6.5-7.6V32.8c0-3.7-2.8-6.5-7.6-7.7c-1.5-0.4-3.1-0.7-4.6-0.9
		c2.3-1.9,3.8-5.1,3.8-8.7c0-5.3-3.2-8.6-8.3-8.6c-5.1,0-8.3,3.3-8.3,8.6c0,3.7,1.5,6.9,3.8,8.7c-1.6,0.2-3.1,0.5-4.6,0.9
		c-4.9,1.3-7.6,4-7.6,7.7v18.5c0,3.7,2.8,6.9,6.5,7.6l0,18.9c-4,1.6-6.3,4-6.3,6.8c0,2.5,1.9,4.8,5.3,6.4c3.1,1.4,7.1,2.2,11.3,2.2
		c4.3,0,8.3-0.8,11.3-2.2c3.4-1.6,5.3-3.9,5.3-6.4c0-2.8-2.3-5.2-6.3-6.8L92.5,58.8L92.5,58.8z M82.2,10c2,0,5.3,0.7,5.3,5.5
		c0,4.1-2.4,7.4-5.3,7.4c-2.9,0-5.3-3.3-5.3-7.4C77,10.7,80.3,10,82.2,10z M68.5,51.3V32.8c0-2.7,2.9-4.1,5.3-4.7
		c5.5-1.4,11.1-1.4,16.8,0c2,0.5,5.3,1.8,5.3,4.7v18.5c0,2.1-1.4,3.8-3.4,4.4V38.8c0-0.8-0.7-1.5-1.5-1.5c-0.8,0-1.5,0.7-1.5,1.5V83
		H84V62.3c0-0.8-0.7-1.5-1.5-1.5c-0.8,0-1.5,0.7-1.5,1.5V83h-6l0-44.2c0-0.8-0.7-1.5-1.5-1.5c-0.8,0-1.5,0.7-1.5,1.5v16.9
		C69.9,55.1,68.5,53.3,68.5,51.3z M95.8,84.5c0,2.6-5.8,5.5-13.6,5.5c-7.8,0-13.6-2.9-13.6-5.5c0-1.2,1.2-2.4,3.2-3.5v3.5
		c0,0.8,0.7,1.5,1.5,1.5H91c0.8,0,1.5-0.7,1.5-1.5v-3.5C94.6,82.1,95.8,83.3,95.8,84.5L95.8,84.5z"/>
</g>
</svg>
