<?xml version="1.0" encoding="utf-8"?>
<!-- Generator: Adobe Illustrator 26.0.1, SVG Export Plug-In . SVG Version: 6.00 Build 0)  -->
<svg version="1.1" id="Layer_1" xmlns:svgjs="http://svgjs.com/svgjs"
	 xmlns="http://www.w3.org/2000/svg" xmlns:xlink="http://www.w3.org/1999/xlink" x="0px" y="0px" viewBox="0 0 100 100"
	 style="enable-background:new 0 0 100 100;" xml:space="preserve">
<style type="text/css">
	.st0{fill:#5275E3;}
</style>
<g>
	<path class="st0" d="M16.7,71.7h2.9v2.9h-2.9V71.7z M22.5,71.7h2.9v2.9h-2.9V71.7z M10.9,71.7h2.9v2.9h-2.9V71.7z M34.1,39.9H37
		v5.8h-2.9V39.9z M63,39.9h2.9v5.8H63V39.9z"/>
	<path class="st0" d="M81.9,8c-6.7,0-12.2,5.1-13,11.6h-4.7c-2.4-4.7-7.2-8.1-12.7-8.6V5.1h-2.9V11c-5.6,0.5-10.3,3.9-12.7,8.6H12.3
		c-4,0-7.2,3.2-7.2,7.2v46.4c0,4,3.2,7.2,7.2,7.2H37v3.1l-5.1,0.8c-2.1,0.3-3.6,2.2-3.6,4.3v6.2h43.5v-6.2c0-2.1-1.5-3.9-3.6-4.3
		L63,83.5v-3.1h24.6c4,0,7.2-3.2,7.2-7.2V21C94.9,13.8,89.1,8,81.9,8z M81.9,10.9C87.5,10.9,92,15.4,92,21s-4.6,10.1-10.1,10.1
		c-5.6,0-10.1-4.5-10.1-10.1S76.3,10.9,81.9,10.9z M71.7,65.9h-2.9v-5.8h2.9V65.9z M65.9,57.2v8.7H63V54.3h5.3L65,51.4h12.5v14.5
		h-2.9v-8.7H65.9z M31.2,65.9h-2.9v-5.8h2.9V65.9z M25.4,57.2v8.7h-2.9V51.4H35l-3.3,2.9H37v11.6h-2.9v-8.7H25.4z M50,13.9
		c1,0.5,3.9,2.3,4.3,8.6h-8.6C46.1,16.2,49,14.3,50,13.9z M63,25.4c0.1,0.5,0.1,1,0.1,1.4v7.2h-2.9v-5.8h-8.7v5.8h-2.9v-5.8h-8.7
		v5.8H37v-7.2c0-0.5,0-1,0.1-1.4H63z M68.8,48.6h-7.1l-8.3-7.4c-1.9-1.7-5.1-1.7-7,0l-8.3,7.4h-7.1V37h37.7V48.6z M39.3,51.4
		l9.1-8.1c0.9-0.8,2.3-0.8,3.1,0l9.1,8.1H39.3z M45.7,34.1h-2.9v-2.9h2.9V34.1z M57.2,34.1h-2.9v-2.9h2.9V34.1z M34.1,34.1h-5.8
		v14.5h-8.7v17.4h-5.8V28.3h20.3V34.1z M39.9,54.3h2.9v11.6h-2.9V54.3z M45.7,54.3h8.7v11.6h-8.7V54.3z M57.2,54.3h2.9v11.6h-2.9
		V54.3z M71.7,48.6V34.1h-5.8v-5.8H71c2.4,3.6,6.5,5.8,10.8,5.8c1.5,0,3-0.3,4.3-0.8v32.6h-5.8V48.6H71.7z M68.9,22.5
		c0.1,1,0.3,2,0.7,2.9h-3.7c-0.1-1-0.3-2-0.5-2.9H68.9z M62.3,22.5h-5.1c-0.2-3.5-1.1-6-2.1-7.7C58.4,16.2,61.1,19,62.3,22.5z
		 M45,14.8c-1.1,1.7-1.9,4.2-2.1,7.7h-5.1C38.9,19,41.6,16.2,45,14.8z M68.8,88.7V92H31.2v-3.3c0-0.7,0.5-1.3,1.2-1.4l4.9-0.8
		c0.7,1.6,2.3,2.7,4,2.7h17.4c1.8,0,3.4-1.1,4-2.7l4.9,0.8C68.3,87.4,68.8,88,68.8,88.7z M60.1,84.8c0,0.8-0.6,1.4-1.4,1.4H41.3
		c-0.8,0-1.4-0.7-1.4-1.4v-4.3h20.3V84.8z M92,73.2c0,2.4-2,4.3-4.3,4.3H12.3c-2.4,0-4.3-2-4.3-4.3V26.8c0-2.4,2-4.3,4.3-4.3h22.4
		c-0.3,0.9-0.5,1.9-0.5,2.9H13.8c-1.6,0-2.9,1.3-2.9,2.9v37.7c0,1.6,1.3,2.9,2.9,2.9h72.4c1.6,0,2.9-1.3,2.9-2.9V31.9
		c1.1-0.7,2.1-1.6,2.9-2.7V73.2z"/>
	<path class="st0" d="M87.2,17.7l-2-2L79,21.9L77.1,20l-2,2L79,26L87.2,17.7z"/>
</g>
</svg>
