<svg xmlns="http://www.w3.org/2000/svg" version="1.1" xmlns:xlink="http://www.w3.org/1999/xlink" xmlns:svgjs="http://svgjs.com/svgjs" width="512" height="512" x="0" y="0" viewBox="0 0 64 64" style="enable-background:new 0 0 512 512" xml:space="preserve" class=""><g><path d="M38 25a3.003 3.003 0 0 0-3-3H23a3.003 3.003 0 0 0-3 3v2a2.977 2.977 0 0 0 .78 2 2.977 2.977 0 0 0-.78 2v2a2.977 2.977 0 0 0 .78 2 2.977 2.977 0 0 0-.78 2v2a3.003 3.003 0 0 0 3 3h12a3.003 3.003 0 0 0 3-3v-2a2.977 2.977 0 0 0-.78-2 2.977 2.977 0 0 0 .78-2v-2a2.977 2.977 0 0 0-.78-2 2.977 2.977 0 0 0 .78-2zm-2 14a1.001 1.001 0 0 1-1 1H23a1.001 1.001 0 0 1-1-1v-2a1.001 1.001 0 0 1 1-1h12a1.001 1.001 0 0 1 1 1zm0-6a1.001 1.001 0 0 1-1 1H23a1.001 1.001 0 0 1-1-1v-2a1.001 1.001 0 0 1 1-1h12a1.001 1.001 0 0 1 1 1zm0-6a1.001 1.001 0 0 1-1 1H23a1.001 1.001 0 0 1-1-1v-2a1.001 1.001 0 0 1 1-1h12a1.001 1.001 0 0 1 1 1z" fill="#5275e3" data-original="#000000" class=""></path><path d="M23 25h2v2h-2zM27 25h8v2h-8zM23 31h2v2h-2zM27 31h8v2h-8zM23 37h2v2h-2zM27 37h8v2h-8z" fill="#5275e3" data-original="#000000" class=""></path><path d="M28.084 12.8a19.2 19.2 0 1 0 16.38 29.221l-1.705-1.044a17.2 17.2 0 1 1 .454-17.167l1.758-.954A19.2 19.2 0 0 0 28.083 12.8z" fill="#5275e3" data-original="#000000" class=""></path><path d="M49.17 44.595a1.52 1.52 0 0 1-.212-1.787l-1.775-.922a3.51 3.51 0 0 0 .574 4.123l.608.608a24.984 24.984 0 0 1-5.664 5.665l-.609-.61a3.51 3.51 0 0 0-4.123-.572 21.393 21.393 0 0 1-3.376 1.402 3.51 3.51 0 0 0-2.504 3.317v.852a24.583 24.583 0 0 1-8.01 0v-.852a3.51 3.51 0 0 0-2.505-3.317 21.407 21.407 0 0 1-3.377-1.403 3.513 3.513 0 0 0-4.122.574l-.609.61a24.964 24.964 0 0 1-5.664-5.666l.609-.608a3.51 3.51 0 0 0 .573-4.123 21.43 21.43 0 0 1-1.402-3.376 3.51 3.51 0 0 0-3.317-2.505h-.852a24.503 24.503 0 0 1 0-8.01h.852a3.508 3.508 0 0 0 3.317-2.505 21.43 21.43 0 0 1 1.402-3.376 3.51 3.51 0 0 0-.573-4.123l-.609-.608a24.964 24.964 0 0 1 5.664-5.665l.61.61a3.508 3.508 0 0 0 4.122.572 21.416 21.416 0 0 1 3.376-1.402 3.51 3.51 0 0 0 2.504-3.317v-.852a24.61 24.61 0 0 1 8.01 0v.852a3.51 3.51 0 0 0 2.505 3.317 21.383 21.383 0 0 1 3.376 1.402 3.512 3.512 0 0 0 4.124-.573l.608-.61a24.976 24.976 0 0 1 5.664 5.666l-.608.608a3.51 3.51 0 0 0-.574 4.123l1.775-.922a1.52 1.52 0 0 1 .213-1.787l1.2-1.2a1 1 0 0 0 .123-1.266 27.011 27.011 0 0 0-7.35-7.35.997.997 0 0 0-1.266.123l-1.2 1.201a1.515 1.515 0 0 1-1.786.212 23.53 23.53 0 0 0-3.693-1.533 1.5 1.5 0 0 1-1.11-1.411V6.492a1 1 0 0 0-.809-.981 26.82 26.82 0 0 0-10.393 0 1 1 0 0 0-.809.981v1.689a1.5 1.5 0 0 1-1.11 1.41 23.519 23.519 0 0 0-3.692 1.534 1.516 1.516 0 0 1-1.787-.212l-1.2-1.201a.996.996 0 0 0-1.266-.122 26.996 26.996 0 0 0-7.35 7.35 1 1 0 0 0 .123 1.265l1.2 1.2a1.502 1.502 0 0 1 .214 1.787 23.386 23.386 0 0 0-1.535 3.693 1.5 1.5 0 0 1-1.41 1.11H2.576a1 1 0 0 0-.981.808 26.669 26.669 0 0 0 0 10.393 1 1 0 0 0 .981.809h1.689a1.499 1.499 0 0 1 1.41 1.11 23.386 23.386 0 0 0 1.534 3.693 1.502 1.502 0 0 1-.212 1.787l-1.201 1.2a1 1 0 0 0-.123 1.266 26.996 26.996 0 0 0 7.35 7.35.997.997 0 0 0 1.266-.123l1.2-1.201a1.52 1.52 0 0 1 1.786-.214 23.386 23.386 0 0 0 3.693 1.535 1.5 1.5 0 0 1 1.11 1.411v1.689a1 1 0 0 0 .809.981 26.694 26.694 0 0 0 10.393 0 1 1 0 0 0 .809-.981v-1.689a1.5 1.5 0 0 1 1.11-1.41 23.35 23.35 0 0 0 3.692-1.535 1.52 1.52 0 0 1 1.787.213l1.2 1.201a.997.997 0 0 0 1.267.122 26.996 26.996 0 0 0 7.35-7.35 1 1 0 0 0-.123-1.265z" fill="#5275e3" data-original="#000000" class=""></path><path d="M60 37a2.995 2.995 0 0 0-2.816 2h-1.649l-1.703-2.555A1 1 0 0 0 53 36h-7v2h6.465l1.703 2.555A1 1 0 0 0 55 41h2.184A2.995 2.995 0 1 0 60 37zm0 4a1 1 0 1 1 1-1 1.001 1.001 0 0 1-1 1zM58 35a3 3 0 1 0-2.816-4H41v2h14.184A2.995 2.995 0 0 0 58 35zm0-4a1 1 0 1 1-1 1 1.001 1.001 0 0 1 1-1zM60 21a2.995 2.995 0 0 0-2.816 2H55a1 1 0 0 0-.832.445L52.465 26H46v2h7a1 1 0 0 0 .832-.445L55.535 25h1.65A2.995 2.995 0 1 0 60 21zm0 4a1 1 0 1 1 1-1 1.001 1.001 0 0 1-1 1zM42 36h2v2h-2zM42 26h2v2h-2z" fill="#5275e3" data-original="#000000" class=""></path></g></svg>