<svg xmlns="http://www.w3.org/2000/svg" version="1.1" xmlns:xlink="http://www.w3.org/1999/xlink" xmlns:svgjs="http://svgjs.com/svgjs" width="512" height="512" x="0" y="0" viewBox="0 0 66 66" style="enable-background:new 0 0 512 512" xml:space="preserve" class=""><g><path d="M49.7 54.3c-.1 0-.3 0-.4-.1-.5-.2-11.6-5.2-11.6-11.9V27c0-.3.2-.6.4-.8.3-.2.6-.2.9-.1 1.1.5 2.4.7 3.6.7 2.9 0 5.1-1.2 6.4-2.3.4-.3.9-.3 1.3 0 1.8 1.5 4 2.3 6.4 2.3 1.2 0 2.5-.3 3.6-.7.3-.1.7-.1.9.1.3.2.4.5.4.8v15.3C61.6 49 50.5 54 50 54.2c0 .1-.2.1-.3.1zm-10-25.9v13.9c0 4.3 6.9 8.4 10 9.9 3.1-1.5 10-5.6 10-9.9V28.4c-1 .3-2 .4-3 .4-2.6 0-5-.8-7-2.2-2.1 1.5-4.5 2.2-7 2.2-1 0-2-.1-3-.4z" fill="#5275e3" data-original="#000000" class=""></path><path d="M48.7 43.8c-.2 0-.4-.1-.6-.2l-4.2-2.8c-.5-.3-.6-.9-.3-1.4s.9-.6 1.4-.3l3.5 2.3 5.6-6.3c.4-.4 1-.5 1.4-.1s.5 1 .1 1.4l-6.2 7c-.1.3-.4.4-.7.4zM43.6 64H9.3c-2.8 0-5-2.2-5-5V15.2c0-2.8 2.2-5 5-5h5.1c.6 0 1 .4 1 1s-.4 1-1 1H9.3c-1.7 0-3 1.3-3 3V59c0 1.7 1.3 3 3 3h34.3c1.7 0 3-1.3 3-3v-6.8c0-.6.4-1 1-1s1 .4 1 1V59c0 2.8-2.2 5-5 5zM47.6 27.7c-.6 0-1-.4-1-1V15.2c0-1.7-1.3-3-3-3h-5.1c-.6 0-1-.4-1-1s.4-1 1-1h5.1c2.8 0 5 2.2 5 5v11.5c0 .6-.4 1-1 1z" fill="#5275e3" data-original="#000000" class=""></path><path d="M38.5 15.8h-24c-.6 0-1-.4-1-1v-3.6c0-1.5 1.2-2.6 2.9-2.6h6c.6 0 1 .4 1 1s-.4 1-1 1h-6c-.5 0-.9.3-.9.6v2.6h22v-2.6c0-.3-.4-.6-.9-.6h-6c-.6 0-1-.4-1-1s.4-1 1-1h6c1.6 0 2.9 1.2 2.9 2.6v3.6c0 .6-.4 1-1 1z" fill="#5275e3" data-original="#000000" class=""></path><path d="M30.6 10.6c-.1 0-.3 0-.4-.1-.5-.2-.7-.8-.4-1.3.1-.4.2-1 .2-1.6 0-2-1.6-3.6-3.6-3.6s-3.6 1.6-3.6 3.6c0 .5.1 1 .4 1.6.2.5 0 1.1-.4 1.3-.5.2-1.1 0-1.3-.4-.4-.8-.6-1.6-.6-2.4 0-3.1 2.5-5.6 5.6-5.6S32 4.5 32 7.6c0 1-.2 1.8-.5 2.4-.2.4-.5.6-.9.6zM15.4 24.9h-4.3c-.6 0-1-.4-1-1v-4.3c0-.6.4-1 1-1h4.3c.6 0 1 .4 1 1v4.3c0 .6-.4 1-1 1zm-3.3-2h2.3v-2.3h-2.3zM41.8 22.7H20.1c-.6 0-1-.4-1-1s.4-1 1-1h21.7c.6 0 1 .4 1 1s-.4 1-1 1zM15.4 33.6h-4.3c-.6 0-1-.4-1-1v-4.3c0-.6.4-1 1-1h4.3c.6 0 1 .4 1 1v4.3c0 .6-.4 1-1 1zm-3.3-2h2.3v-2.3h-2.3zM34.3 31.4H20.1c-.6 0-1-.4-1-1s.4-1 1-1h14.2c.6 0 1 .4 1 1s-.4 1-1 1zM15.4 42.3h-4.3c-.6 0-1-.4-1-1V37c0-.6.4-1 1-1h4.3c.6 0 1 .4 1 1v4.3c0 .6-.4 1-1 1zm-3.3-2h2.3V38h-2.3zM34.3 40.1H20.1c-.6 0-1-.4-1-1s.4-1 1-1h14.2c.6 0 1 .4 1 1s-.4 1-1 1zM15.4 51h-4.3c-.6 0-1-.4-1-1v-4.3c0-.6.4-1 1-1h4.3c.6 0 1 .4 1 1V50c0 .6-.4 1-1 1zm-3.3-2h2.3v-2.3h-2.3zM35.8 48.8H20.1c-.6 0-1-.4-1-1s.4-1 1-1h15.7c.6 0 1 .4 1 1s-.4 1-1 1zM15.4 59.7h-4.3c-.6 0-1-.4-1-1v-4.3c0-.6.4-1 1-1h4.3c.6 0 1 .4 1 1v4.3c0 .6-.4 1-1 1zm-3.3-2h2.3v-2.3h-2.3zM41.8 57.5H20.1c-.6 0-1-.4-1-1s.4-1 1-1h21.7c.6 0 1 .4 1 1s-.4 1-1 1z" fill="#5275e3" data-original="#000000" class=""></path></g></svg>