<svg xmlns="http://www.w3.org/2000/svg" version="1.1" xmlns:xlink="http://www.w3.org/1999/xlink" xmlns:svgjs="http://svgjs.com/svgjs" width="512" height="512" x="0" y="0" viewBox="0 0 64 64" style="enable-background:new 0 0 512 512" xml:space="preserve" class=""><g><path d="M34 14c-2.206 0-4 1.794-4 4v8h2v-4h4v4h2v-8c0-2.206-1.794-4-4-4zm-2 6v-2c0-1.103.897-2 2-2s2 .897 2 2v2zM44 14h-4v12h2v-4h2c2.206 0 4-1.794 4-4s-1.794-4-4-4zm0 6h-2v-4h2c1.103 0 2 .897 2 2s-.897 2-2 2zM49 16h2v8h-2v2h6v-2h-2v-8h2v-2h-6z" fill="#5275e3" data-original="#000000"></path><path d="M63 24.721V17.28l-2.606-.869a17.818 17.818 0 0 0-1.852-4.46l1.231-2.461-5.263-5.262-2.461 1.23a17.852 17.852 0 0 0-4.46-1.851L46.721 1H39.28l-.87 2.606a17.852 17.852 0 0 0-4.46 1.851l-2.461-1.23L28.716 7H4c-1.654 0-3 1.346-3 3v42c0 1.654 1.346 3 3 3h19v8h12V49h-5v-2h12v2h-5v14h12V49h-5v-2h12v2h-5v14h12V49h-5v-4h-3v-7.716l4.773-4.773-1.231-2.461a17.892 17.892 0 0 0 1.852-4.46zM47 61h-8V51h8zm14 0h-8V51h8zM4 9h22.716l-.489.489 1.231 2.461a17.898 17.898 0 0 0-1.409 3.049H3v-5A1 1 0 0 1 4 9zm29 52h-8V51h8zm-5-16v4h-5v4H4c-.552 0-1-.449-1-1V17h20.838l-.838.279v7.441l2.606.869a17.818 17.818 0 0 0 1.852 4.46l-1.231 2.461 5.263 5.262 2.461-1.23a17.852 17.852 0 0 0 4.46 1.851L39.279 41H42v4zm16 0v-4h2.721l.869-2.606a17.852 17.852 0 0 0 4.46-1.851l.95.475V45zm14.58-20.409a15.87 15.87 0 0 1-2.026 4.881l-.298.476 1.084 2.168-3.224 3.223-2.167-1.083-.477.298a15.846 15.846 0 0 1-4.881 2.026l-.548.125L45.279 39H40.72l-.765-2.294-.548-.125a15.87 15.87 0 0 1-4.881-2.026l-.477-.298-2.167 1.083-3.224-3.223 1.084-2.168-.298-.476a15.87 15.87 0 0 1-2.026-4.881l-.126-.547L25 23.279V18.72l2.294-.765.126-.547a15.87 15.87 0 0 1 2.026-4.881l.298-.476-1.084-2.167 3.224-3.223 2.167 1.083.477-.298a15.846 15.846 0 0 1 4.881-2.026l.548-.125L40.721 3h4.559l.765 2.294.548.125a15.87 15.87 0 0 1 4.881 2.026l.477.298 2.167-1.083 3.224 3.223-1.084 2.168.298.476a15.87 15.87 0 0 1 2.026 4.881l.126.547 2.292.766v4.559l-2.294.765z" fill="#5275e3" data-original="#000000"></path><path d="M27 53h4v2h-4zM27 57h4v2h-4zM41 53h4v2h-4zM41 57h4v2h-4zM55 53h4v2h-4zM55 57h4v2h-4zM9 11h2v2H9zM13 11h2v2h-2zM5 11h2v2H5zM5 31h16V19H5zm2-10h12v8H7zM5 33h16v2H5zM17 37h4v2h-4zM5 37h10v2H5zM5 41h16v2H5zM5 45h2v2H5zM9 45h12v2H9zM5 49h16v2H5z" fill="#5275e3" data-original="#000000"></path></g></svg>