<svg xmlns="http://www.w3.org/2000/svg" version="1.1" xmlns:xlink="http://www.w3.org/1999/xlink" xmlns:svgjs="http://svgjs.com/svgjs" width="512" height="512" x="0" y="0" viewBox="0 0 66 66" style="enable-background:new 0 0 512 512" xml:space="preserve" class=""><g><path d="M58.19 1.15H7.81c-3.69 0-6.69 3-6.69 6.69v50.32c0 3.69 3 6.69 6.69 6.69h50.38c3.69 0 6.69-3 6.69-6.69V7.84c0-3.69-3-6.69-6.69-6.69zm4.94 57.01c0 2.72-2.21 4.94-4.94 4.94H7.81c-2.72 0-4.94-2.21-4.94-4.94V7.84c0-2.72 2.21-4.94 4.94-4.94h50.38c2.72 0 4.94 2.21 4.94 4.94z" fill="#5275e3" data-original="#000000" class=""></path><path d="M58.19 14.72H7.81C6.26 14.72 5 15.99 5 17.54v40.62c0 1.55 1.26 2.81 2.81 2.81h50.38c1.55 0 2.81-1.26 2.81-2.81V17.54c0-1.55-1.26-2.82-2.81-2.82zm1.06 43.44c0 .59-.48 1.06-1.06 1.06H7.81c-.59 0-1.06-.48-1.06-1.06V17.54c0-.59.48-1.06 1.06-1.06h50.38c.59 0 1.06.48 1.06 1.06z" fill="#5275e3" data-original="#000000" class=""></path><path d="M30.61 41.89h-4.3c-.48 0-.88.39-.88.88V56.1c0 .48.39.88.88.88h4.3c.48 0 .88-.39.88-.88V42.77c0-.49-.4-.88-.88-.88zm-.87 13.33h-2.55V43.64h2.55zM39.12 37.59h-4.3c-.48 0-.88.39-.88.88V56.1c0 .48.39.88.88.88h4.3c.48 0 .88-.39.88-.88V38.46a.886.886 0 0 0-.88-.87zm-.88 17.63h-2.55V39.34h2.55zM47.62 46.23h-4.3c-.48 0-.88.39-.88.88v8.99c0 .48.39.88.88.88h4.3c.48 0 .88-.39.88-.88v-8.99a.888.888 0 0 0-.88-.88zm-.88 8.99H44.2v-7.24h2.55v7.24zM56.12 33.78h-4.3c-.48 0-.88.39-.88.88V56.1c0 .48.39.88.88.88h4.3c.48 0 .88-.39.88-.88V34.65c0-.48-.39-.87-.88-.87zm-.87 21.44H52.7V35.53h2.55z" fill="#5275e3" data-original="#000000" class=""></path><path d="M54.32 23.86c-1.58 0-2.88 1.29-2.88 2.88 0 .52.15.99.39 1.41l-5.43 5.32c-.4-.22-.86-.35-1.34-.35-.4 0-.78.08-1.13.23l-4.41-4.22c.19-.38.3-.8.3-1.25a2.88 2.88 0 0 0-5.76 0c0 .48.13.93.34 1.33l-3.15 3.2c-.41-.22-.86-.36-1.36-.36-1.58 0-2.88 1.29-2.88 2.88a2.88 2.88 0 0 0 5.76 0c0-.45-.12-.88-.3-1.26l3.18-3.23c.39.2.82.32 1.29.32.5 0 .96-.14 1.36-.36l4.3 4.11c-.26.43-.43.94-.43 1.48a2.88 2.88 0 0 0 5.76 0c0-.46-.12-.89-.31-1.27l5.5-5.39c.37.17.77.27 1.2.27 1.58 0 2.88-1.29 2.88-2.88s-1.29-2.86-2.88-2.86zM29.9 36.05c-.62 0-1.13-.5-1.13-1.13s.5-1.13 1.13-1.13 1.13.5 1.13 1.13-.51 1.13-1.13 1.13zm5.92-8.17c0-.62.5-1.13 1.13-1.13s1.13.5 1.13 1.13-.5 1.13-1.13 1.13-1.13-.51-1.13-1.13zm9.24 9.24c-.62 0-1.13-.5-1.13-1.13s.5-1.13 1.13-1.13 1.13.5 1.13 1.13-.51 1.13-1.13 1.13zm9.26-9.26c-.62 0-1.13-.5-1.13-1.13s.5-1.13 1.13-1.13 1.13.5 1.13 1.13-.51 1.13-1.13 1.13zM9.96 12.1c1.74 0 3.16-1.42 3.16-3.16S11.7 5.78 9.96 5.78 6.8 7.2 6.8 8.94s1.42 3.16 3.16 3.16zm0-4.57c.78 0 1.41.63 1.41 1.41s-.63 1.41-1.41 1.41-1.41-.63-1.41-1.41.63-1.41 1.41-1.41zM18.16 12.1c1.74 0 3.16-1.42 3.16-3.16s-1.42-3.16-3.16-3.16S15 7.2 15 8.94s1.42 3.16 3.16 3.16zm0-4.57c.78 0 1.41.63 1.41 1.41s-.63 1.41-1.41 1.41-1.41-.63-1.41-1.41.63-1.41 1.41-1.41zM26.36 12.1c1.74 0 3.16-1.42 3.16-3.16s-1.42-3.16-3.16-3.16S23.2 7.2 23.2 8.94s1.42 3.16 3.16 3.16zm0-4.57c.78 0 1.41.63 1.41 1.41s-.63 1.41-1.41 1.41-1.41-.63-1.41-1.41.64-1.41 1.41-1.41zM18.17 18.73C13.12 18.73 9 22.84 9 27.9c0 2.45.95 4.75 2.68 6.48s4.03 2.69 6.48 2.69c5.05 0 9.17-4.11 9.17-9.17s-4.11-9.17-9.16-9.17zm7.36 8.29h-6.49v-6.49c3.4.4 6.09 3.1 6.49 6.49zm-8.24-6.49v7l-4.95 4.95a7.35 7.35 0 0 1-1.59-4.59c0-3.79 2.87-6.93 6.54-7.36zm.88 14.78a7.35 7.35 0 0 1-4.59-1.59l4.95-4.95h7a7.42 7.42 0 0 1-7.36 6.54zM37.09 9.82h20.13c.48 0 .88-.39.88-.88s-.39-.88-.88-.88H37.09c-.48 0-.88.39-.88.88s.4.88.88.88zM21.74 48.2H9.88c-.49 0-.88.39-.88.88s.39.88.88.88h11.86c.48 0 .88-.39.88-.88s-.4-.88-.88-.88zM21.74 51.71H9.88c-.49 0-.88.39-.88.87s.39.88.88.88h11.86c.48 0 .88-.39.88-.88s-.4-.87-.88-.87zM15.61 55.22H9.88c-.49 0-.88.39-.88.87s.39.88.88.88h5.74c.48 0 .88-.39.88-.88s-.4-.87-.89-.87z" fill="#5275e3" data-original="#000000" class=""></path></g></svg>