<svg xmlns="http://www.w3.org/2000/svg" version="1.1" xmlns:xlink="http://www.w3.org/1999/xlink" xmlns:svgjs="http://svgjs.com/svgjs" width="512" height="512" x="0" y="0" viewBox="0 0 512 512" style="enable-background:new 0 0 512 512" xml:space="preserve" class=""><g><path d="M148.042 236.722H191c4.143 0 7.5-3.358 7.5-7.5s-3.357-7.5-7.5-7.5h-42.958c-4.143 0-7.5 3.358-7.5 7.5s3.357 7.5 7.5 7.5zM148.042 273.07h174.47c4.143 0 7.5-3.358 7.5-7.5s-3.357-7.5-7.5-7.5h-174.47c-4.143 0-7.5 3.358-7.5 7.5s3.357 7.5 7.5 7.5zM322.512 294.417H276c-4.143 0-7.5 3.358-7.5 7.5s3.357 7.5 7.5 7.5h46.512a7.5 7.5 0 0 0 0-15z" fill="#5275e3" data-original="#000000" class=""></path><path d="M490.875 50.354 393.797 1.837a17.58 17.58 0 0 0-15.647 0l-97.08 48.517h-.001c-5.968 2.983-9.676 8.981-9.676 15.654v13.957H166c-4.143 0-7.5 3.358-7.5 7.5s3.357 7.5 7.5 7.5h105.394v22.809c0 10.94.82 21.34 2.461 31.252H148.042c-4.143 0-7.5 3.358-7.5 7.5s3.357 7.5 7.5 7.5h129.023a146.723 146.723 0 0 0 7.455 21.348H148.042c-4.143 0-7.5 3.358-7.5 7.5s3.357 7.5 7.5 7.5h144.146a147.528 147.528 0 0 0 8.663 13.072 161.19 161.19 0 0 0 6.573 8.276H221c-4.143 0-7.5 3.358-7.5 7.5s3.357 7.5 7.5 7.5h100.732c14.14 13.307 32.012 26.408 55.089 40.53 2.822 1.727 5.986 2.59 9.151 2.59s6.329-.863 9.152-2.59c.767-.469 1.519-.936 2.274-1.402v182.134h-196.23V444c0-4.142-3.357-7.5-7.5-7.5s-7.5 3.358-7.5 7.5v50.5c0 1.378-1.121 2.5-2.5 2.5H28.948a2.503 2.503 0 0 1-2.5-2.5V386.473c0-1.378 1.121-2.5 2.5-2.5h154.72c1.379 0 2.5 1.122 2.5 2.5V409c0 4.142 3.357 7.5 7.5 7.5s7.5-3.358 7.5-7.5v-22.527c0-1.507-.212-2.963-.572-4.359h121.916c4.143 0 7.5-3.358 7.5-7.5s-3.357-7.5-7.5-7.5H177.068v-21.348h145.443c4.143 0 7.5-3.358 7.5-7.5s-3.357-7.5-7.5-7.5H176.754a70.2 70.2 0 0 0-5.426-21.348H249c4.143 0 7.5-3.358 7.5-7.5s-3.357-7.5-7.5-7.5h-86.467c-12.941-16.923-33.325-27.867-56.225-27.867-11.975 0-23.258 3-33.155 8.273V94.965H131c4.143 0 7.5-3.358 7.5-7.5s-3.357-7.5-7.5-7.5H70.653c-6.893 0-12.5 5.607-12.5 12.5v193.064c-13.893 12.928-22.605 31.353-22.605 51.782v31.661h-6.6c-9.649 0-17.5 7.851-17.5 17.5V494.5c0 9.649 7.851 17.5 17.5 17.5h154.72c9.649 0 17.5-7.851 17.5-17.5v-21.517h198.731c6.893 0 12.5-5.607 12.5-12.5V266.215c26.696-17.865 45.179-34.541 58.695-52.769 19.821-26.73 29.457-58.025 29.457-95.671V66.008c.001-6.672-3.707-12.67-9.676-15.654zM132.069 368.973H80.548v-31.661c0-14.205 11.557-25.761 25.761-25.761s25.761 11.556 25.761 25.761v31.661zm-81.521-31.661c0-30.747 25.015-55.761 55.761-55.761s55.76 25.014 55.76 55.761v31.661H147.07v-31.661c0-22.476-18.285-40.761-40.761-40.761s-40.761 18.285-40.761 40.761v31.661h-15zm435.004-219.537c0 72.076-37.596 109.562-98.256 146.682a2.554 2.554 0 0 1-2.646 0c-60.661-37.121-98.257-74.606-98.257-146.682V66.008c0-.954.53-1.811 1.383-2.237l97.079-48.518a2.51 2.51 0 0 1 2.235 0l97.078 48.517a2.486 2.486 0 0 1 1.383 2.237v51.768z" fill="#5275e3" data-original="#000000" class=""></path><path d="M385.522 52.13c-41.85 0-75.896 34.047-75.896 75.896s34.047 75.896 75.896 75.896c32.017 0 60.75-20.26 71.498-50.415a7.5 7.5 0 0 0-14.129-5.037c-8.625 24.195-31.68 40.451-57.369 40.451-33.578 0-60.896-27.318-60.896-60.896s27.318-60.896 60.896-60.896c29.564 0 54.771 21.101 59.935 50.172.725 4.078 4.62 6.801 8.696 6.073a7.5 7.5 0 0 0 6.073-8.696c-6.438-36.243-37.855-62.548-74.704-62.548z" fill="#5275e3" data-original="#000000" class=""></path><path d="m411.537 107.502-29.551 29.551-17.183-17.184a7.5 7.5 0 0 0-10.607 0 7.5 7.5 0 0 0 0 10.606l22.486 22.487a7.5 7.5 0 0 0 10.608 0l34.854-34.854a7.5 7.5 0 1 0-10.607-10.606z" fill="#5275e3" data-original="#000000" class=""></path></g></svg>