<svg xmlns="http://www.w3.org/2000/svg" version="1.1" xmlns:xlink="http://www.w3.org/1999/xlink" xmlns:svgjs="http://svgjs.com/svgjs" width="512" height="512" x="0" y="0" viewBox="0 0 64 64" style="enable-background:new 0 0 512 512" xml:space="preserve" class=""><g><path d="M22 14.837V19a1 1 0 0 0 .594.914L31 23.649V40h2V28.489l8.614-6.7A1 1 0 0 0 42 21v-5.163a3.5 3.5 0 1 0-2 0v4.674l-7 5.445V23a1 1 0 0 0-.594-.914L24 18.351v-3.514a3.5 3.5 0 1 0-2 0ZM39.5 12.5A1.5 1.5 0 1 1 41 14a1.5 1.5 0 0 1-1.5-1.5ZM23 10a1.5 1.5 0 1 1-1.5 1.5A1.5 1.5 0 0 1 23 10Z" fill="#5275e3" data-original="#000000"></path><path d="M31 7.837V19h2V7.837a3.5 3.5 0 1 0-2 0ZM32 3a1.5 1.5 0 1 1-1.5 1.5A1.5 1.5 0 0 1 32 3ZM46.5 30a3.5 3.5 0 0 0-7 0 3.462 3.462 0 0 0 .26 1.31l-2.385 1.909A1 1 0 0 0 37 34v8h2v-7.52l2.01-1.607A3.493 3.493 0 0 0 46.5 30ZM43 31.5a1.5 1.5 0 1 1 1.5-1.5 1.5 1.5 0 0 1-1.5 1.5ZM20 30.5a3.483 3.483 0 0 0 2.541-1.108L25 30.619V42h2V30a1 1 0 0 0-.554-.895l-3.007-1.5A3.468 3.468 0 0 0 23.5 27a3.5 3.5 0 1 0-3.5 3.5Zm0-5a1.5 1.5 0 1 1-1.5 1.5 1.5 1.5 0 0 1 1.5-1.5ZM41.938 50.6a1.819 1.819 0 0 0-.2-1.42l-1.45-2.4a1.941 1.941 0 0 0-2.574-.675l-.486.278a8.712 8.712 0 0 0-1.871-1.045v-.476A1.886 1.886 0 0 0 33.45 43h-2.9a1.886 1.886 0 0 0-1.9 1.864v.477a7.087 7.087 0 0 0-1.832 1.059l-.529-.292a1.937 1.937 0 0 0-2.574.676l-1.45 2.4a1.819 1.819 0 0 0-.2 1.42 1.859 1.859 0 0 0 .907 1.153l.445.245a7.813 7.813 0 0 0 0 2l-.446.246a1.856 1.856 0 0 0-.906 1.152 1.819 1.819 0 0 0 .2 1.42l1.45 2.4a1.941 1.941 0 0 0 2.574.675l.486-.278a8.712 8.712 0 0 0 1.871 1.045v.476A1.886 1.886 0 0 0 30.55 63h2.9a1.886 1.886 0 0 0 1.9-1.864v-.477a7.087 7.087 0 0 0 1.832-1.059l.529.292a1.941 1.941 0 0 0 2.574-.676l1.45-2.4a1.819 1.819 0 0 0 .2-1.42 1.859 1.859 0 0 0-.907-1.153L40.586 54a7.813 7.813 0 0 0 0-2l.446-.246a1.856 1.856 0 0 0 .906-1.154ZM38.65 53a6.076 6.076 0 0 1-.061.847 1.845 1.845 0 0 0 .952 1.859l.4.219-1.32 2.183-.469-.258a1.965 1.965 0 0 0-2.108.15 6.741 6.741 0 0 1-1.473.817 1.886 1.886 0 0 0-1.217 1.738V61h-2.708v-.443a1.888 1.888 0 0 0-1.218-1.739 6.69 6.69 0 0 1-1.47-.818 1.966 1.966 0 0 0-2.1-.154l-.471.259-1.32-2.183.4-.219a1.845 1.845 0 0 0 .952-1.858 5.918 5.918 0 0 1 0-1.7 1.845 1.845 0 0 0-.952-1.859l-.4-.219 1.32-2.183.469.258a1.959 1.959 0 0 0 2.1-.142 6.741 6.741 0 0 1 1.473-.817 1.886 1.886 0 0 0 1.217-1.738V45h2.708v.443a1.888 1.888 0 0 0 1.218 1.739 6.69 6.69 0 0 1 1.47.815 1.96 1.96 0 0 0 2.1.154l.471-.259 1.32 2.183-.4.219a1.845 1.845 0 0 0-.952 1.858 6.1 6.1 0 0 1 .069.848Z" fill="#5275e3" data-original="#000000"></path><path d="M32 48.625A4.375 4.375 0 1 0 36.375 53 4.38 4.38 0 0 0 32 48.625Zm0 6.75A2.375 2.375 0 1 1 34.375 53 2.377 2.377 0 0 1 32 55.375ZM60 53c0-4.718-11.1-6.649-15.873-7.262l-.254 1.985C54.238 49.051 58 51.606 58 53c0 1.166-2.792 3.245-10.227 4.661l1.483-1.469-1.407-1.421-3.549 3.518a1 1 0 0 0 .219 1.586l4.369 2.425.969-1.75-1.676-.929C53.506 58.608 60 56.633 60 53ZM6 53c0-1.166 2.792-3.245 10.227-4.661l-1.483 1.469 1.407 1.421 3.549-3.518a1 1 0 0 0-.219-1.586L15.112 43.7l-.969 1.75 1.676.929C10.494 47.392 4 49.367 4 53c0 4.718 11.1 6.649 15.873 7.262l.254-1.985C9.762 56.949 6 54.394 6 53Z" fill="#5275e3" data-original="#000000"></path></g></svg>