<?xml version="1.0" encoding="utf-8"?>
<!-- Generator: Adobe Illustrator 26.0.1, SVG Export Plug-In . SVG Version: 6.00 Build 0)  -->
<svg version="1.1" id="Layer_1" xmlns="http://www.w3.org/2000/svg" xmlns:xlink="http://www.w3.org/1999/xlink" x="0px" y="0px"
	 viewBox="0 0 100 100" style="enable-background:new 0 0 100 100;" xml:space="preserve">
<style type="text/css">
	.st0{fill:#5275E3;}
</style>
<path class="st0" d="M29.7,20.1c9.3-4.2,16.3-9.7,20-15.8c0-0.1,0.1-0.1,0.2-0.1c0.1,0,0.2,0,0.2,0.1c2.7,4.5,7.2,8.6,13.2,12.2
	c6.5,3.8,13.6,6.6,20.9,8.5c0.2,0,0.3,0.2,0.3,0.4c0.1,1.6,0.2,3.2,0.2,4.9c0,6.2-1.6,13.2-4.9,20.8c-0.3,0.7,0,1.5,0.7,1.8
	c0,0,0,0,0,0c0.7,0.3,1.5,0,1.8-0.7c3.4-7.9,5.1-15.3,5.1-21.9c0-1.8,0-3.5-0.2-5.1c-0.1-1.4-1.1-2.6-2.4-2.9
	C69.5,18.3,57.7,11.2,52.6,2.9c-0.8-1.4-2.7-1.9-4.1-1.1C48,2,47.6,2.4,47.4,2.9c-3.5,5.6-10,10.7-18.8,14.7c-0.7,0.3-1,1.1-0.7,1.8
	C28.1,20.1,29,20.4,29.7,20.1L29.7,20.1L29.7,20.1z"/>
<path class="st0" d="M64.2,58.2V46.9c0-2.5-1.9-4.6-4.4-4.8V40c0.2-5.4-4.1-9.9-9.5-10.1c-5.4-0.2-9.9,4.1-10.1,9.5
	c0,0.2,0,0.4,0,0.6v2.1c-2.5,0.2-4.4,2.3-4.4,4.8v11.2c0,2.7,2.2,4.8,4.8,4.8h18.7C62,63,64.1,60.8,64.2,58.2L64.2,58.2z M49.9,33
	c3.9,0,7,3.2,7,7v2.1H42.9V40C42.9,36.2,46.1,33,49.9,33z M38.5,58.2V46.9c0-1.1,0.9-2,2-2h18.8c1.1,0,2,0.9,2,2v11.2
	c0,1.1-0.9,2-2,2H40.6C39.4,60.2,38.5,59.3,38.5,58.2C38.5,58.2,38.5,58.2,38.5,58.2z"/>
<path class="st0" d="M49.8,49c-1.6,0.1-2.8,1.5-2.7,3c0.1,1.1,0.7,2,1.7,2.4v1.8c0,0.3,0.3,0.6,0.6,0.6l0,0h1.1
	c0.3,0,0.6-0.3,0.6-0.6l0,0v-1.8c1.4-0.7,2.1-2.4,1.4-3.8C52.1,49.6,51,49,49.8,49L49.8,49z"/>
<path class="st0" d="M93.7,69c-1.6,0-3,0.9-3.6,2.3H71.8c0.8-1.2,1.6-2.4,2.4-3.6h9.5c0.7,0,1.3-0.3,1.8-0.7l2.8-2.8H90
	c0.9,2,3.3,3,5.3,2.1c2-0.9,3-3.3,2.1-5.3c-0.9-2-3.3-3-5.3-2.1c-1.1,0.5-1.9,1.4-2.2,2.5h-1.6c-0.7,0-1.3,0.3-1.8,0.7l-2.8,2.8
	h-7.7c1.3-2.1,2.5-4.3,3.6-6.5c0.3-0.7,0-1.5-0.7-1.8c-0.7-0.3-1.4,0-1.8,0.6c-8.7,17-22.5,31.9-26.5,36c-0.3,0.3-0.8,0.3-1.2,0
	c0,0,0,0,0,0c-7.3-7.6-13.9-15.8-19.8-24.5C20,54,15.1,41.2,15.1,30.3c0-1.7,0-3.3,0.2-4.9c0-0.2,0.1-0.4,0.3-0.4
	c2.6-0.7,5.1-1.5,7.5-2.3c0.7-0.3,1.1-1,0.9-1.8c-0.3-0.7-1-1.1-1.8-0.9c-2.3,0.8-4.8,1.6-7.3,2.2c-1.3,0.3-2.3,1.5-2.4,2.9
	c-0.1,1.6-0.2,3.3-0.2,5.1c0,10,3.9,21.7,11.6,34.5h-7.7L13.5,62c-0.5-0.5-1.1-0.7-1.8-0.7h-1.4c-0.7-2.1-2.9-3.3-5-2.7
	s-3.3,2.9-2.7,5c0.7,2.1,2.9,3.3,5,2.7c1.1-0.3,2-1.2,2.5-2.2h1.4l2.8,2.8c0.5,0.5,1.1,0.7,1.8,0.7h9.5l1.6,2.4l0.9,1.3h-18
	c-1-2-3.4-2.8-5.4-1.8c-2,1-2.8,3.4-1.8,5.4s3.4,2.8,5.4,1.8c1-0.5,1.8-1.5,2.1-2.6h19.7c0.9,1.3,1.8,2.5,2.7,3.7h-11
	c-0.8-2.1-3.1-3.1-5.2-2.4c-2.1,0.8-3.1,3.1-2.4,5.2c0.8,2.1,3.1,3.1,5.2,2.4c1.1-0.4,2-1.3,2.4-2.4h13.1c0.9,1.2,1.8,2.3,2.8,3.5
	h-6c-0.7,0-1.3,0.3-1.8,0.8L27,87.6h-1.6c-0.8-2.1-3.1-3.1-5.2-2.4c-2.1,0.8-3.1,3.1-2.4,5.2c0.8,2.1,3.1,3.1,5.2,2.4
	c1.1-0.4,2-1.3,2.4-2.4h1.8c0.7,0,1.3-0.2,1.8-0.7l2.8-2.8H40c3.2,3.7,5.8,6.5,7.3,8.1c1.4,1.4,3.7,1.5,5.1,0.1c0,0,0,0,0.1-0.1
	c1.8-1.8,4.3-4.6,7.4-8.1h8.2l2.8,2.8c0.5,0.5,1.1,0.7,1.8,0.7h1.8c0.8,2.1,3.1,3.1,5.2,2.4c2.1-0.8,3.1-3.1,2.4-5.2
	c-0.8-2.1-3.1-3.1-5.2-2.4c-1.1,0.4-2,1.3-2.4,2.4h-1.7L70,84.8c-0.5-0.5-1.1-0.7-1.8-0.7h-6c0.9-1.1,1.8-2.3,2.8-3.5h13.2
	c0.8,2.1,3.1,3.1,5.2,2.4c2.1-0.8,3.1-3.1,2.4-5.2c-0.8-2.1-3.1-3.1-5.2-2.4c-1.1,0.4-2,1.3-2.4,2.4h-11c0.9-1.2,1.8-2.5,2.7-3.7
	h19.9c0.6,2.1,2.8,3.4,4.9,2.8c2.1-0.6,3.4-2.8,2.8-4.9C97.1,70.2,95.5,69,93.7,69L93.7,69z M93.7,61.2c0.7,0,1.3,0.6,1.3,1.3
	c0,0.7-0.6,1.3-1.3,1.3s-1.3-0.6-1.3-1.3l0,0C92.4,61.8,93,61.2,93.7,61.2L93.7,61.2z M6.4,63.7c-0.7,0-1.3-0.6-1.3-1.3
	s0.6-1.3,1.3-1.3s1.3,0.6,1.3,1.3S7.1,63.7,6.4,63.7L6.4,63.7z M6.4,74.4c-0.7,0-1.3-0.6-1.3-1.3c0-0.7,0.6-1.3,1.3-1.3
	s1.3,0.6,1.3,1.3l0,0C7.7,73.8,7.1,74.4,6.4,74.4z M17.9,80.5c-0.7,0-1.3-0.6-1.3-1.3s0.6-1.3,1.3-1.3c0.7,0,1.3,0.6,1.3,1.3l0,0
	C19.2,79.9,18.6,80.5,17.9,80.5z M21.6,90.3c-0.7,0-1.3-0.6-1.3-1.3c0-0.7,0.6-1.3,1.3-1.3c0.7,0,1.3,0.6,1.3,1.3l0,0
	C22.8,89.7,22.3,90.3,21.6,90.3z M78.3,87.8c0.7,0,1.3,0.6,1.3,1.3c0,0.7-0.6,1.3-1.3,1.3c-0.7,0-1.3-0.6-1.3-1.3v0
	C77.1,88.3,77.6,87.8,78.3,87.8L78.3,87.8z M82,77.9c0.7,0.1,1.2,0.7,1.2,1.4c0,0.6-0.5,1.1-1.2,1.2c-0.7,0.1-1.3-0.5-1.4-1.2
	c-0.1-0.7,0.5-1.3,1.2-1.4C81.8,77.9,81.9,77.9,82,77.9z M93.7,74.3c-0.7,0-1.3-0.6-1.3-1.3s0.6-1.3,1.3-1.3S95,72.3,95,73l0,0
	C95,73.7,94.5,74.3,93.7,74.3C93.7,74.3,93.7,74.3,93.7,74.3L93.7,74.3z"/>
<circle class="st0" cx="49.8" cy="82.8" r="2.7"/>
<ellipse class="st0" cx="49.8" cy="15.1" rx="2.7" ry="2.7"/>
<path class="st0" d="M22.1,28.2c-1.5,0-2.7,1.2-2.7,2.7c0,1.5,1.2,2.7,2.7,2.7s2.7-1.2,2.7-2.7C24.8,29.4,23.6,28.2,22.1,28.2
	L22.1,28.2z M77.7,28.2c-1.5,0-2.7,1.2-2.7,2.7c0,1.5,1.2,2.7,2.7,2.7s2.7-1.2,2.7-2.7C80.4,29.4,79.2,28.2,77.7,28.2z"/>
</svg>
