<svg xmlns="http://www.w3.org/2000/svg" version="1.1" xmlns:xlink="http://www.w3.org/1999/xlink" xmlns:svgjs="http://svgjs.com/svgjs" width="512" height="512" x="0" y="0" viewBox="0 0 512 512" style="enable-background:new 0 0 512 512" xml:space="preserve" class=""><g><path d="M396.254 120.764c-16.884-62.589-74.932-107.41-140.28-107.41-66.401 0-123.238 43.869-140.237 107.41-49.68.957-89.801 41.669-89.801 91.574 0 50.501 41.087 91.589 91.591 91.589h90.643v63.996c0 4.907-3.992 8.897-8.899 8.897h-62.294c-3.486-18.962-20.105-33.385-40.059-33.385-22.451 0-40.719 18.287-40.719 40.762 0 22.451 18.267 40.716 40.719 40.716 19.967 0 36.595-14.427 40.065-33.387h62.287c13.016 0 23.605-10.589 23.605-23.603v-63.996h25.764v113.939c-18.954 3.476-33.375 20.101-33.375 40.063 0 22.451 18.267 40.716 40.719 40.716 22.475 0 40.762-18.265 40.762-40.716 0-19.958-14.431-36.582-33.399-40.061V303.927h23.758v87.584c0 13.014 10.589 23.603 23.605 23.603h62.286c3.465 18.96 20.072 33.387 40.018 33.387 22.475 0 40.762-18.265 40.762-40.716 0-22.475-18.287-40.762-40.762-40.762-19.932 0-36.531 14.423-40.012 33.385h-62.292c-4.907 0-8.899-3.99-8.899-8.897v-87.584h92.663c50.504 0 91.591-41.087 91.591-91.589 0-49.907-40.125-90.621-89.81-91.574zM96.918 410.207c-14.342 0-26.013-11.668-26.013-26.011 0-14.368 11.671-26.056 26.013-26.056 14.366 0 26.056 11.688 26.056 26.056 0 14.343-11.69 26.011-26.056 26.011zm185.121 47.722c0 14.342-11.69 26.011-26.056 26.011-14.342 0-26.013-11.668-26.013-26.011 0-14.368 11.671-26.056 26.013-26.056 14.366 0 26.056 11.688 26.056 26.056zm130.975-76.2c14.366 0 26.056 11.688 26.056 26.056 0 14.342-11.69 26.011-26.056 26.011-14.342 0-26.008-11.668-26.008-26.011-.001-14.369 11.665-26.056 26.008-26.056zm-18.541-92.508H117.527c-42.394 0-76.885-34.488-76.885-76.883 0-42.618 35.189-78.625 80.538-76.785 3.552.156 6.692-2.267 7.473-5.733C141.912 70.856 195.46 28.06 255.974 28.06c60.542 0 114.114 42.796 127.374 101.761.785 3.466 3.983 5.804 7.645 5.728 45.012-1.883 80.365 34.125 80.365 76.789 0 42.395-34.49 76.883-76.885 76.883z" fill="#5275e3" data-original="#000000" class=""></path></g></svg>