<svg xmlns="http://www.w3.org/2000/svg" version="1.1" xmlns:xlink="http://www.w3.org/1999/xlink" xmlns:svgjs="http://svgjs.com/svgjs" width="512" height="512" x="0" y="0" viewBox="0 0 62 62" style="enable-background:new 0 0 512 512" xml:space="preserve" class=""><g><path d="M62 24c0-4.072-3.06-7.436-7-7.931V16c0-8.822-7.178-16-16-16-5.409 0-10.458 2.765-13.401 7.276A12.975 12.975 0 0 0 20 6C13.91 6 8.72 10.168 7.355 16.026 3.244 16.354 0 19.806 0 24c0 4.411 3.589 8 8 8v20H7c-1.654 0-3 1.346-3 3 0 3.86 3.141 7 7 7h40c3.859 0 7-3.14 7-7 0-1.654-1.346-3-3-3h-1V32c4.411 0 8-3.589 8-8zm-6 31c0 2.757-2.243 5-5 5H11c-2.757 0-5-2.243-5-5 0-.551.448-1 1-1h17v1c0 1.654 1.346 3 3 3h8c1.654 0 3-1.346 3-3v-1h17c.552 0 1 .449 1 1zm-30-1h10v1c0 .551-.448 1-1 1h-8c-.552 0-1-.449-1-1zm-16-2V29c0-1.654 1.346-3 3-3h5v-2h-5c-2.757 0-5 2.243-5 5v1c-3.309 0-6-2.691-6-6 0-3.307 2.689-5.998 6.026-5.998h.004l.991.027.144-.855A10.953 10.953 0 0 1 20 8c1.909 0 3.8.506 5.466 1.464l.87.5.497-.873C29.323 4.717 33.985 2 39 2c7.72 0 14 6.28 14 14v.065a8.012 8.012 0 0 0-5.565 3.363l1.641 1.145A6.002 6.002 0 0 1 54 18c3.309 0 6 2.691 6 6s-2.691 6-6 6v-1c0-2.757-2.243-5-5-5h-5v2h5c1.654 0 3 1.346 3 3v23z" fill="#5275e3" data-original="#000000"></path><path d="M39 6a9.992 9.992 0 0 1 9.835 8.181l1.967-.361A11.991 11.991 0 0 0 39 4c-.733 0-1.467.066-2.181.198l.361 1.967C37.775 6.055 38.388 6 39 6zM41 16c-1.654 0-3 1.346-3 3s1.346 3 3 3 3-1.346 3-3-1.346-3-3-3zm0 4a1.001 1.001 0 0 1 0-2 1.001 1.001 0 0 1 0 2zM21 22c1.654 0 3-1.346 3-3s-1.346-3-3-3-3 1.346-3 3 1.346 3 3 3zm0-4a1.001 1.001 0 1 1-1 1c0-.551.448-1 1-1zM31 16c1.654 0 3-1.346 3-3s-1.346-3-3-3-3 1.346-3 3 1.346 3 3 3zm0-4a1.001 1.001 0 1 1-1 1c0-.551.448-1 1-1zM30 30h2v4h-2zM30 26h2v2h-2zM30 18h2v6h-2zM20 24h2v2h-2zM20 34.414l2.293 2.293 1.414-1.414L22 33.586V28h-2zM40 24h2v2h-2zM40 33.586l-1.707 1.707 1.414 1.414L42 34.414V28h-2z" fill="#5275e3" data-original="#000000"></path><path d="M48 28h-4v2h4v18h-4v-2.708l-1.826-.645a13.424 13.424 0 0 0-.196-.471l.836-1.748-5.242-5.244-1.749.836a11.393 11.393 0 0 0-.471-.196L34.708 36h-7.416l-.644 1.826c-.158.062-.315.127-.471.196l-1.749-.836-5.242 5.244.836 1.748c-.069.157-.135.314-.196.471L18 45.292V48h-4V30h4v-2h-4c-1.103 0-2 .897-2 2v18c0 1.103.897 2 2 2h34c1.103 0 2-.897 2-2V30c0-1.103-.897-2-2-2zM20 46.708l1.393-.491.156-.458c.13-.38.29-.765.477-1.146l.214-.435-.639-1.334 3.242-3.242 1.335.638.436-.214a9.742 9.742 0 0 1 1.146-.477l.458-.157.49-1.392h4.584l.491 1.392.458.157c.385.132.771.292 1.146.477l.436.214 1.335-.638 3.242 3.242-.639 1.334.214.435c.187.381.347.766.477 1.146l.156.458 1.392.491V48h-3.069c-.495-3.94-3.859-7-7.931-7s-7.436 3.06-7.931 7H20zM36.91 48H25.09c.478-2.833 2.942-5 5.91-5s5.431 2.167 5.91 5z" fill="#5275e3" data-original="#000000"></path></g></svg>