<svg xmlns="http://www.w3.org/2000/svg" version="1.1" xmlns:xlink="http://www.w3.org/1999/xlink" xmlns:svgjs="http://svgjs.com/svgjs" width="512" height="512" x="0" y="0" viewBox="0 0 64 64" style="enable-background:new 0 0 512 512" xml:space="preserve" class=""><g><path d="M54 23h6c1.654 0 3-1.346 3-3V4c0-1.654-1.346-3-3-3H34c-1.654 0-3 1.346-3 3v8h-2.721l-.869 2.606a17.818 17.818 0 0 0-4.46 1.852L21 15.482V1H1v22h15.431a17.852 17.852 0 0 0-1.824 4.41L12 28.279V35H4c-1.654 0-3 1.346-3 3v16c0 1.654 1.346 3 3 3h6v.172A5.784 5.784 0 0 1 8.559 61H6v2h22v-2h-2.559A5.786 5.786 0 0 1 24 57.172V57h6c1.654 0 3-1.346 3-3v-2h2.721l.869-2.606a17.818 17.818 0 0 0 4.46-1.852l1.95.976V63h20V41H47.569a17.852 17.852 0 0 0 1.824-4.41L52 35.721V29h6v-2h-2.559A5.786 5.786 0 0 1 54 23.172zm6-2H34c-.551 0-1-.448-1-1v-3h28v3c0 .552-.449 1-1 1zm-21.441 6H36v2h7.615c.252.975.385 1.98.385 3 0 6.28-4.851 11.438-11 11.949V38c0-1.654-1.346-3-3-3h-9.615A11.986 11.986 0 0 1 20 32c0-6.281 4.853-11.441 11.005-11.95A3 3 0 0 0 34 23h6v.172A5.786 5.786 0 0 1 38.559 27zM34 3h26c.551 0 1 .448 1 1v11H33V4c0-.552.449-1 1-1zM3 3h16v13.716l-2 2V13H5v6h11.716l-1.489 1.489.255.511H3zm12 12v2H7v-2zm-1 14.721 2.294-.765.125-.548a15.87 15.87 0 0 1 2.026-4.881l.298-.477-1.083-2.167 3.223-3.224 2.168 1.084.476-.298a15.87 15.87 0 0 1 4.881-2.026l.547-.126.766-2.293H31v4.051c-7.253.516-13 6.567-13 13.949 0 1.015.116 2.018.331 3H14zM4 37h26c.551 0 1 .448 1 1v11H3V38c0-.552.449-1 1-1zm19.003 24H10.997A7.776 7.776 0 0 0 12 57.172V57h10v.172c0 1.364.352 2.672 1.003 3.828zM30 55H4c-.551 0-1-.448-1-1v-3h28v3c0 .552-.449 1-1 1zm31 6H45V47.285l2-2.001V51h12v-6H47.284l1.489-1.489-.255-.511H61zM49 49v-2h8v2zm1-14.721-2.294.765-.125.548a15.87 15.87 0 0 1-2.026 4.881l-.298.477 1.083 2.167-3.223 3.224-2.168-1.084-.476.298a15.87 15.87 0 0 1-4.881 2.026l-.547.126L34.279 50H33v-4.051c7.253-.516 13-6.567 13-13.949 0-1.016-.116-2.019-.33-3H50zM40.997 27A7.776 7.776 0 0 0 42 23.172V23h10v.172c0 1.364.352 2.672 1.003 3.828z" fill="#5275e3" data-original="#000000" class=""></path><path d="M47 53h12v2H47zM47 57h2v2h-2zM51 57h8v2h-8zM5 9h12v2H5zM15 5h2v2h-2zM5 5h8v2H5zM41.939 33.105a10.076 10.076 0 0 0-.001-2.216l-1.987.223a8.104 8.104 0 0 1 0 1.775zM41.453 35.27l-1.891-.653a7.917 7.917 0 0 1-.763 1.601l1.698 1.057c.392-.631.713-1.305.956-2.005zM39.127 39.015l-1.426-1.402a8.041 8.041 0 0 1-1.257 1.04l1.112 1.662a10.04 10.04 0 0 0 1.571-1.3z" fill="#5275e3" data-original="#000000" class=""></path></g></svg>