<svg xmlns="http://www.w3.org/2000/svg" version="1.1" xmlns:xlink="http://www.w3.org/1999/xlink" xmlns:svgjs="http://svgjs.com/svgjs" width="512" height="512" x="0" y="0" viewBox="0 0 64 64" style="enable-background:new 0 0 512 512" xml:space="preserve" class=""><g><path d="M43.53 50.456 37 48.279v-2.695A8.779 8.779 0 0 0 40.822 40H42a3 3 0 0 0 0-6h-.523l.971-2.429A7.707 7.707 0 0 0 35.292 21h-6.584a7.709 7.709 0 0 0-7.157 10.571L22.523 34H22a3 3 0 0 0 0 6h1.233A9.022 9.022 0 0 0 27 45.467v2.812l-6.53 2.177A7.99 7.99 0 0 0 15 58.045V62a1 1 0 0 0 1 1h32a1 1 0 0 0 1-1v-3.955a7.99 7.99 0 0 0-5.47-7.589Zm-15.8-.312 2.582 2.582-1.787.894-1.32-3.3ZM31.677 58h.646l1.2 3h-3.046Zm.6-2h-.558l-.5-1.493.781-.389.777.389Zm1.409-3.274 2.582-2.582.525.175-1.32 3.3ZM42 36a1 1 0 0 1 0 2h-1v-2ZM28.708 23h6.584a5.707 5.707 0 0 1 5.3 7.828l-.861 2.153a3.823 3.823 0 0 1-3.177-2.111l-.654-1.317a1.042 1.042 0 0 0-1.79 0l-.658 1.317A3.832 3.832 0 0 1 30 33h-5.723l-.869-2.172a5.709 5.709 0 0 1 5.3-7.828ZM22 38a1 1 0 0 1 0-2h1v2Zm3 0v-3h5a5.817 5.817 0 0 0 5-2.808 5.813 5.813 0 0 0 4 2.724v3.324A6.768 6.768 0 0 1 32.24 45h-.2A7.03 7.03 0 0 1 25 38Zm7.039 9h.2A8.725 8.725 0 0 0 35 46.548v2.038l-3 3-3-3v-2.121a9.007 9.007 0 0 0 3.039.535ZM17 58.045a5.993 5.993 0 0 1 4.1-5.692l4.2-1.4 1.767 4.419a1 1 0 0 0 .574.563A.987.987 0 0 0 28 56a1.012 1.012 0 0 0 .447-.1l.969-.485.519 1.558L28.323 61H23v-3h-2v3h-4ZM47 61h-4v-3h-2v3h-5.323l-1.612-4.032.519-1.558.969.485A1 1 0 0 0 36 56a.987.987 0 0 0 .355-.065 1 1 0 0 0 .574-.563l1.771-4.419 4.2 1.4a5.993 5.993 0 0 1 4.1 5.692ZM59 1H41a4 4 0 0 0-4 4v12a4 4 0 0 0 4 4h6v3a1 1 0 0 0 1.707.707L52.414 21H59a4 4 0 0 0 4-4V5a4 4 0 0 0-4-4Zm2 16a2 2 0 0 1-2 2h-7a1 1 0 0 0-.707.293L49 21.586V20a1 1 0 0 0-1-1h-7a2 2 0 0 1-2-2V5a2 2 0 0 1 2-2h18a2 2 0 0 1 2 2Z" fill="#5275e3" data-original="#000000"></path><path d="M49.414 10H53a1 1 0 0 0 .707-.293L55 8.414V10h2V6a1 1 0 0 0-1-1h-4v2h1.586l-1 1H49a1 1 0 0 0-.707.293l-4 4 1.414 1.414Z" fill="#5275e3" data-original="#000000"></path><path d="M57 11h-2v4h-2v-3h-2v3h-2v-2h-2v2h-4V5h-2v11a1 1 0 0 0 1 1h17v-2h-2ZM16 25a1 1 0 0 0 1-1v-3h6a4 4 0 0 0 4-4V5a4 4 0 0 0-4-4H5a4 4 0 0 0-4 4v12a4 4 0 0 0 4 4h6.586l3.707 3.707A1 1 0 0 0 16 25Zm-1-5v1.586l-2.293-2.293A1 1 0 0 0 12 19H5a2 2 0 0 1-2-2V5a2 2 0 0 1 2-2h18a2 2 0 0 1 2 2v12a2 2 0 0 1-2 2h-7a1 1 0 0 0-1 1Z" fill="#5275e3" data-original="#000000"></path><path d="M17 13a3 3 0 0 0-3-3 1 1 0 1 1 1-1h2a3 3 0 0 0-2-2.816V5h-2v1.184A2.993 2.993 0 0 0 14 12a1 1 0 1 1-1 1h-2a3 3 0 0 0 2 2.816V17h2v-1.184A3 3 0 0 0 17 13Z" fill="#5275e3" data-original="#000000"></path></g></svg>