<svg xmlns="http://www.w3.org/2000/svg" version="1.1" xmlns:xlink="http://www.w3.org/1999/xlink" xmlns:svgjs="http://svgjs.com/svgjs" width="512" height="512" x="0" y="0" viewBox="0 0 512 512" style="enable-background:new 0 0 512 512" xml:space="preserve" class=""><g><path d="M452.34 323.519h37.913c7.869 0 14.247 6.379 14.247 14.247V465.87c0 7.869-6.379 14.247-14.247 14.247H295.221c-7.869 0-14.247-6.379-14.247-14.247V305.009c0-7.869 6.379-14.247 14.247-14.247h54.394a14.249 14.249 0 0 1 13.134 8.725l10.105 24.032h44.393" style="stroke-width:15;stroke-linecap:round;stroke-linejoin:round;stroke-miterlimit:10;" fill="none" stroke="#5275e3" stroke-width="15" stroke-linecap="round" stroke-linejoin="round" stroke-miterlimit="10" data-original="#000000" class=""></path><path d="M474.597 399.063h0c0 10.052-8.148 18.2-18.2 18.2H329.071c-10.052 0-18.2-8.148-18.2-18.2v0c0-10.052 8.148-18.2 18.2-18.2h127.326c10.052 0 18.2 8.148 18.2 18.2z" style="stroke-width:15;stroke-linecap:round;stroke-linejoin:round;stroke-miterlimit:10;" fill="none" stroke="#5275e3" stroke-width="15" stroke-linecap="round" stroke-linejoin="round" stroke-miterlimit="10" data-original="#000000" class=""></path><path d="M392.737 399.063h0c0 10.052-8.148 18.2-18.2 18.2h-45.466c-10.052 0-18.2-8.148-18.2-18.2v0c0-10.052 8.148-18.2 18.2-18.2h45.466c10.051 0 18.2 8.148 18.2 18.2zM30.92 464.302v29.7c0 5.53 4.49 10.01 10.03 10.01h152.43c5.54 0 10.03-4.48 10.03-10.01v-168.78l-58.36-58.36H40.95c-5.54 0-10.03 4.49-10.03 10.03v117.36" style="stroke-width:15;stroke-linecap:round;stroke-linejoin:round;stroke-miterlimit:10;" fill="none" stroke="#5275e3" stroke-width="15" stroke-linecap="round" stroke-linejoin="round" stroke-miterlimit="10" data-original="#000000" class=""></path><path d="M145.05 315.198v-48.333l58.358 58.358h-48.333c-5.536 0-10.025-4.489-10.025-10.025zM61.116 339.482h35.765M61.116 366.866h83.934M137.561 464.304H14.989a7.49 7.49 0 0 1-7.489-7.489v-55.076a7.49 7.49 0 0 1 7.489-7.489h122.572a7.49 7.49 0 0 1 7.489 7.489v55.076a7.49 7.49 0 0 1-7.489 7.489zM61.116 429.277h0M91.219 429.277h0M326.899 112.187l-8.958-6.06a62.389 62.389 0 0 0 0-32.582l8.958-6.06c5.51-3.727 6.955-11.215 3.228-16.724l-9.178-13.568c-3.727-5.51-11.215-6.955-16.724-3.228l-8.962 6.062a62.187 62.187 0 0 0-17.284-9.176V20.033c0-6.652-5.392-12.044-12.044-12.044h-16.38c-6.652 0-12.044 5.392-12.044 12.044v10.819a62.2 62.2 0 0 0-17.284 9.176l-8.962-6.062c-5.51-3.727-12.997-2.282-16.724 3.228l-9.178 13.568c-3.727 5.51-2.282 12.997 3.228 16.724l8.958 6.06a62.389 62.389 0 0 0 0 32.582l-8.958 6.06c-5.51 3.727-6.955 11.215-3.228 16.724l9.178 13.568c3.727 5.51 11.215 6.955 16.724 3.228l8.962-6.062a62.187 62.187 0 0 0 17.284 9.176v10.819c0 6.652 5.392 12.044 12.044 12.044h16.38c6.652 0 12.044-5.392 12.044-12.044v-10.819a62.2 62.2 0 0 0 17.284-9.176l8.962 6.062c5.51 3.727 12.997 2.282 16.724-3.228l9.178-13.568c3.727-5.511 2.281-12.998-3.228-16.725z" style="stroke-width:15;stroke-linecap:round;stroke-linejoin:round;stroke-miterlimit:10;" fill="none" stroke="#5275e3" stroke-width="15" stroke-linecap="round" stroke-linejoin="round" stroke-miterlimit="10" data-original="#000000" class=""></path><circle cx="257.744" cy="89.836" r="22.624" style="stroke-width:15;stroke-linecap:round;stroke-linejoin:round;stroke-miterlimit:10;" fill="none" stroke="#5275e3" stroke-width="15" stroke-linecap="round" stroke-linejoin="round" stroke-miterlimit="10" data-original="#000000" class=""></circle><path d="M318.19 74.551h116.66c8.31 0 15.03 6.73 15.03 15.04v136.46h13.58c5.22 0 7.82 6.33 4.1 10l-28.44 28.13c-2.27 2.25-5.94 2.25-8.22 0l-28.45-28.13c-3.7-3.67-1.1-10 4.12-10h13.24v-121.43H318.32M95.83 104.621v106.78c0 8.31-6.74 15.04-15.04 15.04-8.31 0-15.04-6.73-15.04-15.04V89.591c0-8.31 6.73-15.04 15.04-15.04h116.5M197.16 104.621h-66.186" style="stroke-width:15;stroke-linecap:round;stroke-linejoin:round;stroke-miterlimit:10;" fill="none" stroke="#5275e3" stroke-width="15" stroke-linecap="round" stroke-linejoin="round" stroke-miterlimit="10" data-original="#000000" class=""></path></g></svg>