<?xml version="1.0" encoding="utf-8"?>
<!-- Generator: Adobe Illustrator 26.0.1, SVG Export Plug-In . SVG Version: 6.00 Build 0)  -->
<svg version="1.1" id="Layer_1" xmlns:svgjs="http://svgjs.com/svgjs"
	 xmlns="http://www.w3.org/2000/svg" xmlns:xlink="http://www.w3.org/1999/xlink" x="0px" y="0px" viewBox="0 0 100 100"
	 style="enable-background:new 0 0 100 100;" xml:space="preserve">
<style type="text/css">
	.st0{fill:#5275E3;}
</style>
<g>
	<path class="st0" d="M85.8,75.7c-1.3,0-2.5,0.4-3.6,1.1l-5.7-5.7l0-8.9c9.9-1,17.7-9.4,17.7-19.6c0-10.9-8.8-19.7-19.7-19.7h-8.2
		C66,17.2,63.5,12,59.5,8c-4.4-4.3-10.2-6.7-16.3-6.7c-6.2,0-12,2.4-16.4,6.8c-4.1,4.1-6.5,9.6-6.8,15.4c-3.8,1.2-7.3,3.5-9.8,6.7
		c-2.8,3.5-4.4,7.9-4.4,12.3c0,10.2,7.8,18.6,17.7,19.6l0,8.9l-5.7,5.7c-1.1-0.7-2.3-1.1-3.6-1.1c-3.6,0-6.6,3-6.6,6.6
		s3,6.6,6.6,6.6c3.6,0,6.6-3,6.6-6.6c0-1.3-0.4-2.5-1.1-3.6l6.1-6.1c0.3-0.3,0.4-0.6,0.4-1l0-9.4h3.7c1.5,9.9,11.1,17.6,18.7,20.1
		v3.3c-3,0.6-5.2,3.3-5.2,6.5c0,3.6,3,6.6,6.6,6.6c3.6,0,6.6-3,6.6-6.6c0-3.2-2.2-5.8-5.2-6.5v-3.3c7.6-2.5,17.2-10.2,18.7-20.1h3.7
		l0,9.4c0,0.4,0.1,0.7,0.4,1l6.1,6.1c-0.7,1.1-1.1,2.3-1.1,3.6c0,3.6,3,6.6,6.6,6.6s6.6-3,6.6-6.6S89.4,75.7,85.8,75.7L85.8,75.7z
		 M14.2,86.2c-2.1,0-3.8-1.7-3.8-3.8s1.7-3.8,3.8-3.8c2.1,0,3.8,1.7,3.8,3.8S16.3,86.2,14.2,86.2z M8.5,42.6
		c0-7.9,5.4-14.7,13.1-16.6c0.6-0.2,1.1-0.7,1.1-1.3c0-5.5,2.1-10.7,6-14.6c3.9-3.9,9-6,14.5-6c11.1,0,20.3,9.1,20.5,20.2
		c0,0.8,0.6,1.4,1.4,1.4h9.5c9.4,0,17,7.6,17,17c0,9.4-7.6,17-17,17h-4.2V43c0-0.7-0.6-1.3-1.3-1.4c-5.3-0.4-9.8-2.9-12.7-5
		c-0.2-0.2-0.5-0.3-0.8-0.3H44.5c-0.3,0-0.6,0.1-0.8,0.3c-2.8,2-7.4,4.5-12.7,5c-0.7,0.1-1.3,0.7-1.3,1.4v16.5h-4.2
		C16.1,59.5,8.5,51.9,8.5,42.6L8.5,42.6z M53.8,92.1c0,2.1-1.7,3.8-3.8,3.8s-3.8-1.7-3.8-3.8s1.7-3.8,3.8-3.8
		C52.1,88.3,53.8,90,53.8,92.1L53.8,92.1z M67.5,59.6c0,9.9-10.2,18.2-17.5,20.4c-7.3-2.1-17.5-10.4-17.5-20.4V44.3
		c4.2-0.6,8.4-2.3,12.4-5.1h10.2c4,2.8,8.2,4.5,12.4,5.1L67.5,59.6L67.5,59.6z M85.8,86.2c-2.1,0-3.8-1.7-3.8-3.8s1.7-3.8,3.8-3.8
		s3.8,1.7,3.8,3.8S87.9,86.2,85.8,86.2z M54.2,40.8h-8.4c-0.3,0-0.5,0.1-0.8,0.2c-3.2,2.1-6.5,3.6-9.9,4.4c-0.6,0.1-1.1,0.7-1.1,1.3
		v12.8c0,8.1,8,15.9,15.5,18.5c0.3,0.1,0.6,0.1,0.9,0c7.4-2.6,15.5-10.4,15.5-18.5V46.8c0-0.6-0.4-1.2-1.1-1.3
		c-3.4-0.8-6.7-2.3-9.9-4.4C54.7,40.9,54.5,40.8,54.2,40.8L54.2,40.8z M63.1,59.6c0,6.5-6.7,13.3-13.1,15.7
		c-6.4-2.4-13.1-9.2-13.1-15.7V47.8c3.2-0.9,6.3-2.3,9.4-4.3h7.5c3,2,6.2,3.4,9.4,4.3L63.1,59.6L63.1,59.6z M44.4,51.1v1.9h-0.5
		c-0.8,0-1.4,0.6-1.4,1.4v12.2c0,0.8,0.6,1.4,1.4,1.4h12.2c0.8,0,1.4-0.6,1.4-1.4V54.4c0-0.8-0.6-1.4-1.4-1.4h-0.5v-1.9
		c0-3.1-2.5-5.6-5.6-5.6S44.4,48,44.4,51.1L44.4,51.1z M54.7,65.3h-9.4v-9.5h9.4V65.3z M52.9,51.1v1.9h-5.7v-1.9
		c0-1.6,1.3-2.9,2.9-2.9C51.6,48.3,52.9,49.6,52.9,51.1z M47.9,59.3c0-1.2,1-2.1,2.1-2.1c1.2,0,2.1,1,2.1,2.1c0,0.7-0.3,1.2-0.8,1.6
		v1.8c0,0.8-0.6,1.4-1.4,1.4s-1.4-0.6-1.4-1.4V61C48.2,60.6,47.9,60,47.9,59.3L47.9,59.3z"/>
</g>
</svg>
