<?xml version="1.0" encoding="utf-8"?>
<!-- Generator: Adobe Illustrator 26.0.1, SVG Export Plug-In . SVG Version: 6.00 Build 0)  -->
<svg version="1.1" id="Layer_1" xmlns:svgjs="http://svgjs.com/svgjs"
	 xmlns="http://www.w3.org/2000/svg" xmlns:xlink="http://www.w3.org/1999/xlink" x="0px" y="0px" viewBox="0 0 100 100"
	 style="enable-background:new 0 0 100 100;" xml:space="preserve">
<style type="text/css">
	.st0{fill:#5275E3;}
</style>
<g>
	<path class="st0" d="M87.1,32.3C87,16.2,73.9,3.1,57.7,3.1c-10.5,0-20.1,5.6-25.4,14.6c-1.2-0.4-2.5-0.5-3.8-0.5
		C22,17.1,16.4,21.7,15,28C6.8,30,1,37.4,1,45.9v0.7c0,10.2,8.3,18.5,18.5,18.5h16.3L20.5,80.5c-2.2,2.2-2.2,5.7,0,7.8l5.9,5.9
		c1.1,1.1,2.5,1.6,3.9,1.6s2.8-0.5,3.9-1.6l16.7-16.7c0.6-0.6,1.1-1.4,1.4-2.3l4.6,4.6c-1.5,4.7-0.3,9.8,3.2,13.2
		c2.4,2.4,5.7,3.8,9.2,3.8c1.7,0,3.4-0.3,5-1c0.5-0.2,0.8-0.6,0.9-1.1c0.1-0.5-0.1-1-0.4-1.3l-5.7-5.7l4.1-4.1l5.7,5.7
		c0.4,0.4,0.8,0.5,1.3,0.4c0.5-0.1,0.9-0.4,1.1-0.9c2-4.9,0.9-10.5-2.8-14.2c-3.5-3.5-8.6-4.7-13.2-3.2l-6.4-6.4h23.4
		c4.5,0,8.7-1.7,11.9-4.9c3.2-3.2,4.9-7.4,4.9-11.9C99,40.9,94.2,34.4,87.1,32.3L87.1,32.3z M48.8,71.9c0.5,0.5,0.8,1.1,0.8,1.8
		s-0.3,1.3-0.8,1.8L32.1,92.2c-1,1-2.6,1-3.6,0l-5.9-5.9c-1-1-1-2.6,0-3.6L39.3,66c0.5-0.5,1.2-0.8,1.8-0.8c0.7,0,1.3,0.2,1.8,0.8
		L48.8,71.9z M65.3,74.7c3.8-1.6,8.1-0.7,10.9,2.2c2.3,2.3,3.3,5.5,2.8,8.7l-5-5c-0.6-0.6-1.5-0.6-2.1,0c0,0,0,0,0,0l-6.2,6.2
		c-0.3,0.3-0.4,0.7-0.4,1.1s0.2,0.8,0.4,1.1l5,5c-3.1,0.5-6.4-0.5-8.7-2.8c-2.9-2.9-3.7-7.2-2.2-10.9c0.2-0.6,0.1-1.2-0.3-1.6
		L36.3,55.2c-0.3-0.3-0.7-0.4-1.1-0.4c-0.2,0-0.4,0-0.6,0.1c-3.7,1.6-8.1,0.7-10.9-2.2c-2.3-2.3-3.3-5.5-2.8-8.7l5,5
		c0.6,0.6,1.5,0.6,2.1,0l6.2-6.2c0.6-0.6,0.6-1.5,0-2.1l-5-5c3.2-0.5,6.4,0.5,8.7,2.8c2.9,2.9,3.7,7.2,2.2,10.9
		c-0.2,0.6-0.1,1.2,0.3,1.6l23.3,23.3C64.1,74.8,64.8,74.9,65.3,74.7L65.3,74.7z M55.1,61.6l-2-2l15.2-15.2c0.2-0.2,0.3-0.3,0.4-0.6
		l1.3-3.6l5.8-3.3l2,2l-3.3,5.8L70.9,46c-0.2,0.1-0.4,0.2-0.6,0.4L55.1,61.6z M92,58.2c-2.6,2.6-6.1,4-9.8,4H58.7l13.5-13.5l3.8-1.4
		c0.3-0.1,0.6-0.4,0.8-0.7l4.2-7.3c0.3-0.6,0.2-1.3-0.2-1.8L77.1,34c-0.5-0.5-1.2-0.6-1.8-0.2L68.1,38c-0.3,0.2-0.5,0.5-0.7,0.8
		L66,42.5l-15,15l-7.9-7.9c1.5-4.6,0.3-9.7-3.2-13.2c-3.7-3.7-9.3-4.8-14.2-2.8c-0.5,0.2-0.8,0.6-0.9,1.1c-0.1,0.5,0.1,1,0.4,1.3
		l5.7,5.7L27,45.8l-5.7-5.7c-0.3-0.3-0.8-0.5-1.3-0.4c-0.5,0.1-0.9,0.4-1.1,0.9c-2,4.9-0.9,10.5,2.8,14.2c3.5,3.5,8.6,4.7,13.2,3.2
		l4.3,4.3H19.5C11,62.2,4,55.2,4,46.6v-0.7c0-7.4,5.3-13.8,12.6-15.3c0.6-0.1,1.1-0.6,1.2-1.2c0.8-5.3,5.5-9.3,10.8-9.3
		c1.4,0,2.7,0.2,4,0.7c0.7,0.3,1.5,0,1.9-0.7C38.9,11.4,47.9,6,57.7,6c14.6,0,26.4,11.8,26.4,26.4c0,0.3,0,0.6,0,0.9
		c0,0.7,0.5,1.3,1.1,1.5C91.5,36.3,96,42,96,48.4C96,52.1,94.6,55.6,92,58.2L92,58.2z"/>
	<path class="st0" d="M67.9,13.8c-0.7-0.4-1.6-0.1-2,0.6c-0.4,0.7-0.1,1.6,0.6,2c3.5,1.9,6.2,4.9,7.9,8.4c0.3,0.7,1.2,1.1,1.9,0.7
		c0,0,0,0,0,0c0.8-0.3,1.1-1.2,0.7-2C75.1,19.4,71.9,15.9,67.9,13.8L67.9,13.8z M61.7,11.6c-1.2-0.2-2.4-0.3-3.6-0.3
		c-0.8,0-1.5,0.7-1.5,1.5s0.7,1.5,1.5,1.5c1,0,2.1,0.1,3.1,0.3c0.1,0,0.2,0,0.3,0c0.7,0,1.3-0.5,1.5-1.2
		C63,12.5,62.5,11.8,61.7,11.6z M40.3,70.4c-0.6-0.6-1.5-0.6-2.1,0c0,0,0,0,0,0L27,81.5c-0.6,0.6-0.6,1.5,0,2.1
		c0.3,0.3,0.7,0.4,1.1,0.4c0.4,0,0.8-0.1,1.1-0.4l11.2-11.2C40.8,71.9,40.8,70.9,40.3,70.4L40.3,70.4z M42.3,74.5L31.1,85.7
		c-0.6,0.6-0.6,1.5,0,2.1c0.3,0.3,0.7,0.4,1.1,0.4c0.4,0,0.8-0.1,1.1-0.4l11.2-11.2c0.6-0.6,0.6-1.5,0-2.1
		C43.8,73.9,42.9,73.9,42.3,74.5L42.3,74.5z"/>
</g>
</svg>
