<?xml version="1.0" encoding="utf-8"?>
<!-- Generator: Adobe Illustrator 26.0.1, SVG Export Plug-In . SVG Version: 6.00 Build 0)  -->
<svg version="1.1" id="Layer_1" xmlns:svgjs="http://svgjs.com/svgjs"
	 xmlns="http://www.w3.org/2000/svg" xmlns:xlink="http://www.w3.org/1999/xlink" x="0px" y="0px" viewBox="0 0 100 100"
	 style="enable-background:new 0 0 100 100;" xml:space="preserve">
<style type="text/css">
	.st0{fill:#5275E3;}
</style>
<g>
	<path class="st0" d="M84.7,70.1c-0.2-0.6-0.4-1.2-0.6-1.8V51.5c7-0.8,12.4-6.7,12.4-13.8c0-7.7-6.3-13.9-13.9-13.9
		s-13.9,6.3-13.9,13.9c0,7.2,5.4,13.1,12.4,13.8v11.5c-4.1-5.2-10.4-8.3-17-8.3c-1.1,0-2.1,0.1-3.2,0.3c-0.6-4.9-4.4-8.7-9.2-9.4
		v-6.4c9.5-0.8,17-8.8,17-18.5C68.6,10.3,60.2,2,50,2s-18.6,8.3-18.6,18.6c0,9.7,7.5,17.7,17,18.5v6.4c-5.2,0.8-9.3,5.3-9.3,10.7
		v5.2c-8.8-2.3-18.1,2.2-21.7,10.6V48.5h2.6l0.7-2l2,0.9l5.9-5.9l-0.9-2l2-0.7v-8.4l-2-0.7l0.9-2l-5.9-5.9l-2,0.9l-0.7-2h-8.4
		l-0.7,2l-2-0.9l-5.9,5.9l0.9,2l-2,0.7v8.4l2,0.7l-0.9,2L9,47.3l2-0.9l0.7,2h2.6v24.8C7.6,73.2,2,78.8,2,85.6S7.6,98,14.4,98h69.7
		C91.7,98,98,91.7,98,84.1C98,76.6,92.1,70.5,84.7,70.1z M79.4,36.1c0-1.7,1.4-3.1,3.1-3.1s3.1,1.4,3.1,3.1c0,1.7-1.4,3.1-3.1,3.1
		S79.4,37.8,79.4,36.1z M82.5,42.3c2.8,0,5.3,1.5,6.7,3.9c-3.9,3.1-9.5,3.1-13.4,0C77.2,43.7,79.8,42.3,82.5,42.3z M82.5,26.8
		c6,0,10.8,4.9,10.8,10.8c0,2.2-0.7,4.4-2,6.2c-1.1-1.6-2.6-2.8-4.3-3.6c1-1.1,1.6-2.6,1.6-4.1c0-3.4-2.8-6.2-6.2-6.2
		s-6.2,2.8-6.2,6.2c0,1.6,0.6,3,1.6,4.1c-1.7,0.8-3.2,2.1-4.3,3.6c-1.3-1.8-2-4-2-6.2C71.7,31.6,76.5,26.8,82.5,26.8z M13.5,44.1
		l-0.3-0.7l-1.6-0.7l-1.9,0.9l-2.8-2.8l0.9-1.9L7,37.2l-1.9-0.7v-4L6.4,32l0.7-0.3l0.7-1.6l-0.9-1.9l2.8-2.8l1.9,0.9l1.7-0.7
		l0.7-1.9h4l0.5,1.3l0.3,0.7l1.6,0.7l1.9-0.9l2.8,2.8l-0.9,1.9l0.7,1.7l1.9,0.7v4L25.5,37l-0.7,0.3l-0.7,1.6l0.9,1.9l-2.8,2.8
		l-1.9-0.9l-1.7,0.7l-0.7,1.9h-4L13.5,44.1z M39.2,68.6c0-0.9,0.7-1.5,1.5-1.5h18.6c0.9,0,1.5,0.7,1.5,1.5v18.6
		c0,0.9-0.7,1.5-1.5,1.5H40.7c-0.9,0-1.5-0.7-1.5-1.5V68.6z M59.3,14.4v18.6c-1.8,1.4-3.9,2.3-6.2,2.8V19h-6.2v-4.6H59.3z M50,22.1
		v13.9c-3.4,0-6.6-1.1-9.3-3.1V22.1H50z M65.5,20.6c0,3.5-1.2,6.7-3.1,9.3V11.3C64.4,14,65.5,17.2,65.5,20.6z M34.5,20.6
		C34.5,12,41.5,5.1,50,5.1c5,0,9.5,2.4,12.4,6.2h-4.6V8.2h-3.1v3.1h-3.1V8.2h-3.1v3.1h-4.6V19h-6.2v10.8
		C35.6,27.2,34.5,23.9,34.5,20.6z M50,48.5c4.3,0,7.7,3.5,7.7,7.7v7.7H42.3v-7.7C42.3,51.9,45.7,48.5,50,48.5z M84.1,94.9H14.4
		c-5.1,0-9.3-4.2-9.3-9.3s4.2-9.3,9.3-9.3c1,0,2.1,0.2,3.1,0.5l1.6,0.6l0.4-1.7c1.7-6.9,7.9-11.8,15-11.8c1.4,0,2.7,0.2,4.1,0.5
		c-1.5,0.8-2.5,2.4-2.5,4.1v18.6c0,2.6,2.1,4.6,4.6,4.6h18.6c2.6,0,4.6-2.1,4.6-4.6V68.6c0-2-1.2-3.7-3.1-4.4V58
		c1-0.2,2.1-0.3,3.1-0.3c8.6,0,16.1,5.9,18.1,14.3l0.3,1.2l1.5-0.1c0.1,0,0.2,0,0.2,0c6,0,10.8,4.9,10.8,10.8S90,94.9,84.1,94.9
		L84.1,94.9z"/>
	<path class="st0" d="M48.5,79.1v6.5h3.1v-6.5c1.9-0.7,3.1-2.4,3.1-4.4c0-2.6-2.1-4.6-4.6-4.6s-4.6,2.1-4.6,4.6
		C45.4,76.8,46.7,78.5,48.5,79.1z M50,73.2c0.9,0,1.6,0.7,1.6,1.5c0,0.9-0.7,1.6-1.5,1.6c-0.9,0-1.6-0.7-1.6-1.5c0,0,0,0,0,0
		C48.5,73.9,49.1,73.2,50,73.2z M23.7,34.5c0-4.3-3.5-7.7-7.7-7.7s-7.7,3.5-7.7,7.7s3.5,7.7,7.7,7.7S23.7,38.8,23.7,34.5z
		 M15.9,39.2c-2.6,0-4.6-2.1-4.6-4.6s2.1-4.6,4.6-4.6s4.6,2.1,4.6,4.6S18.5,39.2,15.9,39.2z M43.8,25.2h3.1v3.1h-3.1V25.2z
		 M43.8,31.4h3.1v3.1h-3.1V31.4z M88.7,84.1c0,2.6-2.1,4.6-4.6,4.6H81v3.1h3.1c4.3,0,7.7-3.5,7.7-7.7H88.7z M74.8,88.7h3.1v3.1h-3.1
		V88.7z M68.6,88.7h3.1v3.1h-3.1V88.7z"/>
</g>
</svg>
