<?xml version="1.0" encoding="utf-8"?>
<!-- Generator: Adobe Illustrator 26.0.1, SVG Export Plug-In . SVG Version: 6.00 Build 0)  -->
<svg version="1.1" id="Layer_1" xmlns:svgjs="http://svgjs.com/svgjs"
	 xmlns="http://www.w3.org/2000/svg" xmlns:xlink="http://www.w3.org/1999/xlink" x="0px" y="0px" viewBox="0 0 100 100"
	 style="enable-background:new 0 0 100 100;" xml:space="preserve">
<style type="text/css">
	.st0{fill:#5275E3;}
</style>
<g>
	<path class="st0" d="M84.7,31.8c-0.9-16.7-14.7-30-31.6-30c-16.6,0-30.3,12.9-31.5,29.2c-0.3,0-0.6,0-1,0
		C10.5,31,2.2,39.3,2.2,49.5c0,8.4,5.6,15.7,13.8,17.9v22.8c0,4.4,3.6,8,8,8H76c4.4,0,8-3.6,8-8V67.4c8.1-2.1,13.8-9.5,13.8-17.9
		C97.8,41.4,92.4,34.2,84.7,31.8L84.7,31.8z M80,90.2c0,2.2-1.8,4-4,4H24c-2.2,0-4-1.8-4-4v-34c0-2.2,1.8-4,4-4H76c2.2,0,4,1.8,4,4
		L80,90.2z M44.9,48.2v-5.3c0-2.8,2.3-5.1,5.1-5.1c2.8,0,5.1,2.3,5.1,5.1v5.3L44.9,48.2z M84.1,63.2v-7c0-4.4-3.6-8-8-8H59.1v-5.3
		c0-5-4.1-9.1-9.1-9.1c-5,0-9.1,4.1-9.1,9.1v5.3H24c-4.4,0-8,3.6-8,8v7c-5.8-2-9.8-7.5-9.7-13.7c0-8,6.5-14.5,14.5-14.5
		c1,0,1.8,0.1,2.5,0.2c1.1,0.2,2.1-0.5,2.4-1.6c0-0.1,0-0.3,0-0.4C25.6,18.2,38,5.8,53.1,5.8c15.2,0,27.6,12.4,27.6,27.6
		c0,0.9,0.7,1.8,1.6,2c6.6,1.4,11.4,7.4,11.4,14.2C93.8,55.7,89.9,61.2,84.1,63.2L84.1,63.2z"/>
	<path class="st0" d="M41.6,73.7c1.3-1.4,2-3.2,2-5.1c0-4.2-3.4-7.6-7.6-7.6c-4.2,0-7.6,3.4-7.6,7.6c0,2,0.8,3.7,2,5.1
		c-3.4,2-5.5,5.6-5.5,9.6c0,1.1,0.9,2,2,2c1.1,0,2-0.9,2-2c0-3.9,3.2-7.1,7.1-7.1c3.9,0,7.1,3.2,7.1,7.1c0,1.1,0.9,2,2,2s2-0.9,2-2
		C47.1,79.3,45,75.7,41.6,73.7L41.6,73.7z M36,72.2c-2,0-3.6-1.6-3.6-3.6s1.6-3.6,3.6-3.6s3.6,1.6,3.6,3.6S38,72.2,36,72.2z
		 M73.1,63.5H53.5c-1.1,0-2,0.9-2,2s0.9,2,2,2h19.6c1.1,0,2-0.9,2-2S74.2,63.5,73.1,63.5z M73.1,71.2H53.5c-1.1,0-2,0.9-2,2
		s0.9,2,2,2h19.6c1.1,0,2-0.9,2-2S74.2,71.2,73.1,71.2z M73.1,78.9H53.5c-1.1,0-2,0.9-2,2s0.9,2,2,2h19.6c1.1,0,2-0.9,2-2
		S74.2,78.9,73.1,78.9z M53.2,11.7c-11.9,0-21.6,9.7-21.7,21.6c0,1.1,0.9,2,2,2h0c1.1,0,2-0.9,2-2c0.1-9.7,8-17.6,17.7-17.6
		c1.1,0,2-0.9,2-2S54.3,11.7,53.2,11.7z"/>
</g>
</svg>
