<svg xmlns="http://www.w3.org/2000/svg" version="1.1" xmlns:xlink="http://www.w3.org/1999/xlink" xmlns:svgjs="http://svgjs.com/svgjs" width="512" height="512" x="0" y="0" viewBox="0 0 64 64" style="enable-background:new 0 0 512 512" xml:space="preserve" class=""><g><path d="M59 2H5a3.009 3.009 0 0 0-3 3v54a3.009 3.009 0 0 0 3 3h54a3.009 3.009 0 0 0 3-3V5a3.009 3.009 0 0 0-3-3Zm1 57a1 1 0 0 1-1 1H5a1 1 0 0 1-1-1V12h56Zm0-49H4V5a1 1 0 0 1 1-1h54a1 1 0 0 1 1 1Z" fill="#5275e3" data-original="#000000" class=""></path><path d="M35 18h1a1 1 0 0 0 0-2h-1a1 1 0 0 0 0 2ZM9 40h1a1 1 0 0 0 0-2H9a1 1 0 0 0 0 2ZM29 54h-1a1 1 0 0 0 0 2h1a1 1 0 0 0 0-2ZM55 32h-1a1 1 0 0 0 0 2h1a1 1 0 0 0 0-2ZM13 39a1 1 0 0 0 1 1h15a1 1 0 0 0 0-2H14a1 1 0 0 0-1 1ZM35 34h15a1 1 0 0 0 0-2H35a1 1 0 0 0 0 2ZM35 30h20a1 1 0 0 0 0-2H35a1 1 0 0 0 0 2ZM35 26h20a1 1 0 0 0 0-2H35a1 1 0 0 0 0 2ZM35 22h20a1 1 0 0 0 0-2H35a1 1 0 0 0 0 2ZM40 18h15a1 1 0 0 0 0-2H40a1 1 0 0 0 0 2ZM9 44h20a1 1 0 0 0 0-2H9a1 1 0 0 0 0 2ZM9 48h20a1 1 0 0 0 0-2H9a1 1 0 0 0 0 2ZM9 52h20a1 1 0 0 0 0-2H9a1 1 0 0 0 0 2ZM9 56h15a1 1 0 0 0 0-2H9a1 1 0 0 0 0 2ZM35 56h20a1 1 0 0 0 1-1V39a1 1 0 0 0-1-1H35a1 1 0 0 0-1 1v16a1 1 0 0 0 1 1Zm1-16h18v14H36ZM8 6H7a1 1 0 0 0 0 2h1a1 1 0 0 0 0-2ZM13 6h-1a1 1 0 0 0 0 2h1a1 1 0 0 0 0-2ZM18 6h-1a1 1 0 0 0 0 2h1a1 1 0 0 0 0-2ZM57 6h-1a1 1 0 0 0 0 2h1a1 1 0 0 0 0-2ZM52 6H28a1 1 0 0 0 0 2h24a1 1 0 0 0 0-2ZM19 34a9 9 0 1 0-9-9 9.011 9.011 0 0 0 9 9Zm5.6-4.816L21.414 26h4.506a6.947 6.947 0 0 1-1.32 3.184ZM20 18.08A7 7 0 0 1 25.92 24H20Zm-2 0V25a1 1 0 0 0 .293.707l4.891 4.893A6.992 6.992 0 1 1 18 18.08Z" fill="#5275e3" data-original="#000000" class=""></path><path d="M51.9 41.553a1 1 0 0 0-.862-.553.948.948 0 0 0-.895.484L47.434 46H45a1 1 0 0 0-.8.4l-2.308 3.078-1.185-1.185a1 1 0 0 0-1.411 0l-2.989 2.967a1 1 0 0 0 1.408 1.419L40 50.412l1.3 1.3a.986.986 0 0 0 .778.291 1 1 0 0 0 .729-.4L45.5 48H48a1 1 0 0 0 .857-.485l2.063-3.438 1.185 2.37a1 1 0 0 0 1.79-.894Z" fill="#5275e3" data-original="#000000" class=""></path></g></svg>