<svg xmlns="http://www.w3.org/2000/svg" version="1.1" xmlns:xlink="http://www.w3.org/1999/xlink" xmlns:svgjs="http://svgjs.com/svgjs" width="512" height="512" x="0" y="0" viewBox="0 0 512 512" style="enable-background:new 0 0 512 512" xml:space="preserve" class=""><g><path d="M165.936 173.687a8 8 0 0 1 8-8h82.176a8 8 0 0 1 0 16h-82.176c-4.418 0-8-3.583-8-8zm-85.602 59.801h96.819a8 8 0 0 0 0-16H80.334a8 8 0 0 0 0 16zm0 51.802h72.564a8 8 0 0 0 0-16H80.334a8 8 0 0 0 0 16zm0 51.803h70.382a8 8 0 0 0 0-16H80.334a8 8 0 0 0 0 16zm87.828 35.802H80.334a8 8 0 0 0 0 16h87.828a8 8 0 0 0 0-16zm5.775-243.01h60.852a8 8 0 0 0 0-16h-60.852a8 8 0 0 0 0 16zm321.248 354.03-21.942 22.614c-3.536 3.644-8.248 5.474-12.964 5.474a17.997 17.997 0 0 1-12.575-5.091l-60.777-58.975c-3.454-3.351-5.396-7.857-5.47-12.69a18.03 18.03 0 0 1 1.566-7.618l-24.06-23.348a118.484 118.484 0 0 1-34.244 17.963v17.247a8 8 0 0 1-8 8H19.729a8 8 0 0 1-8-8V54.565a8 8 0 0 1 8-8h38.564V8a8 8 0 0 1 8-8h248.872c2.122 0 4.156.843 5.657 2.343l48.118 48.118a8.002 8.002 0 0 1 2.343 5.657v169.337c21.602 21.504 34.993 51.25 34.993 84.066 0 22.832-6.487 44.174-17.707 62.292l25.041 24.299c6.632-3.188 14.834-2.127 20.414 3.288l60.776 58.976c7.147 6.937 7.319 18.394.385 25.539zM287.604 206.849c-56.614 0-102.674 46.059-102.674 102.673s46.06 102.673 102.674 102.673c56.613 0 102.672-46.059 102.672-102.673s-46.058-102.673-102.672-102.673zM276.6 94.684h20.805L276.6 73.879zm46.565-46.566h20.805l-20.805-20.805zM74.293 46.565H268.6c2.122 0 4.156.843 5.657 2.343l48.118 48.118a8.002 8.002 0 0 1 2.343 5.657v94.115a118.364 118.364 0 0 1 30.565 15.298V64.118h-40.118a8 8 0 0 1-8-8V16H74.293zm234.425 379.747a118.884 118.884 0 0 1-21.113 1.883c-65.437 0-118.674-53.236-118.674-118.673s53.237-118.673 118.674-118.673c7.204 0 14.26.647 21.113 1.883v-82.048H268.6a8 8 0 0 1-8-8V62.565H27.729v368.926h280.989zm62.383-32.546 22.262 21.603 8.301-8.554-22.518-21.851a120.337 120.337 0 0 1-8.045 8.802zm112.556 76.091-60.775-58.975a2.048 2.048 0 0 0-1.435-.569h-.031a2.055 2.055 0 0 0-1.449.613l-21.943 22.613a2.053 2.053 0 0 0-.568 1.467c.004.323.091.941.612 1.447l60.777 58.976c.801.776 2.136.759 2.915-.043l21.942-22.614c.778-.801.757-2.136-.045-2.915zM373.604 309.521c0 47.421-38.579 86-85.999 86-47.421 0-86-38.579-86-86s38.579-86 86-86c47.419 0 85.999 38.58 85.999 86zm-16 0c0-38.598-31.401-70-69.999-70-38.599 0-70 31.402-70 70s31.401 70 70 70c38.597 0 69.999-31.402 69.999-70zM72.334 173.687v-51.802a8 8 0 0 1 8-8h51.803a8 8 0 0 1 8 8v51.802a8 8 0 0 1-8 8H80.334c-4.418 0-8-3.583-8-8zm16-8h35.803v-35.802H88.334z" fill="#5275e3" data-original="#000000" class=""></path></g></svg>