<?xml version="1.0" encoding="utf-8"?>
<!-- Generator: Adobe Illustrator 26.0.1, SVG Export Plug-In . SVG Version: 6.00 Build 0)  -->
<svg version="1.1" id="Layer_1" xmlns:svgjs="http://svgjs.com/svgjs"
	 xmlns="http://www.w3.org/2000/svg" xmlns:xlink="http://www.w3.org/1999/xlink" x="0px" y="0px" viewBox="0 0 100 100"
	 style="enable-background:new 0 0 100 100;" xml:space="preserve">
<style type="text/css">
	.st0{fill:#5275E3;}
</style>
<g>
	<path class="st0" d="M14.8,13.7l-1.4-1.4c-0.5,0.5-0.9,0.9-1.4,1.4l1.4,1.3C13.9,14.6,14.3,14.2,14.8,13.7z M9.7,19.4l-1.5-1.2
		c-0.4,0.5-0.8,1.1-1.2,1.6L8.6,21C8.9,20.4,9.3,19.9,9.7,19.4z M7.5,22.5l-1.6-1.1c-0.4,0.6-0.7,1.1-1,1.7l1.7,1
		C6.8,23.6,7.2,23.1,7.5,22.5z M92.5,77.4l1.6,1.1c0.4-0.6,0.7-1.1,1-1.7l-1.7-1C93.2,76.4,92.8,76.9,92.5,77.4L92.5,77.4z M26,5.5
		L25,3.8l-0.5,0.3l0.9,1.7L26,5.5z M23.8,6.7l-1-1.7c-0.6,0.3-1.1,0.7-1.7,1.1l1.1,1.6C22.7,7.4,23.3,7,23.8,6.7L23.8,6.7z
		 M20.6,8.8l-1.1-1.6c-0.5,0.4-1.1,0.8-1.6,1.2l1.2,1.5C19.6,9.6,20.1,9.2,20.6,8.8L20.6,8.8z M17.6,11.2l-1.2-1.5
		c-0.5,0.4-1,0.9-1.5,1.3l1.3,1.4C16.6,12,17.1,11.6,17.6,11.2L17.6,11.2z M12.1,16.5l-1.5-1.3c-0.4,0.5-0.9,1-1.3,1.5l1.5,1.2
		C11.3,17.4,11.7,16.9,12.1,16.5z M79.4,91.2l1.1,1.6c0.5-0.4,1.1-0.8,1.6-1.2L80.9,90C80.4,90.4,79.9,90.8,79.4,91.2L79.4,91.2z
		 M76.8,92.9l1,1.6c0.3-0.2,0.7-0.4,1-0.7l-1.1-1.6C77.5,92.5,77.1,92.7,76.8,92.9L76.8,92.9z M90.3,80.6l1.5,1.2
		c0.4-0.5,0.8-1.1,1.2-1.6L91.4,79C91,79.5,90.7,80.1,90.3,80.6L90.3,80.6z M82.4,88.8l1.2,1.5c0.5-0.4,1-0.9,1.5-1.3l-1.3-1.4
		C83.4,88,82.9,88.4,82.4,88.8L82.4,88.8z M85.2,86.3l1.4,1.4c0.5-0.5,0.9-0.9,1.4-1.4l-1.4-1.3C86.1,85.4,85.7,85.8,85.2,86.3
		L85.2,86.3z M87.9,83.5l1.5,1.3c0.4-0.5,0.9-1,1.3-1.5l-1.5-1.2C88.7,82.6,88.3,83,87.9,83.5L87.9,83.5z"/>
	<path class="st0" d="M96.7,50c0-10.8-3.8-21.3-10.6-29.6C77.2,9.5,64,3.3,50,3.3c-0.2,0-0.4,0-0.6,0l0,0h0
		C35.6,3.5,22.7,9.7,13.9,20.4C7.1,28.7,3.3,39.2,3.3,50c0,10.8,3.7,21.3,10.6,29.6c8.8,10.7,21.7,16.9,35.4,17.1c0.2,0,0.4,0,0.7,0
		C75.7,96.7,96.7,75.8,96.7,50L96.7,50z M68.9,76.6C64.6,87.5,58,94.1,51,94.7V70.8c5.4,0.1,10.7,0.7,15.8,1.8
		C66.6,74.2,67.4,75.8,68.9,76.6L68.9,76.6z M35.4,17.4c0,3.2-4.9,3.2-4.9,0c0-1.3,1.1-2.4,2.4-2.4C34.3,15,35.4,16.1,35.4,17.4z
		 M31.9,21.6L31.9,21.6c2.8,0.7,5.5-1.4,5.5-4.2c0-1.2-0.5-2.4-1.4-3.2c0,0,0,0,0,0c3.8-5.5,8.3-8.5,13.1-8.9v23.9
		c-6.6-0.1-13.2-1-19-2.6C30.5,24.9,31.1,23.3,31.9,21.6z M73.5,26.6c0.5,1.7-1.3,3.4-3.1,2.9c-1.1-0.3-1.9-1.5-1.7-2.7
		c0.2-1.2,1.2-2,2.4-2C72.2,24.7,73.2,25.5,73.5,26.6z M71.4,68.5c-1.7-0.1-3.3,0.8-4.1,2.2c-3.4-0.7-6.8-1.3-10.2-1.6
		C64.6,66.3,70,59.3,70.4,51h3.1C73.4,57.1,72.7,63,71.4,68.5z M68.5,50c0,10.2-8.3,18.5-18.5,18.5S31.5,60.2,31.5,50
		S39.8,31.5,50,31.5S68.5,39.8,68.5,50z M70.4,49c-0.4-8.3-5.8-15.4-13.3-18.2c3.5-0.3,6.9-0.8,10.2-1.5c0.8,1.4,2.4,2.3,4.1,2.2
		c1.3,5.5,2,11.4,2.1,17.5H70.4z M66.7,27.5c-5,1.1-10.3,1.7-15.8,1.8V5.3c7,0.6,13.6,7.2,17.9,18.1C67.4,24.2,66.6,25.8,66.7,27.5z
		 M29.4,28.5c4.3,1.2,8.8,2,13.5,2.4C35.4,33.6,30,40.7,29.6,49h-3.1C26.6,41.8,27.6,34.8,29.4,28.5L29.4,28.5z M29.6,51
		c0.4,8.3,5.8,15.4,13.3,18.2c-4.7,0.4-9.2,1.2-13.5,2.4c-1.8-6.3-2.8-13.3-2.9-20.5L29.6,51z M30.6,78c1.5-0.5,3.2,0.6,3.2,2.3
		c0,0.9-0.4,1.6-1.1,2.1l0,0c-0.4,0.2-0.8,0.4-1.3,0.4c-1.3,0-2.4-1.1-2.4-2.4C28.9,79.2,29.6,78.3,30.6,78z M35.7,80.3
		c0-2.4-2-4.4-4.4-4.4c-0.2,0-0.3,0-0.5,0c-0.3-0.9-0.6-1.7-0.9-2.6c6-1.6,12.4-2.5,19.1-2.6v23.9c-5.4-0.4-10.6-4.4-14.6-11.3
		C35.2,82.6,35.7,81.5,35.7,80.3z M70.4,75.2L70.4,75.2C69,74.8,68.1,73,69,71.6c0.6-0.9,1.7-1.4,2.8-1l0,0h0c1.1,0.4,2,1.6,1.6,2.9
		c-0.3,1.3-1.6,2.1-2.9,1.8C70.5,75.2,70.4,75.2,70.4,75.2L70.4,75.2z M75.5,72.9c0-1.6-0.9-3-2.2-3.8c1.4-5.7,2.1-11.8,2.2-18.1
		h5.6c0.4,1.9,2.2,3.4,4.3,3.4c2.1,0,3.8-1.5,4.3-3.4h5.1C94.5,61,91,70.3,85.1,77.7c-2.8-1.8-6.1-3.3-9.7-4.7
		C75.5,73,75.5,72.9,75.5,72.9L75.5,72.9z M82.9,50c0-1.3,1.1-2.4,2.4-2.4c1.3,0,2.4,1.1,2.4,2.4c0,1.3-1.1,2.4-2.4,2.4
		C84,52.4,82.9,51.3,82.9,50z M94.7,49h-5.1c-0.4-1.9-2.2-3.4-4.3-3.4s-3.8,1.5-4.3,3.4h-5.6c-0.1-6.3-0.8-12.4-2.2-18.1
		c1.4-0.8,2.3-2.3,2.2-4c3.6-1.3,6.9-2.9,9.7-4.7C91.1,29.9,94.5,39.3,94.7,49z M83.9,20.8c-2.6,1.6-5.6,3.1-8.9,4.3
		c-0.7-1.4-2.2-2.3-3.9-2.3c-0.1,0-0.2,0-0.4,0c-3-7.7-7.2-13.5-12-16.7C68.4,8,77.3,13.1,83.9,20.8L83.9,20.8z M41.2,6.2
		c-2.5,1.7-4.8,4-6.9,7.1C33.8,13.1,33.4,13,33,13c-2.4,0-4.4,2-4.4,4.4c0,1.3,0.6,2.5,1.5,3.3c-0.8,1.8-1.5,3.6-2,5.4
		c-4.5-1.4-8.6-3.2-12-5.3C22.6,13.3,31.4,8.1,41.2,6.2L41.2,6.2z M14.9,22.3c3.6,2.3,7.9,4.2,12.7,5.7c-1.9,6.5-2.9,13.7-3,21.1
		h-4.1c-0.4-1.9-2.2-3.4-4.3-3.4S12.4,47.1,12,49H5.3C5.5,39.3,8.9,29.9,14.9,22.3L14.9,22.3z M18.6,50c0,1.3-1.1,2.4-2.4,2.4
		c-1.3,0-2.4-1.1-2.4-2.4c0-1.3,1.1-2.4,2.4-2.4C17.6,47.6,18.6,48.7,18.6,50z M5.3,51H12c0.4,1.9,2.2,3.4,4.3,3.4s3.8-1.5,4.3-3.4
		h4.1c0.1,7.4,1.1,14.6,3,21.1c-4.8,1.5-9,3.4-12.7,5.7C8.9,70.1,5.5,60.7,5.3,51z M16.1,79.2c3.4-2.1,7.4-3.9,12-5.3
		c0.3,0.9,0.6,1.8,0.9,2.7c-1.3,0.8-2.1,2.2-2.1,3.7c0,2.4,2,4.4,4.4,4.4c0.5,0,1-0.1,1.4-0.3c2.5,4.2,5.3,7.4,8.5,9.5
		C31.5,91.9,22.7,86.8,16.1,79.2L16.1,79.2z M58.7,93.9c4.8-3.2,9-8.9,12-16.7c1.7,0.2,3.4-0.8,4.2-2.3c3.3,1.2,6.3,2.7,8.9,4.3
		C77.5,86.6,68.7,91.9,58.7,93.9L58.7,93.9z"/>
	<path class="st0" d="M42.1,61.5h15c1.1,0,2.1-0.9,2.1-2.1v-11c0-1.1-0.9-2.1-2.1-2.1h-1v-2.9c0-3.6-2.9-6.5-6.5-6.5
		s-6.5,2.9-6.5,6.5v2.9h-1c-1.1,0-2.1,0.9-2.1,2.1v11C40.1,60.6,41,61.5,42.1,61.5L42.1,61.5z M45.1,43.5c0-2.5,2-4.6,4.6-4.6
		c2.5,0,4.6,2,4.6,4.6v2.9h-9.1V43.5L45.1,43.5z M42,48.4c0-0.1,0.1-0.1,0.1-0.1h15c0.1,0,0.1,0.1,0.1,0.1v11c0,0.1-0.1,0.1-0.1,0.1
		h-15c-0.1,0-0.1-0.1-0.1-0.1c0,0,0,0,0,0V48.4z"/>
	<path class="st0" d="M48.7,55.2v2.2h1.9v-2.2c1.2-0.4,1.9-1.5,1.9-2.7c0-1.6-1.3-2.9-2.9-2.9c-1.6,0-2.9,1.3-2.9,2.9
		C46.7,53.7,47.5,54.8,48.7,55.2L48.7,55.2z M49.6,51.5c0.5,0,1,0.4,1,0.9c0,0.5-0.4,1-0.9,1c0,0-0.1,0-0.1,0c-0.5,0-1-0.5-0.9-1
		C48.7,51.9,49.1,51.5,49.6,51.5z"/>
</g>
</svg>
