<?xml version="1.0" encoding="utf-8"?>
<!-- Generator: Adobe Illustrator 26.0.1, SVG Export Plug-In . SVG Version: 6.00 Build 0)  -->
<svg version="1.1" xmlns="http://www.w3.org/2000/svg" xmlns:xlink="http://www.w3.org/1999/xlink" x="0px" y="0px"
	 viewBox="0 0 100 100" style="enable-background:new 0 0 100 100;" xml:space="preserve">
<style type="text/css">
	.st0{fill:#FFFFFF;}
	.st1{fill:none;stroke:#FFFFFF;stroke-width:2.6599;stroke-linecap:round;stroke-linejoin:round;stroke-miterlimit:10;}
</style>
<g id="Layer_2">
</g>
<g id="Layer_1" xmlns:svgjs="http://svgjs.com/svgjs">
	<g>
		<g transform="matrix(1.33333 0 0 -1.33333 0 682.667)">
			<path class="st0" d="M31.3,469.7c0.6,0,1-0.5,1-1c0-0.5-0.5-1-1-1c-0.6,0-1,0.5-1,1C30.3,469.3,30.8,469.7,31.3,469.7"/>
			<path class="st1" d="M27.7,480.3l0.3,8.3c0.1,3.8,1.6,7.6,3.4,10.9c3.1,5.7,7.3,9.7,7.3,9.7s3.9-4.4,6.6-10.2
				c1.6-3.4,2.8-7.2,2.6-11.1l-0.8-23.8l-19.9,0.7L27.7,480.3z"/>
			<path class="st1" d="M43.6,464.2l1.3-6l-16,0.6l1.7,5.9"/>
			<path class="st1" d="M47.7,479.6l5.7-7.7l-0.4-12l-5.8,4.7"/>
			<path class="st1" d="M27.2,465.3l-6.1-4.3l0.4,12l6.2,7.3"/>
			<path class="st1" d="M36.8,454.5l-0.5-14.7"/>
			<path class="st1" d="M40.8,454.4l-0.3-8.7"/>
			<path class="st1" d="M32.8,454.6l-0.3-8.7"/>
			<path class="st1" d="M42.8,484.1c-0.1-2.8-2.4-4.9-5.2-4.8c-2.8,0.1-4.9,2.4-4.8,5.2c0.1,2.8,2.4,4.9,5.2,4.8
				C40.8,489.1,42.9,486.8,42.8,484.1z"/>
			<path class="st1" d="M31.4,499.5l13.9-0.5"/>
			<path class="st1" d="M35.3,468.5l12-0.4"/>
		</g>
	</g>
</g>
</svg>
