<?xml version="1.0" encoding="utf-8"?>
<!-- Generator: Adobe Illustrator 26.0.1, SVG Export Plug-In . SVG Version: 6.00 Build 0)  -->
<svg version="1.1" id="Layer_1" xmlns:svgjs="http://svgjs.com/svgjs"
	 xmlns="http://www.w3.org/2000/svg" xmlns:xlink="http://www.w3.org/1999/xlink" x="0px" y="0px" viewBox="0 0 100 100"
	 style="enable-background:new 0 0 100 100;" xml:space="preserve">
<style type="text/css">
	.st0{fill:#5275E3;}
</style>
<g>
	<path class="st0" d="M22.2,12c-6.5,0-11.7,5.2-11.7,11.7s5.2,11.7,11.7,11.7s11.7-5.2,11.7-11.7C33.9,17.2,28.7,12,22.2,12z
		 M22.2,32.5c-4.8,0-8.8-3.9-8.8-8.8s3.9-8.8,8.8-8.8s8.8,3.9,8.8,8.8C31,28.5,27.1,32.5,22.2,32.5z M22.2,38.3
		c-6.5,0-11.7,5.2-11.7,11.7s5.2,11.7,11.7,11.7S33.9,56.5,33.9,50C33.9,43.5,28.7,38.3,22.2,38.3z M22.2,58.8
		c-4.8,0-8.8-3.9-8.8-8.8s3.9-8.8,8.8-8.8S31,45.2,31,50C31,54.8,27.1,58.8,22.2,58.8z M22.2,64.6c-6.5,0-11.7,5.2-11.7,11.7
		c0,6.5,5.2,11.7,11.7,11.7s11.7-5.2,11.7-11.7C33.9,69.8,28.7,64.6,22.2,64.6z M22.2,85.1c-4.8,0-8.8-3.9-8.8-8.8s3.9-8.8,8.8-8.8
		s8.8,3.9,8.8,8.8C31,81.1,27.1,85.1,22.2,85.1z"/>
	<path class="st0" d="M22.9,18c-0.5-0.3-1.1-0.2-1.5,0.1L17,21l1.6,2.4l2.1-1.4v7.5h2.9V19.3C23.7,18.8,23.4,18.3,22.9,18z
		 M25.2,44.2h-5.8c-0.8,0-1.5,0.7-1.5,1.5v2.9h2.9v-1.5h2.9v1.8l-1.9,0.5c-2.3,0.6-3.9,2.7-3.9,5c0,0.8,0.7,1.5,1.5,1.5h7.3v-2.9
		h-5.3c0.3-0.4,0.7-0.6,1.2-0.8l3-0.8c0.7-0.2,1.1-0.7,1.1-1.4v-4.4C26.6,44.8,26,44.2,25.2,44.2z M25.2,70.5h-5.8v2.9h4.4v1.5h-4.4
		v2.9h4.4v1.5h-4.4v2.9h5.8c0.8,0,1.5-0.7,1.5-1.5v-8.8C26.6,71.1,26,70.5,25.2,70.5z"/>
	<path class="st0" d="M93.8,12H71.9V6.2c0-0.8-0.7-1.5-1.5-1.5H6.2c-0.8,0-1.5,0.7-1.5,1.5v87.7c0,0.8,0.7,1.5,1.5,1.5h64.3
		c0.8,0,1.5-0.7,1.5-1.5V88h21.9c0.8,0,1.5-0.7,1.5-1.5V66.1c0-0.8-0.7-1.5-1.5-1.5H71.9v-2.9h21.9c0.8,0,1.5-0.7,1.5-1.5V39.8
		c0-0.8-0.7-1.5-1.5-1.5H71.9v-2.9h21.9c0.8,0,1.5-0.7,1.5-1.5V13.5C95.3,12.7,94.6,12,93.8,12z M92.4,85.1H48.5v-4.4
		c0-0.6-0.3-1.1-0.8-1.3l-6.2-3.1l6.2-3.1c0.5-0.2,0.8-0.8,0.8-1.3v-4.4h43.8V85.1z M92.4,58.8H48.5v-4.4c0-0.6-0.3-1.1-0.8-1.3
		L41.6,50l6.2-3.1c0.5-0.2,0.8-0.8,0.8-1.3v-4.4h43.8V58.8z M69,38.3H47.1c-0.8,0-1.5,0.7-1.5,1.5v4.9l-8,4c-0.7,0.4-1,1.2-0.7,2
		c0.1,0.3,0.4,0.5,0.7,0.7l8,4v4.9c0,0.8,0.7,1.5,1.5,1.5H69v2.9H47.1c-0.8,0-1.5,0.7-1.5,1.5V71l-8,4c-0.7,0.4-1,1.2-0.7,2
		c0.1,0.3,0.4,0.5,0.7,0.7l8,4v4.9c0,0.8,0.7,1.5,1.5,1.5H69v4.4H7.6V7.6H69V12H47.1c-0.8,0-1.5,0.7-1.5,1.5v4.9l-8,4
		c-0.7,0.4-1,1.2-0.7,2c0.1,0.3,0.4,0.5,0.7,0.7l8,4v4.9c0,0.8,0.7,1.5,1.5,1.5H69V38.3z M92.4,32.5H48.5v-4.4
		c0-0.6-0.3-1.1-0.8-1.3l-6.2-3.1l6.2-3.1c0.5-0.2,0.8-0.8,0.8-1.3v-4.4h43.8V32.5z"/>
	<path class="st0" d="M57.3,19.3h23.4v2.9H57.3V19.3z M83.6,19.3h5.8v2.9h-5.8V19.3z M51.5,25.2h38v2.9h-38V25.2z M57.3,45.6h23.4
		v2.9H57.3V45.6z M83.6,45.6h5.8v2.9h-5.8V45.6z M51.5,51.5h38v2.9h-38V51.5z M57.3,71.9h23.4v2.9H57.3V71.9z M83.6,71.9h5.8v2.9
		h-5.8V71.9z M51.5,77.8h38v2.9h-38V77.8z"/>
</g>
</svg>
