<?xml version="1.0" encoding="utf-8"?>
<!-- Generator: Adobe Illustrator 26.0.1, SVG Export Plug-In . SVG Version: 6.00 Build 0)  -->
<svg version="1.1" id="Layer_1" xmlns:svgjs="http://svgjs.com/svgjs"
	 xmlns="http://www.w3.org/2000/svg" xmlns:xlink="http://www.w3.org/1999/xlink" x="0px" y="0px" viewBox="0 0 100 100"
	 style="enable-background:new 0 0 100 100;" xml:space="preserve">
<style type="text/css">
	.st0{fill:#5275E3;}
</style>
<g>
	<path class="st0" d="M87.1,54.2v-3.1c0.9,0,1.5-0.7,1.5-1.5v-9.3c0-0.9-0.7-1.5-1.5-1.5h-8.4l-0.3-1.2c-0.7-2.7-1.7-5.2-3.2-7.6
		l-0.6-1l5.9-5.9c0.6-0.6,0.6-1.6,0-2.2l-6.6-6.6c-0.6-0.6-1.6-0.6-2.2,0L66,20.2l-1-0.6c-2.4-1.4-4.9-2.5-7.6-3.2l-1.2-0.3V7.8
		c0-0.9-0.7-1.5-1.5-1.5h-9.3c-0.9,0-1.5,0.7-1.5,1.5v8.4l-1.2,0.3c-2.7,0.7-5.2,1.7-7.6,3.2l-1,0.6l-5.9-5.9
		c-0.6-0.6-1.6-0.6-2.2,0l-6.6,6.6c-0.6,0.6-0.6,1.6,0,2.2c0,0,0,0,0,0l5.9,5.9l-0.6,1c-1.4,2.4-2.5,4.9-3.2,7.6l-0.3,1.2h-8.4
		c-0.9,0-1.5,0.7-1.5,1.5v9.3c0,0.9,0.7,1.5,1.5,1.5v3.1c-2.6,0-4.6-2.1-4.6-4.6v-9.3c0-2.6,2.1-4.6,4.6-4.6h6
		c0.6-2.1,1.5-4.2,2.6-6.2l-4.3-4.3c-0.9-0.9-1.4-2-1.4-3.3s0.5-2.4,1.4-3.3l6.6-6.6c1.8-1.8,4.7-1.8,6.6,0l4.3,4.3
		c2-1.1,4-1.9,6.2-2.6v-6c0-2.6,2.1-4.6,4.6-4.6h9.3c2.6,0,4.6,2.1,4.6,4.6v6c2.1,0.6,4.2,1.5,6.2,2.6l4.3-4.3
		c1.8-1.8,4.7-1.8,6.6,0l6.6,6.6c0.9,0.9,1.4,2,1.4,3.3c0,1.2-0.5,2.4-1.4,3.3l-4.3,4.3c1.1,2,1.9,4,2.6,6.2h6
		c2.6,0,4.6,2.1,4.6,4.6v9.3C91.8,52.1,89.7,54.2,87.1,54.2z"/>
	<path class="st0" d="M71.7,44.9h-3.1c0-10.3-8.3-18.6-18.6-18.6s-18.6,8.3-18.6,18.6h-3.1c0-12,9.7-21.7,21.7-21.7
		C62,23.2,71.7,32.9,71.7,44.9z"/>
	<path class="st0" d="M50,57.3c-5.1,0-9.3-4.2-9.3-9.3c0-5.1,4.2-9.3,9.3-9.3c5.1,0,9.3,4.2,9.3,9.3C59.3,53.1,55.1,57.3,50,57.3z
		 M50,41.8c-3.4,0-6.2,2.8-6.2,6.2s2.8,6.2,6.2,6.2s6.2-2.8,6.2-6.2S53.4,41.8,50,41.8z M76.3,63.5c-5.1,0-9.3-4.2-9.3-9.3
		c0-5.1,4.2-9.3,9.3-9.3c5.1,0,9.3,4.2,9.3,9.3C85.6,59.3,81.4,63.4,76.3,63.5z M76.3,48c-3.4,0-6.2,2.8-6.2,6.2s2.8,6.2,6.2,6.2
		s6.2-2.8,6.2-6.2S79.7,48,76.3,48z M23.7,63.5c-5.1,0-9.3-4.2-9.3-9.3c0-5.1,4.2-9.3,9.3-9.3c5.1,0,9.3,4.2,9.3,9.3
		C33,59.3,28.8,63.4,23.7,63.5z M23.7,48c-3.4,0-6.2,2.8-6.2,6.2s2.8,6.2,6.2,6.2s6.2-2.8,6.2-6.2S27.1,48,23.7,48z"/>
	<path class="st0" d="M90.3,67.4c-2.3-1.6-5-2.4-7.8-2.4H70.1c-0.8,0-1.5,0.1-2.2,0.2c-1-1.5-2.3-2.9-3.8-3.9
		c-0.2-0.2-0.5-0.3-0.7-0.5c-2.2-1.3-4.6-2-7.2-2H43.8c-4.7,0-9.1,2.4-11.7,6.4c-0.7-0.1-1.5-0.2-2.2-0.2H17.5
		c-2.8,0-5.5,0.8-7.8,2.4C5.9,70,3.6,74.3,3.6,78.9v6.2c0,4.2,2.5,8.1,6.3,9.8c1.4,0.7,3,1,4.5,1h15.5v-3.1H16v-17h-3.1v16.9
		c-0.6-0.1-1.1-0.3-1.7-0.6c-2.7-1.3-4.5-4-4.5-7v-6.2c0-3.6,1.8-6.9,4.7-9c1.8-1.2,3.9-1.9,6.1-1.9h12.4c0.3,0,0.5,0,0.8,0
		c-0.5,1.5-0.8,3-0.8,4.6v15.5c0,4.3,3.5,7.7,7.7,7.7h4.6V71.2h-3.1v21.7h-1.5c-2.6,0-4.6-2.1-4.6-4.6V72.7c0-6,4.8-10.8,10.8-10.8
		h12.4c2,0,3.9,0.6,5.6,1.6c0.2,0.1,0.3,0.2,0.5,0.3c1.4,1,2.6,2.3,3.5,3.9c0.8,1.6,1.3,3.3,1.3,5.1v15.5c0,2.6-2.1,4.6-4.6,4.6
		h-1.5V71.2h-3.1v24.7h4.6c4.3,0,7.7-3.5,7.7-7.7V72.7c0-1.6-0.3-3.1-0.8-4.6c0.3,0,0.5,0,0.8,0h12.4c2.2,0,4.3,0.6,6.1,1.9
		c3,2,4.7,5.4,4.7,8.9v6.2c0,3-1.8,5.8-4.5,7c-0.5,0.2-1.1,0.4-1.7,0.5V75.8H84v17H70.1v3.1h15.5c1.6,0,3.1-0.3,4.5-1
		c3.8-1.8,6.3-5.6,6.3-9.8v-6.2C96.4,74.3,94.1,70,90.3,67.4z"/>
	<path class="st0" d="M43.8,92.8h12.4v3.1H43.8V92.8z"/>
</g>
</svg>
