<?xml version="1.0" encoding="utf-8"?>
<!-- Generator: Adobe Illustrator 26.0.1, SVG Export Plug-In . SVG Version: 6.00 Build 0)  -->
<svg version="1.1" id="Layer_1" xmlns:svgjs="http://svgjs.com/svgjs"
	 xmlns="http://www.w3.org/2000/svg" xmlns:xlink="http://www.w3.org/1999/xlink" x="0px" y="0px" viewBox="0 0 100 100"
	 style="enable-background:new 0 0 100 100;" xml:space="preserve">
<style type="text/css">
	.st0{fill:#5275E3;}
</style>
<g>
	<path class="st0" d="M50.1,23.8c-13.1,0-23.7,10.7-23.7,23.7c0,6.8,3,13.4,8,17.8c3.8,3.8,3.4,11.8,3.3,11.9c0,0.4,0.1,0.8,0.4,1.1
		c0.3,0.3,0.7,0.4,1,0.4h21.8c0.4,0,0.8-0.2,1-0.4c0.3-0.3,0.4-0.7,0.4-1.1c0-0.1-0.4-8.1,3.3-11.9l0.3-0.3
		c4.9-4.5,7.8-10.9,7.8-17.6C73.8,34.4,63.1,23.8,50.1,23.8L50.1,23.8z M63.7,63.1c-0.1,0.1-0.3,0.3-0.3,0.3
		c-3.3,3.6-3.9,9.5-4,12.3H40.6c-0.1-2.8-0.7-9-4.3-12.6c-4.5-3.9-7.2-9.6-7.2-15.7c0-11.5,9.3-20.8,20.8-20.8s20.8,9.3,20.8,20.8
		C70.8,53.5,68.2,59.2,63.7,63.1z"/>
	<path class="st0" d="M50,29.8c-0.8,0-1.5,0.7-1.5,1.5c0,0.8,0.7,1.5,1.5,1.5c8.6,0,15.5,7,15.5,15.5c0,0.8,0.7,1.5,1.5,1.5
		c0.8,0,1.5-0.7,1.5-1.5C68.5,38.1,60.2,29.8,50,29.8z M59.5,80.3H40.5c-2,0-3.6,1.6-3.6,3.6s1.6,3.6,3.6,3.6h18.9
		c2-0.1,3.7-1.6,3.7-3.6C63,82,61.4,80.3,59.5,80.3L59.5,80.3z M59.5,84.5H40.5c-0.3,0-0.7-0.3-0.7-0.7c0-0.4,0.3-0.7,0.7-0.7h18.9
		c0.3,0,0.7,0.3,0.7,0.7C60.1,84.3,59.8,84.5,59.5,84.5L59.5,84.5z M56.6,89H43.3c-2,0-3.6,1.6-3.6,3.6s1.6,3.6,3.6,3.6h13.3
		c2,0,3.6-1.6,3.6-3.6C60.2,90.5,58.6,89,56.6,89L56.6,89z M56.6,93.1H43.3c-0.3,0-0.7-0.3-0.7-0.7c0-0.4,0.3-0.7,0.7-0.7h13.3
		c0.3,0,0.7,0.3,0.7,0.7C57.3,92.9,57,93.1,56.6,93.1L56.6,93.1z M50,16.7c0.9,0,1.5-0.7,1.5-1.5V5.3c0-0.8-0.7-1.5-1.5-1.5
		c-0.8,0-1.5,0.7-1.5,1.5v9.9C48.5,16,49.2,16.7,50,16.7z M74.1,11.2c-0.7-0.5-1.5-0.3-2,0.3l-5.5,8.2c-0.5,0.7-0.3,1.6,0.3,2
		c0.3,0.2,0.5,0.3,0.8,0.3c0.5,0,0.9-0.3,1.2-0.7l5.5-8.2C75,12.6,74.8,11.6,74.1,11.2z M32.7,21.7c0.3,0,0.5-0.1,0.8-0.3
		c0.7-0.4,0.9-1.4,0.4-2l-5.3-8.3c-0.4-0.7-1.4-0.9-2-0.4c-0.7,0.4-0.9,1.4-0.4,2l5.3,8.3C31.7,21.5,32.2,21.7,32.7,21.7z
		 M22.3,30.8l-8.6-4.7c-0.7-0.3-1.6-0.1-2,0.6c-0.4,0.7-0.2,1.6,0.6,2l8.6,4.7c0.3,0.1,0.4,0.2,0.7,0.2c0.5,0,1-0.3,1.3-0.8
		C23.3,32,23,31.1,22.3,30.8z M88.3,26.7c-0.3-0.7-1.3-0.9-2-0.6l-8.7,4.7c-0.7,0.3-0.9,1.3-0.6,2c0.3,0.5,0.8,0.8,1.3,0.8
		c0.3,0,0.5-0.1,0.7-0.2l8.7-4.7C88.4,28.3,88.6,27.3,88.3,26.7z"/>
</g>
</svg>
