<?xml version="1.0" encoding="utf-8"?>
<!-- Generator: Adobe Illustrator 26.0.1, SVG Export Plug-In . SVG Version: 6.00 Build 0)  -->
<svg version="1.1" id="Layer_1" xmlns:svgjs="http://svgjs.com/svgjs"
	 xmlns="http://www.w3.org/2000/svg" xmlns:xlink="http://www.w3.org/1999/xlink" x="0px" y="0px" viewBox="0 0 100 100"
	 style="enable-background:new 0 0 100 100;" xml:space="preserve">
<style type="text/css">
	.st0{fill:#5275E3;}
</style>
<g>
	<path class="st0" d="M79.1,15.3c-4-4.2-8.9-7.4-14.3-9.5C54.2,2,43.1,3.3,34.3,9.5c-9.6,6.7-14.8,18.2-13.5,29.9l-9.3,17.8
		c-0.5,1-0.1,2.2,0.8,2.7c0.1,0.1,0.3,0.1,0.4,0.2l8,2.1l0.9,17.5c0.1,2.5,2.1,4.6,4.7,4.8c3.1,0.2,6.5-0.1,9.9-0.9v11.9
		c0,0.6,0.5,1.1,1.1,1.1h38.1c0.6,0,1.1-0.5,1.1-1.1c0-0.2-0.1-0.4-0.1-0.5c-2.4-4.2-4.8-9-5.2-18.2c-0.1-1.9,0.4-3.9,1.5-5.5
		c2.4-3.6,5.2-6.8,8.5-9.6c0.1,0,0.1-0.1,0.1-0.2C92.1,47.5,91.1,27.9,79.1,15.3z M79.7,59.8c-3.4,2.9-6.3,6.3-8.8,10
		c-1.4,2-2,4.4-1.9,6.8c0.4,8.5,2.4,13.5,4.6,17.5H38.4V82c0-0.6-0.5-1.1-1.1-1.1c-0.1,0-0.2,0-0.3,0c-3.7,1-7.2,1.4-10.5,1.2
		c-1.5-0.1-2.6-1.3-2.7-2.7l-1-18.3c0-0.5-0.4-0.9-0.8-1l-8.5-2.2L22.9,40c0.1-0.2,0.1-0.4,0.1-0.6c-1.3-11,3.5-21.8,12.6-28.2
		c8.2-5.7,18.6-7,28.4-3.3c10.6,3.9,18.8,12.8,21.6,23.3C88.1,41.1,85.9,51.7,79.7,59.8L79.7,59.8z M74,33.4l-4.3-1
		c-0.2-0.7-0.5-1.4-0.8-2l2.3-3.7c0.3-0.4,0.2-1-0.2-1.3l-5.5-5.5c-0.4-0.4-0.9-0.4-1.3-0.2l-3.7,2.3c-0.7-0.3-1.3-0.6-2-0.8l-1-4.3
		c-0.1-0.5-0.6-0.8-1.1-0.8h-7.8c-0.5,0-0.9,0.3-1.1,0.8l-1,4.3c-0.7,0.2-1.4,0.5-2,0.8l-3.7-2.3c-0.4-0.3-1-0.2-1.3,0.2l-5.5,5.5
		c-0.4,0.4-0.4,0.9-0.2,1.3l2.3,3.7c-0.3,0.7-0.6,1.3-0.8,2l-4.3,1c-0.5,0.1-0.8,0.6-0.8,1.1v7.8c0,0.5,0.3,0.9,0.8,1.1l4.3,1
		c0.2,0.7,0.5,1.4,0.8,2l-2.3,3.7c-0.3,0.4-0.2,1,0.2,1.3l5.5,5.5c0.4,0.4,0.9,0.4,1.3,0.2l3.7-2.3c0.7,0.3,1.3,0.6,2,0.8l1,4.3
		c0.1,0.5,0.6,0.8,1.1,0.8h7.8c0.5,0,0.9-0.3,1.1-0.8l1-4.3c0.7-0.2,1.4-0.5,2-0.8l3.7,2.3c0.4,0.3,1,0.2,1.3-0.2l5.5-5.5
		c0.4-0.4,0.4-0.9,0.2-1.3l-2.3-3.7c0.3-0.7,0.6-1.3,0.8-2l4.3-1c0.5-0.1,0.8-0.6,0.8-1.1v-7.8C74.8,34,74.5,33.5,74,33.4L74,33.4z
		 M72.7,41.4l-4,1c-0.4,0.1-0.7,0.4-0.8,0.7c-0.3,1-0.7,1.9-1.2,2.8c-0.2,0.3-0.2,0.7,0,1.1l2.1,3.5l-4.3,4.3l-3.5-2.1
		c-0.3-0.2-0.7-0.2-1.1,0c-0.9,0.5-1.8,0.9-2.8,1.2c-0.4,0.1-0.6,0.4-0.7,0.8l-1,4h-6.1l-1-4c-0.1-0.4-0.4-0.7-0.7-0.8
		c-1-0.3-1.9-0.7-2.8-1.2c-0.3-0.2-0.7-0.2-1.1,0l-3.5,2.1L36,50.5l2.1-3.5c0.2-0.3,0.2-0.7,0-1.1c-0.5-0.9-0.9-1.8-1.2-2.8
		c-0.1-0.4-0.4-0.6-0.8-0.7l-4-1v-6.1l4-1c0.4-0.1,0.7-0.4,0.8-0.7c0.3-1,0.7-1.9,1.2-2.8c0.2-0.3,0.2-0.7,0-1.1L36,26.2l4.3-4.3
		l3.5,2.1c0.3,0.2,0.7,0.2,1.1,0c0.9-0.5,1.8-0.9,2.8-1.2c0.4-0.1,0.6-0.4,0.7-0.8l1-4h6.1l1,4c0.1,0.4,0.4,0.7,0.7,0.8
		c1,0.3,1.9,0.7,2.8,1.2c0.3,0.2,0.7,0.2,1.1,0l3.5-2.1l4.3,4.3l-2.1,3.5c-0.2,0.3-0.2,0.7,0,1.1c0.5,0.9,0.9,1.8,1.2,2.8
		c0.1,0.4,0.4,0.6,0.8,0.7l4,1L72.7,41.4z M52.4,28c-5.7,0-10.4,4.6-10.4,10.4s4.6,10.4,10.4,10.4s10.4-4.6,10.4-10.4c0,0,0,0,0,0
		C62.8,32.6,58.2,28,52.4,28L52.4,28z M52.4,46.5c-4.5,0-8.2-3.7-8.2-8.2s3.7-8.2,8.2-8.2s8.2,3.7,8.2,8.2l0,0
		C60.6,42.9,57,46.5,52.4,46.5L52.4,46.5z"/>
</g>
</svg>
