<?xml version="1.0" encoding="utf-8"?>
<!-- Generator: Adobe Illustrator 26.0.1, SVG Export Plug-In . SVG Version: 6.00 Build 0)  -->
<svg version="1.1" id="Layer_1" xmlns:svgjs="http://svgjs.com/svgjs"
	 xmlns="http://www.w3.org/2000/svg" xmlns:xlink="http://www.w3.org/1999/xlink" x="0px" y="0px" viewBox="0 0 100 100"
	 style="enable-background:new 0 0 100 100;" xml:space="preserve">
<style type="text/css">
	.st0{fill:#5275E3;}
</style>
<g>
	<path class="st0" d="M10.5,19.3h2.9v2.9h-2.9V19.3z M16.4,19.3h38v2.9h-38V19.3z M19.3,45.6h2.9v2.9h-2.9v11.7h2.9v2.9h-2.9v11.7
		h35.1V63.2h-2.9v-2.9h2.9V48.5h-2.9v-2.9h2.9V33.9H19.3V45.6z M51.5,71.9H22.2v-5.8h29.2V71.9z M48.5,63.2H25.2v-2.9h23.4V63.2z
		 M51.5,57.3H22.2v-5.8h29.2V57.3z M48.5,48.5H25.2v-2.9h23.4V48.5z M22.2,36.8h29.2v5.8H22.2V36.8z"/>
	<path class="st0" d="M95.3,22.2V4.7H80.7V12h-4.4c-4,0-7.3,3.3-7.3,7.3v29.2h-8.8V20.8c0-4-3.3-7.3-7.3-7.3H12
		c-4,0-7.3,3.3-7.3,7.3v55.5c0,4,3.3,7.3,7.3,7.3h40.9c4,0,7.3-3.3,7.3-7.3V51.5H69v29.2c0,4,3.3,7.3,7.3,7.3h4.4v7.3h14.6V77.8
		H80.7v7.3h-4.4c-2.4,0-4.4-2-4.4-4.4V64.6h8.8v7.3h14.6V54.4H80.7v7.3h-8.8V36.8h8.8v8.8h14.6V28.1H80.7v5.8h-8.8V19.3
		c0-2.4,2-4.4,4.4-4.4h4.4v7.3H95.3z M7.6,76.3V26.6c1.3,1,2.8,1.5,4.4,1.5h1.5v52.6H12C9.6,80.7,7.6,78.7,7.6,76.3z M57.3,76.3
		c0,2.4-2,4.4-4.4,4.4H16.4V28.1h36.5c2.4,0,4.4,2,4.4,4.4V76.3z M57.3,26.6c-1.3-1-2.8-1.5-4.4-1.5H12c-2.4,0-4.4-2-4.4-4.4
		s2-4.4,4.4-4.4h40.9c2.4,0,4.4,2,4.4,4.4V26.6z M83.6,80.7h8.8v11.7h-8.8V80.7z M83.6,57.3h8.8V69h-8.8V57.3z M83.6,31h8.8v11.7
		h-8.8V31z M83.6,7.6h8.8v11.7h-8.8V7.6z"/>
</g>
</svg>
