<?xml version="1.0" encoding="utf-8"?>
<!-- Generator: Adobe Illustrator 26.0.1, SVG Export Plug-In . SVG Version: 6.00 Build 0)  -->
<svg version="1.1" id="Layer_1" xmlns:svgjs="http://svgjs.com/svgjs"
	 xmlns="http://www.w3.org/2000/svg" xmlns:xlink="http://www.w3.org/1999/xlink" x="0px" y="0px" viewBox="0 0 100 100"
	 style="enable-background:new 0 0 100 100;" xml:space="preserve">
<style type="text/css">
	.st0{fill:#5275E3;}
</style>
<g>
	<path class="st0" d="M97.1,12.3c0-1.3-0.5-2.5-1.4-3.4l-4.5-4.5c-0.9-0.9-2.1-1.4-3.4-1.4h0c-1.3,0-2.5,0.5-3.4,1.4L63.8,24.9H23.3
		V7.6c0-2.6-2.1-4.7-4.7-4.7h-3.1C8.5,2.9,2.9,8.5,2.9,15.5v69.5c0.4,6.9,6.1,12.2,13,12.2h76.4c2.6,0,4.7-2.1,4.7-4.7V29.6
		c0-2.6-2.1-4.7-4.7-4.7h-6l9.3-9.3C96.6,14.7,97.1,13.5,97.1,12.3L97.1,12.3z M59.1,42.2c-0.3,0-0.7-0.1-0.9-0.3
		c-0.2-0.2-0.3-0.6-0.3-0.9l0.6-5.3c0-0.1,0.1-0.2,0.1-0.3l6.2,6.2c-0.1,0-0.2,0.1-0.3,0.1L59.1,42.2z M67.3,39.6l-6.9-6.9
		l17.1-17.1l6.9,6.9L67.3,39.6z M79.7,13.4l2.3-2.3l6.9,6.9l-2.3,2.3L79.7,13.4z M6.1,15.5c0-5.2,4.2-9.4,9.4-9.4h3.1
		c0.9,0,1.6,0.7,1.6,1.6v62.8c0,0.9-0.7,1.6-1.6,1.6h-3.1c-3.6,0-7,1.6-9.4,4.3L6.1,15.5z M92.4,28c0.9,0,1.6,0.7,1.6,1.6v62.8
		c0,0.9-0.7,1.6-1.6,1.6H15.9C10.7,94,6.4,90,6.1,84.9v-0.3c0-5.2,4.2-9.4,9.4-9.4h3.1c2.6,0,4.7-2.1,4.7-4.7V28h37.4l-3.6,3.6
		c-1,1-1.6,2.3-1.8,3.7l-0.6,5.3c0,0.5,0,1,0.1,1.6H28c-0.9,0-1.6,0.7-1.6,1.6c0,0.9,0.7,1.6,1.6,1.6h4.7v42.4
		c0,0.9,0.7,1.6,1.6,1.6s1.6-0.7,1.6-1.6v-22h17.3v12.6h-11c-0.9,0-1.6,0.7-1.6,1.6c0,0.9,0.7,1.6,1.6,1.6h31.4
		c1.7,0,3.1-1.4,3.1-3.1V54.7c0-0.9-0.7-1.6-1.6-1.6s-1.6,0.7-1.6,1.6v7.8H35.9V45.3H59c0.2,0,0.3,0,0.5,0l5.4-0.6
		c1.4-0.2,2.6-0.8,3.6-1.7L83.3,28L92.4,28L92.4,28z M73.5,65.7v12.6H56.3V65.7H73.5z M93.5,13.4l-2.3,2.3l-6.9-6.9l2.3-2.3
		c0.3-0.3,0.7-0.5,1.1-0.5c0.4,0,0.9,0.2,1.2,0.5l4.5,4.5c0.3,0.3,0.5,0.7,0.5,1.2C93.9,12.7,93.8,13.1,93.5,13.4L93.5,13.4z"/>
</g>
</svg>
