<?xml version="1.0" encoding="utf-8"?>
<!-- Generator: Adobe Illustrator 26.0.1, SVG Export Plug-In . SVG Version: 6.00 Build 0)  -->
<svg version="1.1" id="Layer_1" xmlns:svgjs="http://svgjs.com/svgjs"
	 xmlns="http://www.w3.org/2000/svg" xmlns:xlink="http://www.w3.org/1999/xlink" x="0px" y="0px" viewBox="0 0 100 100"
	 style="enable-background:new 0 0 100 100;" xml:space="preserve">
<style type="text/css">
	.st0{fill:#5275E3;}
</style>
<g>
	<path class="st0" d="M85.4,58.4l-0.5,0.3c-1.9-2.3-5.2-3.2-7.7-1.9c0,0,0,0,0,0l-1.1,0.6c-2.7-2.3-6.6-2.6-9.6-0.9l-6,3.2h-7.9
		c-1.7,0-3.4-0.4-5-1.1l-1.1-0.5C40.2,55,32.7,55.7,27.1,60c0,0-0.1,0-0.1,0.1l-2.6,2.3c-1,0.9-2.2,1.5-3.4,1.9l-1.5-4.9
		c-0.2-0.5-0.6-0.8-1.1-0.8H5.6c-0.7,0-1.2,0.5-1.2,1.2c0,0,0,0.1,0,0.1l4.2,34.8c0.1,0.6,0.6,1,1.2,1h19.1c0.7,0,1.2-0.5,1.2-1.2
		c0-0.1,0-0.2-0.1-0.3L27.5,86l7.8-4.9c1-0.6,2.3-0.7,3.4-0.4c0,0,0,0,0.1,0l15.9,2.9c4.3,0.8,8.8,0.1,12.7-1.8
		c0.1,0,0.1-0.1,0.1-0.1l27.5-18.9c0.5-0.4,0.7-1.1,0.3-1.6C93.4,57.7,88.9,56.5,85.4,58.4z M78.3,58.9c1.4-0.7,3.3-0.1,4.4,1
		l-10.4,5.6l-0.6,0.3c-0.3-0.9-0.8-1.8-1.4-2.6L78.3,58.9z M67.6,58.6C67.6,58.6,67.7,58.6,67.6,58.6c1.9-1.1,4.3-1.1,6.2,0
		l-5.3,2.9c-1-0.7-2.2-1.3-3.4-1.5L67.6,58.6z M10.9,93.4l-4-32.4h10.5l9.9,32.4H10.9z M66.3,79.6c-3.5,1.7-7.4,2.2-11.2,1.6
		l-15.9-2.9c-1.7-0.4-3.6-0.2-5.2,0.7c0,0,0,0-0.1,0l-7.3,4.6l-5.2-17c1.6-0.5,3.1-1.3,4.3-2.4l2.6-2.3c4.9-3.7,11.5-4.3,17-1.6
		l1.1,0.5c1.9,0.9,3.9,1.4,6,1.4h10.6c3.2,0,6,2.3,6.6,5.4l-7.7-0.3c-2.8-0.1-5.6,0-8.3,0.4c-0.6,0.1-1.1,0.7-1,1.3
		c0.1,0.6,0.7,1.1,1.3,1c2.6-0.4,5.3-0.5,7.9-0.4l9,0.4c0,0,0,0,0.1,0c0.7,0,1.2-0.5,1.2-1.2c0-0.2,0-0.4,0-0.6l1.2-0.7l13.1-7
		c2.1-1.1,4.6-0.7,6.2,1L66.3,79.6z"/>
	<path class="st0" d="M14.6,88.5c0,2.1,1.7,3.7,3.7,3.7s3.7-1.7,3.7-3.7s-1.7-3.7-3.7-3.7C16.3,84.7,14.6,86.4,14.6,88.5z
		 M18.4,87.1c0.8,0,1.4,0.6,1.4,1.4c0,0.8-0.6,1.4-1.4,1.4S17,89.2,17,88.5C17,87.7,17.6,87.1,18.4,87.1L18.4,87.1z M59,17.3v-3.9
		c0-5-4.1-9-9-9c-4.9,0-8.9,4-9,9v3.9c0,5,4.1,9,9,9C55,26.3,59,22.3,59,17.3z M43.4,17.3v-3.9c0-3.7,3-6.6,6.7-6.6
		c3.6,0,6.6,3,6.6,6.6v3.9c0,3.7-3,6.6-6.7,6.6C46.3,23.9,43.4,21,43.4,17.3z M35.5,50.8h29c0.7,0,1.2-0.5,1.2-1.2l0,0v-2.7h19.9
		c0.7,0,1.2-0.5,1.2-1.2V38c0-4.7-3.6-8.6-8.3-8.9c-0.6,0-1,0.4-1.2,0.7c-1.9,2.3-5.3,2.7-7.7,0.8c-0.3-0.3-0.7-0.6-0.9-1
		c-0.2-0.3-0.6-0.5-1-0.5c-1.5,0-3,0.5-4.4,1.3c-1.8-2-4.3-3.3-7-3.4c-0.6,0-0.9,0.3-1.2,0.7c-2.2,2.7-6.3,3.1-9,0.9
		c-0.4-0.3-0.8-0.7-1.1-1.1c-0.2-0.3-0.6-0.5-1-0.5c-2.6,0.1-5.1,1.1-6.9,3c-0.1,0.2-0.3,0.3-0.4,0.5c-1.2-0.7-2.6-1.2-4-1.3
		c-0.6,0-1,0.4-1.2,0.7c-1.9,2.3-5.3,2.7-7.7,0.8c-0.3-0.3-0.7-0.6-0.9-1c-0.2-0.3-0.6-0.5-1-0.5c-4.8,0.1-8.7,4.1-8.7,8.9v7.7
		c0,0.7,0.5,1.2,1.2,1.2h19.9v2.7C34.3,50.2,34.9,50.8,35.5,50.8z M67.1,31.5c2.9,3.2,7.8,3.5,11,0.7c0.2-0.2,0.5-0.4,0.7-0.7
		c3.2,0.5,5.5,3.2,5.5,6.4v6.5H65.7v-7.6c0-1.6-0.4-3.1-1.1-4.5C65.4,31.9,66.2,31.6,67.1,31.5L67.1,31.5z M43.5,29.3
		c3.2,3.7,8.7,4.1,12.3,0.9c0.3-0.3,0.6-0.6,0.9-0.9c3.8,0.5,6.6,3.7,6.6,7.5v11.5H36.7V36.9C36.7,33,39.7,29.7,43.5,29.3L43.5,29.3
		z M15.6,44.5V38c0-3.3,2.5-6.1,5.8-6.5c2.9,3.2,7.8,3.5,11,0.7c0.2-0.2,0.5-0.4,0.7-0.7c0.8,0.1,1.6,0.4,2.3,0.8
		c-0.7,1.4-1.1,3-1.1,4.5v7.6L15.6,44.5z"/>
	<path class="st0" d="M80.9,20.9v-3.4c0-4.4-3.6-8-8-8s-8,3.6-8,8v3.4c0,4.4,3.6,8,8,8S80.9,25.3,80.9,20.9z M67.2,20.9v-3.4
		c0-3.1,2.5-5.7,5.7-5.7c3.1,0,5.7,2.5,5.7,5.7c0,0,0,0,0,0v3.4c0,3.1-2.5,5.7-5.7,5.7C69.7,26.5,67.2,24,67.2,20.9
		C67.2,20.9,67.2,20.9,67.2,20.9z M35.2,20.9v-3.4c0-4.4-3.6-8-8-8s-8,3.6-8,8v3.4c0,4.4,3.6,8,8,8S35.2,25.3,35.2,20.9z M21.5,20.9
		v-3.4c0-3.1,2.5-5.7,5.7-5.7c3.1,0,5.7,2.5,5.7,5.7c0,0,0,0,0,0v3.4c0,3.1-2.5,5.7-5.7,5.7S21.5,24,21.5,20.9
		C21.5,20.9,21.5,20.9,21.5,20.9z"/>
</g>
</svg>
