<?xml version="1.0" encoding="utf-8"?>
<!-- Generator: Adobe Illustrator 26.0.1, SVG Export Plug-In . SVG Version: 6.00 Build 0)  -->
<svg version="1.1" id="Layer_1" xmlns:svgjs="http://svgjs.com/svgjs"
	 xmlns="http://www.w3.org/2000/svg" xmlns:xlink="http://www.w3.org/1999/xlink" x="0px" y="0px" viewBox="0 0 100 100"
	 style="enable-background:new 0 0 100 100;" xml:space="preserve">
<style type="text/css">
	.st0{fill:#5275E3;}
</style>
<g>
	<path class="st0" d="M8,92.5l9.7,5.5c0.5,0.3,1,0.4,1.6,0.4c0.6,0,1.1-0.1,1.6-0.4l9.7-5.5c1-0.6,1.6-1.6,1.6-2.8V78.1
		c0-1.2-0.6-2.2-1.6-2.8L21,69.8v-5.3c0-0.9,0.7-1.6,1.6-1.6h25.8v6.9l-9.7,5.5c-1,0.6-1.6,1.6-1.6,2.8v11.5c0,1.2,0.6,2.2,1.6,2.8
		l9.7,5.5c0.5,0.3,1,0.4,1.6,0.4c0.6,0,1.1-0.1,1.6-0.4l9.7-5.5c1-0.6,1.6-1.6,1.6-2.8V78.1c0-1.2-0.6-2.2-1.6-2.8l-9.7-5.5v-6.9
		h25.8c0.9,0,1.6,0.7,1.6,1.6v5.3l-9.7,5.5c-1,0.6-1.6,1.6-1.6,2.8v11.5c0,1.2,0.6,2.2,1.6,2.8l9.7,5.5c0.5,0.3,1,0.4,1.6,0.4
		c0.6,0,1.1-0.1,1.6-0.4l9.7-5.5c1-0.6,1.6-1.6,1.6-2.8V78.1c0-1.2-0.6-2.2-1.6-2.8l-9.7-5.5v-5.3c0-2.7-2.2-4.8-4.8-4.8H51.6v-5.3
		l9.7-5.5c1-0.6,1.6-1.6,1.6-2.8v-0.9h9.7c8,0,14.5-6.5,14.5-14.5c0-7.5-5.6-13.7-13-14.5c-0.8-4.7-4.8-8.1-9.6-8.1
		c-1.4,0-2.9,0.3-4.1,0.9c-6.6-8.4-18.8-9.9-27.2-3.3c-3.3,2.6-5.7,6.3-6.8,10.4c-8,0.5-14,7.5-13.5,15.5
		c0.5,7.6,6.9,13.5,14.5,13.5h9.7v0.9c0,1.2,0.6,2.2,1.6,2.8l9.7,5.5v5.3H22.6c-2.7,0-4.8,2.2-4.8,4.8v5.3L8,75.3
		c-1,0.6-1.6,1.6-1.6,2.8v11.5C6.4,90.8,7,91.9,8,92.5z M50,81.8l-8.1-4.6l8.1-4.6l8.1,4.6L50,81.8z M40.3,80l8.1,4.6v9.7l-8.1-4.6
		V80z M51.6,94.3v-9.7l8.1-4.6v9.7L51.6,94.3z M80.7,81.8l-8.1-4.6l8.1-4.6l8.1,4.6L80.7,81.8z M71,80l8.1,4.6v9.7L71,89.6V80z
		 M82.3,94.3v-9.7l8.1-4.6v9.7L82.3,94.3z M50,38.2l-8.1-4.6L50,29l8.1,4.6L50,38.2z M51.6,50.7V41l8.1-4.6v9.7L51.6,50.7z
		 M27.4,41.9c-6.2,0-11.3-5.1-11.3-11.3s5.1-11.3,11.3-11.3c0.1,0,0.1,0,0.2,0c0,0,0,0,0.1,0c1.8,0,3.6,0.5,5.2,1.4
		c0.2,0.1,0.5,0.2,0.8,0.2c0.9,0,1.6-0.7,1.6-1.6c0-0.6-0.3-1.1-0.8-1.4c-1.5-0.8-3.1-1.4-4.7-1.6C32.3,7.8,41.2,3,49.7,5.5
		c3.1,0.9,5.9,2.8,8,5.4c-0.9,0.9-1.6,1.9-2.1,3c-0.4,0.8,0,1.8,0.8,2.1c0.2,0.1,0.4,0.1,0.6,0.1c0.6,0,1.2-0.4,1.5-1
		c0.5-1.1,1.2-2,2.2-2.7c0,0,0,0,0,0c2.9-2,6.9-1.3,8.9,1.6c0.5,0.7,0.8,1.4,1,2.2c-2.7,0.3-5.2,1.4-7.3,3.1
		c-0.7,0.6-0.8,1.6-0.2,2.3c0.6,0.7,1.6,0.8,2.3,0.2c2-1.6,4.5-2.5,7.1-2.5c6.2,0,11.3,5.1,11.3,11.3s-5.1,11.3-11.3,11.3h-9.7v-7.4
		c0-1.2-0.6-2.2-1.6-2.8l-9.7-5.5c-1-0.5-2.2-0.5-3.2,0l-9.7,5.5c-1,0.6-1.6,1.6-1.6,2.8v7.4H27.4z M40.3,36.4l8.1,4.6v9.7l-8.1-4.6
		V36.4z M19.3,81.8l-8.1-4.6l8.1-4.6l8.1,4.6L19.3,81.8z M9.7,80l8.1,4.6v9.7l-8.1-4.6V80z M21,94.3v-9.7L29,80v9.7L21,94.3z"/>
</g>
</svg>
