<svg xmlns="http://www.w3.org/2000/svg" version="1.1" xmlns:xlink="http://www.w3.org/1999/xlink" xmlns:svgjs="http://svgjs.com/svgjs" width="512" height="512" x="0" y="0" viewBox="0 0 64 64" style="enable-background:new 0 0 512 512" xml:space="preserve" class=""><g><path d="M48.498 27.006a.98.98 0 0 1-.316-.052l-5.848-1.948-16.833.012H25.5a1 1 0 0 1-1-1V1.002a1 1 0 0 1 1-1h25.998a1 1 0 0 1 1 1v23.004a1 1 0 0 1-1 1H49.5l-.001 1a1 1 0 0 1-1 1zm-6.002-4a.999.999 0 0 1 .316.052l4.687 1.561.001-.614a1 1 0 0 1 1-1h1.998V2.003H26.5v21.015l15.995-.011z" fill="#5275e3" data-original="#000000"></path><path d="M16.5 25.006a1 1 0 0 1-1-1v-1h-2a1 1 0 0 1-1-1V7.008a1 1 0 0 1 1-1h11.992a1 1 0 1 1 0 2H14.5v12.998h2a1 1 0 0 1 1 1v.523l3.629-1.452a1.007 1.007 0 0 1 .371-.071h.003l3.992.012a1 1 0 0 1-.003 2h-.003l-3.798-.011-4.82 1.928a.995.995 0 0 1-.371.07zM34.498 61a1 1 0 0 1-1-1 6.007 6.007 0 0 1 6-6 1 1 0 1 1 0 2 4.004 4.004 0 0 0-4 4 1 1 0 0 1-1 1z" fill="#5275e3" data-original="#000000"></path><path d="M42.498 56h-3a1 1 0 0 1 0-2h3a1 1 0 1 1 0 2zM34.498 63.998a1 1 0 0 1-1-1V60a1 1 0 0 1 2 0v2.998a1 1 0 0 1-1 1zM58.498 61a1 1 0 0 1-1-1 4.004 4.004 0 0 0-4-4 1 1 0 0 1 0-2 6.007 6.007 0 0 1 6 6 1 1 0 0 1-1 1z" fill="#5275e3" data-original="#000000"></path><path d="M53.498 56h-3a1 1 0 0 1 0-2h3a1 1 0 1 1 0 2zM58.498 63.998a1 1 0 0 1-1-1V60a1 1 0 0 1 2 0v2.998a1 1 0 0 1-1 1zM42.498 56a1 1 0 0 1-1-1v-3.936a1 1 0 0 1 2 0V55a1 1 0 0 1-1 1z" fill="#5275e3" data-original="#000000"></path><path d="M50.498 56a1 1 0 0 1-1-1v-3.936a1 1 0 0 1 2 0V55a1 1 0 0 1-1 1z" fill="#5275e3" data-original="#000000"></path><path d="M46.496 53a10.01 10.01 0 0 1-9.998-9.998 1 1 0 0 1 2 0 8 8 0 0 0 16 0 1 1 0 0 1 2 0A10.012 10.012 0 0 1 46.496 53z" fill="#5275e3" data-original="#000000"></path><path d="M37.498 44.05a1 1 0 0 1-1-1V37a1 1 0 0 1 2 0v6.05a1 1 0 0 1-1 1zM55.498 44.002a1 1 0 0 1-1-1V37a1 1 0 0 1 2 0v6.002a1 1 0 0 1-1 1z" fill="#5275e3" data-original="#000000"></path><path d="M55.498 37.998a1 1 0 0 1-1-1 3.002 3.002 0 0 0-3-2.998 1 1 0 0 1 0-2 5.005 5.005 0 0 1 5 4.998 1 1 0 0 1-1 1z" fill="#5275e3" data-original="#000000"></path><path d="M51.498 34a1 1 0 0 1-1-1v-4a1 1 0 0 1 2 0v4a1 1 0 0 1-1 1z" fill="#5275e3" data-original="#000000"></path><path d="M51.498 30h-6a1 1 0 0 1 0-2h6a1 1 0 1 1 0 2z" fill="#5275e3" data-original="#000000"></path><path d="M37.498 38a1 1 0 0 1-1-1 9.01 9.01 0 0 1 9-9 1 1 0 1 1 0 2 7.008 7.008 0 0 0-7 7 1 1 0 0 1-1 1zM55.497 41.025a1 1 0 0 1-.559-.17l-3-2.026a1 1 0 0 1 1.12-1.658l3 2.025a1 1 0 0 1-.56 1.83z" fill="#5275e3" data-original="#000000"></path><path d="M46.998 40a23.932 23.932 0 0 1-6.815-1.05 1 1 0 0 1 .63-1.9 22.27 22.27 0 0 0 6.185.95 12.602 12.602 0 0 0 5.059-.897 1 1 0 0 1 .887 1.793A14.268 14.268 0 0 1 46.998 40z" fill="#5275e3" data-original="#000000"></path><path d="M37.499 41.025a1 1 0 0 1-.56-1.829l3-2.025a1 1 0 0 1 1.119 1.658l-3 2.025a1 1 0 0 1-.559.171zM44.497 57a1.001 1.001 0 0 1-.446-.105l-2-1a1 1 0 0 1 .894-1.79l2 1A1 1 0 0 1 44.497 57z" fill="#5275e3" data-original="#000000"></path><path d="M44.499 57a1 1 0 0 1-.448-1.895l2-1a1 1 0 1 1 .894 1.79l-2 1A1.001 1.001 0 0 1 44.5 57zM48.499 57a1 1 0 0 1-.448-1.895l2-1a1 1 0 1 1 .894 1.79l-2 1A1.001 1.001 0 0 1 48.5 57z" fill="#5275e3" data-original="#000000"></path><path d="M48.497 57a1.001 1.001 0 0 1-.446-.105l-2-1a1 1 0 0 1 .894-1.79l2 1A1 1 0 0 1 48.497 57zM8.502 43.96a1 1 0 0 1-1-1v-4.32a1 1 0 0 1 2 0v4.32a1 1 0 0 1-1 1zM26.502 44a1 1 0 0 1-1-1v-4.5a1 1 0 0 1 2 0V43a1 1 0 0 1-1 1z" fill="#5275e3" data-original="#000000"></path><path d="M26.502 39.5a1 1 0 0 1-1-1 8.5 8.5 0 0 0-17 0 1 1 0 0 1-2 0 10.5 10.5 0 0 1 21 0 1 1 0 0 1-1 1z" fill="#5275e3" data-original="#000000"></path><path d="M26.503 41a1 1 0 0 1-.795-.392c-2.457-3.209-3.563-2.88-6.524-2a23.996 23.996 0 0 1-11.838.88 1 1 0 0 1 .312-1.975 22.237 22.237 0 0 0 10.955-.823c3.126-.93 5.386-1.602 8.683 2.702A1 1 0 0 1 26.503 41z" fill="#5275e3" data-original="#000000"></path><path d="M21.522 38.03a1 1 0 0 1-.825-1.564l2.979-4.362a1 1 0 0 1 1.652 1.127l-2.978 4.363a1 1 0 0 1-.828.435zM5.502 61a1 1 0 0 1-1-1 6.007 6.007 0 0 1 6-6 1 1 0 0 1 0 2 4.004 4.004 0 0 0-4 4 1 1 0 0 1-1 1z" fill="#5275e3" data-original="#000000"></path><path d="M13.502 56h-3a1 1 0 1 1 0-2h3a1 1 0 0 1 0 2zM5.502 63.998a1 1 0 0 1-1-1V60a1 1 0 0 1 2 0v2.998a1 1 0 0 1-1 1zM29.502 61a1 1 0 0 1-1-1 4.004 4.004 0 0 0-4-4 1 1 0 1 1 0-2 6.007 6.007 0 0 1 6 6 1 1 0 0 1-1 1z" fill="#5275e3" data-original="#000000"></path><path d="M24.502 56h-3a1 1 0 1 1 0-2h3a1 1 0 0 1 0 2zM29.502 63.998a1 1 0 0 1-1-1V60a1 1 0 0 1 2 0v2.998a1 1 0 0 1-1 1zM13.502 56a1 1 0 0 1-1-1v-3.936a1 1 0 0 1 2 0V55a1 1 0 0 1-1 1z" fill="#5275e3" data-original="#000000"></path><path d="M21.502 56a1 1 0 0 1-1-1v-3.936a1 1 0 0 1 2 0V55a1 1 0 0 1-1 1z" fill="#5275e3" data-original="#000000"></path><path d="M17.502 53a10.01 10.01 0 0 1-10-9.998 1 1 0 1 1 2 0 8 8 0 0 0 16 0 1 1 0 0 1 2 0 10.01 10.01 0 0 1-10 9.998zM15.501 57a1.001 1.001 0 0 1-.446-.105l-2-1a1 1 0 1 1 .894-1.79l2 1A1 1 0 0 1 15.501 57z" fill="#5275e3" data-original="#000000"></path><path d="M15.503 57a1 1 0 0 1-.448-1.895l2-1a1 1 0 0 1 .894 1.79l-2 1a1.001 1.001 0 0 1-.446.105zM19.503 57a1 1 0 0 1-.448-1.895l2-1a1 1 0 0 1 .894 1.79l-2 1a1.001 1.001 0 0 1-.446.105z" fill="#5275e3" data-original="#000000"></path><path d="M19.501 57a1.001 1.001 0 0 1-.446-.105l-2-1a1 1 0 1 1 .894-1.79l2 1A1 1 0 0 1 19.501 57zM44.496 50.005a1 1 0 0 1-.7-1.715l1.02-.998a1 1 0 0 1 1.399 1.43l-1.02.998a.996.996 0 0 1-.699.285z" fill="#5275e3" data-original="#000000"></path><path d="M47.514 49.007h-1.998a1 1 0 0 1 0-2h1.998a1 1 0 1 1 0 2z" fill="#5275e3" data-original="#000000"></path><path d="M48.498 50.005a.998.998 0 0 1-.712-.298l-.984-.998a1 1 0 1 1 1.424-1.404l.984.998a1 1 0 0 1-.712 1.702zM44.496 50.005a6.008 6.008 0 0 1-6.002-6 1 1 0 0 1 2 0 4.005 4.005 0 0 0 4.002 4 1 1 0 0 1 0 2z" fill="#5275e3" data-original="#000000"></path><path d="M39.493 45.005a1.008 1.008 0 0 1-.447-.106l-1.998-1a1 1 0 1 1 .896-1.79l1.998 1.001a1 1 0 0 1-.449 1.895zM48.498 50.005a1 1 0 1 1 0-2 4.004 4.004 0 0 0 4-4 1 1 0 0 1 2 0 6.007 6.007 0 0 1-6 6z" fill="#5275e3" data-original="#000000"></path><path d="M53.499 45.005a1 1 0 0 1-.45-1.895l1.999-1a1 1 0 1 1 .896 1.788L53.946 44.9a1.008 1.008 0 0 1-.447.106zM54.504 63h-4a1 1 0 1 1 0-2h4a1 1 0 0 1 0 2z" fill="#5275e3" data-original="#000000"></path><path d="M52.504 63a1 1 0 0 1-1-1v-1a1 1 0 0 1 2 0v1a1 1 0 0 1-1 1zM46.504 20.999h-16a1 1 0 0 1-1-1v-12a1 1 0 0 1 1-1h16a1 1 0 0 1 1 1v12a1 1 0 0 1-1 1zm-15-2h14v-10h-14z" fill="#5275e3" data-original="#000000"></path><path d="M43.495 20.99h-9.991a1 1 0 0 1-1-1V11a1 1 0 0 1 1-1h9.991a1 1 0 0 1 1 1v8.991a1 1 0 0 1-1 1zm-8.991-2h7.991V12h-7.991z" fill="#5275e3" data-original="#000000"></path><path d="M43.508 17.999H33.504a1 1 0 0 1 0-2h10.004a1 1 0 0 1 0 2zM43.508 14.999H33.504a1 1 0 0 1 0-2h10.004a1 1 0 0 1 0 2zM47.505 8.999H29.504a1 1 0 0 1-1-1v-3a1 1 0 0 1 1-1h18a1 1 0 0 1 1 1v3a1 1 0 0 1-1 1zm-17.001-2h16v-1h-16z" fill="#5275e3" data-original="#000000"></path></g></svg>