<svg xmlns="http://www.w3.org/2000/svg" version="1.1" xmlns:xlink="http://www.w3.org/1999/xlink" xmlns:svgjs="http://svgjs.com/svgjs" width="512" height="512" x="0" y="0" viewBox="0 0 64 64" style="enable-background:new 0 0 512 512" xml:space="preserve"><g><path d="M41 31a4 4 0 1 0 4 4 4 4 0 0 0-4-4Zm0 6a2 2 0 1 1 2-2 2 2 0 0 1-2 2Z" fill="#5275e3" data-original="#000000"></path><path d="M56 20h-1.08a5.62 5.62 0 0 0 .08-1 7.008 7.008 0 0 0-7-7 6.9 6.9 0 0 0-4.11 1.34 10.988 10.988 0 0 0-4.92-2.92A7.01 7.01 0 0 0 32 4a6.9 6.9 0 0 0-4.11 1.34A11 11 0 0 0 9.04 12H8a6 6 0 0 0 0 12h10.35A5.984 5.984 0 0 0 24 32h8.88l-.12.03A1 1 0 0 0 32 33v1H7a2.984 2.984 0 0 0-2.67 1.64A3.065 3.065 0 0 0 4 37v19h-.88a1 1 0 0 0-.98 1.17l.46 2.56a.359.359 0 0 0 .02.11A3.021 3.021 0 0 0 5.5 62h35a3.021 3.021 0 0 0 2.88-2.16.359.359 0 0 0 .02-.11l.46-2.56a1 1 0 0 0-.98-1.17H42V44h1a1 1 0 0 0 .97-.76l.17-.67.59.36a1 1 0 0 0 1.22-.15l2.83-2.83a1 1 0 0 0 .15-1.22l-.36-.59.67-.17A1 1 0 0 0 50 37v-4a1 1 0 0 0-.76-.97l-.12-.03H56a6 6 0 0 0 0-12Zm-36.46 2H8a4 4 0 0 1 0-8h2a1 1 0 0 0 1-1 9 9 0 0 1 16.01-5.64 1.021 1.021 0 0 0 .73.37 1 1 0 0 0 .75-.29 4.992 4.992 0 0 1 8.41 2.61c-.3-.03-.6-.05-.9-.05a11.02 11.02 0 0 0-10.96 10H24a6 6 0 0 0-4.46 2ZM6 37a1.064 1.064 0 0 1 .11-.45A.988.988 0 0 1 7 36h25v1a1 1 0 0 0 .76.97l.67.17-.36.59a1 1 0 0 0 .15 1.22l2.83 2.83a1 1 0 0 0 1.22.15l.59-.36.17.67A1 1 0 0 0 39 44h1v12H26a1 1 0 0 0-1 1h-4a1 1 0 0 0-1-1H6Zm35.45 22.32a1.014 1.014 0 0 1-.95.68h-35a1.014 1.014 0 0 1-.95-.68L4.32 58H19a1 1 0 0 0 1 1h6a1 1 0 0 0 1-1h14.68ZM48 36.22l-1.22.3a1.007 1.007 0 0 0-.68.59 1.019 1.019 0 0 0 .06.9l.65 1.08-1.72 1.72-1.08-.65a1.019 1.019 0 0 0-.9-.06 1.007 1.007 0 0 0-.59.68l-.3 1.22h-2.44l-.3-1.22a1.007 1.007 0 0 0-.59-.68 1.019 1.019 0 0 0-.9.06l-1.08.65-1.72-1.72.65-1.08a1.019 1.019 0 0 0 .06-.9 1.007 1.007 0 0 0-.68-.59l-1.22-.3v-2.44l1.22-.3a1.007 1.007 0 0 0 .68-.59 1.019 1.019 0 0 0-.06-.9l-.65-1.08 1.72-1.72 1.08.64a.989.989 0 0 0 .9.07 1.007 1.007 0 0 0 .59-.68l.3-1.22h2.44l.3 1.22a1.007 1.007 0 0 0 .59.68.989.989 0 0 0 .9-.07l1.08-.64 1.72 1.72-.65 1.08a1.019 1.019 0 0 0-.06.9 1.007 1.007 0 0 0 .68.59l1.22.3ZM56 30h-7.27l-2.78-2.78a1 1 0 0 0-1.22-.15l-.59.36-.17-.67A1 1 0 0 0 43 26h-4a1 1 0 0 0-.97.76l-.17.67-.59-.36a1 1 0 0 0-1.22.15L33.27 30H24a4 4 0 0 1 0-8h2a1 1 0 0 0 1-1 9 9 0 0 1 16.01-5.64 1.021 1.021 0 0 0 .73.37 1 1 0 0 0 .75-.29A5 5 0 0 1 53 19a5.2 5.2 0 0 1-.29 1.67 1.014 1.014 0 0 0 .12.91 1.028 1.028 0 0 0 .82.42H56a4 4 0 0 1 0 8Z" fill="#5275e3" data-original="#000000"></path><path d="M55 46a3 3 0 0 1-3 3h-8v2h8a5.006 5.006 0 0 0 5-5V34h-2ZM22 45h2v2h-2zM26 45h2v2h-2zM18 45h2v2h-2z" fill="#5275e3" data-original="#000000"></path></g></svg>