<svg xmlns="http://www.w3.org/2000/svg" version="1.1" xmlns:xlink="http://www.w3.org/1999/xlink" xmlns:svgjs="http://svgjs.com/svgjs" width="512" height="512" x="0" y="0" viewBox="0 0 512 512" style="enable-background:new 0 0 512 512" xml:space="preserve" class=""><g><path fill-rule="evenodd" d="M52.94 140.28h98.738c24.229 0 43.94-19.711 43.94-43.94s-19.711-43.94-43.94-43.94h-12.661C135.304 27.916 113.977 9 88.575 9c-13.64 0-26.454 5.317-36.082 14.971-8.393 8.416-13.5 19.266-14.673 30.982C20.615 61.373 9 77.713 9 96.34c0 24.229 19.712 43.94 43.94 43.94zm-6.717-73.29a6.998 6.998 0 0 0 5.336-6.8c-.001-9.966 3.852-19.319 10.847-26.334C69.389 26.856 78.682 23 88.575 23c20.13 0 36.733 16.372 37.01 36.496a7 7 0 0 0 7 6.903h19.093c16.509 0 29.94 13.431 29.94 29.94s-13.431 29.94-29.94 29.94H52.94C36.431 126.28 23 112.849 23 96.34c0-13.714 9.767-26.058 23.223-29.35zM382.174 16a7 7 0 0 1 7-7c30.408 0 58.994 11.84 80.492 33.339 21.497 21.499 33.335 50.085 33.334 80.494a7 7 0 1 1-14 0c.001-26.668-10.381-51.739-29.234-70.594S415.843 23 389.174 23a7 7 0 0 1-7-7zm7 74.394a7 7 0 1 1 0-14c23.341 0 43.146 17.451 46.068 40.593a7 7 0 0 1-13.89 1.754c-2.04-16.161-15.874-28.348-32.178-28.347zm-7-40.697a7 7 0 0 1 7-7c44.186 0 80.133 35.949 80.133 80.135a7 7 0 1 1-14 0c0-36.467-29.667-66.135-66.133-66.135a7 7 0 0 1-7-7zM330.01 164.206H39.798C22.816 164.206 9 178.022 9 195.004V385.29c0 16.982 13.815 30.798 30.797 30.798h91.957c-.475 16.789-4.412 33.465-8.897 43.939h-18.593c-11.847 0-21.486 9.639-21.486 21.486S92.418 503 104.265 503h154.966c11.847 0 21.486-9.639 21.486-21.486s-9.639-21.486-21.486-21.486H240.57c-4.705-10.64-8.903-27.369-9.542-43.939h92.666c16.982 0 30.798-13.815 30.798-30.798v-196.6c0-13.501-10.982-24.485-24.482-24.485zm-290.212 14H330.01c5.779 0 10.481 4.704 10.481 10.485v166.06H23V195.004c0-9.262 7.535-16.798 16.798-16.798zm226.919 303.308c0 4.128-3.358 7.486-7.486 7.486H104.265c-4.128 0-7.486-3.358-7.486-7.486s3.358-7.486 7.486-7.486h154.966c4.128 0 7.486 3.358 7.486 7.486zm-41.25-21.486h-87.581c4.533-12.751 7.462-28.939 7.866-43.939h71.274c.534 14.843 3.676 31.04 8.441 43.939zm98.227-57.94H39.798c-9.262 0-16.797-7.535-16.797-16.798v-16.539h317.492v16.539c-.001 9.263-7.537 16.798-16.799 16.798zm-121.865-16.669a7 7 0 0 1-7 7h-26.167a7 7 0 1 1 0-14h26.167a7 7 0 0 1 7 7zM488.237 258.22h-81.14c-8.141 0-14.764 6.623-14.764 14.763v215.254c0 8.14 6.623 14.763 14.764 14.763h81.14c8.14 0 14.763-6.623 14.763-14.763V272.983c0-8.14-6.623-14.763-14.763-14.763zM489 488.237a.783.783 0 0 1-.763.763h-81.14a.783.783 0 0 1-.764-.763V272.983c0-.406.357-.763.764-.763h81.14c.407 0 .763.356.763.763zm-71.732-163.831h60.796a7 7 0 0 0 7-7v-19.428a7 7 0 0 0-7-7h-60.796a7 7 0 0 0-7 7v19.428a7 7 0 0 0 7 7zm7-19.428h46.796v5.428h-46.796zm60.797 113.185a7 7 0 0 1-7 7h-60.796a7 7 0 1 1 0-14h60.796a7 7 0 0 1 7 7zm0 56.959a7 7 0 0 1-7 7h-60.796a7 7 0 1 1 0-14h60.796a7 7 0 0 1 7 7zm0-28.479a7 7 0 0 1-7 7h-60.796a7 7 0 1 1 0-14h60.796a7 7 0 0 1 7 7zm-37.398-109.958c3.855 0 7 3.144 7 7s-3.144 7-7 7-7-3.144-7-7 3.144-7 7-7zm-345.573-64.788c4.956 0 9.049 2.741 10.951 7.332 1.901 4.591.945 9.424-2.559 12.927-2.38 2.38-3.69 5.544-3.69 8.91s1.311 6.53 3.69 8.91l12.057 12.057c4.913 4.912 12.906 4.912 17.819 0 3.511-3.512 8.346-4.474 12.934-2.573s7.326 5.999 7.326 10.965c0 6.947 5.652 12.6 12.6 12.6h17.049c6.948 0 12.6-5.652 12.6-12.6 0-4.955 2.741-9.049 7.332-10.951 4.591-1.901 9.424-.944 12.928 2.56 4.913 4.912 12.906 4.912 17.819 0l12.057-12.057c2.38-2.38 3.69-5.544 3.69-8.91s-1.31-6.53-3.69-8.91c-3.504-3.503-4.46-8.336-2.559-12.927 1.902-4.591 5.995-7.332 10.951-7.332 6.947 0 12.6-5.652 12.6-12.601v-8.524a7 7 0 0 0-7-7h-18.103l-.014-7.79h3.907c1.815 1.85 4.34 3 7.135 3 5.523 0 10-4.477 10-10s-4.477-10-10-10a9.961 9.961 0 0 0-7.135 3H241.87a6.997 6.997 0 0 0-7 7.013l.027 14.777h-11.488a7 7 0 0 0-7 7c0 19.112-15.549 34.661-34.661 34.661s-34.662-15.549-34.662-34.661a7 7 0 0 0-7-7h-11.488l.027-14.777a6.999 6.999 0 0 0-7-7.013h-10.919a9.965 9.965 0 0 0-7.135-3c-5.523 0-10 4.477-10 10s4.477 10 10 10a9.961 9.961 0 0 0 7.135-3h3.907l-.014 7.79H96.494a7 7 0 0 0-7 7v8.524c0 6.947 5.652 12.6 12.6 12.6zm1.4-14.125h30.093c3.404 23.527 23.704 41.661 48.16 41.661s44.755-18.134 48.159-41.661h30.092v.16c-10.048.513-18.583 6.521-22.484 15.939-3.902 9.419-2.115 19.702 4.629 27.169l-10.127 10.128c-7.468-6.744-17.752-8.531-27.171-4.629-9.418 3.901-15.426 12.437-15.938 22.484h-14.321c-.511-10.059-6.517-18.599-15.933-22.498-9.415-3.9-19.703-2.108-27.176 4.643L121.35 301.04c6.744-7.467 8.531-17.75 4.629-27.169-3.901-9.419-12.436-15.428-22.485-15.939zm32.589-46.7c.032 0 .064-.005.096-.005l22.84 22.841v9.864h-1.321a7 7 0 0 0-7 7c0 17.12 13.928 31.048 31.048 31.048s31.048-13.928 31.048-31.048a7 7 0 0 0-7-7h-1.321v-9.864l22.84-22.841c.032 0 .063.005.096.005 5.523 0 10-4.477 10-10s-4.477-10-10-10-10 4.477-10 10c0 .032.005.064.005.096l-24.89 24.891a6.999 6.999 0 0 0-2.05 4.95v12.764h-17.455v-12.764a7 7 0 0 0-2.05-4.95l-24.891-24.891c0-.032.005-.063.005-.096 0-5.523-4.477-10-10-10s-10 4.477-10 10c0 5.522 4.477 10 10 10zm45.663 56.748c-6.907 0-12.868-4.129-15.544-10.048h31.088c-2.676 5.919-8.637 10.048-15.544 10.048z" clip-rule="evenodd" fill="#5275e3" data-original="#000000"></path></g></svg>