<svg xmlns="http://www.w3.org/2000/svg" version="1.1" xmlns:xlink="http://www.w3.org/1999/xlink" xmlns:svgjs="http://svgjs.com/svgjs" width="512" height="512" x="0" y="0" viewBox="0 0 512 512" style="enable-background:new 0 0 512 512" xml:space="preserve" class=""><g><path d="m218.175 433.679-6.069-67.651c-.664-7.342-2.238-14.051-4.682-19.948-12.723-30.624-39.665-46.69-54.594-53.536-5.854-2.687-11.212-6.436-15.917-11.141L98.77 243.257c-8.771-8.763-21.275-12.93-33.284-11.45l-3.136-67.528c-.972-20.877-17.39-38.134-38.189-40.145C10.983 122.927.07 133.253.07 146.007v121.919c0 13.008 3.663 25.653 10.595 36.572 19.577 30.839 43.148 58.453 70.063 82.075 10.907 9.575 17.163 23.767 17.163 38.931v7.121C85.433 432.633 75.3 442.77 75.3 455.23v34.092c0 12.465 10.142 22.607 22.607 22.607h113.801c12.465 0 22.607-10.142 22.607-22.607V455.23c0-10.203-6.839-18.748-16.14-21.551zM91.28 374.553c-25.77-22.619-48.35-49.072-67.11-78.631-5.299-8.349-8.103-18.03-8.103-27.996V146.007c0-3.381 2.764-5.979 5.963-5.979 10.999 0 23.668 10.462 24.341 24.993l3.355 72.257a39.74 39.74 0 0 0-7.775 6.147c-8.669 8.787-8.576 23.087.207 31.874l85.73 85.726c3.124 3.124 8.185 3.124 11.309 0s3.124-8.185 0-11.309L53.47 263.99c-2.593-2.593-2.652-6.779-.129-9.337a23.765 23.765 0 0 1 7.576-5.178c.117-.047.238-.098.351-.152 8.525-3.601 19.331-1.609 26.192 5.249l38.142 38.142c6.053 6.053 12.969 10.888 20.557 14.367 12.801 5.873 35.861 19.549 46.491 45.136 1.824 4.389 3.007 9.521 3.522 15.246l5.819 64.849-88.105.312v-7.119c.001-19.769-8.239-38.338-22.606-50.952zm127.039 114.769a6.616 6.616 0 0 1-6.611 6.611H97.907a6.616 6.616 0 0 1-6.611-6.611V455.23a6.616 6.616 0 0 1 6.611-6.611h113.801a6.616 6.616 0 0 1 6.611 6.611zM504.728 129.742c-4.577-4.159-10.833-6.209-16.886-5.608-20.799 2.011-37.216 19.268-38.193 40.145l-3.132 67.528c-12.059-1.453-24.509 2.691-33.288 11.454l-38.138 38.138c-4.717 4.714-10.068 8.462-15.925 11.145-14.926 6.85-41.863 22.912-54.594 53.536-2.445 5.897-4.022 12.61-4.678 19.952l-6.065 67.646c-9.305 2.801-16.147 11.347-16.147 21.552v34.092c0 12.465 10.146 22.607 22.611 22.607h113.804c12.465 0 22.603-10.142 22.603-22.607V455.23c0-12.463-10.133-22.602-22.595-22.606v-7.12c0-15.164 6.256-29.351 17.167-38.931 26.922-23.622 50.494-51.24 70.067-82.075 6.928-10.919 10.591-23.564 10.591-36.572V146.007a22.013 22.013 0 0 0-7.202-16.265zM420.704 455.23v34.092c0 3.647-2.968 6.611-6.608 6.611H300.292c-3.647 0-6.615-2.964-6.615-6.611V455.23c0-3.647 2.968-6.611 6.615-6.611h76.421l29.355.137h.039c.239 0 .454-.116.69-.137h7.3c3.64 0 6.607 2.964 6.607 6.611zm75.23-187.304c0 9.966-2.804 19.647-8.107 28-18.753 29.55-41.325 56.004-67.099 78.627-14.379 12.614-22.619 31.183-22.619 50.951v7.119h-20.976l-67.125-.312 5.819-64.849c.516-5.725 1.695-10.852 3.522-15.242 10.63-25.591 33.686-39.267 46.487-45.136 7.584-3.476 14.496-8.31 20.565-14.371l38.138-38.138c6.857-6.85 17.511-8.892 26.204-5.249.109.055.227.102.344.148a23.774 23.774 0 0 1 7.576 5.182c2.515 2.554 2.46 6.74-.133 9.333l-85.726 85.726c-3.124 3.124-3.124 8.185 0 11.309s8.185 3.124 11.309 0l85.726-85.726c8.787-8.783 8.88-23.08.219-31.866a39.358 39.358 0 0 0-7.787-6.158l3.358-72.25c.609-12.985 10.817-23.72 23.743-24.966 1.703-.16 3.335.375 4.6 1.523s1.96 2.718 1.96 4.425v121.92zM296.598 247.752c2.544-.938 5.044-2.005 7.545-3.046 16.637-7.703 27.231 3.851 28.031 4.206 3.179 2.683 7.881 2.492 10.817-.453l22.478-22.474a7.996 7.996 0 0 0 .461-10.81c-.356-.8-11.832-11.376-4.264-28.125 1.117-2.484 2.148-4.893 3.077-7.416 6.414-17.107 22.022-16.45 22.822-16.757a7.994 7.994 0 0 0 7.357-7.97v-31.749a7.997 7.997 0 0 0-7.037-7.939c-1.018-.387-16.71.272-23.158-16.898-.906-2.394-1.898-4.784-3.015-7.471-7.695-16.64 3.862-27.239 4.218-28.039a7.996 7.996 0 0 0-.461-10.81l-22.478-22.474c-2.937-2.937-7.639-3.14-10.81-.461-.801.357-11.37 11.876-28.125 4.253-2.499-1.117-4.897-2.144-7.412-3.066-16.934-6.368-16.555-22.312-16.863-23.115A7.998 7.998 0 0 0 271.838.07h-31.675a8.001 8.001 0 0 0-7.943 7.053c-.306.8.066 16.762-16.8 23.107-2.581.941-4.987 1.972-7.525 3.109-16.688 7.592-27.285-3.923-28.086-4.28-3.187-2.667-7.869-2.468-10.802.469l-22.474 22.474a8 8 0 0 0-.461 10.81c.356.8 11.868 11.396 4.261 28.113a134.583 134.583 0 0 0-3.073 7.428c-6.403 17.033-22.344 16.562-23.146 16.866a7.994 7.994 0 0 0-7.037 7.939v31.749a7.993 7.993 0 0 0 7.361 7.97c.801.307 16.417-.289 22.802 16.706.949 2.577 1.976 4.987 3.101 7.486 7.571 16.776-3.913 27.306-4.268 28.106a8 8 0 0 0 .461 10.81l22.474 22.474c2.933 2.937 7.635 3.132 10.81.461.8-.356 11.35-11.918 28.344-4.081 2.386.991 4.774 2.005 7.197 2.894 16.902 6.351 16.556 22.329 16.863 23.13a8.002 8.002 0 0 0 7.943 7.053h31.675a7.998 7.998 0 0 0 7.943-7.068c.306-.8-.132-16.733 16.815-23.096zm-31.655 14.168h-17.901c-3.05-13.219-12.672-24.134-26.114-29.179-1.809-.669-3.502-1.371-6.358-2.554-13.051-6.037-27.582-5.182-39.157 2.054l-12.661-12.657c7.174-11.481 8.076-26.012 2.167-39.091-.965-2.144-1.851-4.214-2.687-6.483-5.018-13.363-15.894-22.97-29.16-26.047v-17.909c13.196-2.995 24.103-12.61 29.148-26.047a122.084 122.084 0 0 1 2.687-6.49c5.94-13.055 5.045-27.574-2.156-39.11l12.657-12.661c11.512 7.197 26.04 8.103 39.071 2.171 2.148-.961 4.218-1.851 6.506-2.691 13.434-5.049 23.072-16.019 26.071-29.16h17.901c3.054 13.219 12.676 24.13 26.126 29.183 2.218.812 4.288 1.707 6.389 2.648 13.051 5.944 27.578 5.053 39.114-2.156l12.661 12.657c-7.225 11.54-8.107 26.067-2.187 38.868.929 2.245 1.859 4.495 2.702 6.709 5.061 13.465 15.964 23.083 29.164 26.079v17.897c-13.223 3.05-24.134 12.672-29.179 26.11-.82 2.222-1.71 4.296-2.663 6.42-5.912 13.075-5.014 27.586 2.171 39.099l-12.661 12.657c-11.536-7.225-26.071-8.107-38.856-2.183-2.632 1.093-4.725 1.97-6.717 2.706-13.433 5.046-23.071 16.008-26.078 29.16z" fill="#5275e3" data-original="#000000" class=""></path><path d="M323.505 138.993c0-37.22-30.281-67.501-67.505-67.501-37.22 0-67.501 30.281-67.501 67.501S218.78 206.494 256 206.494c37.224 0 67.505-30.281 67.505-67.501zM256 190.499c-28.398 0-51.505-23.107-51.505-51.505S227.602 87.488 256 87.488s51.509 23.107 51.509 51.505-23.111 51.506-51.509 51.506z" fill="#5275e3" data-original="#000000" class=""></path><path d="m273.62 116.617-27.801 27.805-7.439-7.439c-3.124-3.124-8.185-3.124-11.309 0s-3.124 8.185 0 11.309l13.094 13.094a7.996 7.996 0 0 0 11.309 0l33.456-33.46c3.124-3.124 3.124-8.185 0-11.309s-8.186-3.124-11.31 0z" fill="#5275e3" data-original="#000000" class=""></path></g></svg>