<svg xmlns="http://www.w3.org/2000/svg" version="1.1" xmlns:xlink="http://www.w3.org/1999/xlink" xmlns:svgjs="http://svgjs.com/svgjs" width="512" height="512" x="0" y="0" viewBox="0 0 64 64" style="enable-background:new 0 0 512 512" xml:space="preserve" class=""><g><path d="M32 54.75A14.75 14.75 0 1 0 17.25 40 14.767 14.767 0 0 0 32 54.75Zm-6.728-6.04.943-2.984a.75.75 0 0 0-.533-.954l-1.632-.407-1.3-3.179V39.25h4.128l2.555.852.87 2.176a.75.75 0 0 0 .55.457l1.897.38v1.922l-2.585 1.292a.75.75 0 0 0-.415.671v1.722l-2.965 3.455a13.188 13.188 0 0 1-.926-.447Zm16.798-.12-.82-.508V46a.75.75 0 0 0-.415-.67l-1.487-.745.887-4.438a.75.75 0 0 0-.205-.677l-1.5-1.5a.75.75 0 0 0-.712-.197l-1.678.42-2.454-1.636-.374-2.246 1.95-1.56h2.488l3.8 2.85a.75.75 0 0 0 .746.09l1.918-.823a13.206 13.206 0 0 1-2.144 13.721Zm1.476-15.069-1.443.619-3.653-2.74a.752.752 0 0 0-.45-.15h-3a.751.751 0 0 0-.469.165l-2.5 2a.75.75 0 0 0-.27.709l.5 3a.75.75 0 0 0 .323.5l3 2a.751.751 0 0 0 .598.103l1.588-.396.916.916-.921 4.606a.75.75 0 0 0 .4.818l1.585.792V48.5a.75.75 0 0 0 .355.638l.899.555A13.139 13.139 0 0 1 28.3 52.714l2.77-3.226a.747.747 0 0 0 .18-.488v-1.537l2.585-1.292a.75.75 0 0 0 .415-.671v-3a.75.75 0 0 0-.603-.735l-2.102-.42-.849-2.123a.75.75 0 0 0-.459-.433l-3-1A.755.755 0 0 0 27 37.75h-2.175l4.547-2.599a.75.75 0 0 0 .378-.651v-2.599l2.666-1.777a.75.75 0 0 0-.082-1.295l-3.414-1.703a13.156 13.156 0 0 1 14.626 6.395Zm-16.671-5.738 3.632 1.81-1.923 1.283a.75.75 0 0 0-.334.624v2.565l-6.221 3.555-2.618-1.732a13.311 13.311 0 0 1 7.464-8.105Zm-7.869 9.636 2.244 1.484v2.43a.756.756 0 0 0 .056.284l1.5 3.667a.75.75 0 0 0 .512.443l1.227.307-.76 2.406a.75.75 0 0 0-.021.37l.352 1.814a13.187 13.187 0 0 1-5.11-13.206ZM24 21.75h16a.75.75 0 0 0 .75-.75v-3a5.725 5.725 0 0 0-.232-1.602l-.823-9.116a7.727 7.727 0 0 0-15.39 0l-.823 9.116A5.725 5.725 0 0 0 23.25 18v3a.75.75 0 0 0 .75.75Zm15.25-1.5h-14.5V18a4.252 4.252 0 0 1 4.2-4.245 5.175 5.175 0 0 0 6.1 0A4.252 4.252 0 0 1 39.25 18ZM35.75 9.5a3.75 3.75 0 0 1-7.5 0v-.75h1.514A4.342 4.342 0 0 0 33 7.32a4.333 4.333 0 0 0 2.75 1.404ZM32 1.75a6.195 6.195 0 0 1 6.201 5.667l.564 6.248a5.733 5.733 0 0 0-2.405-1.246 5.219 5.219 0 0 0 .89-2.919V8a.75.75 0 0 0-.75-.75h-.264a2.852 2.852 0 0 1-2.565-1.585.781.781 0 0 0-1.342 0 2.852 2.852 0 0 1-2.565 1.585H27.5a.75.75 0 0 0-.75.75v1.5a5.219 5.219 0 0 0 .89 2.92 5.733 5.733 0 0 0-2.405 1.245l.564-6.248A6.195 6.195 0 0 1 32 1.75ZM13.36 53.42a5.219 5.219 0 0 0 .89-2.92v-3A5.256 5.256 0 0 0 9 42.25H4a.75.75 0 0 0-.728.568l-.393 1.575a5.968 5.968 0 0 0 .871 4.832V50.5a5.219 5.219 0 0 0 .89 2.92A5.755 5.755 0 0 0 .25 59v3a.75.75 0 0 0 .75.75h16a.75.75 0 0 0 .75-.75v-3a5.755 5.755 0 0 0-4.39-5.58ZM5.25 50.5v-.75h1.514A4.342 4.342 0 0 0 10 48.32a4.319 4.319 0 0 0 2.75 1.38v.8a3.75 3.75 0 0 1-7.5 0Zm-.916-5.744.251-1.006H9a3.754 3.754 0 0 1 3.75 3.75v.71a2.85 2.85 0 0 1-2.08-1.545.781.781 0 0 0-1.34 0 2.852 2.852 0 0 1-2.566 1.585h-1.87a4.48 4.48 0 0 1-.56-3.494ZM16.25 61.25H1.75V59a4.252 4.252 0 0 1 4.2-4.245 5.175 5.175 0 0 0 6.1 0A4.252 4.252 0 0 1 16.25 59ZM59.36 53.42a5.219 5.219 0 0 0 .89-2.92v-3a5.25 5.25 0 0 0-10.5 0v3a5.219 5.219 0 0 0 .89 2.92A5.755 5.755 0 0 0 46.25 59v3a.75.75 0 0 0 .75.75h16a.75.75 0 0 0 .75-.75v-3a5.755 5.755 0 0 0-4.39-5.58Zm-8.11-2.92v-.75h1.514A4.342 4.342 0 0 0 56 48.32a4.319 4.319 0 0 0 2.75 1.38v.8a3.75 3.75 0 0 1-7.5 0Zm0-3a3.75 3.75 0 0 1 7.5 0v.71a2.85 2.85 0 0 1-2.08-1.545.781.781 0 0 0-1.34 0 2.852 2.852 0 0 1-2.566 1.585H51.25Zm11 13.75h-14.5V59a4.252 4.252 0 0 1 4.2-4.245 5.175 5.175 0 0 0 6.1 0A4.252 4.252 0 0 1 62.25 59ZM50.063 27.4a1 1 0 1 0-1.402-.184 1 1 0 0 0 1.402.185ZM52.708 32.505a1 1 0 1 0-1.306-.541 1 1 0 0 0 1.306.54ZM52.82 37.259a1 1 0 1 0 .86-1.122 1 1 0 0 0-.86 1.122ZM10.058 38.12a1 1 0 1 0-.861-1.122 1 1 0 0 0 .86 1.122ZM11.292 32.505a1 1 0 1 0-.541-1.307 1 1 0 0 0 .541 1.307ZM15.34 27.216a1 1 0 1 0-1.402.185 1 1 0 0 0 1.402-.185ZM19.216 23.34a1 1 0 1 0-1.402-.184 1 1 0 0 0 1.402.184ZM46.186 23.155a1 1 0 1 0-1.402.184 1 1 0 0 0 1.402-.184ZM21.5 58.187a1 1 0 1 0 .366 1.366 1 1 0 0 0-.366-1.366ZM42.5 58.187a1 1 0 1 0 1.366.366 1 1 0 0 0-1.366-.366ZM37.435 60.284a1 1 0 1 0 1.225.707 1 1 0 0 0-1.225-.707ZM26.565 60.284a1 1 0 1 0 .707 1.225 1 1 0 0 0-.707-1.225Z" fill="#5275e3" data-original="#000000"></path><circle cx="32" cy="62" r="1" fill="#5275e3" data-original="#000000"></circle></g></svg>