<?xml version="1.0" encoding="utf-8"?>
<!-- Generator: Adobe Illustrator 26.0.1, SVG Export Plug-In . SVG Version: 6.00 Build 0)  -->
<svg version="1.1" id="Layer_1" xmlns:svgjs="http://svgjs.com/svgjs"
	 xmlns="http://www.w3.org/2000/svg" xmlns:xlink="http://www.w3.org/1999/xlink" x="0px" y="0px" viewBox="0 0 100 100"
	 style="enable-background:new 0 0 100 100;" xml:space="preserve">
<style type="text/css">
	.st0{fill:#5275E3;}
</style>
<g>
	<path class="st0" d="M6.3,50C6.3,25.8,25.8,6.3,50,6.3c9.8,0,19.4,3.3,27.1,9.4h-6.6c-1.2,0-2.2,1-2.2,2.2c0,1.2,1,2.2,2.2,2.2
		h12.4c1.2,0,2.2-1,2.2-2.2V5.5c0-1.2-1-2.2-2.2-2.2c-1.2,0-2.2,1-2.2,2.2c0,0,0,0,0,0v7.4C60.1-4,29.8-1.1,12.9,19.4
		C-2.9,38.5-1.5,66.4,16,84c0.8,0.9,2.2,0.9,3.1,0c0.9-0.8,0.9-2.2,0-3.1c0,0,0,0,0,0C10.8,72.7,6.2,61.6,6.3,50z M30.9,89.3
		c-1.2-0.6-2.5-1.3-3.6-2c-1-0.6-2.4-0.3-3,0.7c-0.6,1-0.3,2.4,0.7,3l0,0c1.3,0.8,2.6,1.5,4,2.2c1.1,0.5,2.4,0.1,2.9-1
		C32.4,91.1,32,89.8,30.9,89.3L30.9,89.3z M89.3,30.9c0.5,1.1,1.8,1.5,2.9,1c1.1-0.5,1.5-1.8,1-2.9l0,0c-0.7-1.4-1.4-2.7-2.2-4
		c-0.6-1-2-1.4-3-0.7c-1,0.6-1.4,2-0.7,3C88,28.4,88.7,29.7,89.3,30.9z M55.2,93.4c-1.4,0.2-2.8,0.3-4.1,0.3c-1.2,0-2.1,1.1-2.1,2.3
		c0,1.2,1,2.1,2.2,2.1c0,0,0,0,0.1,0c1.5,0,3-0.1,4.6-0.3c1.2-0.1,2.1-1.2,1.9-2.4C57.4,94.1,56.4,93.2,55.2,93.4L55.2,93.4z
		 M42.7,93.1c-1.4-0.2-2.7-0.5-4.1-0.9c-1.2-0.3-2.4,0.4-2.7,1.5c-0.3,1.2,0.4,2.4,1.5,2.7c1.5,0.4,3,0.7,4.5,1
		c1.2,0.2,2.3-0.6,2.5-1.8C44.7,94.4,43.9,93.3,42.7,93.1L42.7,93.1z M95.9,48.9c-1.2,0-2.2,0.9-2.2,2.1c0,1.4-0.1,2.8-0.3,4.1
		c-0.1,1.2,0.7,2.3,1.9,2.4c0.1,0,0.2,0,0.3,0c1.1,0,2-0.8,2.2-1.9c0.2-1.5,0.3-3,0.3-4.6C98.1,50,97.1,48.9,95.9,48.9
		C95.9,48.9,95.9,48.9,95.9,48.9L95.9,48.9z M89.2,73.9c-1-0.7-2.4-0.4-3,0.6c-0.8,1.1-1.6,2.3-2.5,3.3c-0.8,0.9-0.7,2.3,0.2,3.1
		c0.9,0.8,2.3,0.7,3.1-0.2c0,0,0,0,0,0c1-1.2,1.9-2.4,2.7-3.7C90.5,76,90.2,74.6,89.2,73.9C89.2,73.9,89.2,73.9,89.2,73.9L89.2,73.9
		z M92.2,38.7c0.4,1.3,0.6,2.7,0.9,4.1c0.2,1.1,1.1,1.8,2.2,1.8c0.1,0,0.2,0,0.4,0c1.2-0.2,2-1.3,1.8-2.5c0,0,0,0,0,0
		c-0.2-1.5-0.6-3-1-4.5c-0.3-1.2-1.5-1.9-2.7-1.5C92.6,36.3,91.9,37.5,92.2,38.7L92.2,38.7z M77.8,83.7c-1.1,0.9-2.2,1.7-3.3,2.5
		c-1,0.7-1.3,2-0.6,3s2,1.3,3,0.6c1.3-0.9,2.5-1.8,3.7-2.7c0.9-0.8,1.1-2.1,0.3-3.1C80.1,83.1,78.7,82.9,77.8,83.7z M94.3,61.9
		c-1.1-0.4-2.4,0.3-2.7,1.4c-0.4,1.3-0.9,2.6-1.5,3.9c-0.5,1.1,0,2.4,1.1,2.9c1.1,0.5,2.4,0,2.9-1.1c0,0,0,0,0-0.1
		c0.6-1.4,1.1-2.8,1.6-4.3C96.1,63.5,95.5,62.3,94.3,61.9C94.3,61.9,94.3,61.9,94.3,61.9L94.3,61.9z M67.2,90.2
		c-1.3,0.5-2.6,1-3.9,1.5c-1.1,0.4-1.8,1.6-1.4,2.7s1.6,1.8,2.7,1.4c1.5-0.5,2.9-1,4.3-1.6c1.1-0.5,1.6-1.8,1.1-2.9
		C69.6,90.2,68.3,89.7,67.2,90.2L67.2,90.2L67.2,90.2z"/>
	<path class="st0" d="M31.5,45.5c0-3.6-2.4-6.5-6-7.3c-4.1-1-8.4,1-10.3,4.8c-0.5,1.1-0.1,2.4,1,2.9c1.1,0.5,2.4,0.1,2.9-1
		c1-2,3.2-3,5.3-2.5c0.6,0.1,2.6,0.8,2.6,3.1c0,2.3-2.6,4-5.4,5.9c-3.1,2.1-6.7,4.5-6.7,8.4c0,1.2,1,2.2,2.2,2.2h12.1
		c1.2,0,2.2-1,2.2-2.2c0-1.2-1-2.2-2.2-2.2c0,0,0,0,0,0h-8.7c0.9-0.9,2.2-1.7,3.5-2.6C27.6,52.7,31.5,50.1,31.5,45.5L31.5,45.5z
		 M52.2,52.7c0-1.2-1-2.2-2.2-2.2h-1.8V38.9c0-1.2-1-2.2-2.2-2.2c-0.7,0-1.3,0.3-1.7,0.8L33.2,51.3c-0.8,0.9-0.6,2.3,0.3,3.1
		c0.4,0.3,0.9,0.5,1.4,0.5h8.9V61c0,1.2,1,2.2,2.2,2.2c1.2,0,2.2-1,2.2-2.2c0,0,0,0,0,0v-6.1H50C51.2,54.9,52.2,53.9,52.2,52.7z
		 M43.8,50.5h-4.3l4.3-5.4V50.5z M63.3,35.5c-1.2-0.2-2.3,0.5-2.6,1.7c0,0,0,0,0,0l-4.9,24.6c-0.2,1.2,0.5,2.3,1.7,2.6
		c0.1,0,0.3,0,0.4,0c1,0,1.9-0.7,2.1-1.8l4.9-24.6C65.3,36.9,64.5,35.8,63.3,35.5C63.3,35.5,63.3,35.5,63.3,35.5z M74.6,62
		c0.9,0,1.7-0.5,2-1.3L84.8,41c0.5-1.1-0.1-2.4-1.2-2.9C83.3,38,83,38,82.8,38H71.7c-1.2,0-2.2,1-2.2,2.2c0,1.2,1,2.2,2.2,2.2h7.8
		L72.5,59c-0.5,1.1,0.1,2.4,1.2,2.9C74,61.9,74.3,62,74.6,62L74.6,62z"/>
</g>
</svg>
