<?xml version="1.0" encoding="utf-8"?>
<!-- Generator: Adobe Illustrator 26.0.1, SVG Export Plug-In . SVG Version: 6.00 Build 0)  -->
<svg version="1.1" id="Layer_1" xmlns:svgjs="http://svgjs.com/svgjs"
	 xmlns="http://www.w3.org/2000/svg" xmlns:xlink="http://www.w3.org/1999/xlink" x="0px" y="0px" viewBox="0 0 100 100"
	 style="enable-background:new 0 0 100 100;" xml:space="preserve">
<style type="text/css">
	.st0{fill:#5275E3;}
</style>
<g>
	<path class="st0" d="M75.9,85.3c-1,0.5-2,1.1-3,1.6c-8.5,4.7-18.1,10-27.3,9.2L13,93.2c0,0-0.1,0-0.1,0h-9V77h9
		c0.3,0,0.7-0.1,0.9-0.3c0,0,2.6-2.2,6.5-4.2c0.7-0.4,1-1.2,0.6-1.9c-0.4-0.7-1.2-1-1.9-0.6c0,0,0,0,0,0c-3.3,1.7-5.7,3.5-6.6,4.2
		H2.4c-0.8,0-1.4,0.6-1.4,1.4v19C1,95.4,1.6,96,2.4,96c0,0,0,0,0,0h10.4l32.6,2.9c0.7,0.1,1.5,0.1,2.2,0.1c9.3,0,18.5-5.1,26.7-9.6
		c1-0.6,2-1.1,2.9-1.6c0.7-0.4,1-1.3,0.6-2C77.4,85.1,76.6,84.9,75.9,85.3C75.9,85.3,75.9,85.3,75.9,85.3L75.9,85.3z"/>
	<path class="st0" d="M97.9,69.3c-1.5-2-4.2-2.7-6.5-1.8c-0.1-0.9-0.4-1.8-0.9-2.6c-1.4-2-4.2-2.7-6.4-1.5l-3.4,1.8
		c0-0.8-0.3-1.6-0.7-2.3c-1.4-2.3-4.3-3-6.6-1.8l-2.6,1.4c0-1-0.4-2-1-2.8c-1.5-2-4.2-2.7-6.5-1.5L45,68c-2.1-0.8-8.7-3-16.4-1.5
		c-1.3,0.2-2.7,0.6-4.1,1.1c-0.8,0.3-1.2,1.1-0.9,1.8c0.3,0.7,1.1,1.1,1.8,0.9c1.3-0.4,2.5-0.7,3.7-1c8.3-1.5,15.3,1.6,15.4,1.6
		C44.6,71,44.8,71,45,71h19.2c1.4,0,2.5,1.1,2.5,2.5c0,1.2-0.9,2.3-2.2,2.5L40.2,79c-0.8,0.1-1.3,0.8-1.2,1.6
		c0.1,0.7,0.6,1.2,1.3,1.2l10.4,1.2c10,1.2,20-0.7,28.8-5.7l12.9-7.2c1.1-0.6,2.5-0.3,3.3,0.7c1,1.2,0.5,3.2-0.8,3.9l-13.9,7.6
		c-1.7,0.9-0.2,3.4,1.4,2.5l13.9-7.6c1.4-0.8,2.4-2.1,2.7-3.7C99.3,72.2,98.9,70.6,97.9,69.3z M64.8,60.8c1-0.5,2.2-0.2,2.8,0.6
		c0.8,1,0.4,2.7-0.7,3.3l-6.2,3.4h-9.7L64.8,60.8z M66.1,68.4l8.7-4.7c1-0.5,2.2-0.2,2.7,0.7c0.6,1,0.2,2.4-0.8,2.9l-7.6,4
		C68.6,70,67.5,68.9,66.1,68.4L66.1,68.4z M78,75c-7.9,4.4-16.8,6.3-25.8,5.5L65,78.8c2.4-0.3,4.2-2.1,4.6-4.4L85.5,66
		c0.9-0.5,2.1-0.2,2.7,0.6c0.7,1,0.4,2.5-0.7,3.1L78,75z M34.5,40.1c1.6,0,3.2-0.4,4.6-1c0.7-0.3,1-1.2,0.7-1.9c0,0,0,0,0,0
		c-0.3-0.7-1.2-1-1.9-0.7c0,0,0,0,0,0c-1.1,0.5-2.2,0.8-3.4,0.8c-4.4,0-8-3.6-8-8s3.6-8,8-8s8,3.6,8,8c0,1.3-0.3,2.7-1,3.8
		c-0.4,0.7-0.1,1.6,0.6,2s1.6,0.1,2-0.6c0.9-1.6,1.3-3.4,1.3-5.2c0-6-4.9-10.8-10.8-10.8s-10.8,4.9-10.8,10.8S28.5,40.1,34.5,40.1
		L34.5,40.1z"/>
	<path class="st0" d="M12,33.5l3,0.4c0.5,2,1.3,3.9,2.4,5.7l-1.8,2.4c-0.8,1.1-0.7,2.7,0.3,3.7l2.1,2.1c1,1,2.6,1.1,3.7,0.3l2.4-1.8
		c1.8,1.1,3.7,1.9,5.7,2.4l0.4,3c0.2,1.4,1.4,2.4,2.8,2.4h2.9c1.4,0,2.6-1,2.8-2.4l0.4-3c2-0.5,3.9-1.3,5.7-2.4l2.4,1.8
		c1.1,0.8,2.7,0.7,3.7-0.3l2.1-2.1c1-1,1.1-2.6,0.3-3.7l-1.8-2.4c1.1-1.8,1.9-3.7,2.4-5.7l3-0.4c1.4-0.2,2.4-1.4,2.4-2.8v0h8.5V49
		c0,1.9,1.5,3.4,3.4,3.4h6.2c0.7,2.9,3.3,5.1,6.4,5.1c3.6,0,6.6-2.9,6.6-6.6c0-3.6-2.9-6.6-6.6-6.6c-3.1,0-5.8,2.2-6.4,5.1h-6.2
		c-0.3,0-0.5-0.2-0.5-0.5V30.7h6.6c0.7,2.9,3.3,5.1,6.4,5.1c3.6,0,6.6-2.9,6.6-6.6s-2.9-6.6-6.6-6.6c-3.1,0-5.8,2.2-6.4,5.1h-6.6
		V9.4C70.8,9.2,71,9,71.3,9h6.2c0.7,2.9,3.3,5.1,6.4,5.1c3.6,0,6.6-2.9,6.6-6.6S87.5,1,83.9,1c-3.1,0-5.8,2.2-6.4,5.1h-6.2
		c-1.9,0-3.4,1.5-3.4,3.4v18.3h-8.5v0c0-1.4-1-2.6-2.4-2.8l-3-0.4c-0.5-2-1.3-3.9-2.4-5.7l1.8-2.4c0.8-1.1,0.7-2.7-0.3-3.7l-2.1-2.1
		c-1-1-2.6-1.1-3.7-0.3l-2.4,1.8c-1.8-1.1-3.7-1.9-5.7-2.4l-0.4-3c-0.2-1.4-1.4-2.4-2.8-2.4H33c-1.4,0-2.6,1-2.8,2.4l-0.4,3
		c-2,0.5-3.9,1.3-5.7,2.4l-2.4-1.8c-1.1-0.8-2.7-0.7-3.7,0.3l-2.1,2.1c-1,1-1.1,2.6-0.3,3.7l1.8,2.4c-1.1,1.8-1.9,3.7-2.4,5.7L12,25
		c-1.4,0.2-2.4,1.4-2.4,2.8v2.9C9.6,32.1,10.6,33.3,12,33.5L12,33.5z M83.9,47.2c2,0,3.7,1.7,3.7,3.7c0,2-1.7,3.7-3.7,3.7
		s-3.7-1.7-3.7-3.7C80.2,48.9,81.8,47.2,83.9,47.2L83.9,47.2z M83.9,25.5c2,0,3.7,1.7,3.7,3.7s-1.7,3.7-3.7,3.7s-3.7-1.7-3.7-3.7
		S81.8,25.5,83.9,25.5z M83.9,3.8c2,0,3.7,1.7,3.7,3.7s-1.7,3.7-3.7,3.7s-3.7-1.7-3.7-3.7C80.2,5.5,81.8,3.8,83.9,3.8z M12.4,27.8
		l4-0.6c0.6-0.1,1.1-0.6,1.2-1.2c0.4-2.3,1.3-4.5,2.7-6.5c0.3-0.5,0.3-1.2,0-1.7l-2.4-3.2l2-2l3.2,2.4c0.5,0.4,1.2,0.4,1.7,0
		c2-1.3,4.2-2.3,6.5-2.7c0.6-0.1,1.1-0.6,1.2-1.2l0.6-4h2.9l0.6,4c0.1,0.6,0.6,1.1,1.2,1.2c2.3,0.4,4.5,1.3,6.5,2.7
		c0.5,0.3,1.2,0.3,1.7,0l3.2-2.4l2,2l-2.4,3.2c-0.4,0.5-0.4,1.2,0,1.7c1.3,2,2.3,4.2,2.7,6.5c0.1,0.6,0.6,1.1,1.2,1.2l4,0.6v2.9
		l-4,0.6c-0.6,0.1-1.1,0.6-1.2,1.2c-0.4,2.3-1.3,4.5-2.7,6.5c-0.3,0.5-0.3,1.2,0,1.7l2.4,3.2l-2,2l-3.2-2.4c-0.5-0.4-1.2-0.4-1.7,0
		c-2,1.3-4.2,2.3-6.5,2.7c-0.6,0.1-1.1,0.6-1.2,1.2l-0.6,4H33l-0.6-4c-0.1-0.6-0.6-1.1-1.2-1.2c-2.3-0.4-4.5-1.3-6.5-2.7
		c-0.5-0.3-1.2-0.3-1.7,0l-3.2,2.4l-2-2l2.4-3.2c0.4-0.5,0.4-1.2,0-1.7c-1.3-2-2.3-4.2-2.7-6.5c-0.1-0.6-0.6-1.1-1.2-1.2l-4-0.6
		L12.4,27.8z"/>
</g>
</svg>
