<?xml version="1.0" encoding="utf-8"?>
<!-- Generator: Adobe Illustrator 26.0.1, SVG Export Plug-In . SVG Version: 6.00 Build 0)  -->
<svg version="1.1" id="Layer_1" xmlns:svgjs="http://svgjs.com/svgjs"
	 xmlns="http://www.w3.org/2000/svg" xmlns:xlink="http://www.w3.org/1999/xlink" x="0px" y="0px" viewBox="0 0 100 100"
	 style="enable-background:new 0 0 100 100;" xml:space="preserve">
<style type="text/css">
	.st0{fill:#5275E3;}
</style>
<g>
	<path class="st0" d="M45.5,71.1v-6c0-2.5-2-4.5-4.5-4.5v-3c2.5,0,4.5-2,4.5-4.5v-6c0-2.5-2-4.5-4.5-4.5v-3c2.5,0,4.5-2,4.5-4.5v-6
		c0-2.5-2-4.5-4.5-4.5H7.8c-2.5,0-4.5,2-4.5,4.5v6c0,2.5,2,4.5,4.5,4.5v3c-2.5,0-4.5,2-4.5,4.5v6c0,2.5,2,4.5,4.5,4.5v3
		c-2.5,0-4.5,2-4.5,4.5v6c0,2.5,2,4.5,4.5,4.5h33.2C43.4,75.7,45.5,73.6,45.5,71.1z M6.2,34.9v-6c0-0.8,0.7-1.5,1.5-1.5h33.2
		c0.8,0,1.5,0.7,1.5,1.5v6c0,0.8-0.7,1.5-1.5,1.5H7.8C6.9,36.4,6.2,35.7,6.2,34.9z M10.8,39.4h27.2v3H10.8V39.4z M6.2,53v-6
		c0-0.8,0.7-1.5,1.5-1.5h33.2c0.8,0,1.5,0.7,1.5,1.5v6c0,0.8-0.7,1.5-1.5,1.5H7.8C6.9,54.5,6.2,53.9,6.2,53z M10.8,57.5h27.2v3H10.8
		V57.5z M6.2,71.1v-6c0-0.8,0.7-1.5,1.5-1.5h33.2c0.8,0,1.5,0.7,1.5,1.5v6c0,0.8-0.7,1.5-1.5,1.5H7.8C6.9,72.6,6.2,72,6.2,71.1z
		 M96.8,34.9v-6c0-2.5-2-4.5-4.5-4.5H59.1c-2.5,0-4.5,2-4.5,4.5v6c0,2.5,2,4.5,4.5,4.5v3c-2.5,0-4.5,2-4.5,4.5v6
		c0,2.5,2,4.5,4.5,4.5v3c-2.5,0-4.5,2-4.5,4.5v6c0,2.5,2,4.5,4.5,4.5h33.2c2.5,0,4.5-2,4.5-4.5v-6c0-2.5-2-4.5-4.5-4.5v-3
		c2.5,0,4.5-2,4.5-4.5v-6c0-2.5-2-4.5-4.5-4.5v-3C94.7,39.4,96.8,37.4,96.8,34.9z M57.5,34.9v-6c0-0.8,0.7-1.5,1.5-1.5h33.2
		c0.8,0,1.5,0.7,1.5,1.5v6c0,0.8-0.7,1.5-1.5,1.5H59.1C58.2,36.4,57.5,35.7,57.5,34.9z M93.8,65.1v6c0,0.8-0.7,1.5-1.5,1.5H59.1
		c-0.8,0-1.5-0.7-1.5-1.5v-6c0-0.8,0.7-1.5,1.5-1.5h33.2C93.1,63.6,93.8,64.3,93.8,65.1z M89.2,60.6H62.1v-3h27.2V60.6z M93.8,47v6
		c0,0.8-0.7,1.5-1.5,1.5H59.1c-0.8,0-1.5-0.7-1.5-1.5v-6c0-0.8,0.7-1.5,1.5-1.5h33.2C93.1,45.5,93.8,46.1,93.8,47z M89.2,42.5H62.1
		v-3h27.2V42.5z M71.1,9.3V7.5l7.7,4.8l-7.7,4.8v-1.8c0-0.8-0.7-1.5-1.5-1.5H21.3v3h46.8v3c0,0.8,0.7,1.5,1.5,1.5
		c0.3,0,0.6-0.1,0.8-0.2l12.1-7.5c0.7-0.4,0.9-1.4,0.5-2.1c-0.1-0.2-0.3-0.4-0.5-0.5L70.4,3.5c-0.7-0.4-1.6-0.2-2.1,0.5
		c-0.1,0.2-0.2,0.5-0.2,0.8v3H18.3v3h51.3C70.4,10.8,71.1,10.1,71.1,9.3z M28.9,90.7v1.8l-7.7-4.8l7.7-4.8v1.8
		c0,0.8,0.7,1.5,1.5,1.5h48.3v-3H31.9v-3c0-0.8-0.7-1.5-1.5-1.5c-0.3,0-0.6,0.1-0.8,0.2l-12.1,7.5c-0.7,0.4-0.9,1.4-0.5,2.1
		c0.1,0.2,0.3,0.4,0.5,0.5l12.1,7.5c0.7,0.4,1.6,0.2,2.1-0.5c0.1-0.2,0.2-0.5,0.2-0.8v-3h49.8v-3H30.4
		C29.6,89.2,28.9,89.9,28.9,90.7z M81.7,83.2h3v3h-3V83.2z M87.7,83.2h3v3h-3V83.2z M15.3,13.8h3v3h-3V13.8z M9.3,13.8h3v3h-3V13.8z
		"/>
</g>
</svg>
