<?xml version="1.0" encoding="utf-8"?>
<!-- Generator: Adobe Illustrator 26.0.1, SVG Export Plug-In . SVG Version: 6.00 Build 0)  -->
<svg version="1.1" id="Layer_1" xmlns:svgjs="http://svgjs.com/svgjs"
	 xmlns="http://www.w3.org/2000/svg" xmlns:xlink="http://www.w3.org/1999/xlink" x="0px" y="0px" viewBox="0 0 100 100"
	 style="enable-background:new 0 0 100 100;" xml:space="preserve">
<style type="text/css">
	.st0{fill:#5275E3;}
</style>
<g>
	<path class="st0" d="M90.9,19.9c-1.5,0-3,0.6-4.1,1.7L75.6,32.8v-28c0-0.8-0.7-1.5-1.5-1.5H13.9c-0.8,0-1.5,0.7-1.5,1.5v7.5H4.8
		c-0.8,0-1.5,0.7-1.5,1.5v81.3c0,0.8,0.7,1.5,1.5,1.5h60.2c0.8,0,1.5-0.7,1.5-1.5v-7.5h7.5c0.8,0,1.5-0.7,1.5-1.5v-37L95,29.7
		c2.3-2.2,2.3-5.9,0-8.1C93.9,20.5,92.4,19.9,90.9,19.9z M60.5,59.9L56.6,56l22-22l3.9,3.9L60.5,59.9z M52.9,63.7l2.2-5l2.9,2.9
		L52.9,63.7z M49.7,63.5h-7.2v3h6c0,0.8,0.7,1.5,1.5,1.5c0.2,0,0.4,0,0.6-0.1l6.9-3v22.7H12.4V56h40.5L49.7,63.5z M80.7,31.9
		l2.4-2.4l3.9,3.9l-2.4,2.4L80.7,31.9z M15.4,6.4h57.2v29.5l-6,6v-28c0-0.8-0.7-1.5-1.5-1.5H15.4V6.4z M6.4,93.6V15.4h57.2v29.5
		L55.4,53H10.9c-0.8,0-1.5,0.7-1.5,1.5v34.6c0,0.8,0.7,1.5,1.5,1.5H59c0.8,0,1.5-0.7,1.5-1.5V63.7l0.6-0.3c0.2-0.1,0.3-0.2,0.5-0.3
		l1.9-1.9v32.5H6.4z M72.6,84.6h-6V58.1l6-6V84.6z M92.8,27.6l-3.7,3.7l-3.9-3.9l3.7-3.7c1.1-1.1,2.8-1.1,3.9-0.1
		C93.9,24.7,94,26.4,92.8,27.6C92.9,27.6,92.9,27.6,92.8,27.6L92.8,27.6z"/>
	<path class="st0" d="M34.9,51.5c9.1,0,16.6-7.4,16.6-16.6s-7.4-16.6-16.6-16.6s-16.6,7.4-16.6,16.6C18.4,44.1,25.8,51.5,34.9,51.5z
		 M34.9,21.4c7.5,0,13.5,6.1,13.5,13.5s-6.1,13.5-13.5,13.5s-13.5-6.1-13.5-13.5C21.4,27.5,27.5,21.4,34.9,21.4z"/>
	<path class="st0" d="M34.9,42.5c-1.7,0-3-1.3-3-3h-3c0,2.7,1.9,5.1,4.5,5.8V47h3v-1.7c3.2-0.8,5.1-4.1,4.3-7.3
		c-0.7-2.7-3.1-4.5-5.8-4.5c-1.7,0-3-1.3-3-3c0-1.7,1.3-3,3-3s3,1.3,3,3h3c0-2.7-1.9-5.1-4.5-5.8v-1.7h-3v1.7
		c-3.2,0.8-5.1,4.1-4.3,7.3c0.7,2.7,3.1,4.5,5.8,4.5c1.7,0,3,1.3,3,3S36.6,42.5,34.9,42.5z M21.4,63.5h18.1v3H21.4V63.5z M15.4,69.6
		h39.1v3H15.4V69.6z M15.4,75.6h39.1v3H15.4V75.6z"/>
</g>
</svg>
