<?xml version="1.0" encoding="utf-8"?>
<!-- Generator: Adobe Illustrator 26.0.1, SVG Export Plug-In . SVG Version: 6.00 Build 0)  -->
<svg version="1.1" id="Layer_1" xmlns:svgjs="http://svgjs.com/svgjs"
	 xmlns="http://www.w3.org/2000/svg" xmlns:xlink="http://www.w3.org/1999/xlink" x="0px" y="0px" viewBox="0 0 100 100"
	 style="enable-background:new 0 0 100 100;" xml:space="preserve">
<style type="text/css">
	.st0{fill:#5275E3;}
</style>
<g>
	<path class="st0" d="M85.9,8c-0.7-0.3-1.5,0-1.8,0.7c-0.3,0.7,0,1.5,0.7,1.8c0,0,0,0,0,0c6.3,2.6,10.9,8.9,10.9,16.5
		c0,16.4-20.4,24.2-31.3,11.9c-6.2-6.9-6.1-17.7,0.7-24.5c4-4,9.5-5.7,14.8-5.1c0.7,0.1,1.4-0.4,1.5-1.2c0.1-0.7-0.4-1.4-1.2-1.5
		C62.5,4.4,50.7,24.4,60.9,38.9H32.5c-1.3,0-2.3,1-2.3,2.3v17.6l-2.5,5c-0.5,0.9-1.3,1.7-2.2,2c0-2.1-1.6-3.5-3.5-3.5h-5.2
		c-1.8,0-3.5,1.4-3.5,3.6H9.9c-2,0-3.7,1.7-3.7,3.7v1.6c0,0.7,0.6,1.4,1.4,1.4c0,0,0,0,0,0c0.7,0,1.4-0.6,1.4-1.4v-1.6
		c0-0.5,0.4-1,1-1h3.4v18.8H9.9c-0.5,0-1-0.4-1-1v-9.7c0-0.7-0.6-1.4-1.4-1.4c0,0,0,0,0,0c-0.7,0-1.4,0.6-1.4,1.4c0,0,0,0,0,0v9.7
		c0,2,1.7,3.7,3.7,3.7h3.4c0,2.2,1.7,3.6,3.5,3.6h5.2c1.6,0,2.9-1.1,3.3-2.5c1.7,0.4-2.9,0.3,57.8,0.3c1.4,0,2.5-1.1,2.5-2.5V46.1
		C102.5,39.2,102.8,15.2,85.9,8L85.9,8z M22.7,77.8v12.3c0,0.4-0.3,0.8-0.8,0.8h-5.2c-0.4,0-0.8-0.4-0.8-0.8V65.7
		c0-0.4,0.4-0.8,0.8-0.8h5.2c0.4,0,0.8,0.3,0.8,0.8L22.7,77.8z M47.5,41.6h10.3v10.6l-4-3.1c-0.7-0.5-1.6-0.5-2.3,0l-4,3.1
		L47.5,41.6z M47.2,88.6c-21.5,0-20.5,0.1-21.8-0.4V68.6c2-0.4,3.7-1.7,4.8-3.9c0.3-0.6,2.5-5,3.1-6c0.4-0.9,3,1.4,1.8,3.7l-1.3,2.6
		c-0.9,1.7,0.4,3.8,2.3,3.8l17,0c0.8,0,1.6,0.7,1.6,1.5c0,0.8-0.7,1.4-1.5,1.5H42.6c-0.7,0-1.4,0.6-1.4,1.4c0,0.7,0.6,1.4,1.4,1.4
		c0,0,0,0,0,0l15.8,0c0.7,0,1.4,0.6,1.5,1.2c0.2,1-0.4,1.7-1.4,1.7c0,0-2.1,0-16.1,0c-0.7,0-1.4,0.6-1.4,1.3c0,0.7,0.6,1.4,1.3,1.4
		c0,0,0,0,0,0c0,0,13.6,0,13.6,0c1.3,0,1.9,1.6,1,2.5c-0.3,0.3-0.6,0.4-1,0.4c-10.4,0-7.5,0-14.9,0c-0.7,0-1.4,0.6-1.4,1.4
		s0.6,1.4,1.4,1.4c6.5,0,6.5-0.1,7.1,0.4C49.1,87.1,48.5,88.6,47.2,88.6L47.2,88.6z M82.9,88.7h-7.8V62.6c0-0.7-0.6-1.4-1.4-1.4
		c-0.7,0-1.4,0.6-1.4,1.4c0,0,0,0,0,0v26.1H51.1c0.4-1,0.4-2,0-3l4.9,0c3,0,5-3.1,3.8-5.9c3-0.9,3.7-4.7,1.6-6.9
		c-1.5-1.5-2.9-1.3-4.3-1.3c1-2.8-1.1-5.7-4-5.7l-16.8,0l1.2-2.4c2.1-4.1-1.5-8.5-4.6-7.8V41.6h11.9V54c0,1,0.8,1.9,1.9,1.9
		c0.8,0,0.7,0,6-4.2c5.3,4.1,5.2,4.2,6,4.2c1,0,1.9-0.8,1.9-1.9V41.6h2.7c2.6,2.6,5.7,4.4,9.2,5.3v10.2c0,0.7,0.6,1.4,1.4,1.4
		c0,0,0,0,0,0c0.7,0,1.4-0.6,1.4-1.4v-9.7c2.6,0.3,5.2,0.2,7.8-0.5L82.9,88.7z"/>
	<path class="st0" d="M68.9,26.7c-0.5-0.6-1.4-0.6-1.9-0.1c0,0,0,0,0,0c-0.6,0.5-0.6,1.4-0.1,1.9c0,0,0,0,0,0l5.5,6.2
		c1.1,1.2,2.9,1.2,4,0l12.5-14.1c0.5-0.6,0.4-1.4-0.1-1.9c-0.6-0.5-1.4-0.4-1.9,0.1l-12.5,14L68.9,26.7z"/>
</g>
</svg>
