<?xml version="1.0" encoding="utf-8"?>
<!-- Generator: Adobe Illustrator 26.0.1, SVG Export Plug-In . SVG Version: 6.00 Build 0)  -->
<svg version="1.1" id="Layer_1" xmlns:svgjs="http://svgjs.com/svgjs"
	 xmlns="http://www.w3.org/2000/svg" xmlns:xlink="http://www.w3.org/1999/xlink" x="0px" y="0px" viewBox="0 0 100 100"
	 style="enable-background:new 0 0 100 100;" xml:space="preserve">
<style type="text/css">
	.st0{fill:#5275E3;}
</style>
<g>
	<path class="st0" d="M27.7,67.8H9.9c-2.5,0-4.4,2-4.5,4.5v17.8c0,2.5,2,4.4,4.5,4.5h17.8c2.5,0,4.4-2,4.5-4.5V72.3
		C32.2,69.8,30.2,67.8,27.7,67.8z M17.3,70.8h3v6.8l-0.4-0.4c-0.6-0.6-1.5-0.6-2.1,0l-0.4,0.4V70.8z M29.2,90.1
		c0,0.8-0.7,1.5-1.5,1.5H9.9c-0.8,0-1.5-0.7-1.5-1.5V72.3c0-0.8,0.7-1.5,1.5-1.5h4.5v10.4c0,0.6,0.4,1.1,0.9,1.4
		c0.6,0.2,1.2,0.1,1.6-0.3l1.9-1.9l1.9,1.9c0.3,0.3,0.7,0.4,1.1,0.4c0.2,0,0.4,0,0.6-0.1c0.6-0.2,0.9-0.8,0.9-1.4V70.8h4.5
		c0.8,0,1.5,0.7,1.5,1.5V90.1z M94.2,86.2c-0.3-0.4-0.7-0.6-1.2-0.6h-1.5V69.3c0-0.8-0.7-1.5-1.5-1.5H60.4c-0.8,0-1.5,0.7-1.5,1.5
		v16.3h-1.5c-0.5,0-0.9,0.2-1.2,0.6C56,86.5,55.9,87,56,87.5l1.5,5.9c0.2,0.7,0.8,1.1,1.4,1.1h32.6c0.7,0,1.3-0.5,1.4-1.1l1.5-5.9
		C94.6,87,94.5,86.5,94.2,86.2z M61.9,70.8h26.7v14.8H78.2c-0.8,0-1.5,0.7-1.5,1.5h-3c0-0.8-0.7-1.5-1.5-1.5H61.9V70.8z M90.4,91.6
		H60.1l-0.7-3h11.5c0,0.8,0.7,1.5,1.5,1.5h5.9c0.8,0,1.5-0.7,1.5-1.5h11.5L90.4,91.6z"/>
	<path class="st0" d="M73.7,76.7h3v3h-3V76.7z M79.7,76.7h3v3h-3V76.7z M67.8,76.7h3v3h-3V76.7z M71.2,40.7l2.1-2.1l3,3l-2.1,2.1
		L71.2,40.7z M82.6,52.1v7.7l-1.9-1.9L78.6,60l4.5,4.5c0.6,0.6,1.5,0.6,2.1,0l4.5-4.5l-2.1-2.1l-1.9,1.9v-8.3c0-0.4-0.2-0.8-0.4-1
		L77.8,43l-2.1,2.1L82.6,52.1z M17.3,52.2l8.9-7.8V47h3v-5.9c0-0.8-0.7-1.5-1.5-1.5h-5.9v3h2l-8.9,7.8c-0.3,0.3-0.5,0.7-0.5,1.1
		v13.4h3V52.2z M50,5.5c-7.2,0-14.8,1.9-14.8,5.9v26.7c0,4.1,7.7,5.9,14.8,5.9s14.8-1.9,14.8-5.9V11.4C64.8,7.3,57.1,5.5,50,5.5z
		 M61.9,38.1c0,0.8-4.1,3-11.9,3s-11.9-2.2-11.9-3V33c3.8,1.6,7.8,2.3,11.9,2.2c4.1,0.1,8.1-0.6,11.9-2.2V38.1z M61.9,29.2
		c0,0.8-4.1,3-11.9,3s-11.9-2.2-11.9-3v-5.2c3.8,1.6,7.8,2.3,11.9,2.2c4.1,0.1,8.1-0.6,11.9-2.2V29.2z M61.9,20.3
		c0,0.8-4.1,3-11.9,3s-11.9-2.2-11.9-3v-5.2c3.8,1.6,7.8,2.3,11.9,2.2c4.1,0.1,8.1-0.6,11.9-2.2V20.3z M50,14.4
		c-7.8,0-11.9-2.2-11.9-3c0-0.8,4.1-3,11.9-3s11.9,2.2,11.9,3C61.9,12.2,57.8,14.4,50,14.4z"/>
	<path class="st0" d="M48.5,18.8h3v3h-3V18.8z M48.5,27.7h3v3h-3V27.7z M48.5,36.6h3v3h-3V36.6z"/>
</g>
</svg>
