<?xml version="1.0" encoding="utf-8"?>
<!-- Generator: Adobe Illustrator 26.0.1, SVG Export Plug-In . SVG Version: 6.00 Build 0)  -->
<svg version="1.1" id="Layer_1" xmlns:svgjs="http://svgjs.com/svgjs"
	 xmlns="http://www.w3.org/2000/svg" xmlns:xlink="http://www.w3.org/1999/xlink" x="0px" y="0px" viewBox="0 0 100 100"
	 style="enable-background:new 0 0 100 100;" xml:space="preserve">
<style type="text/css">
	.st0{fill:#5275E3;}
</style>
<g>
	<path class="st0" d="M97,26.9c0-3.4-2.8-6.2-6.2-6.2c-1.5,0-2.9,0.5-4,1.5c-4.5-2.3-10.5-3.3-17.6-3C64.7,9.5,58,3.9,50.9,3.9
		c-2.3,0-4.6,0.6-6.6,1.7c-2.5-2.3-6.3-2.2-8.7,0.3c-2.1,2.3-2.2,5.8-0.2,8.2c-1.1,1.7-2.1,3.5-3,5.4c-5.1-0.4-10.3,0.3-15.2,1.9
		c-4.3,1.4-7.8,4.5-9.8,8.5c-2.6,5.9-0.9,13.2,4,20.3c-4.5,6.6-6.1,13.1-4.6,18.4c-2.6,2.1-3,6-0.9,8.6s6,3,8.6,0.9
		c0.1-0.1,0.2-0.2,0.3-0.3c4.6,2.2,9.7,3.2,14.8,3.1c0.9,0,1.8-0.1,2.7-0.1c4.6,9.8,11.3,15.5,18.4,15.5s13.8-5.6,18.4-15.5
		c0.9,0.1,1.8,0.1,2.7,0.1c4.3,0.1,8.5-0.6,12.5-2c4.3-1.4,7.8-4.5,9.8-8.5c2.6-5.9,0.9-13.2-4-20.3c4.5-6.6,6.2-13.1,4.6-18.4
		C96.2,30.4,97,28.7,97,26.9z M90.8,23.8c1.7,0,3.1,1.4,3.1,3.1c0,1.7-1.4,3.1-3.1,3.1c-1.7,0-3.1-1.4-3.1-3.1
		C87.8,25.2,89.1,23.8,90.8,23.8z M55.7,75.3c5.1-2,10-4.4,14.7-7.3c-0.8,3.2-1.8,6.4-3.1,9.5C63.4,77.1,59.5,76.4,55.7,75.3z
		 M72.4,50c0,4.6-0.4,9.2-1.2,13.8c-3.7,2.4-7.5,4.6-11.5,6.5c-2.9,1.4-5.9,2.6-8.9,3.6c-3-1-6-2.2-8.9-3.6c-4-1.9-7.8-4-11.5-6.4
		c-1.6-9.1-1.6-18.5,0-27.6c3.7-2.4,7.5-4.6,11.5-6.5c2.9-1.4,5.9-2.5,8.9-3.6c7.2,2.4,14,5.8,20.4,10C72,40.7,72.4,45.4,72.4,50z
		 M74.7,38.6c4.4,3.2,8.4,7,11.7,11.3c-3.4,4.3-7.3,8.1-11.7,11.4c0.5-3.7,0.7-7.5,0.7-11.3C75.5,46.2,75.2,42.4,74.7,38.6z
		 M34.4,77.4c-1.3-3-2.3-6.2-3-9.4c3,1.8,6.1,3.5,9.3,5c1.8,0.8,3.6,1.6,5.4,2.3C42.2,76.4,38.3,77.1,34.4,77.4L34.4,77.4z M46,24.7
		c-1.8,0.7-3.6,1.5-5.3,2.3c-3.2,1.5-6.3,3.2-9.3,5c0.7-3.2,1.8-6.4,3.1-9.5C38.3,22.9,42.2,23.6,46,24.7L46,24.7z M27,61.3
		c-4.4-3.2-8.4-7-11.7-11.3c3.4-4.3,7.3-8.1,11.7-11.4C26,46.2,26,53.8,27,61.3L27,61.3z M61.1,27c-1.8-0.8-3.5-1.6-5.4-2.3
		c3.8-1.1,7.7-1.8,11.6-2.1c1.3,3,2.3,6.2,3,9.4C67.4,30.1,64.3,28.5,61.1,27z M40.1,6.9c1.7,0,3.1,1.4,3.1,3.1s-1.4,3.1-3.1,3.1
		c-1.7,0-3.1-1.4-3.1-3.1S38.4,6.9,40.1,6.9z M37.9,15.7c0.7,0.3,1.4,0.4,2.2,0.4c3.4,0,6.2-2.8,6.2-6.2c0-0.6-0.1-1.3-0.3-1.9
		c1.5-0.8,3.2-1.2,4.9-1.2c5.7,0,11.1,4.6,15.2,12.7c-5.2,0.6-10.2,1.7-15.1,3.3c-4.9-1.6-10-2.8-15.2-3.4
		C36.4,18.3,37.1,17,37.9,15.7L37.9,15.7z M10.3,31c1.6-3.3,4.5-5.8,8-6.9c3.7-1.3,7.6-1.9,11.5-1.8c0.5,0,0.9,0,1.4,0
		c-1.5,3.9-2.7,7.9-3.5,12.1c-5.4,3.6-10.2,8-14.3,13C9.5,41.5,8.2,35.7,10.3,31L10.3,31z M10.9,76.1c-1.7,0-3.1-1.4-3.1-3.1
		c0-1.7,1.4-3.1,3.1-3.1s3.1,1.4,3.1,3.1C13.9,74.8,12.6,76.1,10.9,76.1z M16.6,75.1c0.2-0.7,0.4-1.4,0.4-2.1c0-3.4-2.7-6.1-6.1-6.2
		c-0.4,0-0.8,0-1.2,0.1C8.7,62.9,10,58,13.4,52.7c4.1,5,8.9,9.4,14.3,13c0.8,4.1,1.9,8.1,3.4,12C26.2,78,21.2,77.1,16.6,75.1z
		 M50.9,93.1c-5.7,0-11.1-4.6-15.2-12.7c5.2-0.6,10.2-1.7,15.2-3.3c4.9,1.6,10,2.8,15.1,3.3C62,88.5,56.5,93.1,50.9,93.1z M91.4,69
		c-1.6,3.3-4.5,5.8-8,6.9c-4.1,1.4-8.5,2-12.9,1.8c1.5-3.9,2.7-8,3.5-12.1c5.4-3.6,10.2-8,14.3-13C92.2,58.5,93.5,64.3,91.4,69
		L91.4,69z M88.3,47.3c-4.1-5-8.9-9.4-14.3-13c-0.8-4.1-1.9-8.1-3.4-12c5-0.3,9.9,0.5,14.5,2.5c-0.2,0.7-0.4,1.4-0.4,2.1
		c0,3.4,2.7,6.1,6.1,6.2c0.4,0,0.8,0,1.2-0.1C93,37.1,91.7,42,88.3,47.3L88.3,47.3z"/>
	<path class="st0" d="M33.9,40.8v6.2c0,1.1,0.4,2.2,1.2,3.1c-0.8,0.8-1.2,1.9-1.2,3.1v6.2c0,2.5,2.1,4.6,4.6,4.6h24.6
		c2.5,0,4.6-2.1,4.6-4.6v-6.2c0-1.1-0.4-2.2-1.2-3.1c0.8-0.8,1.2-1.9,1.2-3.1v-6.2c0-2.5-2.1-4.6-4.6-4.6H38.5
		C36,36.2,33.9,38.2,33.9,40.8z M64.7,59.2c0,0.8-0.7,1.5-1.5,1.5H38.5c-0.8,0-1.5-0.7-1.5-1.5v-6.2c0-0.8,0.7-1.5,1.5-1.5h24.6
		c0.8,0,1.5,0.7,1.5,1.5V59.2z M64.7,40.8v6.2c0,0.8-0.7,1.5-1.5,1.5H38.5c-0.8,0-1.5-0.7-1.5-1.5v-6.2c0-0.8,0.7-1.5,1.5-1.5h24.6
		C64,39.2,64.7,39.9,64.7,40.8z"/>
	<path class="st0" d="M41.6,45.4h1.5c0.8,0,1.5-0.7,1.5-1.5c0-0.8-0.7-1.5-1.5-1.5h-1.5c-0.8,0-1.5,0.7-1.5,1.5
		C40.1,44.7,40.8,45.4,41.6,45.4z M53.9,45.4h6.2c0.8,0,1.5-0.7,1.5-1.5c0-0.8-0.7-1.5-1.5-1.5h-6.2c-0.8,0-1.5,0.7-1.5,1.5
		C52.4,44.7,53.1,45.4,53.9,45.4z M43.2,54.6h-1.5c-0.8,0-1.5,0.7-1.5,1.5c0,0.8,0.7,1.5,1.5,1.5h1.5c0.8,0,1.5-0.7,1.5-1.5
		C44.7,55.3,44,54.6,43.2,54.6z M60.1,54.6h-6.2c-0.8,0-1.5,0.7-1.5,1.5c0,0.8,0.7,1.5,1.5,1.5h6.2c0.8,0,1.5-0.7,1.5-1.5
		C61.6,55.3,60.9,54.6,60.1,54.6z"/>
</g>
</svg>
