<?xml version="1.0" encoding="utf-8"?>
<!-- Generator: Adobe Illustrator 26.0.1, SVG Export Plug-In . SVG Version: 6.00 Build 0)  -->
<svg version="1.1" id="Layer_1" xmlns:svgjs="http://svgjs.com/svgjs"
	 xmlns="http://www.w3.org/2000/svg" xmlns:xlink="http://www.w3.org/1999/xlink" x="0px" y="0px" viewBox="0 0 100 100"
	 style="enable-background:new 0 0 100 100;" xml:space="preserve">
<style type="text/css">
	.st0{fill:#5275E3;}
</style>
<g>
	<path class="st0" d="M8.4,30.5h51.9c3,0,5.5-2.5,5.5-5.5V8.4c0-3-2.5-5.5-5.5-5.5H8.4c-3,0-5.5,2.5-5.5,5.5V25
		C2.9,28,5.4,30.5,8.4,30.5z M6.6,8.4c0-1,0.8-1.8,1.8-1.8h51.9c1,0,1.8,0.8,1.8,1.8V25c0,1-0.8,1.8-1.8,1.8H8.4
		c-1,0-1.8-0.8-1.8-1.8V8.4z M60.3,69.5H8.4c-3,0-5.5,2.5-5.5,5.5v16.6c0,3,2.5,5.5,5.5,5.5h51.9c3,0,5.5-2.5,5.5-5.5V75
		C65.8,72,63.4,69.5,60.3,69.5z M62.2,91.6c0,1-0.8,1.8-1.8,1.8H8.4c-1,0-1.8-0.8-1.8-1.8V75c0-1,0.8-1.8,1.8-1.8h51.9
		c1,0,1.8,0.8,1.8,1.8V91.6z"/>
	<path class="st0" d="M91.6,14.8H75.8l2.4-2.4c0.7-0.7,0.7-1.9,0-2.6c-0.7-0.7-1.9-0.7-2.6,0l-5.5,5.5c-0.7,0.7-0.7,1.9,0,2.6
		l5.5,5.5c0.7,0.7,1.9,0.7,2.6,0c0.7-0.7,0.7-1.9,0-2.6l-2.4-2.4h15.8c1,0,1.8,0.8,1.8,1.8v26c0,1-0.8,1.8-1.8,1.8h-9.2v-6.4
		c0-3-2.5-5.5-5.5-5.5H25c-3,0-5.5,2.5-5.5,5.5v16.6c0,3,2.5,5.5,5.5,5.5h51.9c3,0,5.5-2.5,5.5-5.5v-6.4h9.2c3,0,5.5-2.5,5.5-5.5
		v-26C97.1,17.3,94.7,14.8,91.6,14.8z M78.7,58.3c0,1-0.8,1.8-1.8,1.8H25c-1,0-1.8-0.8-1.8-1.8V41.7c0-1,0.8-1.8,1.8-1.8h51.9
		c1,0,1.8,0.8,1.8,1.8V58.3z M29.6,14.4h26.1c2.4-0.1,2.4-3.6,0-3.7H29.6C27.1,10.8,27.1,14.3,29.6,14.4z M13,22.7h8.3
		c1,0,1.8-0.8,1.8-1.8v-8.3c0-1-0.8-1.8-1.8-1.8H13c-1,0-1.8,0.8-1.8,1.8v8.3C11.2,21.8,12,22.7,13,22.7z M14.8,14.4h4.6V19h-4.6
		V14.4z"/>
	<path class="st0" d="M55.7,19H37.9c-2.4,0.1-2.4,3.6,0,3.7h17.9C58.1,22.6,58.1,19.1,55.7,19z M72.3,44H46.1
		c-2.4,0.1-2.4,3.6,0,3.7h26.1C74.7,47.6,74.7,44.1,72.3,44z M37.9,44h-8.3c-1,0-1.8,0.8-1.8,1.8v8.3c0,1,0.8,1.8,1.8,1.8h8.3
		c1,0,1.8-0.8,1.8-1.8v-8.3C39.7,44.8,38.9,44,37.9,44z M36,52.3h-4.6v-4.6H36V52.3z M72.3,52.3H46.1c-2.4,0.1-2.4,3.6,0,3.7h26.1
		C74.7,55.9,74.7,52.4,72.3,52.3z M55.7,77.3H29.6c-2.4,0.1-2.4,3.6,0,3.7h26.1C58.1,80.9,58.1,77.4,55.7,77.3z M21.3,77.3H13
		c-1,0-1.8,0.8-1.8,1.8v8.3c0,1,0.8,1.8,1.8,1.8h8.3c1,0,1.8-0.8,1.8-1.8v-8.3C23.1,78.2,22.3,77.3,21.3,77.3z M19.4,85.6h-4.6V81
		h4.6V85.6z M55.7,85.6H29.6c-2.4,0.1-2.4,3.6,0,3.7h26.1C58.1,89.2,58.1,85.7,55.7,85.6z M29.6,22.7c2.4-0.1,2.4-3.6,0-3.7h0
		C27.1,19.1,27.1,22.6,29.6,22.7z"/>
</g>
</svg>
