<?xml version="1.0" encoding="utf-8"?>
<!-- Generator: Adobe Illustrator 26.0.1, SVG Export Plug-In . SVG Version: 6.00 Build 0)  -->
<svg version="1.1" id="Layer_1" xmlns:svgjs="http://svgjs.com/svgjs"
	 xmlns="http://www.w3.org/2000/svg" xmlns:xlink="http://www.w3.org/1999/xlink" x="0px" y="0px" viewBox="0 0 100 100"
	 style="enable-background:new 0 0 100 100;" xml:space="preserve">
<style type="text/css">
	.st0{fill:#5275E3;}
</style>
<g>
	<path class="st0" d="M96.6,81.2V69.9l-4.4-1.1c0-0.1-0.1-0.1-0.1-0.2l2.3-3.9l-8-8L82.6,59c-0.1,0-0.1-0.1-0.2-0.1l-1.1-4.3H69.9
		l-1.1,4.4c-0.1,0-0.1,0.1-0.2,0.1l-3.9-2.3l-8,8l2.3,3.9c0,0.1-0.1,0.1-0.1,0.2l-4.3,1.1v11.4l4.4,1.1c0,0.1,0.1,0.1,0.1,0.2
		l-2.3,3.9l8,8l3.9-2.3c0.1,0,0.1,0.1,0.2,0.1l1.1,4.3h11.4l1.1-4.4c0.1,0,0.1-0.1,0.2-0.1l3.9,2.3l8-8l-2.3-3.9
		c0-0.1,0.1-0.1,0.1-0.2L96.6,81.2z M90.7,86L86,90.7l-3.2-1.9L82,89.1c-0.5,0.2-0.9,0.4-1.4,0.6L79.8,90l-0.9,3.6h-6.7L71.3,90
		l-0.8-0.3c-0.5-0.2-1-0.4-1.4-0.6l-0.7-0.3l-3.2,1.9L60.4,86l1.9-3.2L62,82c-0.2-0.5-0.4-0.9-0.6-1.4l-0.3-0.8l-3.6-0.9v-6.7
		l3.6-0.9l0.3-0.8c0.2-0.5,0.4-1,0.6-1.4l0.3-0.7l-1.9-3.2l4.7-4.7l3.2,1.9l0.7-0.3c0.5-0.2,0.9-0.4,1.4-0.6l0.8-0.3l0.9-3.6h6.7
		l0.9,3.6l0.8,0.3c0.5,0.2,1,0.4,1.4,0.6l0.7,0.3l3.2-1.9l4.7,4.7l-1.9,3.2l0.3,0.7c0.2,0.5,0.4,0.9,0.6,1.4l0.3,0.8l3.6,0.9v6.7
		L90,79.8l-0.3,0.8c-0.2,0.5-0.4,1-0.6,1.4l-0.3,0.7L90.7,86z"/>
	<path class="st0" d="M75.6,63.5c-6.6,0-12,5.4-12,12s5.4,12,12,12s12-5.4,12-12S82.2,63.5,75.6,63.5z M75.6,84.6c-5,0-9-4-9-9
		c0-5,4-9,9-9c5,0,9,4,9,9C84.6,80.5,80.5,84.6,75.6,84.6z"/>
	<path class="st0" d="M75.6,69.5c-3.3,0-6,2.7-6,6s2.7,6,6,6s6-2.7,6-6S78.9,69.5,75.6,69.5z M75.6,78.6c-1.7,0-3-1.3-3-3
		c0-1.7,1.3-3,3-3c1.7,0,3,1.3,3,3C78.6,77.2,77.2,78.6,75.6,78.6z M41.5,28.8c0.5,1.5,1.4,2.8,2.5,3.8v1.3l-7.2,2.7
		c-2.9,1.1-4.9,3.9-4.9,7v7.9H68v-7.9c0-3.1-2-5.9-4.9-7L56,33.9v-1.3c1.1-1,2-2.3,2.5-3.8c2.8-0.5,5-2.9,5-5.9v-6
		c0-7.5-6.1-13.5-13.5-13.5S36.5,9.5,36.5,16.9v6C36.5,25.9,38.6,28.4,41.5,28.8z M53,34.5l-3,5l-3-5v-0.1c0.9,0.3,2,0.5,3,0.5
		s2.1-0.2,3-0.5V34.5z M44.8,36.8l3,5.1l-3,1.5l-1.9-5.8L44.8,36.8z M65,43.6v4.9H35v-4.9c0-1.9,1.2-3.6,2.9-4.2l2.2-0.8l3,9
		l6.9-3.4l6.9,3.4l3-9l2.2,0.8C63.9,40.1,65,41.8,65,43.6z M57.1,37.5l-1.9,5.8l-3-1.5l3-5.1L57.1,37.5z M50,32c-3.3,0-6-2.7-6-6
		v-6.1c2.2-0.2,4.3-1,6-2.4c1.7,1.4,3.8,2.2,6,2.4v6.1C56,29.3,53.3,32,50,32z M59,25.5v-5.2c0.9,0.5,1.5,1.5,1.5,2.6
		C60.5,24,59.9,25,59,25.5L59,25.5z M50,6.4c5.8,0,10.5,4.7,10.5,10.5v0.8c-0.9-0.5-1.9-0.8-3-0.8h-0.3c-2.3,0-4.5-0.9-6.2-2.6
		L50,13.3l-1.1,1.1c-1.7,1.7-3.9,2.6-6.2,2.6h-0.3c-1.1,0-2.1,0.3-3,0.8v-0.8C39.5,11.1,44.2,6.4,50,6.4z M41,20.3v5.2
		c-0.9-0.5-1.5-1.5-1.5-2.6C39.5,21.8,40.1,20.9,41,20.3L41,20.3z M3.4,96.6h30.1V57.5H3.4V96.6z M6.4,60.5h24.1v33.1H6.4V60.5z"/>
	<path class="st0" d="M9.4,63.5h18v3h-18V63.5z M9.4,69.5h3v3h-3V69.5z M15.4,69.5h12v3h-12V69.5z M9.4,75.6h18v3h-18V75.6z
		 M9.4,81.6h18v3h-18V81.6z M24.4,87.6h3v3h-3V87.6z M9.4,87.6h12v3h-12V87.6z M43.5,70.6l-2.1-2.1l-7.1,7.1l7.1,7.1l2.1-2.1
		l-3.4-3.4h11.4v-3H40.1L43.5,70.6z M19.9,27.4c0-0.8,0.7-1.5,1.5-1.5h6.9l-3.4,3.4l2.1,2.1l7.1-7.1L27,17.4l-2.1,2.1l3.4,3.4h-6.9
		c-2.5,0-4.5,2-4.5,4.5v27.1h3V27.4z M75.6,27.4v18.9l-3.4-3.4L70,45l7.1,7.1l7.1-7.1L82,42.9l-3.4,3.4V27.4c0-2.5-2-4.5-4.5-4.5
		h-7.5v3h7.5C74.9,25.9,75.6,26.6,75.6,27.4z"/>
</g>
</svg>
