<svg id="Layer_1" data-name="Layer 1" xmlns="http://www.w3.org/2000/svg" viewBox="0 0 93.32 93.32"><defs><style>.cls-1{fill:#4269e0;}</style></defs><path class="cls-1" d="M95.31,61.1l-3.89-.91a27.75,27.75,0,0,0-.79-2.94l2.9-2.72a1.53,1.53,0,0,0,.35-1.77,31.25,31.25,0,0,0-3.09-5.35,1.55,1.55,0,0,0-1.72-.58L85.3,48a26,26,0,0,0-2.17-2.16L84.28,42a1.57,1.57,0,0,0-.58-1.72c-.84-.6-1.7-1.16-2.59-1.68V11.12a7.79,7.79,0,0,0-7.78-7.78H11.12a7.79,7.79,0,0,0-7.78,7.78V51.56a7.79,7.79,0,0,0,7.78,7.77H27.56l-5.09,14H14.23a1.56,1.56,0,0,0-1.56,1.56,7.79,7.79,0,0,0,7.78,7.77h19.2c.23.35.43.7.67,1a1.57,1.57,0,0,0,1.72.58l3.77-1.15A26,26,0,0,0,48,85.3l-1.14,3.77a1.54,1.54,0,0,0,.58,1.71,30.76,30.76,0,0,0,5.35,3.1,1.55,1.55,0,0,0,1.78-.35l2.71-2.9a27.12,27.12,0,0,0,2.94.79l.91,3.89a1.54,1.54,0,0,0,1.36,1.19,29.92,29.92,0,0,0,6.18,0A1.55,1.55,0,0,0,70,95.31l.9-3.89a27.29,27.29,0,0,0,3-.79l2.71,2.9a1.55,1.55,0,0,0,1.78.35,31,31,0,0,0,5.35-3.1,1.55,1.55,0,0,0,.58-1.71L83.13,85.3a26.14,26.14,0,0,0,2.17-2.17l3.77,1.15a1.57,1.57,0,0,0,1.72-.58,32.38,32.38,0,0,0,3.1-5.35,1.56,1.56,0,0,0-.36-1.78l-2.9-2.72a24.49,24.49,0,0,0,.79-2.94L95.31,70a1.56,1.56,0,0,0,1.2-1.36c.1-1,.15-2.08.15-3.09a29.77,29.77,0,0,0-.16-3.09,1.54,1.54,0,0,0-1.19-1.36ZM11.12,6.45H73.33A4.68,4.68,0,0,1,78,11.12v26a1.58,1.58,0,0,0-1.43.45l-2.71,2.9a25.12,25.12,0,0,0-3-.78L70,35.8a1.58,1.58,0,0,0-1.37-1.2,30.39,30.39,0,0,0-6.18,0,1.56,1.56,0,0,0-1.36,1.2l-.91,3.89a24.45,24.45,0,0,0-2.94.78l-2.72-2.9a1.56,1.56,0,0,0-1.77-.35,30.29,30.29,0,0,0-5.35,3.1A1.55,1.55,0,0,0,46.83,42l.53,1.74H15.78V25.11H31.34V22H15.78V12.67H68.66V31.34h3.11V11.12a1.55,1.55,0,0,0-1.55-1.56h-56a1.56,1.56,0,0,0-1.56,1.56V43.78H6.45V11.12A4.67,4.67,0,0,1,11.12,6.45ZM46.89,46.89c-.36.36-.75.7-1.08,1.08l-3.57-1.08ZM6.45,51.56V46.89H41a1.48,1.48,0,0,0-.67.52,30.66,30.66,0,0,0-3.1,5.35,1.55,1.55,0,0,0,.36,1.77l1.8,1.69H11.12A4.67,4.67,0,0,1,6.45,51.56Zm24.42,7.77h9c-.07.29-.14.57-.2.86l-3.89.91a1.56,1.56,0,0,0-1.2,1.36c-.1,1-.15,2.09-.15,3.09s0,2,.15,3.1A1.58,1.58,0,0,0,35.8,70l3.89.9c.17.82.4,1.62.64,2.42H25.78ZM20.45,79.55a4.67,4.67,0,0,1-4.4-3.11H37.72l-.15.13a1.58,1.58,0,0,0-.35,1.78c.18.41.42.8.62,1.2ZM93.5,67.24l-3.78.88a1.55,1.55,0,0,0-1.18,1.26,23.48,23.48,0,0,1-1.17,4.37,1.57,1.57,0,0,0,.39,1.68l2.81,2.64A27,27,0,0,1,88.89,81l-3.66-1.11a1.55,1.55,0,0,0-1.65.5,23.33,23.33,0,0,1-3.22,3.22,1.57,1.57,0,0,0-.5,1.65L81,88.89a28.85,28.85,0,0,1-2.9,1.69l-2.64-2.82a1.57,1.57,0,0,0-1.68-.39,22.54,22.54,0,0,1-4.37,1.17,1.55,1.55,0,0,0-1.26,1.18l-.88,3.78a27.07,27.07,0,0,1-3.37,0L63,89.72a1.55,1.55,0,0,0-1.26-1.18,23.48,23.48,0,0,1-4.37-1.17,1.57,1.57,0,0,0-1.68.39L53,90.58a30.16,30.16,0,0,1-2.91-1.69l1.12-3.66a1.57,1.57,0,0,0-.5-1.65,22.79,22.79,0,0,1-3.22-3.22,1.57,1.57,0,0,0-1.65-.5L42.22,81a28.85,28.85,0,0,1-1.69-2.9l2.81-2.64a1.55,1.55,0,0,0,.4-1.68,23.69,23.69,0,0,1-1.17-4.37,1.55,1.55,0,0,0-1.18-1.26l-3.78-.89a26.91,26.91,0,0,1,0-3.36L41.39,63a1.56,1.56,0,0,0,1.18-1.26,22,22,0,0,1,1.17-4.37,1.57,1.57,0,0,0-.4-1.69L40.53,53a28.22,28.22,0,0,1,1.69-2.91l3.65,1.11a1.56,1.56,0,0,0,1.66-.5,23.82,23.82,0,0,1,3.21-3.22,1.53,1.53,0,0,0,.5-1.65l-1.11-3.66A30.07,30.07,0,0,1,53,40.53l2.63,2.81a1.55,1.55,0,0,0,1.68.39,23.38,23.38,0,0,1,4.38-1.17A1.55,1.55,0,0,0,63,41.38l.88-3.77a26.91,26.91,0,0,1,3.36,0l.88,3.77a1.57,1.57,0,0,0,1.27,1.18,23.69,23.69,0,0,1,4.37,1.17,1.55,1.55,0,0,0,1.68-.39l2.63-2.81A27.12,27.12,0,0,1,81,42.21l-1.11,3.66a1.55,1.55,0,0,0,.5,1.65,24.49,24.49,0,0,1,3.22,3.22,1.55,1.55,0,0,0,1.65.5l3.66-1.11A28.13,28.13,0,0,1,90.57,53l-2.81,2.63a1.55,1.55,0,0,0-.39,1.68,23.79,23.79,0,0,1,1.17,4.38A1.56,1.56,0,0,0,89.72,63l3.77.88a25.26,25.26,0,0,1,0,3.37Z" transform="translate(-3.34 -3.34)"/><path class="cls-1" d="M76.44,65.55A10.89,10.89,0,1,0,65.55,76.44,10.89,10.89,0,0,0,76.44,65.55ZM65.55,73.33a7.78,7.78,0,1,1,7.78-7.78A7.79,7.79,0,0,1,65.55,73.33ZM53,56.44l-2.52-1.82a18.11,18.11,0,0,0-1.71,2.87l2.8,1.35A15.35,15.35,0,0,1,53,56.44ZM64.81,50l-.15-3.11a18.45,18.45,0,0,0-3.31.46l.7,3A15,15,0,0,1,64.81,50Zm12.33.9-1.93,2.44a15.26,15.26,0,0,1,2,1.92l2.34-2.06a19.61,19.61,0,0,0-2.43-2.3ZM50.57,69.72l-3,.83a17.94,17.94,0,0,0,1.18,3.13l2.8-1.35a14.41,14.41,0,0,1-1-2.61Zm7.58-17.85-1.49-2.73A18.4,18.4,0,0,0,53.88,51l1.95,2.43a14.43,14.43,0,0,1,2.32-1.55ZM80.86,68.33l3.06.55a18.5,18.5,0,0,0,.3-3.33v-.06l-3.11.06A16.06,16.06,0,0,1,80.86,68.33ZM66.27,81.09l.14,3.11a18.55,18.55,0,0,0,3.31-.45l-.69-3a15.93,15.93,0,0,1-2.76.37Zm11.87-6.4,2.52,1.83a18.9,18.9,0,0,0,1.71-2.87l-2.8-1.35a14.81,14.81,0,0,1-1.43,2.39Zm2.39-13.33,3-.84a18.83,18.83,0,0,0-1.19-3.13l-2.79,1.36A15.51,15.51,0,0,1,80.53,61.36Zm-7.6,17.89L74.41,82a19.28,19.28,0,0,0,2.79-1.85l-1.94-2.43a15.66,15.66,0,0,1-2.33,1.54ZM58.24,82.73a18.73,18.73,0,0,0,3.18,1l.69-3a15.16,15.16,0,0,1-2.65-.85ZM53.86,75.8l-2.34,2a18.22,18.22,0,0,0,2.42,2.31l1.93-2.43a15.29,15.29,0,0,1-2-1.93Zm19-27.44a18.8,18.8,0,0,0-3.19-1l-.68,3a15.76,15.76,0,0,1,2.65.86ZM50.24,62.81l-3.06-.55a19.16,19.16,0,0,0-.29,3.29v0l3.11,0A15.68,15.68,0,0,1,50.24,62.81Zm8.64-45L56.68,20l3.56,3.57H40.67a7.79,7.79,0,0,0-7.78,7.78v9.33H36V31.34a4.68,4.68,0,0,1,4.67-4.67H60.24l-3.56,3.57,2.2,2.2,6.22-6.23a1.55,1.55,0,0,0,0-2.19h0Zm-40-2H22v3.11H18.89Zm6.22,0h3.12v3.11H25.11Zm6.23,0h3.11v3.11H31.34Z" transform="translate(-3.34 -3.34)"/></svg>