<svg id="Layer_1" data-name="Layer 1" xmlns="http://www.w3.org/2000/svg" viewBox="0 0 85.16 94.63"><defs><style>.cls-1{fill:#5275e3;}</style></defs><path class="cls-1" d="M9,91.49l9.48,5.42a3.12,3.12,0,0,0,1.56.4,3.2,3.2,0,0,0,1.57-.41l9.46-5.41a3.17,3.17,0,0,0,1.58-2.74V77.48a3.17,3.17,0,0,0-1.58-2.74l-9.46-5.4V64.19a1.58,1.58,0,0,1,1.58-1.58H48.42v6.73L39,74.75a3.19,3.19,0,0,0-1.58,2.73V88.75A3.19,3.19,0,0,0,39,91.49l9.48,5.42a3.18,3.18,0,0,0,1.56.4,3.26,3.26,0,0,0,1.58-.41L61,91.49a3.21,3.21,0,0,0,1.58-2.74V77.48A3.19,3.19,0,0,0,61,74.74l-9.46-5.4V62.61H76.81a1.58,1.58,0,0,1,1.58,1.58v5.15l-9.46,5.41a3.15,3.15,0,0,0-1.58,2.73V88.75a3.17,3.17,0,0,0,1.58,2.74l9.48,5.42a3.11,3.11,0,0,0,1.55.4,3.21,3.21,0,0,0,1.58-.41L91,91.49a3.17,3.17,0,0,0,1.58-2.74V77.48A3.17,3.17,0,0,0,91,74.74l-9.46-5.4V64.19a4.73,4.73,0,0,0-4.73-4.73H51.58V54.32L61,48.9a3.18,3.18,0,0,0,1.58-2.73v-.9h9.46A14.2,14.2,0,0,0,73.54,17a9.45,9.45,0,0,0-13.4-7,18.91,18.91,0,0,0-33.19,7,14.2,14.2,0,0,0,1,28.36h9.46v.9A3.21,3.21,0,0,0,39,48.91l9.46,5.41v5.14H23.19a4.73,4.73,0,0,0-4.73,4.73v5.15L9,74.75a3.15,3.15,0,0,0-1.58,2.73V88.75A3.17,3.17,0,0,0,9,91.49ZM50,81.07l-7.88-4.5L50,72.08l7.87,4.5ZM40.54,79.3l7.88,4.5v9.46l-7.88-4.51Zm11,14V83.8l7.88-4.5v9.46ZM80,81.07l-7.87-4.5L80,72.08l7.87,4.5ZM70.5,79.3l7.89,4.5v9.46L70.5,88.75Zm11,14V83.8l7.89-4.5v9.46ZM50,38.48,42.11,34,50,29.5,57.89,34Zm1.58,12.2V41.22l7.88-4.5v9.46ZM27.92,42.11A11,11,0,0,1,28,20h.25a11,11,0,0,1,5.05,1.38,1.56,1.56,0,0,0,.76.19,1.57,1.57,0,0,0,.77-3,14.17,14.17,0,0,0-4.61-1.58,15.73,15.73,0,0,1,27.35-5.32,9.49,9.49,0,0,0-2,2.92,1.58,1.58,0,0,0,.81,2.08,1.73,1.73,0,0,0,.63.13,1.57,1.57,0,0,0,1.45-.95,6.31,6.31,0,0,1,2.16-2.64h0a6.27,6.27,0,0,1,8.74,1.55,6.16,6.16,0,0,1,1,2.17,14.24,14.24,0,0,0-7.11,3,1.58,1.58,0,1,0,2,2.46A10.9,10.9,0,0,1,72.08,20a11,11,0,1,1,0,22.08H62.62V34.9A3.21,3.21,0,0,0,61,32.16l-9.49-5.42a3.25,3.25,0,0,0-3.13,0L39,32.17a3.19,3.19,0,0,0-1.58,2.73v7.21Zm12.62-5.4,7.88,4.5v9.47l-7.88-4.52ZM20,81.07l-7.88-4.5L20,72.08l7.87,4.5Zm-9.47-1.78,7.89,4.5v9.47l-7.89-4.51Zm11,14V83.8l7.89-4.5v9.46Z" transform="translate(-7.42 -2.68)"/></svg>