<svg id="Layer_1" data-name="Layer 1" xmlns="http://www.w3.org/2000/svg" viewBox="0 0 91.28 91.28"><defs><style>.cls-1{fill:#5275e3;}</style></defs><path class="cls-1" d="M13.19,33.81h5.89v2.94H13.19Z" transform="translate(-4.36 -4.36)"/><path class="cls-1" d="M91.22,27.92a4.43,4.43,0,0,0,4.42-4.42V8.78a4.42,4.42,0,0,0-4.42-4.42H70.61a4.43,4.43,0,0,0-4.42,4.42V23.5a4.43,4.43,0,0,0,4.42,4.42H75v2.94h-3v3h7.36V48.53H73.37A10.26,10.26,0,0,0,69.13,46c0-.15,0-.29,0-.44a11.77,11.77,0,0,0-21.7-6.33,11.76,11.76,0,0,0-15.81,6.57,10,10,0,0,0-3.1,1.24H17.61V42.64H23.5a4.43,4.43,0,0,0,4.42-4.42V8.78A4.43,4.43,0,0,0,23.5,4.36H8.78A4.42,4.42,0,0,0,4.36,8.78V38.22a4.42,4.42,0,0,0,4.42,4.42h5.89V50H25.39A10.41,10.41,0,0,0,24,52.94H17.61v16.2H11.72a4.42,4.42,0,0,0-4.41,4.42V86.81H4.36v4.41a4.42,4.42,0,0,0,4.42,4.42H32.33a4.42,4.42,0,0,0,4.42-4.42V86.81H33.81V73.56a4.43,4.43,0,0,0-4.42-4.42H20.56V55.89H23.5a10.31,10.31,0,0,0,10.31,10.3H66.19a10.31,10.31,0,0,0,10.19-8.83h6V69.14H72.08v26.5H95.64V69.14H85.33V54.42h-9a10.24,10.24,0,0,0-.92-3h6.93V33.81h7.36v-3H86.81V27.92ZM25,27.92H7.31V13.19H25ZM8.78,7.31H23.5A1.47,1.47,0,0,1,25,8.78v1.47H7.31V8.78A1.47,1.47,0,0,1,8.78,7.31ZM7.31,38.22V30.86H25v7.36a1.47,1.47,0,0,1-1.47,1.47H8.78A1.47,1.47,0,0,1,7.31,38.22Zm26.5,53a1.47,1.47,0,0,1-1.48,1.47H8.78a1.47,1.47,0,0,1-1.47-1.47V89.75h26.5Zm-3-17.66V86.81H10.25V73.56a1.47,1.47,0,0,1,1.47-1.48H29.39A1.47,1.47,0,0,1,30.86,73.56ZM75,92.69V83.86H92.69v8.83ZM92.69,80.92H75V72.08H92.69ZM66.19,63.25H33.81a7.36,7.36,0,0,1-.89-14.66l1-.12.27-.93a8.82,8.82,0,0,1,13.1-5.06l1.4.87.71-1.5a8.82,8.82,0,0,1,16.82,3.73,8.73,8.73,0,0,1-.11,1.36l-.22,1.46,1.45.22a7.36,7.36,0,0,1-1.12,14.63ZM70.61,7.31H91.22a1.47,1.47,0,0,1,1.47,1.47v10.3H69.14V8.78A1.47,1.47,0,0,1,70.61,7.31ZM69.14,23.5V22H92.69V23.5A1.47,1.47,0,0,1,91.22,25H70.61A1.47,1.47,0,0,1,69.14,23.5Zm14.72,7.36H78V27.92h5.89Z" transform="translate(-4.36 -4.36)"/><path class="cls-1" d="M78,75h3V78H78Zm8.84,11.78h2.94v2.94H86.81ZM83.86,75h5.89V78H83.86ZM78,86.81h5.89v2.94H78Z" transform="translate(-4.36 -4.36)"/></svg>