<svg id="Layer_1" data-name="Layer 1" xmlns="http://www.w3.org/2000/svg" viewBox="0 0 89.53 78.34"><defs><style>.cls-1{fill:#4269e0;}</style></defs><path class="cls-1" d="M51.87,31.27A1.86,1.86,0,0,1,50.62,29a14.92,14.92,0,0,1,14.3-10.66,1.87,1.87,0,1,1,0,3.73,11.27,11.27,0,0,0-10.73,8A1.85,1.85,0,0,1,51.87,31.27Z" transform="translate(-5.23 -10.83)"/><path class="cls-1" d="M78,66.79h-5.6a1.87,1.87,0,0,1,0-3.73H78a13.06,13.06,0,0,0,0-26.12,1.92,1.92,0,0,1-1.55-.64A1.87,1.87,0,0,1,76,34.81a12.29,12.29,0,0,0,.11-1.6,11.19,11.19,0,0,0-17.81-9,1.85,1.85,0,0,1-2.75-.63A16.79,16.79,0,0,0,24.22,34.71a1.86,1.86,0,0,1-1.83,2.23H22a13.06,13.06,0,0,0,0,26.12h5.6a1.87,1.87,0,0,1,0,3.73H22a16.79,16.79,0,0,1-1.77-33.48A20.52,20.52,0,0,1,57.83,20.08a14.92,14.92,0,0,1,22,13.13v.11A16.79,16.79,0,0,1,78,66.79Z" transform="translate(-5.23 -10.83)"/><path class="cls-1" d="M50,81.71A16.79,16.79,0,1,1,66.79,64.92,16.81,16.81,0,0,1,50,81.71Zm0-29.84A13.06,13.06,0,1,0,63.06,64.92,13.07,13.07,0,0,0,50,51.87Z" transform="translate(-5.23 -10.83)"/><path class="cls-1" d="M50,55.6a1.87,1.87,0,0,1-1.87-1.87V50a1.87,1.87,0,0,1,3.74,0v3.73A1.87,1.87,0,0,1,50,55.6Zm0,26.11a1.87,1.87,0,0,1-1.87-1.87V76.11a1.87,1.87,0,0,1,3.74,0v3.73A1.87,1.87,0,0,1,50,81.71Zm7.91-22.84a1.86,1.86,0,0,1-1.32-3.18l2.64-2.64a1.87,1.87,0,0,1,2.64,2.64l-2.64,2.64a1.85,1.85,0,0,1-1.32.54ZM38.13,76.79a1.86,1.86,0,0,1,0-2.64l2.64-2.63a1.86,1.86,0,0,1,2.64,2.63l-2.64,2.64A1.86,1.86,0,0,1,38.13,76.79Zm26.79-10H61.19a1.87,1.87,0,0,1,0-3.73h3.73a1.87,1.87,0,1,1,0,3.73Zm-26.11,0H35.08a1.87,1.87,0,1,1,0-3.73h3.73a1.87,1.87,0,0,1,0,3.73Zm2-8.46-2.64-2.64a1.87,1.87,0,0,1,2.64-2.64l2.64,2.64a1.87,1.87,0,1,1-2.64,2.64ZM59.23,76.79l-2.64-2.64a1.86,1.86,0,0,1,2.64-2.63l2.64,2.63a1.87,1.87,0,0,1-2.64,2.64ZM50,66.79H46.27a1.87,1.87,0,1,1,0-3.73h1.86V59.33a1.87,1.87,0,0,1,3.74,0v5.59A1.87,1.87,0,0,1,50,66.79Z" transform="translate(-5.23 -10.83)"/><path class="cls-1" d="M50,89.17A24.25,24.25,0,1,1,74.25,64.92,24.28,24.28,0,0,1,50,89.17ZM50,44.4A20.52,20.52,0,1,0,70.52,64.92,20.55,20.55,0,0,0,50,44.4Z" transform="translate(-5.23 -10.83)"/></svg>