<svg xmlns="http://www.w3.org/2000/svg" version="1.1" xmlns:xlink="http://www.w3.org/1999/xlink" xmlns:svgjs="http://svgjs.com/svgjs" width="512" height="512" x="0" y="0" viewBox="0 0 497.857 497.857" style="enable-background:new 0 0 512 512" xml:space="preserve" class=""><g><path d="m495.661 340.428-34.341-34.34a7.5 7.5 0 0 0-10.607 10.606l4.783 4.782-115.287 115.288-41.127-41.127L414.37 280.35l11.753 11.753a7.5 7.5 0 0 0 10.607-10.606l-17.015-17.015c-13.48-13.823-22.338-29.572-34.816-44.35 14.256-19.146-.831-47.178-24.578-46.013.785-16.675-13.464-31-30.193-30.208.784-16.667-13.518-31.017-30.216-30.2 1.295-27.513-33.093-39.888-50.986-20.017l-1.766-1.766c-11.251-11.251-29.559-11.251-40.81 0-5.979 5.979-8.781 13.951-8.405 21.798-16.701-.8-31.007 13.461-30.216 30.203a28.822 28.822 0 0 0-18.931 5.913c-10.196-3.596-21.344-2.292-31.217 3.789-12.172 7.497-19.79 20.538-19.976 34.132l-8.496 65.754-86.912 86.911a7.5 7.5 0 0 0 0 10.606L128.09 476.928c1.464 1.465 3.384 2.197 5.303 2.197s3.839-.732 5.303-2.197l75.987-75.987a7.5 7.5 0 0 0 0-10.606l-12.766-12.766c14.332-14.331 28.707-21.591 47.01-29.86 18.162 8.206 32.805 15.656 47.01 29.86l-12.766 12.766a7.5 7.5 0 0 0 0 10.606l75.987 75.987c1.465 1.464 3.385 2.197 5.304 2.197s3.839-.732 5.304-2.197L495.66 351.035a7.5 7.5 0 0 0 .001-10.607zM361.702 189.085c9.71.012 16.619 10.576 12.674 19.472-6.027-6.15-12.16-12.198-18.249-18.287l5.575-1.185zm-30.207-30.208c9.799.012 16.609 10.541 12.676 19.466-6.448-6.301-13.735-11.987-21.885-15.926 2.632-2.318 5.701-3.498 9.209-3.54zm-203.382 55.63-1.766-1.766c-5.403-5.403-5.403-14.194 0-19.597 2.702-2.701 6.25-4.052 9.798-4.052s7.097 1.351 9.798 4.052l1.765 1.765-9.798 9.798zm88.844-111.973c2.702-2.701 6.25-4.052 9.798-4.052s7.097 1.351 9.798 4.052l1.766 1.766-19.597 19.597-1.766-1.766c-5.402-5.403-5.402-14.194.001-19.597zm-34.262 40.002c0-3.701 1.441-7.181 4.059-9.798 2.702-2.701 6.25-4.052 9.798-4.052s7.097 1.351 9.798 4.052l1.766 1.766-9.798 9.798-9.799 9.798-1.766-1.766a13.766 13.766 0 0 1-4.058-9.798zm-16.347 16.353c3.548 0 7.098 1.351 9.798 4.052l1.766 1.766-19.597 19.597-1.766-1.766c-5.403-5.403-5.403-14.194 0-19.597a13.815 13.815 0 0 1 9.799-4.052zm-40.901 7.513c2.866-1.764 7.843-4.028 13.758-3.44a29.006 29.006 0 0 0-1.667 11.171c-9.635-.462-19.172 4.125-24.814 11.956.776-7.741 5.589-15.293 12.723-19.687zm7.946 294.616L18.107 345.731l13.648-13.648L147.041 447.37zm148.96-114.676a96.328 96.328 0 0 0-16.73-8.268c7.469-5.377 13.778-12.01 20.258-18.489a7.5 7.5 0 0 0-10.607-10.606c-9.097 9.097-17.984 17.901-29.683 23.716-20.497 10.249-37.783 17.771-54.278 34.266l-63.77-63.77a7.5 7.5 0 0 0-10.606 0 7.5 7.5 0 0 0 0 10.606l81.839 81.839-41.126 41.127L42.361 321.477l41.126-41.126 7.426 7.426a7.5 7.5 0 0 0 10.606 0 7.5 7.5 0 0 0 0-10.606l-7.426-7.426 7.429-7.429a7.504 7.504 0 0 0 2.135-4.342l5.719-44.26c2.732 6.818 8.361 11.632 13.419 16.689 2.933 2.934 7.75 2.887 10.621.015L261.303 102.53c12.497-12.497 32.138 7.064 19.6 19.601-1.464 1.464-2.196 3.384-2.196 5.303s.732 3.839 2.196 5.303a7.5 7.5 0 0 0 10.607 0c12.642-12.642 32.234 6.956 19.594 19.594a7.477 7.477 0 0 0-2.196 5.303c0-1.733-59.58-.924-64.399-.924-32.651 0-38.072 48.356-5.806 54.653l37.188 11.014a36.556 36.556 0 0 1 15.435 9.185l30.683 30.682-21.651 21.651a7.5 7.5 0 1 0 10.605 10.606l26.955-26.954a7.497 7.497 0 0 0 .001-10.606l-35.985-35.985a51.605 51.605 0 0 0-21.784-12.961l-37.555-11.123c-13.836-4.095-15.134-25.161 1.915-25.161h53.288c14.475 0 26.856 8.296 36.748 18.189 0 0 32.529 32.662 34.729 35.124 12.82 14.257 21.022 31.249 34.49 44.716l-97.22 97.22c-7.555-7.553-15.047-14.938-24.192-20.618zm82.111 114.676-13.647-13.647 115.286-115.287 13.648 13.648zM248.928 49.066a7.5 7.5 0 0 0 7.5-7.5V26.233a7.5 7.5 0 0 0-15 0v15.333a7.5 7.5 0 0 0 7.5 7.5zM206.635 51.839a7.501 7.501 0 0 0 6.875 4.497 7.5 7.5 0 0 0 6.867-10.507l-6.144-14.048a7.5 7.5 0 1 0-13.743 6.011zM178.872 75.192a7.474 7.474 0 0 0 5.09 1.993 7.501 7.501 0 0 0 5.094-13.007l-11.258-10.41a7.5 7.5 0 1 0-10.184 11.014zM281.345 55.705c.978.428 1.997.63 3.001.63 2.89 0 5.644-1.68 6.876-4.497l6.144-14.048a7.5 7.5 0 0 0-13.744-6.009l-6.144 14.048a7.5 7.5 0 0 0 3.867 9.876zM313.894 77.185a7.474 7.474 0 0 0 5.09-1.993l11.259-10.41a7.5 7.5 0 1 0-10.184-11.014L308.8 64.178a7.5 7.5 0 0 0 5.094 13.007z" fill="#4269e0" data-original="#000000" class=""></path><circle cx="157.648" cy="396.551" r="8.452" transform="rotate(-13.34 157.086 396.228)" fill="#4269e0" data-original="#000000" class=""></circle></g></svg>